<?xml version="1.0" encoding="UTF-8" standalone="no"?>
<!-- Generator: Blender, SVG Export for Grease Pencil - v2.0 -->

<svg
   version="1.0"
   x="0px"
   y="0px"
   width="1920.000000px"
   height="1080.000000px"
   viewBox="0 0 1920.000000 1080.000000"
   id="svg36"
   sodipodi:docname="mouse-5.svg"
   inkscape:version="1.4.2 (ebf0e940d0, 2025-05-08)"
   xmlns:inkscape="http://www.inkscape.org/namespaces/inkscape"
   xmlns:sodipodi="http://sodipodi.sourceforge.net/DTD/sodipodi-0.dtd"
   xmlns:xlink="http://www.w3.org/1999/xlink"
   xmlns="http://www.w3.org/2000/svg"
   xmlns:svg="http://www.w3.org/2000/svg">
  <defs
     id="defs36">
    <linearGradient
       id="linearGradient62"
       inkscape:collect="always">
      <stop
         style="stop-color:#e60606;stop-opacity:0.7647059;"
         offset="0"
         id="stop62" />
      <stop
         style="stop-color:#ff0707;stop-opacity:0.02352941;"
         offset="1"
         id="stop63" />
    </linearGradient>
    <inkscape:path-effect
       effect="fillet_chamfer"
       id="path-effect38"
       is_visible="true"
       lpeversion="1"
       nodesatellites_param="F,0,0,1,0,0,0,1 @ F,0,0,1,0,0,0,1 @ F,0,0,1,0,0,0,1 @ F,0,0,1,0,0,0,1 @ F,0,0,1,0,0,0,1 @ F,0,0,1,0,0,0,1 @ F,0,0,1,0,0,0,1 @ F,0,0,1,0,0,0,1 @ F,0,0,1,0,0,0,1 @ F,0,0,1,0,0,0,1 @ F,0,0,1,0,0,0,1 @ F,0,0,1,0,0,0,1 @ F,0,0,1,0,0,0,1 @ F,0,0,1,0,0,0,1 @ F,0,0,1,0,0,0,1 @ F,0,0,1,0,0,0,1 @ F,0,0,1,0,0,0,1 @ F,0,0,1,0,0,0,1 @ F,0,0,1,0,0,0,1 @ F,0,0,1,0,0,0,1 @ F,0,0,1,0,0,0,1 @ F,0,0,1,0,0,0,1 @ F,0,0,1,0,0,0,1 @ F,0,0,1,0,0,0,1 @ F,0,0,1,0,0,0,1 @ F,0,0,1,0,0,0,1 @ F,0,0,1,0,0,0,1 @ F,0,0,1,0,0,0,1 @ F,0,0,1,0,0,0,1 @ F,0,0,1,0,0,0,1 @ F,0,0,1,0,0,0,1 @ F,0,0,1,0,0,0,1 @ F,0,0,1,0,0,0,1 @ F,0,0,1,0,0,0,1 @ F,0,0,1,0,0,0,1 @ F,0,0,1,0,0,0,1 @ F,0,0,1,0,0,0,1 @ F,0,0,1,0,0,0,1 @ F,0,0,1,0,0,0,1 @ F,0,0,1,0,0,0,1 @ F,0,0,1,0,0,0,1 @ F,0,0,1,0,0,0,1 @ F,0,0,1,0,0,0,1 @ F,0,0,1,0,0,0,1 @ F,0,0,1,0,0,0,1 @ F,0,0,1,0,0,0,1 @ F,0,0,1,0,0,0,1 @ F,0,0,1,0,0,0,1 @ F,0,0,1,0,0,0,1 @ F,0,0,1,0,0,0,1 @ F,0,0,1,0,0,0,1 @ F,0,0,1,0,0,0,1 @ F,0,0,1,0,0,0,1 @ F,0,0,1,0,0,0,1 @ F,0,0,1,0,0,0,1 @ F,0,0,1,0,0,0,1 @ F,0,0,1,0,0,0,1 @ F,0,0,1,0,0,0,1 @ F,0,0,1,0,0,0,1 @ F,0,0,1,0,0,0,1 @ F,0,0,1,0,0,0,1 @ F,0,0,1,0,0,0,1 @ F,0,0,1,0,0,0,1 @ F,0,0,1,0,0,0,1 @ F,0,0,1,0,0,0,1 @ F,0,0,1,0,0,0,1 @ F,0,0,1,0,0,0,1 @ F,0,0,1,0,0,0,1 @ F,0,0,1,0,0,0,1 @ F,0,0,1,0,0,0,1 @ F,0,0,1,0,0,0,1 @ F,0,0,1,0,0,0,1 @ F,0,0,1,0,0,0,1 @ F,0,0,1,0,0,0,1 @ F,0,0,1,0,0,0,1 @ F,0,0,1,0,0,0,1 @ F,0,0,1,0,0,0,1 @ F,0,0,1,0,0,0,1 @ F,0,0,1,0,0,0,1 @ F,0,0,1,0,0,0,1"
       radius="0"
       unit="px"
       method="auto"
       mode="F"
       chamfer_steps="1"
       flexible="false"
       use_knot_distance="true"
       apply_no_radius="true"
       apply_with_radius="true"
       only_selected="false"
       hide_knots="false" />
    <linearGradient
       inkscape:collect="always"
       xlink:href="#linearGradient38"
       id="linearGradient39"
       x1="946.59113"
       y1="339.70349"
       x2="976.68726"
       y2="770.09772"
       gradientUnits="userSpaceOnUse"
       gradientTransform="translate(20.139009,-22.007002)" />
    <linearGradient
       id="linearGradient38"
       inkscape:collect="always">
      <stop
         style="stop-color:#be71e5;stop-opacity:1;"
         offset="0"
         id="stop38" />
      <stop
         style="stop-color:#943ac9;stop-opacity:1;"
         offset="0.34953135"
         id="stop40" />
      <stop
         style="stop-color:#68259b;stop-opacity:1;"
         offset="1"
         id="stop39" />
    </linearGradient>
    <linearGradient
       inkscape:collect="always"
       xlink:href="#linearGradient40"
       id="linearGradient42"
       x1="698.33246"
       y1="513.97693"
       x2="1206.8165"
       y2="558.4635"
       gradientUnits="userSpaceOnUse"
       gradientTransform="translate(20.139009,-22.007002)" />
    <linearGradient
       id="linearGradient40"
       inkscape:collect="always">
      <stop
         style="stop-color:#9100e9;stop-opacity:1;"
         offset="0"
         id="stop41" />
      <stop
         style="stop-color:#000000;stop-opacity:1;"
         offset="0.57723141"
         id="stop43" />
      <stop
         style="stop-color:#9100e9;stop-opacity:1;"
         offset="1"
         id="stop42" />
    </linearGradient>
    <linearGradient
       inkscape:collect="always"
       xlink:href="#linearGradient40"
       id="linearGradient36"
       gradientUnits="userSpaceOnUse"
       x1="698.33246"
       y1="513.97693"
       x2="1206.8165"
       y2="558.4635"
       gradientTransform="translate(20.139009,-22.007002)" />
    <linearGradient
       inkscape:collect="always"
       xlink:href="#linearGradient40"
       id="linearGradient37"
       gradientUnits="userSpaceOnUse"
       x1="698.33246"
       y1="513.97693"
       x2="1206.8165"
       y2="558.4635"
       gradientTransform="translate(20.139009,-22.007002)" />
    <linearGradient
       inkscape:collect="always"
       xlink:href="#linearGradient38"
       id="linearGradient41"
       gradientUnits="userSpaceOnUse"
       x1="946.59113"
       y1="339.70349"
       x2="976.68726"
       y2="770.09772"
       gradientTransform="translate(20.139009,-22.007002)" />
    <linearGradient
       inkscape:collect="always"
       xlink:href="#linearGradient62"
       id="linearGradient63"
       x1="963.54303"
       y1="124.03751"
       x2="963.54303"
       y2="505.05057"
       gradientUnits="userSpaceOnUse"
       gradientTransform="translate(20.139009,-22.007002)" />
    <linearGradient
       id="linearGradient12"
       inkscape:collect="always">
      <stop
         style="stop-color:#bb6ee3;stop-opacity:1;"
         offset="0"
         id="stop10" />
      <stop
         style="stop-color:#b67cd6;stop-opacity:0.73333335;"
         offset="0.22635691"
         id="stop13" />
      <stop
         style="stop-color:#a970c9;stop-opacity:0.48235294;"
         offset="0.52921891"
         id="stop14" />
      <stop
         style="stop-color:#8f4cba;stop-opacity:0.43619502;"
         offset="0.74187714"
         id="stop16" />
      <stop
         style="stop-color:#6b259f;stop-opacity:0.36828047;"
         offset="1"
         id="stop12" />
    </linearGradient>
    <radialGradient
       inkscape:collect="always"
       xlink:href="#linearGradient12"
       id="radialGradient2"
       cx="961.63922"
       cy="543.49902"
       fx="961.63922"
       fy="543.49902"
       r="216.22295"
       gradientTransform="matrix(1.3307347,-0.01503339,0.02147083,1.9005676,-309.57782,-507.27703)"
       gradientUnits="userSpaceOnUse" />
    <linearGradient
       inkscape:collect="always"
       xlink:href="#linearGradient62"
       id="linearGradient1"
       gradientUnits="userSpaceOnUse"
       x1="963.54303"
       y1="124.03751"
       x2="963.54303"
       y2="505.05057"
       gradientTransform="translate(20.139009,-22.007002)" />
    <linearGradient
       inkscape:collect="always"
       xlink:href="#linearGradient62"
       id="linearGradient2"
       gradientUnits="userSpaceOnUse"
       x1="963.54303"
       y1="124.03751"
       x2="963.54303"
       y2="505.05057"
       gradientTransform="translate(20.139009,-22.007002)" />
  </defs>
  <sodipodi:namedview
     id="namedview36"
     pagecolor="#505050"
     bordercolor="#ffffff"
     borderopacity="1"
     inkscape:showpageshadow="0"
     inkscape:pageopacity="0"
     inkscape:pagecheckerboard="1"
     inkscape:deskcolor="#505050"
     inkscape:zoom="0.92291667"
     inkscape:cx="902.57336"
     inkscape:cy="528.2167"
     inkscape:window-width="1920"
     inkscape:window-height="1011"
     inkscape:window-x="0"
     inkscape:window-y="32"
     inkscape:window-maximized="1"
     inkscape:current-layer="svg36" />
  <clipPath
     id="clip-path1">
    <rect
       x="0"
       y="0"
       width="1920"
       height="1080"
       fill="none"
       id="rect1" />
  </clipPath>
  <g
     id="Fills.006"
     inkscape:label="cor"
     style="fill:url(#linearGradient42);stroke:#b77fff;stroke-opacity:0.992157"
     transform="translate(4.1150423e-5,8.1783709e-5)">
    <polygon
       points="701.43842,790.64075 703.69116,803.1145 706.72443,815.14471 710.47003,826.57642 714.76386,837.40607 719.81421,847.05627 725.20569,855.98395 730.89551,864.07202 736.745,871.35486 742.61499,877.86682 748.3667,883.64227 753.86121,888.71539 759.04901,893.22632 763.55078,896.88306 767.63129,899.98865 771.22607,902.41455 774.35974,904.13745 777.05695,905.1344 779.34198,905.3822 781.23987,904.85767 782.83124,903.67426 783.97632,901.41284 784.8913,898.52679 785.57178,894.93732 786.06952,890.7019 786.4364,885.87817 786.72418,880.52344 786.98462,874.6955 787.25702,868.51135 787.65155,861.81152 788.28381,854.6427 789.34082,846.77472 790.99652,838.03711 793.42523,828.25952 796.80102,817.2713 801.2981,804.90222 806.84546,791.26862 814.25971,775.40198 822.51721,758.30664 831.48181,739.90137 840.7721,720.39227 850.0069,699.98535 858.80499,678.88678 866.78491,657.30237 873.8291,635.45056 878.85553,613.47626 882.72125,591.50134 885.31921,569.57434 886.80597,547.7561 887.33783,526.10736 887.07123,504.68909 886.16248,483.56201 884.76807,462.78693 883.02576,442.41785 880.9986,422.48169 878.7309,402.99835 876.26715,383.98785 873.65173,365.47021 870.92895,347.46533 868.14331,329.99335 865.33478,312.9787 862.5473,296.73767 859.74524,281.05389 856.89691,266.10284 853.96631,251.96423 850.91711,238.7182 847.71344,226.44446 844.31927,215.22296 840.74219,204.93176 836.82221,196.24194 832.69269,188.55402 828.31879,182.06177 823.70996,176.75708 818.87524,172.63171 813.8241,169.67749 808.56555,167.88611 803.14044,167.05835 797.46521,167.74438 791.65149,169.28699 785.68683,171.77887 779.59021,175.12122 773.38049,179.21527 767.07666,183.96258 760.69769,189.26428 754.26868,194.96222 747.80042,201.17432 741.38238,207.81323 735.08978,215.06769 729.00384,223.06702 723.20612,231.94067 717.77765,241.81769 712.80011,252.82733 708.25232,264.86719 704.52576,278.69623 701.41125,293.42047 699.11176,309.00738 697.72815,325.19263 697.36121,341.71191 698.11176,358.30102 700.08063,374.69568 703.13196,390.75189 707.99731,405.91773 713.6723,420.65717 720.01959,435.02637 726.66553,449.2016 733.23633,463.35919 739.35815,477.67566 744.65735,492.32715 748.76013,507.49017 751.37817,523.27918 752.56464,539.56073 752.45831,556.13971 751.19806,572.82086 748.92267,589.40894 745.77063,605.70862 741.88098,621.52478 737.46893,636.80774 732.45294,650.98297 727.25116,664.58044 721.98438,677.6051 716.85028,690.2074 712.04651,702.53821 707.77075,714.74799 704.22058,726.9873 701.4071,739.35181 700.04376,752.10632 699.54651,764.98169 700.03412,777.87811 "
       fill="#FEFEFE"
       stroke="none"
       fill-opacity="1"
       id="polygon30"
       style="fill:url(#linearGradient36);fill-opacity:1;stroke:#b77fff;stroke-opacity:0.992157" />
    <polygon
       points="1199.0516,796.31103 1196.6521,807.11249 1194.0189,817.43903 1191.1721,827.23267 1188.1608,836.54352 1184.9204,845 1181.5668,852.92212 1178.1018,860.20801 1174.5565,866.86407 1170.9619,872.89673 1167.3491,878.31226 1163.749,883.11719 1160.1801,887.41724 1156.7122,890.91663 1153.3474,893.90344 1150.1394,896.26373 1147.1288,897.9834 1144.3569,899.0481 1141.8646,899.44373 1139.6929,899.15588 1137.8157,898.28912 1136.4581,896.48083 1135.3763,894.11084 1134.5774,891.09204 1134.0011,887.45593 1133.5876,883.23389 1133.2772,878.45746 1133.0098,873.15808 1132.7383,867.44397 1132.354,861.0846 1131.7847,854.18005 1130.8961,846.49225 1129.5673,837.85938 1127.6766,828.11987 1125.1035,817.112 1121.7263,804.67395 1117.5986,790.9364 1112.1418,774.9234 1106.0885,757.66315 1099.5399,739.07727 1092.7714,719.37964 1086.0585,698.7843 1079.6763,677.505 1073.9005,655.75586 1068.814,633.75769 1065.2025,611.67786 1062.4246,589.62384 1060.5421,567.64935 1059.4241,545.81525 1058.9393,524.18237 1058.9574,502.81158 1059.347,481.76355 1059.959,461.02515 1060.7396,440.8714 1061.6151,421.10059 1062.6069,401.7995 1063.7185,382.98053 1064.953,364.65649 1066.3138,346.83972 1067.8044,329.54297 1069.4054,312.68787 1071.1881,296.57123 1073.0894,280.99127 1075.1361,266.12122 1077.3333,252.04346 1079.6853,238.84027 1082.1973,226.59405 1084.8735,215.38733 1087.6899,205.10187 1090.7406,196.40698 1093.9563,188.70886 1097.386,182.20166 1101.0498,176.87842 1104.9683,172.73254 1109.1614,169.75726 1113.6493,167.94586 1118.3964,167.09998 1123.5726,167.77667 1128.9426,169.33691 1134.4766,171.89771 1140.0886,175.38354 1145.6934,179.71973 1151.205,184.83087 1156.5378,190.64227 1161.6647,196.98688 1166.3385,204.08203 1170.7173,211.6637 1174.739,219.85193 1178.4004,228.67511 1181.6978,238.16132 1184.6278,248.33929 1187.187,259.23694 1189.4349,270.75336 1191.1846,283.28833 1192.6492,296.39844 1193.7953,310.14117 1194.6528,324.44428 1195.2512,339.23615 1195.6202,354.44458 1195.7898,369.99768 1195.8126,385.78992 1195.653,401.85638 1195.434,418.05768 1195.1895,434.39484 1194.9774,450.83539 1194.8547,467.34692 1194.8793,483.89703 1195.1084,500.45331 1195.5464,516.9931 1196.3898,533.45251 1197.4335,549.81867 1198.6643,566.03748 1200.0161,582.06457 1201.4229,597.85553 1202.8182,613.36609 1204.1364,628.552 1205.3456,643.43762 1206.2836,657.7843 1207.0312,671.81494 1207.5376,685.48926 1207.7875,698.83582 1207.7649,711.88318 1207.4543,724.65979 1206.8403,737.19434 1205.9629,749.54602 1204.6448,761.63666 1203.0681,773.51514 1201.1969,785.09253 "
       fill="#FEFEFE"
       stroke="none"
       fill-opacity="1"
       id="polygon4"
       style="fill:url(#linearGradient37);fill-opacity:1;stroke:#b77fff;stroke-opacity:0.992157" />
  </g>
  <g
     id="Fills.008"
     style="display:inline;fill:url(#linearGradient39);fill-opacity:1;stroke:#b669fc;stroke-opacity:1"
     inkscape:label="body"
     transform="translate(4.1150423e-5,8.1783709e-5)">
    <polygon
       points="812.23999,635.2157 808.03882,655.16077 803.38806,674.5321 798.3169,693.12195 792.97394,710.81409 787.50836,727.49219 782.06867,743.03967 776.80377,757.34058 771.78375,770.52502 767.36694,781.78381 763.33252,791.974 759.74811,801.01312 756.60248,809.06543 753.8844,816.29517 751.58282,822.86658 749.68634,828.94354 748.12,834.71808 747.06433,840.24414 746.31915,845.63232 745.93939,850.85541 745.91638,855.91388 746.24164,860.8081 746.90637,865.53845 747.90204,870.10535 749.1676,874.53632 750.85712,878.7594 752.83344,882.90063 755.17438,886.98669 757.90558,891.07098 761.05243,895.2074 764.64056,899.44958 768.69537,903.85101 773.15619,908.42102 778.29993,913.32751 783.85504,918.3949 789.88818,923.60608 796.37921,928.89984 803.30829,934.21478 810.65527,939.48956 818.40045,944.66272 826.52374,949.67285 834.99323,954.46576 843.72968,959.01538 852.64185,963.30286 861.63831,967.30926 870.62787,971.01556 879.51935,974.40289 888.22137,977.45245 896.70477,980.20776 904.71313,982.46918 912.44605,984.44049 919.87598,986.08227 927.03723,987.41742 933.96448,988.46899 940.69196,989.26007 947.25421,989.81372 953.70178,990.18475 960.02637,990.29382 966.33728,990.22577 972.68543,989.93121 979.1377,989.39264 985.76062,988.59241 992.62091,987.51312 999.78558,986.13715 1007.2481,984.5022 1015.2698,982.42737 1023.5751,980.07422 1032.1561,977.38501 1040.9318,974.35791 1049.8207,970.99085 1058.7418,967.28192 1067.6143,963.22888 1076.3921,958.88763 1084.8964,954.09051 1093.1909,949.05005 1101.2065,943.75513 1108.9089,938.25244 1116.2644,932.58893 1123.2388,926.81134 1129.798,920.96661 1135.9884,915.09705 1141.5428,909.26013 1146.7106,903.47675 1151.4265,897.78272 1155.7067,892.2096 1159.5666,886.78876 1163.0223,881.55176 1166.0896,876.53003 1168.8435,871.70862 1171.1183,867.2456 1173.0907,862.97022 1174.6967,858.8844 1175.9315,854.94397 1176.7905,851.10461 1177.2689,847.3219 1177.3618,843.5517 1177.1305,839.76221 1176.3794,835.849 1175.3347,831.69513 1173.9666,827.11066 1172.3107,821.91833 1170.4023,815.94092 1168.2775,809.00128 1165.9717,800.92212 1163.5389,791.77527 1160.9702,780.68603 1158.4062,768.47253 1155.9254,755.00623 1153.6237,740.40765 1151.5975,724.79742 1149.9434,708.29608 1148.7572,691.02417 1148.0254,673.19055 1148.1429,654.62378 1148.7183,635.57318 1149.7683,615.90778 1151.2,595.58478 1152.9205,574.56152 1154.8368,552.79529 1156.8561,530.24341 1158.885,506.86304 1160.8411,482.67261 1162.6819,457.93426 1164.3757,432.97119 1165.8907,408.10657 1167.1947,383.6637 1168.256,359.9657 1169.0425,337.33582 1169.5789,315.8114 1169.6591,296.50537 1169.3987,278.54571 1168.6827,262.13556 1167.4524,247.19251 1165.6495,233.63428 1163.2155,221.37817 1160.0914,210.34192 1156.3539,200.26709 1151.5601,191.59637 1146.1531,183.70734 1140.0576,176.67841 1133.3328,170.41235 1126.0378,164.81189 1118.2321,159.77942 1109.9742,155.21777 1101.3239,151.02954 1092.3484,147.13354 1083.1495,143.51373 1073.8372,140.16992 1064.5214,137.10211 1055.312,134.31036 1046.3193,131.79462 1037.6532,129.55481 1029.3324,127.54511 1021.7222,125.8996 1014.5679,124.46252 1007.9608,123.25812 1001.9011,122.26447 996.38934,121.46014 991.42572,120.82349 987.01062,120.33258 983.05273,119.94891 979.8186,119.70599 976.99231,119.55206 974.61542,119.50708 972.63818,119.57471 971.01074,119.75806 969.68323,120.06073 968.60602,120.48566 967.70398,121.01502 967.0083,121.72241 966.42175,122.57617 965.95349,123.6366 965.58704,124.94244 965.30627,126.53265 965.09522,128.4455 964.93726,130.72034 964.81305,133.32257 964.71985,136.48853 964.64581,139.92792 964.59637,143.62109 964.57324,147.47565 964.57837,151.39856 964.61352,155.29742 964.68048,159.07941 964.77515,162.70221 964.91711,165.93903 965.08966,168.9328 965.30005,171.64246 965.54932,174.07672 965.83862,176.24475 966.16901,178.15546 966.54169,179.81775 966.95038,181.2793 967.41809,182.43634 967.92163,183.42651 968.46728,184.23675 969.05371,184.89197 969.67957,185.41748 970.34351,185.83844 971.04462,186.17987 971.77551,186.47192 972.5531,186.72217 973.36249,186.95709 974.21258,187.1806 975.10651,187.40143 976.04749,187.62842 977.03863,187.8703 978.08307,188.13623 979.17407,188.42792 980.34228,188.77423 981.55017,189.15961 982.79767,189.59521 984.07483,190.08563 985.37146,190.63501 986.67767,191.24799 987.98346,191.92877 989.28204,192.66913 990.55389,193.52106 991.80133,194.49738 993.01379,195.67145 994.18408,197.10358 995.30499,198.85461 996.36914,200.9848 997.36938,203.55481 998.29852,206.62518 999.15045,210.27783 999.92401,214.68091 1000.6193,220.02399 1001.2368,226.49664 1001.7762,234.28845 1002.2378,243.58893 1002.6216,254.58783 1002.9407,267.1283 1003.1569,282.33099 1002.9869,301.30438 1002.1164,313.91278 1000.5376,327.37988 999.776,333.52344 998.91602,338.29474 997.99548,342.32245 997.00305,345.55304 995.94019,348.1059 994.80792,350.10028 993.60742,351.65546 992.34015,352.89062 991.01776,353.93866 989.60931,354.85901 988.14838,355.71564 986.62543,356.49921 985.04181,357.21399 983.39856,357.86389 981.69727,358.45343 979.9389,358.98663 978.13397,359.47559 976.25732,359.89984 974.341,360.28326 972.38196,360.61694 970.38586,360.90015 968.3587,361.1319 966.30603,361.31134 964.23389,361.43774 962.14935,361.51923 960.05426,361.52801 957.95966,361.49249 955.87079,361.40503 953.79486,361.26685 951.73859,361.07959 949.70904,360.84448 947.7132,360.56311 945.75769,360.23669 943.84906,359.86603 941.98956,359.44842 940.18103,358.98041 938.42517,358.45825 936.72375,357.87897 935.07855,357.23871 933.49139,356.53406 931.95355,355.77356 930.49756,354.90839 929.09467,353.92255 927.75665,352.7431 926.48535,351.30853 925.28247,349.55798 924.14984,347.42993 923.08923,344.86316 922.08972,341.89014 921.19031,338.14758 920.35181,333.7478 919.5849,328.4079 917.98895,315.33752 917.07703,302.19781 916.84479,282.42981 917.07629,268.82172 917.38232,256.65533 917.76404,245.86291 918.22272,236.37671 918.75971,228.12878 919.37598,221.05176 920.07294,215.0777 920.85083,210.13043 921.70575,206.09937 922.63293,202.86578 923.62762,200.31079 924.68488,198.31525 925.79999,196.76068 926.96808,195.52783 928.17712,194.48389 929.44281,193.57135 930.73279,192.72546 932.04254,191.95666 933.36035,191.26166 934.67426,190.63709 935.97253,190.07935 937.24341,189.58508 938.48352,189.14142 939.65778,188.77246 940.79102,188.44202 941.87598,188.15045 942.91394,187.88922 943.90649,187.64966 944.85498,187.42285 945.76068,187.19995 946.63177,186.97473 947.44928,186.73022 948.23334,186.45862 948.97705,186.14203 949.68012,185.76453 950.34253,185.31036 950.96399,184.76379 951.54419,184.10889 952.08991,183.35327 952.58032,182.40826 953.03619,181.31293 953.45087,180.01001 953.82452,178.4657 954.15729,176.6463 954.44946,174.51764 954.70111,172.04602 954.91913,169.26617 955.08404,165.95996 955.21783,162.4054 955.31616,158.62762 955.38123,154.72046 955.41528,150.77765 955.42078,146.89307 955.3999,143.16022 955.35858,139.61658 955.2865,136.50745 955.18829,133.66705 955.05231,131.13745 954.8706,128.90454 954.63501,126.95386 954.33771,125.27136 953.97064,123.84265 953.5401,122.61597 952.98901,121.6889 952.32105,120.92975 951.47638,120.35651 950.40967,119.94922 949.0755,119.68835 947.42828,119.55402 945.42267,119.52667 943.0882,119.57507 940.15832,119.72034 936.83008,119.94415 933.0044,120.28015 928.65747,120.75067 923.7652,121.37817 918.30359,122.185 912.24853,123.19379 905.68304,124.3855 898.28137,125.90289 890.43573,127.62976 882.12964,129.61157 873.45367,131.85217 864.49835,134.35577 855.35425,137.12628 846.11188,140.16803 836.86157,143.48486 827.69446,147.08838 818.70251,151.01874 809.97852,155.32361 801.61493,160.0509 793.70422,165.24805 786.33911,170.96265 779.61194,177.24249 773.47833,184.02521 768.44183,191.7077 764.18158,200.10431 760.92493,209.48822 758.76202,220.02301 757.78314,231.87231 758.07831,245.19946 759.73798,260.16797 762.59479,276.61316 767.43555,295.60657 773.19983,315.94611 779.78131,337.66565 786.81604,360.47107 793.94043,384.06836 800.79034,408.16333 807.00226,432.46173 812.21234,456.66956 816.1308,480.53833 818.76453,504.00183 820.19434,527.03961 820.5014,549.6311 819.7666,571.75586 818.0708,593.39331 815.49506,614.52295 "
       fill="#fefefe"
       stroke="none"
       fill-opacity="1"
       id="polygon36"
       style="fill:url(#linearGradient41);fill-opacity:1;stroke:#b669fc;stroke-opacity:1" />
    <polygon
       points="782.06867,743.03967 776.80377,757.34058 771.78375,770.52502 767.36694,781.78381 763.33252,791.974 759.74811,801.01312 756.60248,809.06543 753.8844,816.29517 751.58282,822.86658 749.68634,828.94354 748.12,834.71808 747.06433,840.24414 746.31915,845.63232 745.93939,850.85541 745.91638,855.91388 746.24164,860.8081 746.90637,865.53845 747.90204,870.10535 749.1676,874.53632 750.85712,878.7594 752.83344,882.90063 755.17438,886.98669 757.90558,891.07098 761.05243,895.2074 764.64056,899.44958 768.69537,903.85101 773.15619,908.42102 778.29993,913.32751 783.85504,918.3949 789.88818,923.60608 796.37921,928.89984 803.30829,934.21478 810.65527,939.48956 818.40045,944.66272 826.52374,949.67285 834.99323,954.46576 843.72968,959.01538 852.64185,963.30286 861.63831,967.30926 870.62787,971.01556 879.51935,974.40289 888.22137,977.45245 896.70477,980.20776 904.71313,982.46918 912.44605,984.44049 919.87598,986.08227 927.03723,987.41742 933.96448,988.46899 940.69196,989.26007 947.25421,989.81372 953.70178,990.18475 960.02637,990.29382 966.33728,990.22577 972.68543,989.93121 979.1377,989.39264 985.76062,988.59241 992.62091,987.51312 999.78558,986.13715 1007.2481,984.5022 1015.2698,982.42737 1023.5751,980.07422 1032.1561,977.38501 1040.9318,974.35791 1049.8207,970.99085 1058.7418,967.28192 1067.6143,963.22888 1076.3921,958.88763 1084.8964,954.09051 1093.1909,949.05005 1101.2065,943.75513 1108.9089,938.25244 1116.2644,932.58893 1123.2388,926.81134 1129.798,920.96661 1135.9884,915.09705 1141.5428,909.26013 1146.7106,903.47675 1151.4265,897.78272 1155.7067,892.2096 1159.5666,886.78876 1163.0223,881.55176 1166.0896,876.53003 1168.8435,871.70862 1171.1183,867.2456 1173.0907,862.97022 1174.6967,858.8844 1175.9315,854.94397 1176.7905,851.10461 1177.2689,847.3219 1177.3618,843.5517 1177.1305,839.76221 1176.3794,835.849 1175.3347,831.69513 1173.9666,827.11066 1172.3107,821.91833 1170.4023,815.94092 1168.2775,809.00128 1165.9717,800.92212 1163.5389,791.77527 1160.9702,780.68603 1158.4062,768.47253 1155.9254,755.00623 1153.6237,740.40765 1151.5975,724.79742 1149.9434,708.29608 1148.7572,691.02417 1148.0254,673.19055 1148.1429,654.62378 1148.7183,635.57318 1149.7683,615.90778 1151.2,595.58478 1152.9205,574.56152 1154.8368,552.79529 1156.8561,530.24341 1158.885,506.86304 1160.8411,482.67261 1162.6819,457.93426 1164.3757,432.97119 1165.8907,408.10657 1167.1947,383.6637 1168.256,359.9657 1169.0425,337.33582 1169.5789,315.8114 1169.6591,296.50537 1169.3987,278.54571 1168.6827,262.13556 1167.4524,247.19251 1165.6495,233.63428 1163.2155,221.37817 1160.0914,210.34192 1156.3539,200.26709 1151.5601,191.59637 1146.1531,183.70734 1140.0576,176.67841 1133.3328,170.41235 1126.0378,164.81189 1118.2321,159.77942 1109.9742,155.21777 1101.3239,151.02954 1092.3484,147.13354 1083.1495,143.51373 1073.8372,140.16992 1064.5214,137.10211 1055.312,134.31036 1046.3193,131.79462 1037.6532,129.55481 1029.3324,127.54511 1021.7222,125.8996 1014.5679,124.46252 1007.9608,123.25812 1001.9011,122.26447 996.38934,121.46014 991.42572,120.82349 987.01062,120.33258 983.05273,119.94891 979.8186,119.70599 976.99231,119.55206 974.61542,119.50708 972.63818,119.57471 971.01074,119.75806 969.68323,120.06073 968.60602,120.48566 967.70398,121.01502 967.0083,121.72241 966.42175,122.57617 965.95349,123.6366 965.58704,124.94244 965.30627,126.53265 965.09522,128.4455 964.93726,130.72034 964.81305,133.32257 964.71985,136.48853 964.64581,139.92792 964.59637,143.62109 964.57324,147.47565 964.57837,151.39856 964.61352,155.29742 964.68048,159.07941 964.77515,162.70221 964.91711,165.93903 965.08966,168.9328 965.30005,171.64246 965.54932,174.07672 965.83862,176.24475 966.16901,178.15546 966.54169,179.81775 966.95038,181.2793 967.41809,182.43634 967.92163,183.42651 968.46728,184.23675 969.05371,184.89197 969.67957,185.41748 970.34351,185.83844 971.04462,186.17987 971.77551,186.47192 972.5531,186.72217 973.36249,186.95709 974.21258,187.1806 975.10651,187.40143 976.04749,187.62842 977.03863,187.8703 978.08307,188.13623 979.17407,188.42792 980.34228,188.77423 981.55017,189.15961 982.79767,189.59521 984.07483,190.08563 985.37146,190.63501 986.67767,191.24799 987.98346,191.92877 989.28204,192.66913 990.55389,193.52106 991.80133,194.49738 993.01379,195.67145 994.18408,197.10358 995.30499,198.85461 996.36914,200.9848 997.36938,203.55481 998.29852,206.62518 999.15045,210.27783 999.92401,214.68091 1000.6193,220.02399 1001.2368,226.49664 1001.7762,234.28845 1002.2378,243.58893 1002.6216,254.58783 1002.9407,267.1283 1003.1569,282.33099 1002.9869,301.30438 1002.1164,313.91278 1000.5376,327.37988 999.776,333.52344 998.91602,338.29474 997.99548,342.32245 997.00305,345.55304 995.94019,348.1059 994.80792,350.10028 993.60742,351.65546 992.34015,352.89062 991.01776,353.93866 989.60931,354.85901 988.14838,355.71564 986.62543,356.49921 985.04181,357.21399 983.39856,357.86389 981.69727,358.45343 979.9389,358.98663 978.13397,359.47559 976.25732,359.89984 974.341,360.28326 972.38196,360.61694 970.38586,360.90015 968.3587,361.1319 966.30603,361.31134 964.23389,361.43774 962.14935,361.51923 960.05426,361.52801 957.95966,361.49249 955.87079,361.40503 953.79486,361.26685 951.73859,361.07959 949.70904,360.84448 947.7132,360.56311 945.75769,360.23669 943.84906,359.86603 941.98956,359.44842 940.18103,358.98041 938.42517,358.45825 936.72375,357.87897 935.07855,357.23871 933.49139,356.53406 931.95355,355.77356 930.49756,354.90839 929.09467,353.92255 927.75665,352.7431 926.48535,351.30853 925.28247,349.55798 924.14984,347.42993 923.08923,344.86316 922.08972,341.89014 921.19031,338.14758 920.35181,333.7478 919.5849,328.4079 917.98895,315.33752 917.07703,302.19781 916.84479,282.42981 917.07629,268.82172 917.38232,256.65533 917.76404,245.86291 918.22272,236.37671 918.75971,228.12878 919.37598,221.05176 920.07294,215.0777 920.85083,210.13043 921.70575,206.09937 922.63293,202.86578 923.62762,200.31079 924.68488,198.31525 925.79999,196.76068 926.96808,195.52783 928.17712,194.48389 929.44281,193.57135 930.73279,192.72546 932.04254,191.95666 933.36035,191.26166 934.67426,190.63709 935.97253,190.07935 937.24341,189.58508 938.48352,189.14142 939.65778,188.77246 940.79102,188.44202 941.87598,188.15045 942.91394,187.88922 943.90649,187.64966 944.85498,187.42285 945.76068,187.19995 946.63177,186.97473 947.44928,186.73022 948.23334,186.45862 948.97705,186.14203 949.68012,185.76453 950.34253,185.31036 950.96399,184.76379 951.54419,184.10889 952.08991,183.35327 952.58032,182.40826 953.03619,181.31293 953.45087,180.01001 953.82452,178.4657 954.15729,176.6463 954.44946,174.51764 954.70111,172.04602 954.91913,169.26617 955.08404,165.95996 955.21783,162.4054 955.31616,158.62762 955.38123,154.72046 955.41528,150.77765 955.42078,146.89307 955.3999,143.16022 955.35858,139.61658 955.2865,136.50745 955.18829,133.66705 955.05231,131.13745 954.8706,128.90454 954.63501,126.95386 954.33771,125.27136 953.97064,123.84265 953.5401,122.61597 952.98901,121.6889 952.32105,120.92975 951.47638,120.35651 950.40967,119.94922 949.0755,119.68835 947.42828,119.55402 945.42267,119.52667 943.0882,119.57507 940.15832,119.72034 936.83008,119.94415 933.0044,120.28015 928.65747,120.75067 923.7652,121.37817 918.30359,122.185 912.24853,123.19379 905.68304,124.3855 898.28137,125.90289 890.43573,127.62976 882.12964,129.61157 873.45367,131.85217 864.49835,134.35577 855.35425,137.12628 846.11188,140.16803 836.86157,143.48486 827.69446,147.08838 818.70251,151.01874 809.97852,155.32361 801.61493,160.0509 793.70422,165.24805 786.33911,170.96265 779.61194,177.24249 773.47833,184.02521 768.44183,191.7077 764.18158,200.10431 760.92493,209.48822 758.76202,220.02301 757.78314,231.87231 758.07831,245.19946 759.73798,260.16797 762.59479,276.61316 767.43555,295.60657 773.19983,315.94611 779.78131,337.66565 786.81604,360.47107 793.94043,384.06836 800.79034,408.16333 807.00226,432.46173 812.21234,456.66956 816.1308,480.53833 818.76453,504.00183 820.19434,527.03961 820.5014,549.6311 819.7666,571.75586 818.0708,593.39331 815.49506,614.52295 812.23999,635.2157 808.03882,655.16077 803.38806,674.5321 798.3169,693.12195 792.97394,710.81409 787.50836,727.49219 "
       fill="#fefefe"
       stroke="none"
       fill-opacity="1"
       id="polygon1"
       style="display:inline;fill:url(#radialGradient2);stroke:none;stroke-opacity:1" />
  </g>
  <g
     id="Fills.009"
     style="fill:#6336d5;fill-opacity:1;stroke:#d7a0ff;stroke-width:3;stroke-dasharray:none;stroke-opacity:1"
     inkscape:label="btns"
     transform="translate(4.1150423e-5,8.1783709e-5)">
    <polygon
       points="797.66992,428.29083 796.32471,422.34772 794.87238,416.48865 793.06384,411.02881 790.59906,406.34656 787.23071,402.7558 782.60889,400.72949 777.12707,399.97156 771.07654,400.34454 764.80078,401.64746 758.67071,403.70923 753.16681,406.48047 748.79633,409.94165 745.97748,414.04639 745.30841,418.83295 746.13794,424.08118 747.99554,429.65594 750.32056,435.39465 752.64441,441.16205 754.86615,446.93133 756.97668,452.70288 758.96674,458.47693 760.82959,464.2453 762.56781,469.96551 764.18597,475.58637 765.68921,481.05682 767.12268,486.27051 768.69397,490.90155 770.65106,494.56854 773.20532,496.96246 776.63409,497.63507 780.66949,497.16528 785.10999,495.99298 789.71704,494.63007 794.24225,493.44196 798.39703,492.20783 801.88336,490.56055 804.45514,488.1806 805.75458,484.65826 806.13428,480.27429 805.83447,475.21924 805.14801,469.73132 804.32007,464.01758 803.40356,458.16028 802.40381,452.21051 801.32574,446.21924 800.17462,440.22949 798.95465,434.25238 "
       fill="#FEFEFE"
       stroke="none"
       fill-opacity="1"
       id="polygon33"
       style="fill:#6336d5;fill-opacity:1;stroke:#d7a0ff;stroke-width:3;stroke-dasharray:none;stroke-opacity:1" />
    <polygon
       points="794.82178,502.29974 790.32306,503.64569 785.78742,504.82867 781.52814,506.07611 777.87268,507.76697 775.09589,510.2298 773.56995,513.88513 772.90167,518.41858 772.79504,523.60742 772.90155,529.17908 772.93475,534.90082 772.85577,540.70044 772.68781,546.54571 772.4541,552.40454 772.1698,558.25018 771.81769,564.07812 771.37286,569.88922 770.80988,575.68457 770.17779,581.40179 769.82135,586.72626 770.15949,591.27991 771.54712,594.74853 774.46143,596.6654 778.46454,597.35333 783.2406,596.98328 788.40991,595.78931 793.60315,593.96191 798.492,591.51575 802.75818,588.42163 806.13629,584.67993 808.25391,580.20557 809.4679,575.21936 810.02826,569.85669 810.23773,564.28272 810.34808,558.63525 810.40857,552.94403 810.41773,547.21191 810.37427,541.44177 810.27692,535.64301 810.12683,529.85205 809.92529,524.11212 809.67364,518.46637 809.33258,513.0202 808.6994,508.12787 807.5307,504.20612 805.62592,501.59644 802.69458,500.7832 799.02655,501.16913 "
       fill="#FEFEFE"
       stroke="none"
       fill-opacity="1"
       id="polygon34"
       style="fill:#6336d5;fill-opacity:1;stroke:#d7a0ff;stroke-width:3;stroke-dasharray:none;stroke-opacity:1" />
  </g>
  <g
     id="Fills.005"
     inkscape:label="hol"
     transform="translate(4.1150423e-5,8.1783709e-5)">
    <polygon
       points="981.93872,350.89093 983.81354,349.82599 985.54462,348.62646 987.13556,347.3031 988.59076,345.86707 989.91498,344.32935 991.11285,342.68732 992.18903,340.86401 993.1488,338.68317 993.99756,335.86328 994.74158,332.02307 995.38654,326.70776 996.42749,312.58362 996.95984,296.85382 997.26599,284.01294 997.35596,265.37695 997.1394,249.6806 996.85907,237.01672 996.5036,227.18561 996.0589,219.77203 995.5105,214.31873 994.84381,210.36835 994.04474,207.47736 993.10217,205.27203 992.00885,203.47363 990.76123,201.90338 989.35974,200.47729 987.8078,199.18158 986.10919,198.01587 984.26758,196.9798 982.28729,196.07275 980.17438,195.29272 977.93762,194.63556 975.5885,194.09503 973.14105,193.66315 970.61145,193.33026 968.01617,193.08655 965.37152,192.92206 962.69397,192.82758 960.00006,192.79681 957.30609,192.82758 954.6286,192.92206 951.98389,193.08655 949.38867,193.33026 946.85901,193.66315 944.41168,194.09497 942.06244,194.6355 939.82562,195.29272 937.71277,196.07275 935.73242,196.97974 933.89087,198.01587 932.19232,199.18158 930.64032,200.47729 929.23883,201.90338 927.99127,203.47357 926.89789,205.27203 925.95532,207.47736 925.15631,210.36835 924.48969,214.31873 923.94116,219.77203 923.49658,227.18561 923.14105,237.01672 922.86066,249.6806 922.6441,265.37695 922.73407,284.01294 923.04016,296.85382 923.57263,312.58368 924.61346,326.70776 925.25861,332.02307 926.00244,335.86328 926.85132,338.68317 927.8111,340.86401 928.88721,342.68732 930.08502,344.32935 931.4093,345.86707 932.86456,347.3031 934.45551,348.62646 936.18646,349.82599 938.06146,350.89093 940.08057,351.81464 942.23907,352.59515 944.52716,353.23596 946.92981,353.74542 949.42847,354.13574 952.00415,354.41962 954.63739,354.60992 957.30914,354.71863 960.00006,354.75391 962.69098,354.71863 965.36267,354.60992 967.99591,354.41962 970.57153,354.13574 973.07037,353.74542 975.4729,353.23596 977.76093,352.59515 979.91949,351.81464 "
       fill="#FEFEFE"
       stroke="none"
       fill-opacity="1"
       id="polygon28"
       style="fill:#7702c5;fill-opacity:1" />
  </g>
  <g
     id="encoder"
     style="display:inline;fill:#c1c1c1;fill-opacity:1"
     inkscape:label="enc"
     transform="translate(4.1150423e-5,8.1783709e-5)">
    <polygon
       points="962.01648,222.8465 960.00006,222.80041 957.98352,222.8465 955.98846,222.98218 954.03613,223.19989 952.14807,223.48883 950.34552,223.83722 948.65015,224.23322 947.08185,224.66577 945.65424,225.12592 944.37207,225.60791 943.23065,226.10919 942.21631,226.63049 941.30902,227.1748 940.4873,227.74561 939.72992,228.34656 939.01617,228.98254 938.33063,229.66724 937.66431,230.42572 937.01532,231.29498 936.38806,232.32367 935.7923,233.56891 935.2384,235.08911 934.73688,236.9433 934.29749,239.18622 933.92688,241.85431 933.62744,244.95844 933.39691,248.48261 933.22846,252.38556 933.11243,256.60712 933.03821,261.08362 932.99542,265.75128 932.97418,270.54639 932.9679,275.40564 932.97418,280.26605 932.99542,285.065 933.03821,289.74011 933.11243,294.22961 933.22846,298.47168 933.39691,302.40418 933.62744,305.96893 933.92688,309.12567 934.29749,311.85907 934.73688,314.17932 935.2384,316.12164 935.7923,317.7395 936.38806,319.08942 937.01532,320.22852 937.66431,321.21185 938.33063,322.08563 939.01617,322.88446 939.72992,323.63031 940.4873,324.33319 941.30902,324.99445 942.21631,325.61359 943.23065,326.19019 944.37207,326.72394 945.65424,327.21362 947.08185,327.65759 948.65015,328.05334 950.34552,328.39795 952.14807,328.68756 954.03613,328.91852 955.98846,329.08722 957.98352,329.18994 960.00006,329.22449 962.01648,329.18994 964.0116,329.08722 965.96387,328.91852 967.85205,328.68756 969.65454,328.39795 971.34992,328.05334 972.91821,327.65759 974.34576,327.21362 975.62799,326.72394 976.76941,326.19019 977.78381,325.61359 978.6911,324.99445 979.5127,324.33319 980.2702,323.63031 980.98389,322.88446 981.66943,322.08563 982.33569,321.21185 982.9848,320.22852 983.61194,319.08942 984.2077,317.7395 984.7616,316.12164 985.26318,314.17932 985.70251,311.85901 986.07312,309.12567 986.37262,305.96893 986.60321,302.40418 986.77161,298.47168 986.8877,294.22967 986.96185,289.74011 987.00464,285.065 987.02594,280.26605 987.03223,275.40564 987.02594,270.54639 987.00464,265.75128 986.96185,261.08362 986.8877,256.60712 986.77161,252.3855 986.60321,248.48261 986.37262,244.95844 986.07312,241.85431 985.70251,239.18622 985.26318,236.9433 984.7616,235.08917 984.2077,233.56891 983.61194,232.32367 982.9848,231.29498 982.33569,230.42572 981.66943,229.66724 980.98389,228.98254 980.2702,228.34656 979.5127,227.74567 978.6911,227.17474 977.78381,226.63049 976.76941,226.10919 975.62799,225.60785 974.34576,225.12592 972.91821,224.66577 971.34992,224.23334 969.65454,223.83722 967.85205,223.48883 965.96387,223.19989 964.0116,222.98212 "
       fill="#FEFEFE"
       stroke="none"
       fill-opacity="1"
       id="polygon26"
       style="display:inline;fill:#4e0187;fill-opacity:1" />
    <polygon
       points="936.58722,235.05432 937.35217,235.06091 938.62707,234.57629 940.41187,233.69202 942.70282,232.56793 945.47662,231.39117 948.68347,230.32227 952.24573,229.48273 956.05914,228.95392 960.00006,228.77387 963.94092,228.95392 967.75433,229.48273 971.31653,230.32227 974.52338,231.39117 977.29718,232.56793 979.5882,233.69202 981.37299,234.57629 982.64789,235.06091 983.41284,235.05432 983.66779,234.54272 983.41284,233.58588 982.64789,232.29645 981.37299,230.79529 979.5882,229.20075 977.29718,227.62738 974.52338,226.17847 971.31653,224.94446 967.75433,224.00238 963.94092,223.41345 960.00006,223.21332 956.05914,223.41345 952.24573,224.00238 948.68347,224.94446 945.47662,226.17847 942.70282,227.62738 940.41187,229.20075 938.62707,230.79529 937.35217,232.29645 936.58722,233.58588 936.33227,234.54272 "
       fill="#fefefe"
       stroke="none"
       fill-opacity="1"
       id="polygon15"
       style="fill:#c758fc;fill-opacity:1" />
    <polygon
       points="983.41284,242.74304 982.64789,241.61371 981.37299,240.35877 979.5882,239.06836 977.29718,237.81988 974.52338,236.67969 971.31653,235.70837 967.75433,234.96313 963.94092,234.49432 960.00006,234.33435 956.05914,234.49432 952.24573,234.96313 948.68347,235.70837 945.47662,236.67969 942.70282,237.81988 940.41187,239.06836 938.62707,240.35877 937.35217,241.61371 936.58722,242.74304 936.33227,243.64404 936.58722,244.21137 937.35217,244.37811 938.62707,244.13989 940.41187,243.55963 942.70282,242.76056 945.47662,241.89239 948.68347,241.08624 952.24573,240.44354 956.05914,240.03479 960.00006,239.8949 963.94092,240.03479 967.75433,240.44354 971.31653,241.08624 974.52338,241.89239 977.29718,242.76056 979.5882,243.55963 981.37299,244.13989 982.64789,244.37811 983.41284,244.21137 983.66779,243.64404 "
       fill="#fefefe"
       stroke="none"
       fill-opacity="1"
       id="polygon16"
       style="fill:#c758fc;fill-opacity:1" />
    <polygon
       points="983.41284,251.90015 982.64789,250.93103 981.37299,249.92242 979.5882,248.93604 977.29718,248.01257 974.52338,247.18091 971.31653,246.47235 967.75433,245.92383 963.94092,245.5752 960.00006,245.4555 956.05914,245.5752 952.24573,245.92383 948.68347,246.47235 945.47662,247.18091 942.70282,248.01257 940.41187,248.93604 938.62707,249.92242 937.35217,250.93103 936.58722,251.90015 936.33227,252.7453 936.58722,253.36847 937.35217,253.6955 938.62707,253.70349 940.41187,253.42731 942.70282,252.95312 945.47662,252.39368 948.68347,251.85016 952.24573,251.40418 956.05914,251.1156 960.00006,251.01599 963.94092,251.1156 967.75433,251.4043 971.31653,251.85016 974.52338,252.39368 977.29718,252.95312 979.5882,253.42731 981.37299,253.70349 982.64789,253.6955 983.41284,253.36847 983.66779,252.7453 "
       fill="#fefefe"
       stroke="none"
       fill-opacity="1"
       id="polygon17"
       style="fill:#c758fc;fill-opacity:1" />
    <polygon
       points="983.41284,261.05719 982.64789,260.24823 981.37299,259.48596 979.5882,258.80365 977.29718,258.2052 974.52338,257.68219 971.31653,257.23627 967.75433,256.88458 963.94092,256.65601 960.00006,256.57654 956.05914,256.65601 952.24573,256.88464 948.68347,257.23627 945.47662,257.68219 942.70282,258.2052 940.41187,258.80365 938.62707,259.48596 937.35217,260.24823 936.58722,261.05719 936.33227,261.84668 936.58722,262.52551 937.35217,263.0127 938.62707,263.26703 940.41187,263.29492 942.70282,263.14569 945.47662,262.89496 948.68347,262.61414 952.24573,262.36499 956.05914,262.19641 960.00006,262.13715 963.94092,262.19641 967.75433,262.36499 971.31653,262.6142 974.52338,262.89496 977.29718,263.14569 979.5882,263.29492 981.37299,263.26703 982.64789,263.0127 983.41284,262.52551 983.66779,261.84668 "
       fill="#fefefe"
       stroke="none"
       fill-opacity="1"
       id="polygon18"
       style="fill:#c758fc;fill-opacity:1" />
    <polygon
       points="983.41284,270.21429 982.64789,269.56549 981.37299,269.04956 979.5882,268.67127 977.29718,268.3977 974.52338,268.18335 971.31653,268.00024 967.75433,267.84528 963.94092,267.73682 960.00006,267.69763 956.05914,267.73688 952.24573,267.84528 948.68347,268.00024 945.47662,268.18335 942.70282,268.3977 940.41187,268.67127 938.62707,269.04956 937.35217,269.56549 936.58722,270.21436 936.33227,270.948 936.58722,271.68268 937.35217,272.3299 938.62707,272.83063 940.41187,273.16248 942.70282,273.33838 945.47662,273.39612 948.68347,273.37811 952.24573,273.32574 956.05914,273.27728 960.00006,273.25818 963.94092,273.27728 967.75433,273.32574 971.31653,273.37811 974.52338,273.39612 977.29718,273.33838 979.5882,273.16248 981.37299,272.83063 982.64789,272.3299 983.41284,271.68268 983.66779,270.948 "
       fill="#fefefe"
       stroke="none"
       fill-opacity="1"
       id="polygon19"
       style="fill:#c758fc;fill-opacity:1" />
    <polygon
       points="983.41284,279.37146 982.64789,278.88275 981.37299,278.61316 979.5882,278.53894 977.29718,278.59039 974.52338,278.68463 971.31653,278.76416 967.75433,278.80603 963.94092,278.81769 960.00006,278.81867 956.05914,278.81763 952.24573,278.80609 948.68347,278.76416 945.47662,278.68463 942.70282,278.59039 940.41187,278.53894 938.62707,278.61316 937.35217,278.88275 936.58722,279.37146 936.33227,280.04938 936.58722,280.83978 937.35217,281.64722 938.62707,282.39423 940.41187,283.03015 942.70282,283.53094 945.47662,283.89734 948.68347,284.14203 952.24573,284.28644 956.05914,284.35809 960.00006,284.37927 963.94092,284.35809 967.75433,284.28644 971.31653,284.14203 974.52338,283.89734 977.29718,283.53094 979.5882,283.03015 981.37299,282.39423 982.64789,281.64722 983.41284,280.83978 983.66779,280.04932 "
       fill="#fefefe"
       stroke="none"
       fill-opacity="1"
       id="polygon20"
       style="fill:#c758fc;fill-opacity:1" />
    <polygon
       points="983.41284,288.52856 982.64789,288.20007 981.37299,288.17682 979.5882,288.40662 977.29718,288.78302 974.52338,289.18585 971.31653,289.52814 967.75433,289.76679 963.94092,289.8985 960.00006,289.93982 956.05914,289.8985 952.24573,289.76679 948.68347,289.5282 945.47662,289.18597 942.70282,288.78302 940.41187,288.40662 938.62707,288.17682 937.35217,288.20007 936.58722,288.52856 936.33227,289.1507 936.58722,289.99689 937.35217,290.96448 938.62707,291.95783 940.41187,292.89777 942.70282,293.72357 945.47662,294.39868 948.68347,294.90607 952.24573,295.24725 956.05914,295.43896 960.00006,295.50031 963.94092,295.43896 967.75433,295.24725 971.31653,294.90607 974.52338,294.39868 977.29718,293.72357 979.5882,292.89777 981.37299,291.95783 982.64789,290.96448 983.41284,289.99689 983.66779,289.1507 "
       fill="#fefefe"
       stroke="none"
       fill-opacity="1"
       id="polygon21"
       style="fill:#c758fc;fill-opacity:1" />
    <polygon
       points="983.41284,297.68567 982.64789,297.51727 981.37299,297.74042 979.5882,298.27423 977.29718,298.97559 974.52338,299.68713 971.31653,300.29217 967.75433,300.72754 963.94092,300.97931 960.00006,301.06091 956.05914,300.97931 952.24573,300.72754 948.68347,300.29217 945.47662,299.68713 942.70282,298.97559 940.41187,298.27423 938.62707,297.7403 937.35217,297.51727 936.58722,297.68567 936.33227,298.25214 936.58722,299.15399 937.35217,300.28174 938.62707,301.52142 940.41187,302.76544 942.70282,303.9162 945.47662,304.8999 948.68347,305.66998 952.24573,306.20795 956.05914,306.51977 960.00006,306.62146 963.94092,306.51977 967.75433,306.20795 971.31653,305.66998 974.52338,304.8999 977.29718,303.9162 979.5882,302.76544 981.37299,301.52142 982.64789,300.2818 983.41284,299.15399 983.66779,298.25214 "
       fill="#fefefe"
       stroke="none"
       fill-opacity="1"
       id="polygon22"
       style="fill:#c758fc;fill-opacity:1" />
    <polygon
       points="983.41284,306.84283 982.64789,306.83453 981.37299,307.30395 979.5882,308.14191 977.29718,309.16821 974.52338,310.18842 971.31653,311.05609 967.75433,311.68835 963.94092,312.06018 960.00006,312.18195 956.05914,312.06018 952.24573,311.68835 948.68347,311.05609 945.47662,310.18842 942.70282,309.16821 940.41187,308.14191 938.62707,307.30395 937.35217,306.83453 936.58722,306.84283 936.33227,307.35352 936.58722,308.31116 937.35217,309.599 938.62707,311.08496 940.41187,312.63306 942.70282,314.10883 945.47662,315.40112 948.68347,316.43396 952.24573,317.1687 956.05914,317.60065 960.00006,317.74249 963.94092,317.60065 967.75433,317.1687 971.31653,316.43396 974.52338,315.40112 977.29718,314.10883 979.5882,312.63306 981.37299,311.08496 982.64789,309.599 983.41284,308.31116 983.66779,307.35352 "
       fill="#fefefe"
       stroke="none"
       fill-opacity="1"
       id="polygon23"
       style="fill:#c758fc;fill-opacity:1" />
    <polygon
       points="983.41284,315.99988 982.64789,316.15192 981.37299,316.86755 979.5882,318.00946 977.29718,319.3609 974.52338,320.68964 971.31653,321.82007 967.75433,322.64905 963.94092,323.14105 960.00006,323.30304 956.05914,323.14105 952.24573,322.64905 948.68347,321.82007 945.47662,320.68964 942.70282,319.3609 940.41187,318.00946 938.62707,316.86755 937.35217,316.15186 936.58722,315.99988 936.33227,316.45483 936.58722,317.46832 937.35217,318.91626 938.62707,320.64856 940.41187,322.50073 942.70282,324.30151 945.47662,325.9024 948.68347,327.19794 952.24573,328.12939 956.05914,328.6814 960.00006,328.86359 963.94092,328.6814 967.75433,328.12939 971.31653,327.19794 974.52338,325.9024 977.29718,324.30151 979.5882,322.50073 981.37299,320.64856 982.64789,318.91626 983.41284,317.46832 983.66779,316.45483 "
       fill="#fefefe"
       stroke="none"
       fill-opacity="1"
       id="polygon24"
       style="fill:#c758fc;fill-opacity:1" />
  </g>
  <g
     id="Fills.001-3"
     inkscape:label="clci-ovr"
     style="display:inline;fill:url(#linearGradient63);stroke:#ef0707;stroke-linecap:round;stroke-linejoin:round;stroke-dasharray:6, 6;stroke-dashoffset:0;stroke-opacity:1;paint-order:normal"
     transform="translate(4.1150423e-5,8.1783709e-5)">
    <polygon
       points="821.15723,447.31073 817.3468,435.39587 814.22949,422.54327 810.97913,409.20215 807.5744,395.69684 804.47974,381.94275 801.60602,367.93451 798.3869,354.02094 794.77002,340.33276 790.95453,326.93524 787.25738,313.84521 783.56,301.23712 780.26343,289.09961 777.79571,277.38715 776.08582,266.17658 774.70782,255.60272 773.27154,245.64178 772.14246,236.23706 771.59357,227.32684 771.84216,218.89789 773.28595,210.86804 776.04926,203.2168 779.97876,195.9303 784.96527,188.90723 791.82758,182.24036 799.69733,175.81329 808.60272,169.70038 818.33789,163.92871 828.69879,158.52429 839.47784,153.5152 850.45972,148.93365 861.41785,144.81763 872.13312,141.21893 882.45667,138.2218 892.25659,135.91907 901.40289,134.40277 909.76843,133.7627 917.23029,134.08758 923.6673,135.46381 929.17255,137.77307 933.00452,141.66217 935.80597,146.3064 937.38745,151.64533 937.7757,157.41193 937.00116,163.33685 935.09973,169.14801 932.11237,174.57056 928.24982,179.48492 923.1142,183.25501 917.44977,186.67438 911.40033,190.02911 905.26367,193.76465 899.32336,198.3255 893.85052,204.15173 889.10834,211.67181 885.36639,221.28912 882.86102,233.23377 881.62714,247.17096 881.46228,262.63232 882.14746,279.29608 883.75006,296.88043 886.12537,314.92706 889.36298,333.18024 893.28491,351.65399 897.29187,370.36169 901.03369,389.26361 904.72528,407.90979 907.96515,425.77881 909.80774,442.3913 909.56531,457.21924 906.80524,469.71521 901.76984,479.95813 893.26605,485.77936 883.5741,489.07166 873.13312,489.50226 862.57159,487.3642 852.26154,482.96436 842.40967,476.6023 833.23688,468.52954 826.92126,459.18579 "
       fill="#5cd9fe"
       stroke="none"
       fill-opacity="1"
       id="L-click"
       transform="translate(1.442903,1.151282)"
       style="display:none;fill:url(#linearGradient1);fill-opacity:1;stroke:#ef0707;stroke-opacity:1" />
    <polygon
       points="989.88043,174.57483 986.89294,169.15192 984.99139,163.34064 984.21686,157.41565 984.60504,151.64893 986.18665,146.30975 988.9881,141.66553 992.82031,137.77618 998.32568,135.46692 1004.7629,134.09052 1012.2249,133.76581 1020.5908,134.4057 1029.7372,135.92218 1039.5375,138.22504 1049.8613,141.22217 1060.5769,144.82092 1071.5353,148.93713 1082.5175,153.51886 1093.2969,158.52808 1103.658,163.93262 1113.3934,169.70447 1122.2991,175.81751 1130.1691,182.24475 1137.0315,188.91174 1142.0183,195.93512 1145.9478,203.22186 1148.7467,210.87238 1150.5801,218.94196 1151.6117,227.48547 1152.0284,236.5462 1152.0497,246.15228 1151.8477,256.34924 1151.5728,267.17224 1151.3118,278.60486 1151.1405,290.62604 1151.1438,303.2276 1151.4203,316.41638 1152.0603,330.20252 1153.0115,344.52643 1154.2802,359.36426 1155.8051,374.66077 1157.2023,390.18835 1158.0242,405.66986 1157.8446,420.82111 1156.2522,435.35217 1152.8464,448.96954 1147.2318,461.37781 1139.4934,472.58838 1127.9847,481.41327 1114.7091,488.61615 1099.9369,493.76178 1084.4235,496.72003 1068.9436,497.35382 1054.3048,495.51477 1041.3506,491.04144 1030.3507,484.26965 1023.7612,473.59729 1019.5292,460.83014 1017.7204,445.86005 1017.7437,429.10577 1018.9939,410.99072 1020.9759,391.89947 1023.5352,372.3219 1026.8489,352.86859 1030.4103,333.71551 1033.8419,314.97919 1036.8226,296.77838 1039.0608,279.26379 1040.3075,262.6394 1040.3669,247.17719 1039.1332,233.2395 1036.6274,221.29468 1032.8856,211.67712 1028.1433,204.1568 1022.6703,198.33032 1016.7299,193.76941 1010.593,190.03375 1004.5433,186.67889 998.87884,183.25952 993.74304,179.48914 "
       fill="#5cd9fe"
       stroke="none"
       fill-opacity="1"
       id="R-click"
       transform="translate(-3.9747042,-1.0157609)"
       style="display:none;fill:url(#linearGradient2);fill-opacity:1;stroke:#ef0707;stroke-opacity:1" />
    <polygon
       points="798.39703,492.20783 801.88336,490.56055 804.45514,488.1806 805.75458,484.65826 806.13428,480.27429 805.83447,475.21924 805.14801,469.73132 804.32007,464.01758 803.40356,458.16028 802.40381,452.21051 801.32574,446.21924 800.17462,440.22949 798.95465,434.25238 797.66992,428.29083 796.32471,422.34772 794.87238,416.48865 793.06384,411.02881 790.59906,406.34656 787.23071,402.7558 782.60889,400.72949 777.12707,399.97156 771.07654,400.34454 764.80078,401.64746 758.67071,403.70923 753.16681,406.48047 748.79633,409.94165 745.97748,414.04639 745.30841,418.83295 746.13794,424.08118 747.99554,429.65594 750.32056,435.39465 752.64441,441.16205 754.86615,446.93133 756.97668,452.70288 758.96674,458.47693 760.82959,464.2453 762.56781,469.96551 764.18597,475.58637 765.68921,481.05682 767.12268,486.27051 768.69397,490.90155 770.65106,494.56854 773.20532,496.96246 776.63409,497.63507 780.66949,497.16528 785.10999,495.99298 789.71704,494.63007 794.24225,493.44196 "
       fill="#FEFEFE"
       stroke="none"
       fill-opacity="1"
       id="F-btn"
       style="display:none;fill:#d84073;fill-opacity:0.906879;stroke:#ff0c0c;stroke-width:2;stroke-linecap:round;stroke-linejoin:round;stroke-dasharray:12, 6;stroke-dashoffset:0;stroke-opacity:1;paint-order:normal"
       transform="translate(-0.66592,0.849532)" />
    <polygon
       points="810.34808,558.63525 810.40857,552.94403 810.41773,547.21191 810.37427,541.44177 810.27692,535.64301 810.12683,529.85205 809.92529,524.11212 809.67364,518.46637 809.33258,513.0202 808.6994,508.12787 807.5307,504.20612 805.62592,501.59644 802.69458,500.7832 799.02655,501.16913 794.82178,502.29974 790.32306,503.64569 785.78742,504.82867 781.52814,506.07611 777.87268,507.76697 775.09589,510.2298 773.56995,513.88513 772.90167,518.41858 772.79504,523.60742 772.90155,529.17908 772.93475,534.90082 772.85577,540.70044 772.68781,546.54571 772.4541,552.40454 772.1698,558.25018 771.81769,564.07812 771.37286,569.88922 770.80988,575.68457 770.17779,581.40179 769.82135,586.72626 770.15949,591.27991 771.54712,594.74853 774.46143,596.6654 778.46454,597.35333 783.2406,596.98328 788.40991,595.78931 793.60315,593.96191 798.492,591.51575 802.75818,588.42163 806.13629,584.67993 808.25391,580.20557 809.4679,575.21936 810.02826,569.85669 810.23773,564.28272 "
       fill="#FEFEFE"
       stroke="none"
       fill-opacity="1"
       id="B-btn"
       style="display:none;fill:#d84073;fill-opacity:0.906879;stroke:#ff0c0c;stroke-width:2;stroke-linecap:round;stroke-linejoin:round;stroke-dasharray:12, 6;stroke-dashoffset:0;stroke-opacity:1;paint-order:normal"
       transform="translate(-0.66592,0.849532)" />
  </g>
</svg>
