<?xml version="1.0" encoding="UTF-8" standalone="no"?>
<!-- Generator: Blender, SVG Export for Grease Pencil - v2.0 -->

<svg
   version="1.0"
   x="0px"
   y="0px"
   width="1920.000000px"
   height="1080.000000px"
   viewBox="0 0 1920.000000 1080.000000"
   id="svg38"
   sodipodi:docname="mouse-6-s.svg"
   inkscape:version="1.4.2 (ebf0e940d0, 2025-05-08)"
   xmlns:inkscape="http://www.inkscape.org/namespaces/inkscape"
   xmlns:sodipodi="http://sodipodi.sourceforge.net/DTD/sodipodi-0.dtd"
   xmlns:xlink="http://www.w3.org/1999/xlink"
   xmlns="http://www.w3.org/2000/svg"
   xmlns:svg="http://www.w3.org/2000/svg">
  <defs
     id="defs38">
    <linearGradient
       id="linearGradient43"
       inkscape:collect="always">
      <stop
         style="stop-color:#ec0000;stop-opacity:0.7647059;"
         offset="0"
         id="stop44" />
      <stop
         style="stop-color:#ff0707;stop-opacity:0.02352941;"
         offset="1"
         id="stop45" />
    </linearGradient>
    <linearGradient
       id="linearGradient40"
       inkscape:collect="always">
      <stop
         style="stop-color:#9100e9;stop-opacity:1;"
         offset="0"
         id="stop41" />
      <stop
         style="stop-color:#000000;stop-opacity:1;"
         offset="0.57723141"
         id="stop43" />
      <stop
         style="stop-color:#9100e9;stop-opacity:1;"
         offset="1"
         id="stop42" />
    </linearGradient>
    <linearGradient
       id="linearGradient38"
       inkscape:collect="always">
      <stop
         style="stop-color:#be71e5;stop-opacity:1;"
         offset="0"
         id="stop38" />
      <stop
         style="stop-color:#943ac9;stop-opacity:1;"
         offset="0.34953135"
         id="stop40" />
      <stop
         style="stop-color:#68259b;stop-opacity:1;"
         offset="1"
         id="stop39" />
    </linearGradient>
    <inkscape:path-effect
       effect="fillet_chamfer"
       id="path-effect38"
       is_visible="true"
       lpeversion="1"
       nodesatellites_param="F,0,0,1,0,0,0,1 @ F,0,0,1,0,0,0,1 @ F,0,0,1,0,0,0,1 @ F,0,0,1,0,0,0,1 @ F,0,0,1,0,0,0,1 @ F,0,0,1,0,0,0,1 @ F,0,0,1,0,0,0,1 @ F,0,0,1,0,0,0,1 @ F,0,0,1,0,0,0,1 @ F,0,0,1,0,0,0,1 @ F,0,0,1,0,0,0,1 @ F,0,0,1,0,0,0,1 @ F,0,0,1,0,0,0,1 @ F,0,0,1,0,0,0,1 @ F,0,0,1,0,0,0,1 @ F,0,0,1,0,0,0,1 @ F,0,0,1,0,0,0,1 @ F,0,0,1,0,0,0,1 @ F,0,0,1,0,0,0,1 @ F,0,0,1,0,0,0,1 @ F,0,0,1,0,0,0,1 @ F,0,0,1,0,0,0,1 @ F,0,0,1,0,0,0,1 @ F,0,0,1,0,0,0,1 @ F,0,0,1,0,0,0,1 @ F,0,0,1,0,0,0,1 @ F,0,0,1,0,0,0,1 @ F,0,0,1,0,0,0,1 @ F,0,0,1,0,0,0,1 @ F,0,0,1,0,0,0,1 @ F,0,0,1,0,0,0,1 @ F,0,0,1,0,0,0,1 @ F,0,0,1,0,0,0,1 @ F,0,0,1,0,0,0,1 @ F,0,0,1,0,0,0,1 @ F,0,0,1,0,0,0,1 @ F,0,0,1,0,0,0,1 @ F,0,0,1,0,0,0,1 @ F,0,0,1,0,0,0,1 @ F,0,0,1,0,0,0,1 @ F,0,0,1,0,0,0,1 @ F,0,0,1,0,0,0,1 @ F,0,0,1,0,0,0,1 @ F,0,0,1,0,0,0,1 @ F,0,0,1,0,0,0,1 @ F,0,0,1,0,0,0,1 @ F,0,0,1,0,0,0,1 @ F,0,0,1,0,0,0,1 @ F,0,0,1,0,0,0,1 @ F,0,0,1,0,0,0,1 @ F,0,0,1,0,0,0,1 @ F,0,0,1,0,0,0,1 @ F,0,0,1,0,0,0,1 @ F,0,0,1,0,0,0,1 @ F,0,0,1,0,0,0,1 @ F,0,0,1,0,0,0,1 @ F,0,0,1,0,0,0,1 @ F,0,0,1,0,0,0,1 @ F,0,0,1,0,0,0,1 @ F,0,0,1,0,0,0,1 @ F,0,0,1,0,0,0,1 @ F,0,0,1,0,0,0,1 @ F,0,0,1,0,0,0,1 @ F,0,0,1,0,0,0,1 @ F,0,0,1,0,0,0,1 @ F,0,0,1,0,0,0,1 @ F,0,0,1,0,0,0,1 @ F,0,0,1,0,0,0,1 @ F,0,0,1,0,0,0,1 @ F,0,0,1,0,0,0,1 @ F,0,0,1,0,0,0,1 @ F,0,0,1,0,0,0,1 @ F,0,0,1,0,0,0,1 @ F,0,0,1,0,0,0,1 @ F,0,0,1,0,0,0,1 @ F,0,0,1,0,0,0,1 @ F,0,0,1,0,0,0,1 @ F,0,0,1,0,0,0,1 @ F,0,0,1,0,0,0,1 @ F,0,0,1,0,0,0,1"
       radius="0"
       unit="px"
       method="auto"
       mode="F"
       chamfer_steps="1"
       flexible="false"
       use_knot_distance="true"
       apply_no_radius="true"
       apply_with_radius="true"
       only_selected="false"
       hide_knots="false" />
    <linearGradient
       inkscape:collect="always"
       xlink:href="#linearGradient38"
       id="linearGradient39"
       x1="946.59113"
       y1="339.70349"
       x2="976.68726"
       y2="770.09772"
       gradientUnits="userSpaceOnUse" />
    <linearGradient
       inkscape:collect="always"
       xlink:href="#linearGradient40"
       id="linearGradient42"
       x1="698.33246"
       y1="513.97693"
       x2="1206.8165"
       y2="558.4635"
       gradientUnits="userSpaceOnUse" />
    <linearGradient
       inkscape:collect="always"
       xlink:href="#linearGradient43"
       id="linearGradient45"
       x1="980.16003"
       y1="136.40695"
       x2="980.16003"
       y2="493.13596"
       gradientUnits="userSpaceOnUse" />
    <radialGradient
       inkscape:collect="always"
       xlink:href="#linearGradient12"
       id="radialGradient2"
       cx="961.63922"
       cy="543.49902"
       fx="961.63922"
       fy="543.49902"
       r="216.22295"
       gradientTransform="matrix(1.3307347,-0.01503339,0.02147083,1.9005676,-309.16148,-507.27003)"
       gradientUnits="userSpaceOnUse" />
    <linearGradient
       id="linearGradient12"
       inkscape:collect="always">
      <stop
         style="stop-color:#bb6ee3;stop-opacity:1;"
         offset="0"
         id="stop10" />
      <stop
         style="stop-color:#b67cd6;stop-opacity:0.73333335;"
         offset="0.22635691"
         id="stop13" />
      <stop
         style="stop-color:#a970c9;stop-opacity:0.48235294;"
         offset="0.52921891"
         id="stop14" />
      <stop
         style="stop-color:#8f4cba;stop-opacity:0.43619502;"
         offset="0.74187714"
         id="stop16" />
      <stop
         style="stop-color:#6b259f;stop-opacity:0.36828047;"
         offset="1"
         id="stop12" />
    </linearGradient>
  </defs>
  <sodipodi:namedview
     id="namedview38"
     pagecolor="#505050"
     bordercolor="#ffffff"
     borderopacity="1"
     inkscape:showpageshadow="0"
     inkscape:pageopacity="0"
     inkscape:pagecheckerboard="1"
     inkscape:deskcolor="#505050"
     inkscape:zoom="0.92291667"
     inkscape:cx="918.82618"
     inkscape:cy="535.80135"
     inkscape:window-width="1920"
     inkscape:window-height="1011"
     inkscape:window-x="0"
     inkscape:window-y="32"
     inkscape:window-maximized="1"
     inkscape:current-layer="Fills.008" />
  <clipPath
     id="clip-path1">
    <rect
       x="0"
       y="0"
       width="1920"
       height="1080"
       fill="none"
       id="rect1" />
  </clipPath>
  <g
     id="Fills.006"
     inkscape:label="cor"
     style="fill:url(#linearGradient42);stroke:#b77fff;stroke-opacity:0.99215686">
    <polygon
       points="721.984375,677.605103 716.850281,690.207397 712.046509,702.538208 707.770752,714.747986 704.220581,726.987305 701.407104,739.351807 700.043762,752.106323 699.546509,764.981689 700.034119,777.878113 701.438416,790.640747 703.691162,803.114502 706.724426,815.144714 710.470032,826.576416 714.763855,837.406067 719.814209,847.056274 725.205688,855.983948 730.895508,864.072021 736.744995,871.354858 742.614990,877.866821 748.366699,883.642273 753.861206,888.715393 759.049011,893.226318 763.550781,896.883057 767.631287,899.988647 771.226074,902.414551 774.359741,904.137451 777.056946,905.134399 779.341980,905.382202 781.239868,904.857666 782.831238,903.674255 783.976318,901.412842 784.891296,898.526794 785.571777,894.937317 786.069519,890.701904 786.436401,885.878174 786.724182,880.523438 786.984619,874.695496 787.257019,868.511353 787.651550,861.811523 788.283813,854.642700 789.340820,846.774719 790.996521,838.037109 793.425232,828.259521 796.801025,817.271301 801.298096,804.902222 806.845459,791.268616 814.259705,775.401978 822.517212,758.306641 831.481812,739.901367 840.772095,720.392273 850.006897,699.985352 858.804993,678.886780 866.784912,657.302368 873.829102,635.450562 878.855530,613.476257 882.721252,591.501343 885.319214,569.574341 886.805969,547.756104 887.337830,526.107361 887.071228,504.689087 886.162476,483.562012 884.768066,462.786926 883.025757,442.417847 880.998596,422.481689 878.730896,402.998352 876.267151,383.987854 873.651733,365.470215 870.928955,347.465332 868.143311,329.993347 865.334778,312.978699 862.547302,296.737671 859.745239,281.053894 856.896912,266.102844 853.966309,251.964233 850.917114,238.718201 847.713440,226.444458 844.319275,215.222961 840.742188,204.931763 836.822205,196.241943 832.692688,188.554016 828.318787,182.061768 823.709961,176.757080 818.875244,172.631714 813.824097,169.677490 808.565552,167.886108 803.140442,167.058350 797.465210,167.744385 791.651489,169.286987 785.686829,171.778870 779.590210,175.121216 773.380493,179.215271 767.076660,183.962585 760.697693,189.264282 754.268677,194.962219 747.800415,201.174316 741.382385,207.813232 735.089783,215.067688 729.003845,223.067017 723.206116,231.940674 717.777649,241.817688 712.800110,252.827332 708.252319,264.867188 704.525757,278.696228 701.411255,293.420471 699.111755,309.007385 697.728149,325.192627 697.361206,341.711914 698.111755,358.301025 700.080627,374.695679 703.131958,390.751892 707.997314,405.917725 713.672302,420.657166 720.019592,435.026367 726.665527,449.201599 733.236328,463.359192 739.358154,477.675659 744.657349,492.327148 748.760132,507.490173 751.378174,523.279175 752.564636,539.560730 752.458313,556.139709 751.198059,572.820862 748.922668,589.408936 745.770630,605.708618 741.880981,621.524780 737.468933,636.807739 732.452942,650.982971 727.251160,664.580444"
       fill="#FEFEFE"
       stroke="none"
       fill-opacity="1"
       id="polygon30"
       style="fill:url(#linearGradient42);fill-opacity:1;stroke:#b77fff;stroke-opacity:0.99215686" />
    <polygon
       points="1207.537598,685.489258 1207.787476,698.835815 1207.764893,711.883179 1207.454346,724.659790 1206.840332,737.194336 1205.962891,749.546021 1204.644775,761.636658 1203.068115,773.515137 1201.196899,785.092529 1199.051636,796.311035 1196.652100,807.112488 1194.018921,817.439026 1191.172119,827.232666 1188.160767,836.543518 1184.920410,845.000000 1181.566772,852.922119 1178.101807,860.208008 1174.556519,866.864075 1170.961914,872.896729 1167.349121,878.312256 1163.749023,883.117188 1160.180054,887.417236 1156.712158,890.916626 1153.347412,893.903442 1150.139404,896.263733 1147.128784,897.983398 1144.356934,899.048096 1141.864624,899.443726 1139.692871,899.155884 1137.815674,898.289124 1136.458130,896.480835 1135.376343,894.110840 1134.577393,891.092041 1134.001099,887.455933 1133.587646,883.233887 1133.277222,878.457458 1133.009766,873.158081 1132.738281,867.443970 1132.354004,861.084595 1131.784668,854.180054 1130.896118,846.492249 1129.567261,837.859375 1127.676636,828.119873 1125.103516,817.112000 1121.726318,804.673950 1117.598633,790.936401 1112.141846,774.923401 1106.088501,757.663147 1099.539917,739.077271 1092.771362,719.379639 1086.058472,698.784302 1079.676270,677.505005 1073.900513,655.755859 1068.813965,633.757690 1065.202515,611.677856 1062.424561,589.623840 1060.542114,567.649353 1059.424072,545.815247 1058.939331,524.182373 1058.957397,502.811584 1059.347046,481.763550 1059.958984,461.025146 1060.739624,440.871399 1061.615112,421.100586 1062.606934,401.799500 1063.718506,382.980530 1064.953003,364.656494 1066.313843,346.839722 1067.804443,329.542969 1069.405396,312.687866 1071.188110,296.571228 1073.089355,280.991272 1075.136108,266.121216 1077.333252,252.043457 1079.685303,238.840271 1082.197266,226.594055 1084.873535,215.387329 1087.689941,205.101868 1090.740601,196.406982 1093.956299,188.708862 1097.385986,182.201660 1101.049805,176.878418 1104.968262,172.732544 1109.161377,169.757263 1113.649292,167.945862 1118.396362,167.099976 1123.572632,167.776672 1128.942627,169.336914 1134.476562,171.897705 1140.088623,175.383545 1145.693359,179.719727 1151.204956,184.830872 1156.537842,190.642273 1161.664673,196.986877 1166.338501,204.082031 1170.717285,211.663696 1174.739014,219.851929 1178.400391,228.675110 1181.697754,238.161316 1184.627808,248.339294 1187.187012,259.236938 1189.434937,270.753357 1191.184570,283.288330 1192.649170,296.398438 1193.795288,310.141174 1194.652832,324.444275 1195.251221,339.236145 1195.620239,354.444580 1195.789795,369.997681 1195.812622,385.789917 1195.652954,401.856384 1195.433960,418.057678 1195.189453,434.394836 1194.977417,450.835388 1194.854736,467.346924 1194.879272,483.897034 1195.108398,500.453308 1195.546387,516.993103 1196.389771,533.452515 1197.433472,549.818665 1198.664307,566.037476 1200.016113,582.064575 1201.422852,597.855530 1202.818237,613.366089 1204.136353,628.552002 1205.345581,643.437622 1206.283569,657.784302 1207.031250,671.814941"
       fill="#FEFEFE"
       stroke="none"
       fill-opacity="1"
       id="polygon4"
       style="fill:url(#linearGradient42);fill-opacity:1;stroke:#b77fff;stroke-opacity:0.99215686" />
  </g>
  <g
     id="Fills.008"
     style="display:inline;fill:url(#linearGradient39);fill-opacity:1;stroke:#b669fc;stroke-opacity:1"
     inkscape:label="body">
    <polygon
       points="807.00226,432.46173 812.21234,456.66956 816.1308,480.53833 818.76453,504.00183 820.19434,527.03961 820.5014,549.6311 819.7666,571.75586 818.0708,593.39331 815.49506,614.52295 812.23999,635.2157 808.03882,655.16077 803.38806,674.5321 798.3169,693.12195 792.97394,710.81409 787.50836,727.49219 782.06867,743.03967 776.80377,757.34058 771.78375,770.52502 767.36694,781.78381 763.33252,791.974 759.74811,801.01312 756.60248,809.06543 753.8844,816.29517 751.58282,822.86658 749.68634,828.94354 748.12,834.71808 747.06433,840.24414 746.31915,845.63232 745.93939,850.85541 745.91638,855.91388 746.24164,860.8081 746.90637,865.53845 747.90204,870.10535 749.1676,874.53632 750.85712,878.7594 752.83344,882.90063 755.17438,886.98669 757.90558,891.07098 761.05243,895.2074 764.64056,899.44958 768.69537,903.85101 773.15619,908.42102 778.29993,913.32751 783.85504,918.3949 789.88818,923.60608 796.37921,928.89984 803.30829,934.21478 810.65527,939.48956 818.40045,944.66272 826.52374,949.67285 834.99323,954.46576 843.72968,959.01538 852.64185,963.30286 861.63831,967.30926 870.62787,971.01556 879.51935,974.40289 888.22137,977.45245 896.70477,980.20776 904.71313,982.46918 912.44605,984.44049 919.87598,986.08227 927.03723,987.41742 933.96448,988.46899 940.69196,989.26007 947.25421,989.81372 953.70178,990.18475 960.02637,990.29382 966.33728,990.22577 972.68543,989.93121 979.1377,989.39264 985.76062,988.59241 992.62091,987.51312 999.78558,986.13715 1007.2481,984.5022 1015.2698,982.42737 1023.5751,980.07422 1032.1561,977.38501 1040.9318,974.35791 1049.8207,970.99085 1058.7418,967.28192 1067.6143,963.22888 1076.3921,958.88763 1084.8964,954.09051 1093.1909,949.05005 1101.2065,943.75513 1108.9089,938.25244 1116.2644,932.58893 1123.2388,926.81134 1129.798,920.96661 1135.9884,915.09705 1141.5428,909.26013 1146.7106,903.47675 1151.4265,897.78272 1155.7067,892.2096 1159.5666,886.78876 1163.0223,881.55176 1166.0896,876.53003 1168.8435,871.70862 1171.1183,867.2456 1173.0907,862.97022 1174.6967,858.8844 1175.9315,854.94397 1176.7905,851.10461 1177.2689,847.3219 1177.3618,843.5517 1177.1305,839.76221 1176.3794,835.849 1175.3347,831.69513 1173.9666,827.11066 1172.3107,821.91833 1170.4023,815.94092 1168.2775,809.00128 1165.9717,800.92212 1163.5389,791.77527 1160.9702,780.68603 1158.4062,768.47253 1155.9254,755.00623 1153.6237,740.40765 1151.5975,724.79742 1149.9434,708.29608 1148.7572,691.02417 1148.0254,673.19055 1148.1429,654.62378 1148.7183,635.57318 1149.7683,615.90778 1151.2,595.58478 1152.9205,574.56152 1154.8368,552.79529 1156.8561,530.24341 1158.885,506.86304 1160.8411,482.67261 1162.6819,457.93426 1164.3757,432.97119 1165.8907,408.10657 1167.1947,383.6637 1168.256,359.9657 1169.0425,337.33582 1169.5789,315.8114 1169.6591,296.50537 1169.3987,278.54571 1168.6827,262.13556 1167.4524,247.19251 1165.6495,233.63428 1163.2155,221.37817 1160.0914,210.34192 1156.3539,200.26709 1151.5601,191.59637 1146.1531,183.70734 1140.0576,176.67841 1133.3328,170.41235 1126.0378,164.81189 1118.2321,159.77942 1109.9742,155.21777 1101.3239,151.02954 1092.3484,147.13354 1083.1495,143.51373 1073.8372,140.16992 1064.5214,137.10211 1055.312,134.31036 1046.3193,131.79462 1037.6532,129.55481 1029.3324,127.54511 1021.7222,125.8996 1014.5679,124.46252 1007.9608,123.25812 1001.9011,122.26447 996.38934,121.46014 991.42572,120.82349 987.01062,120.33258 983.05273,119.94891 979.8186,119.70599 976.99231,119.55206 974.61542,119.50708 972.63818,119.57471 971.01074,119.75806 969.68323,120.06073 968.60602,120.48566 967.70398,121.01502 967.0083,121.72241 966.42175,122.57617 965.95349,123.6366 965.58704,124.94244 965.30627,126.53265 965.09522,128.4455 964.93726,130.72034 964.81305,133.32257 964.71985,136.48853 964.64581,139.92792 964.59637,143.62109 964.57324,147.47565 964.57837,151.39856 964.61352,155.29742 964.68048,159.07941 964.77515,162.70221 964.91711,165.93903 965.08966,168.9328 965.30005,171.64246 965.54932,174.07672 965.83862,176.24475 966.16901,178.15546 966.54169,179.81775 966.95038,181.2793 967.41809,182.43634 967.92163,183.42651 968.46728,184.23675 969.05371,184.89197 969.67957,185.41748 970.34351,185.83844 971.04462,186.17987 971.77551,186.47192 972.5531,186.72217 973.36249,186.95709 974.21258,187.1806 975.10651,187.40143 976.04749,187.62842 977.03863,187.8703 978.08307,188.13623 979.17407,188.42792 980.34228,188.77423 981.55017,189.15961 982.79767,189.59521 984.07483,190.08563 985.37146,190.63501 986.67767,191.24799 987.98346,191.92877 989.28204,192.66913 990.55389,193.52106 991.80133,194.49738 993.01379,195.67145 994.18408,197.10358 995.30499,198.85461 996.36914,200.9848 997.36938,203.55481 998.29852,206.62518 999.15045,210.27783 999.92401,214.68091 1000.6193,220.02399 1001.2368,226.49664 1001.7762,234.28845 1002.2378,243.58893 1002.6216,254.58783 1002.9407,267.1283 1003.1569,282.33099 1002.9869,301.30438 1002.1164,313.91278 1000.5376,327.37988 999.776,333.52344 998.91602,338.29474 997.99548,342.32245 997.00305,345.55304 995.94019,348.1059 994.80792,350.10028 993.60742,351.65546 992.34015,352.89062 991.01776,353.93866 989.60931,354.85901 988.14838,355.71564 986.62543,356.49921 985.04181,357.21399 983.39856,357.86389 981.69727,358.45343 979.9389,358.98663 978.13397,359.47559 976.25732,359.89984 974.341,360.28326 972.38196,360.61694 970.38586,360.90015 968.3587,361.1319 966.30603,361.31134 964.23389,361.43774 962.14935,361.51923 960.05426,361.52801 957.95966,361.49249 955.87079,361.40503 953.79486,361.26685 951.73859,361.07959 949.70904,360.84448 947.7132,360.56311 945.75769,360.23669 943.84906,359.86603 941.98956,359.44842 940.18103,358.98041 938.42517,358.45825 936.72375,357.87897 935.07855,357.23871 933.49139,356.53406 931.95355,355.77356 930.49756,354.90839 929.09467,353.92255 927.75665,352.7431 926.48535,351.30853 925.28247,349.55798 924.14984,347.42993 923.08923,344.86316 922.08972,341.89014 921.19031,338.14758 920.35181,333.7478 919.5849,328.4079 917.98895,315.33752 917.07703,302.19781 916.84479,282.42981 917.07629,268.82172 917.38232,256.65533 917.76404,245.86291 918.22272,236.37671 918.75971,228.12878 919.37598,221.05176 920.07294,215.0777 920.85083,210.13043 921.70575,206.09937 922.63293,202.86578 923.62762,200.31079 924.68488,198.31525 925.79999,196.76068 926.96808,195.52783 928.17712,194.48389 929.44281,193.57135 930.73279,192.72546 932.04254,191.95666 933.36035,191.26166 934.67426,190.63709 935.97253,190.07935 937.24341,189.58508 938.48352,189.14142 939.65778,188.77246 940.79102,188.44202 941.87598,188.15045 942.91394,187.88922 943.90649,187.64966 944.85498,187.42285 945.76068,187.19995 946.63177,186.97473 947.44928,186.73022 948.23334,186.45862 948.97705,186.14203 949.68012,185.76453 950.34253,185.31036 950.96399,184.76379 951.54419,184.10889 952.08991,183.35327 952.58032,182.40826 953.03619,181.31293 953.45087,180.01001 953.82452,178.4657 954.15729,176.6463 954.44946,174.51764 954.70111,172.04602 954.91913,169.26617 955.08404,165.95996 955.21783,162.4054 955.31616,158.62762 955.38123,154.72046 955.41528,150.77765 955.42078,146.89307 955.3999,143.16022 955.35858,139.61658 955.2865,136.50745 955.18829,133.66705 955.05231,131.13745 954.8706,128.90454 954.63501,126.95386 954.33771,125.27136 953.97064,123.84265 953.5401,122.61597 952.98901,121.6889 952.32105,120.92975 951.47638,120.35651 950.40967,119.94922 949.0755,119.68835 947.42828,119.55402 945.42267,119.52667 943.0882,119.57507 940.15832,119.72034 936.83008,119.94415 933.0044,120.28015 928.65747,120.75067 923.7652,121.37817 918.30359,122.185 912.24853,123.19379 905.68304,124.3855 898.28137,125.90289 890.43573,127.62976 882.12964,129.61157 873.45367,131.85217 864.49835,134.35577 855.35425,137.12628 846.11188,140.16803 836.86157,143.48486 827.69446,147.08838 818.70251,151.01874 809.97852,155.32361 801.61493,160.0509 793.70422,165.24805 786.33911,170.96265 779.61194,177.24249 773.47833,184.02521 768.44183,191.7077 764.18158,200.10431 760.92493,209.48822 758.76202,220.02301 757.78314,231.87231 758.07831,245.19946 759.73798,260.16797 762.59479,276.61316 767.43555,295.60657 773.19983,315.94611 779.78131,337.66565 786.81604,360.47107 793.94043,384.06836 800.79034,408.16333 "
       fill="#fefefe"
       stroke="none"
       fill-opacity="1"
       id="polygon36"
       style="fill:url(#linearGradient39);fill-opacity:1;stroke:#b669fc;stroke-opacity:1" />
    <polygon
       points="761.05243,895.2074 764.64056,899.44958 768.69537,903.85101 773.15619,908.42102 778.29993,913.32751 783.85504,918.3949 789.88818,923.60608 796.37921,928.89984 803.30829,934.21478 810.65527,939.48956 818.40045,944.66272 826.52374,949.67285 834.99323,954.46576 843.72968,959.01538 852.64185,963.30286 861.63831,967.30926 870.62787,971.01556 879.51935,974.40289 888.22137,977.45245 896.70477,980.20776 904.71313,982.46918 912.44605,984.44049 919.87598,986.08227 927.03723,987.41742 933.96448,988.46899 940.69196,989.26007 947.25421,989.81372 953.70178,990.18475 960.02637,990.29382 966.33728,990.22577 972.68543,989.93121 979.1377,989.39264 985.76062,988.59241 992.62091,987.51312 999.78558,986.13715 1007.2481,984.5022 1015.2698,982.42737 1023.5751,980.07422 1032.1561,977.38501 1040.9318,974.35791 1049.8207,970.99085 1058.7418,967.28192 1067.6143,963.22888 1076.3921,958.88763 1084.8964,954.09051 1093.1909,949.05005 1101.2065,943.75513 1108.9089,938.25244 1116.2644,932.58893 1123.2388,926.81134 1129.798,920.96661 1135.9884,915.09705 1141.5428,909.26013 1146.7106,903.47675 1151.4265,897.78272 1155.7067,892.2096 1159.5666,886.78876 1163.0223,881.55176 1166.0896,876.53003 1168.8435,871.70862 1171.1183,867.2456 1173.0907,862.97022 1174.6967,858.8844 1175.9315,854.94397 1176.7905,851.10461 1177.2689,847.3219 1177.3618,843.5517 1177.1305,839.76221 1176.3794,835.849 1175.3347,831.69513 1173.9666,827.11066 1172.3107,821.91833 1170.4023,815.94092 1168.2775,809.00128 1165.9717,800.92212 1163.5389,791.77527 1160.9702,780.68603 1158.4062,768.47253 1155.9254,755.00623 1153.6237,740.40765 1151.5975,724.79742 1149.9434,708.29608 1148.7572,691.02417 1148.0254,673.19055 1148.1429,654.62378 1148.7183,635.57318 1149.7683,615.90778 1151.2,595.58478 1152.9205,574.56152 1154.8368,552.79529 1156.8561,530.24341 1158.885,506.86304 1160.8411,482.67261 1162.6819,457.93426 1164.3757,432.97119 1165.8907,408.10657 1167.1947,383.6637 1168.256,359.9657 1169.0425,337.33582 1169.5789,315.8114 1169.6591,296.50537 1169.3987,278.54571 1168.6827,262.13556 1167.4524,247.19251 1165.6495,233.63428 1163.2155,221.37817 1160.0914,210.34192 1156.3539,200.26709 1151.5601,191.59637 1146.1531,183.70734 1140.0576,176.67841 1133.3328,170.41235 1126.0378,164.81189 1118.2321,159.77942 1109.9742,155.21777 1101.3239,151.02954 1092.3484,147.13354 1083.1495,143.51373 1073.8372,140.16992 1064.5214,137.10211 1055.312,134.31036 1046.3193,131.79462 1037.6532,129.55481 1029.3324,127.54511 1021.7222,125.8996 1014.5679,124.46252 1007.9608,123.25812 1001.9011,122.26447 996.38934,121.46014 991.42572,120.82349 987.01062,120.33258 983.05273,119.94891 979.8186,119.70599 976.99231,119.55206 974.61542,119.50708 972.63818,119.57471 971.01074,119.75806 969.68323,120.06073 968.60602,120.48566 967.70398,121.01502 967.0083,121.72241 966.42175,122.57617 965.95349,123.6366 965.58704,124.94244 965.30627,126.53265 965.09522,128.4455 964.93726,130.72034 964.81305,133.32257 964.71985,136.48853 964.64581,139.92792 964.59637,143.62109 964.57324,147.47565 964.57837,151.39856 964.61352,155.29742 964.68048,159.07941 964.77515,162.70221 964.91711,165.93903 965.08966,168.9328 965.30005,171.64246 965.54932,174.07672 965.83862,176.24475 966.16901,178.15546 966.54169,179.81775 966.95038,181.2793 967.41809,182.43634 967.92163,183.42651 968.46728,184.23675 969.05371,184.89197 969.67957,185.41748 970.34351,185.83844 971.04462,186.17987 971.77551,186.47192 972.5531,186.72217 973.36249,186.95709 974.21258,187.1806 975.10651,187.40143 976.04749,187.62842 977.03863,187.8703 978.08307,188.13623 979.17407,188.42792 980.34228,188.77423 981.55017,189.15961 982.79767,189.59521 984.07483,190.08563 985.37146,190.63501 986.67767,191.24799 987.98346,191.92877 989.28204,192.66913 990.55389,193.52106 991.80133,194.49738 993.01379,195.67145 994.18408,197.10358 995.30499,198.85461 996.36914,200.9848 997.36938,203.55481 998.29852,206.62518 999.15045,210.27783 999.92401,214.68091 1000.6193,220.02399 1001.2368,226.49664 1001.7762,234.28845 1002.2378,243.58893 1002.6216,254.58783 1002.9407,267.1283 1003.1569,282.33099 1002.9869,301.30438 1002.1164,313.91278 1000.5376,327.37988 999.776,333.52344 998.91602,338.29474 997.99548,342.32245 997.00305,345.55304 995.94019,348.1059 994.80792,350.10028 993.60742,351.65546 992.34015,352.89062 991.01776,353.93866 989.60931,354.85901 988.14838,355.71564 986.62543,356.49921 985.04181,357.21399 983.39856,357.86389 981.69727,358.45343 979.9389,358.98663 978.13397,359.47559 976.25732,359.89984 974.341,360.28326 972.38196,360.61694 970.38586,360.90015 968.3587,361.1319 966.30603,361.31134 964.23389,361.43774 962.14935,361.51923 960.05426,361.52801 957.95966,361.49249 955.87079,361.40503 953.79486,361.26685 951.73859,361.07959 949.70904,360.84448 947.7132,360.56311 945.75769,360.23669 943.84906,359.86603 941.98956,359.44842 940.18103,358.98041 938.42517,358.45825 936.72375,357.87897 935.07855,357.23871 933.49139,356.53406 931.95355,355.77356 930.49756,354.90839 929.09467,353.92255 927.75665,352.7431 926.48535,351.30853 925.28247,349.55798 924.14984,347.42993 923.08923,344.86316 922.08972,341.89014 921.19031,338.14758 920.35181,333.7478 919.5849,328.4079 917.98895,315.33752 917.07703,302.19781 916.84479,282.42981 917.07629,268.82172 917.38232,256.65533 917.76404,245.86291 918.22272,236.37671 918.75971,228.12878 919.37598,221.05176 920.07294,215.0777 920.85083,210.13043 921.70575,206.09937 922.63293,202.86578 923.62762,200.31079 924.68488,198.31525 925.79999,196.76068 926.96808,195.52783 928.17712,194.48389 929.44281,193.57135 930.73279,192.72546 932.04254,191.95666 933.36035,191.26166 934.67426,190.63709 935.97253,190.07935 937.24341,189.58508 938.48352,189.14142 939.65778,188.77246 940.79102,188.44202 941.87598,188.15045 942.91394,187.88922 943.90649,187.64966 944.85498,187.42285 945.76068,187.19995 946.63177,186.97473 947.44928,186.73022 948.23334,186.45862 948.97705,186.14203 949.68012,185.76453 950.34253,185.31036 950.96399,184.76379 951.54419,184.10889 952.08991,183.35327 952.58032,182.40826 953.03619,181.31293 953.45087,180.01001 953.82452,178.4657 954.15729,176.6463 954.44946,174.51764 954.70111,172.04602 954.91913,169.26617 955.08404,165.95996 955.21783,162.4054 955.31616,158.62762 955.38123,154.72046 955.41528,150.77765 955.42078,146.89307 955.3999,143.16022 955.35858,139.61658 955.2865,136.50745 955.18829,133.66705 955.05231,131.13745 954.8706,128.90454 954.63501,126.95386 954.33771,125.27136 953.97064,123.84265 953.5401,122.61597 952.98901,121.6889 952.32105,120.92975 951.47638,120.35651 950.40967,119.94922 949.0755,119.68835 947.42828,119.55402 945.42267,119.52667 943.0882,119.57507 940.15832,119.72034 936.83008,119.94415 933.0044,120.28015 928.65747,120.75067 923.7652,121.37817 918.30359,122.185 912.24853,123.19379 905.68304,124.3855 898.28137,125.90289 890.43573,127.62976 882.12964,129.61157 873.45367,131.85217 864.49835,134.35577 855.35425,137.12628 846.11188,140.16803 836.86157,143.48486 827.69446,147.08838 818.70251,151.01874 809.97852,155.32361 801.61493,160.0509 793.70422,165.24805 786.33911,170.96265 779.61194,177.24249 773.47833,184.02521 768.44183,191.7077 764.18158,200.10431 760.92493,209.48822 758.76202,220.02301 757.78314,231.87231 758.07831,245.19946 759.73798,260.16797 762.59479,276.61316 767.43555,295.60657 773.19983,315.94611 779.78131,337.66565 786.81604,360.47107 793.94043,384.06836 800.79034,408.16333 807.00226,432.46173 812.21234,456.66956 816.1308,480.53833 818.76453,504.00183 820.19434,527.03961 820.5014,549.6311 819.7666,571.75586 818.0708,593.39331 815.49506,614.52295 812.23999,635.2157 808.03882,655.16077 803.38806,674.5321 798.3169,693.12195 792.97394,710.81409 787.50836,727.49219 782.06867,743.03967 776.80377,757.34058 771.78375,770.52502 767.36694,781.78381 763.33252,791.974 759.74811,801.01312 756.60248,809.06543 753.8844,816.29517 751.58282,822.86658 749.68634,828.94354 748.12,834.71808 747.06433,840.24414 746.31915,845.63232 745.93939,850.85541 745.91638,855.91388 746.24164,860.8081 746.90637,865.53845 747.90204,870.10535 749.1676,874.53632 750.85712,878.7594 752.83344,882.90063 755.17438,886.98669 757.90558,891.07098 "
       fill="#fefefe"
       stroke="none"
       fill-opacity="1"
       id="polygon1"
       style="display:inline;fill:url(#radialGradient2);fill-opacity:1;stroke:none;stroke-linecap:round;stroke-linejoin:round;stroke-dasharray:6, 6;stroke-dashoffset:0;stroke-opacity:1;paint-order:normal"
       transform="translate(-0.4163,-0.00692)" />
  </g>
  <g
     id="Fills.009"
     style="fill:#6336d5;fill-opacity:1;stroke:#d7a0ff;stroke-opacity:1;stroke-width:3;stroke-dasharray:none"
     inkscape:label="btns">
    <polygon
       points="792.219788,173.420593 785.673706,179.612915 779.715515,186.306030 774.844421,193.899780 770.744934,202.205811 767.644165,211.497925 765.633911,221.938721 764.806519,233.690674 765.254517,246.915405 767.071045,261.773987 770.093018,278.098267 775.112000,296.954712 779.605591,312.157898 781.890808,314.805359 785.328369,314.161804 788.647278,311.843506 795.931702,306.723145 808.413452,292.726501 817.863770,275.993530 823.638794,257.664429 825.344910,238.988586 822.865784,221.238464 814.989990,191.958252 808.221069,166.793030 806.397949,164.572693 803.562012,165.031921 799.397278,167.791748"
       fill="#FEFEFE"
       stroke="none"
       fill-opacity="1"
       id="polygon38"
       style="fill:#6336d5;fill-opacity:1;stroke:#d7a0ff;stroke-opacity:1;stroke-width:3;stroke-dasharray:none" />
    <polygon
       points="806.134277,480.274292 805.834473,475.219238 805.148010,469.731323 804.320068,464.017578 803.403564,458.160278 802.403809,452.210510 801.325745,446.219238 800.174622,440.229492 798.954651,434.252380 797.669922,428.290833 796.324707,422.347717 794.872375,416.488647 793.063843,411.028809 790.599060,406.346558 787.230713,402.755798 782.608887,400.729492 777.127075,399.971558 771.076538,400.344543 764.800781,401.647461 758.670715,403.709229 753.166809,406.480469 748.796326,409.941650 745.977478,414.046387 745.308411,418.832947 746.137939,424.081177 747.995544,429.655945 750.320557,435.394653 752.644409,441.162048 754.866150,446.931335 756.976685,452.702881 758.966736,458.476929 760.829590,464.245300 762.567810,469.965515 764.185974,475.586365 765.689209,481.056824 767.122681,486.270508 768.693970,490.901550 770.651062,494.568542 773.205322,496.962463 776.634094,497.635071 780.669495,497.165283 785.109985,495.992981 789.717041,494.630066 794.242249,493.441956 798.397034,492.207825 801.883362,490.560547 804.455139,488.180603 805.754578,484.658264"
       fill="#FEFEFE"
       stroke="none"
       fill-opacity="1"
       id="polygon33"
       style="fill:#6336d5;fill-opacity:1;stroke:#d7a0ff;stroke-opacity:1;stroke-width:3;stroke-dasharray:none" />
    <polygon
       points="810.126831,529.852051 809.925293,524.112122 809.673645,518.466370 809.332581,513.020203 808.699402,508.127869 807.530701,504.206116 805.625916,501.596436 802.694580,500.783203 799.026550,501.169128 794.821777,502.299744 790.323059,503.645691 785.787415,504.828674 781.528137,506.076111 777.872681,507.766968 775.095886,510.229797 773.569946,513.885132 772.901672,518.418579 772.795044,523.607422 772.901550,529.179077 772.934753,534.900818 772.855774,540.700439 772.687805,546.545715 772.454102,552.404541 772.169800,558.250183 771.817688,564.078125 771.372864,569.889221 770.809875,575.684570 770.177795,581.401794 769.821350,586.726257 770.159485,591.279907 771.547119,594.748535 774.461426,596.665405 778.464539,597.353333 783.240601,596.983276 788.409912,595.789307 793.603149,593.961914 798.492004,591.515747 802.758179,588.421631 806.136292,584.679932 808.253906,580.205566 809.467896,575.219360 810.028259,569.856689 810.237732,564.282715 810.348083,558.635254 810.408569,552.944031 810.417725,547.211914 810.374268,541.441772 810.276917,535.643005"
       fill="#FEFEFE"
       stroke="none"
       fill-opacity="1"
       id="polygon34"
       style="fill:#6336d5;fill-opacity:1;stroke:#d7a0ff;stroke-opacity:1;stroke-width:3;stroke-dasharray:none" />
  </g>
  <g
     id="Fills.005"
     inkscape:label="hol">
    <polygon
       points="960.000061,354.753906 962.690979,354.718628 965.362671,354.609924 967.995911,354.419617 970.571533,354.135742 973.070374,353.745422 975.472900,353.235962 977.760925,352.595154 979.919495,351.814636 981.938721,350.890930 983.813538,349.825989 985.544617,348.626465 987.135559,347.303101 988.590759,345.867065 989.914978,344.329346 991.112854,342.687317 992.189026,340.864014 993.148804,338.683167 993.997559,335.863281 994.741577,332.023071 995.386536,326.707764 996.427490,312.583618 996.959839,296.853821 997.265991,284.012939 997.355957,265.376953 997.139404,249.680603 996.859070,237.016724 996.503601,227.185608 996.058899,219.772034 995.510498,214.318726 994.843811,210.368347 994.044739,207.477356 993.102173,205.272034 992.008850,203.473633 990.761230,201.903381 989.359741,200.477295 987.807800,199.181580 986.109192,198.015869 984.267578,196.979797 982.287292,196.072754 980.174377,195.292725 977.937622,194.635559 975.588501,194.095032 973.141052,193.663147 970.611450,193.330261 968.016174,193.086548 965.371521,192.922058 962.693970,192.827576 960.000061,192.796814 957.306091,192.827576 954.628601,192.922058 951.983887,193.086548 949.388672,193.330261 946.859009,193.663147 944.411682,194.094971 942.062439,194.635498 939.825623,195.292725 937.712769,196.072754 935.732422,196.979736 933.890869,198.015869 932.192322,199.181580 930.640320,200.477295 929.238831,201.903381 927.991272,203.473572 926.897888,205.272034 925.955322,207.477356 925.156311,210.368347 924.489685,214.318726 923.941162,219.772034 923.496582,227.185608 923.141052,237.016724 922.860657,249.680603 922.644104,265.376953 922.734070,284.012939 923.040161,296.853821 923.572632,312.583679 924.613464,326.707764 925.258606,332.023071 926.002441,335.863281 926.851318,338.683167 927.811096,340.864014 928.887207,342.687317 930.085022,344.329346 931.409302,345.867065 932.864563,347.303101 934.455505,348.626465 936.186462,349.825989 938.061462,350.890930 940.080566,351.814636 942.239075,352.595154 944.527161,353.235962 946.929810,353.745422 949.428467,354.135742 952.004150,354.419617 954.637390,354.609924 957.309143,354.718628"
       fill="#FEFEFE"
       stroke="none"
       fill-opacity="1"
       id="polygon28"
       style="fill:#7702c5;fill-opacity:1" />
  </g>
  <g
     id="encoder"
     style="display:inline;fill:#c1c1c1;fill-opacity:1"
     inkscape:label="enc">
    <polygon
       points="976.76941,226.10919 975.62799,225.60785 974.34576,225.12592 972.91821,224.66577 971.34992,224.23334 969.65454,223.83722 967.85205,223.48883 965.96387,223.19989 964.0116,222.98212 962.01648,222.8465 960.00006,222.80041 957.98352,222.8465 955.98846,222.98218 954.03613,223.19989 952.14807,223.48883 950.34552,223.83722 948.65015,224.23322 947.08185,224.66577 945.65424,225.12592 944.37207,225.60791 943.23065,226.10919 942.21631,226.63049 941.30902,227.1748 940.4873,227.74561 939.72992,228.34656 939.01617,228.98254 938.33063,229.66724 937.66431,230.42572 937.01532,231.29498 936.38806,232.32367 935.7923,233.56891 935.2384,235.08911 934.73688,236.9433 934.29749,239.18622 933.92688,241.85431 933.62744,244.95844 933.39691,248.48261 933.22846,252.38556 933.11243,256.60712 933.03821,261.08362 932.99542,265.75128 932.97418,270.54639 932.9679,275.40564 932.97418,280.26605 932.99542,285.065 933.03821,289.74011 933.11243,294.22961 933.22846,298.47168 933.39691,302.40418 933.62744,305.96893 933.92688,309.12567 934.29749,311.85907 934.73688,314.17932 935.2384,316.12164 935.7923,317.7395 936.38806,319.08942 937.01532,320.22852 937.66431,321.21185 938.33063,322.08563 939.01617,322.88446 939.72992,323.63031 940.4873,324.33319 941.30902,324.99445 942.21631,325.61359 943.23065,326.19019 944.37207,326.72394 945.65424,327.21362 947.08185,327.65759 948.65015,328.05334 950.34552,328.39795 952.14807,328.68756 954.03613,328.91852 955.98846,329.08722 957.98352,329.18994 960.00006,329.22449 962.01648,329.18994 964.0116,329.08722 965.96387,328.91852 967.85205,328.68756 969.65454,328.39795 971.34992,328.05334 972.91821,327.65759 974.34576,327.21362 975.62799,326.72394 976.76941,326.19019 977.78381,325.61359 978.6911,324.99445 979.5127,324.33319 980.2702,323.63031 980.98389,322.88446 981.66943,322.08563 982.33569,321.21185 982.9848,320.22852 983.61194,319.08942 984.2077,317.7395 984.7616,316.12164 985.26318,314.17932 985.70251,311.85901 986.07312,309.12567 986.37262,305.96893 986.60321,302.40418 986.77161,298.47168 986.8877,294.22967 986.96185,289.74011 987.00464,285.065 987.02594,280.26605 987.03223,275.40564 987.02594,270.54639 987.00464,265.75128 986.96185,261.08362 986.8877,256.60712 986.77161,252.3855 986.60321,248.48261 986.37262,244.95844 986.07312,241.85431 985.70251,239.18622 985.26318,236.9433 984.7616,235.08917 984.2077,233.56891 983.61194,232.32367 982.9848,231.29498 982.33569,230.42572 981.66943,229.66724 980.98389,228.98254 980.2702,228.34656 979.5127,227.74567 978.6911,227.17474 977.78381,226.63049 "
       fill="#FEFEFE"
       stroke="none"
       fill-opacity="1"
       id="polygon26"
       style="display:inline;fill:#4e0187;fill-opacity:1" />
    <polygon
       points="952.24573,224.00238 948.68347,224.94446 945.47662,226.17847 942.70282,227.62738 940.41187,229.20075 938.62707,230.79529 937.35217,232.29645 936.58722,233.58588 936.33227,234.54272 936.58722,235.05432 937.35217,235.06091 938.62707,234.57629 940.41187,233.69202 942.70282,232.56793 945.47662,231.39117 948.68347,230.32227 952.24573,229.48273 956.05914,228.95392 960.00006,228.77387 963.94092,228.95392 967.75433,229.48273 971.31653,230.32227 974.52338,231.39117 977.29718,232.56793 979.5882,233.69202 981.37299,234.57629 982.64789,235.06091 983.41284,235.05432 983.66779,234.54272 983.41284,233.58588 982.64789,232.29645 981.37299,230.79529 979.5882,229.20075 977.29718,227.62738 974.52338,226.17847 971.31653,224.94446 967.75433,224.00238 963.94092,223.41345 960.00006,223.21332 956.05914,223.41345 "
       fill="#fefefe"
       stroke="none"
       fill-opacity="1"
       id="polygon15"
       style="fill:#c758fc;fill-opacity:1" />
    <polygon
       points="967.75433,240.44354 971.31653,241.08624 974.52338,241.89239 977.29718,242.76056 979.5882,243.55963 981.37299,244.13989 982.64789,244.37811 983.41284,244.21137 983.66779,243.64404 983.41284,242.74304 982.64789,241.61371 981.37299,240.35877 979.5882,239.06836 977.29718,237.81988 974.52338,236.67969 971.31653,235.70837 967.75433,234.96313 963.94092,234.49432 960.00006,234.33435 956.05914,234.49432 952.24573,234.96313 948.68347,235.70837 945.47662,236.67969 942.70282,237.81988 940.41187,239.06836 938.62707,240.35877 937.35217,241.61371 936.58722,242.74304 936.33227,243.64404 936.58722,244.21137 937.35217,244.37811 938.62707,244.13989 940.41187,243.55963 942.70282,242.76056 945.47662,241.89239 948.68347,241.08624 952.24573,240.44354 956.05914,240.03479 960.00006,239.8949 963.94092,240.03479 "
       fill="#fefefe"
       stroke="none"
       fill-opacity="1"
       id="polygon16"
       style="fill:#c758fc;fill-opacity:1" />
    <polygon
       points="967.75433,251.4043 971.31653,251.85016 974.52338,252.39368 977.29718,252.95312 979.5882,253.42731 981.37299,253.70349 982.64789,253.6955 983.41284,253.36847 983.66779,252.7453 983.41284,251.90015 982.64789,250.93103 981.37299,249.92242 979.5882,248.93604 977.29718,248.01257 974.52338,247.18091 971.31653,246.47235 967.75433,245.92383 963.94092,245.5752 960.00006,245.4555 956.05914,245.5752 952.24573,245.92383 948.68347,246.47235 945.47662,247.18091 942.70282,248.01257 940.41187,248.93604 938.62707,249.92242 937.35217,250.93103 936.58722,251.90015 936.33227,252.7453 936.58722,253.36847 937.35217,253.6955 938.62707,253.70349 940.41187,253.42731 942.70282,252.95312 945.47662,252.39368 948.68347,251.85016 952.24573,251.40418 956.05914,251.1156 960.00006,251.01599 963.94092,251.1156 "
       fill="#fefefe"
       stroke="none"
       fill-opacity="1"
       id="polygon17"
       style="fill:#c758fc;fill-opacity:1" />
    <polygon
       points="967.75433,262.36499 971.31653,262.6142 974.52338,262.89496 977.29718,263.14569 979.5882,263.29492 981.37299,263.26703 982.64789,263.0127 983.41284,262.52551 983.66779,261.84668 983.41284,261.05719 982.64789,260.24823 981.37299,259.48596 979.5882,258.80365 977.29718,258.2052 974.52338,257.68219 971.31653,257.23627 967.75433,256.88458 963.94092,256.65601 960.00006,256.57654 956.05914,256.65601 952.24573,256.88464 948.68347,257.23627 945.47662,257.68219 942.70282,258.2052 940.41187,258.80365 938.62707,259.48596 937.35217,260.24823 936.58722,261.05719 936.33227,261.84668 936.58722,262.52551 937.35217,263.0127 938.62707,263.26703 940.41187,263.29492 942.70282,263.14569 945.47662,262.89496 948.68347,262.61414 952.24573,262.36499 956.05914,262.19641 960.00006,262.13715 963.94092,262.19641 "
       fill="#fefefe"
       stroke="none"
       fill-opacity="1"
       id="polygon18"
       style="fill:#c758fc;fill-opacity:1" />
    <polygon
       points="967.75433,273.32574 971.31653,273.37811 974.52338,273.39612 977.29718,273.33838 979.5882,273.16248 981.37299,272.83063 982.64789,272.3299 983.41284,271.68268 983.66779,270.948 983.41284,270.21429 982.64789,269.56549 981.37299,269.04956 979.5882,268.67127 977.29718,268.3977 974.52338,268.18335 971.31653,268.00024 967.75433,267.84528 963.94092,267.73682 960.00006,267.69763 956.05914,267.73688 952.24573,267.84528 948.68347,268.00024 945.47662,268.18335 942.70282,268.3977 940.41187,268.67127 938.62707,269.04956 937.35217,269.56549 936.58722,270.21436 936.33227,270.948 936.58722,271.68268 937.35217,272.3299 938.62707,272.83063 940.41187,273.16248 942.70282,273.33838 945.47662,273.39612 948.68347,273.37811 952.24573,273.32574 956.05914,273.27728 960.00006,273.25818 963.94092,273.27728 "
       fill="#fefefe"
       stroke="none"
       fill-opacity="1"
       id="polygon19"
       style="fill:#c758fc;fill-opacity:1" />
    <polygon
       points="967.75433,284.28644 971.31653,284.14203 974.52338,283.89734 977.29718,283.53094 979.5882,283.03015 981.37299,282.39423 982.64789,281.64722 983.41284,280.83978 983.66779,280.04932 983.41284,279.37146 982.64789,278.88275 981.37299,278.61316 979.5882,278.53894 977.29718,278.59039 974.52338,278.68463 971.31653,278.76416 967.75433,278.80603 963.94092,278.81769 960.00006,278.81867 956.05914,278.81763 952.24573,278.80609 948.68347,278.76416 945.47662,278.68463 942.70282,278.59039 940.41187,278.53894 938.62707,278.61316 937.35217,278.88275 936.58722,279.37146 936.33227,280.04938 936.58722,280.83978 937.35217,281.64722 938.62707,282.39423 940.41187,283.03015 942.70282,283.53094 945.47662,283.89734 948.68347,284.14203 952.24573,284.28644 956.05914,284.35809 960.00006,284.37927 963.94092,284.35809 "
       fill="#fefefe"
       stroke="none"
       fill-opacity="1"
       id="polygon20"
       style="fill:#c758fc;fill-opacity:1" />
    <polygon
       points="967.75433,295.24725 971.31653,294.90607 974.52338,294.39868 977.29718,293.72357 979.5882,292.89777 981.37299,291.95783 982.64789,290.96448 983.41284,289.99689 983.66779,289.1507 983.41284,288.52856 982.64789,288.20007 981.37299,288.17682 979.5882,288.40662 977.29718,288.78302 974.52338,289.18585 971.31653,289.52814 967.75433,289.76679 963.94092,289.8985 960.00006,289.93982 956.05914,289.8985 952.24573,289.76679 948.68347,289.5282 945.47662,289.18597 942.70282,288.78302 940.41187,288.40662 938.62707,288.17682 937.35217,288.20007 936.58722,288.52856 936.33227,289.1507 936.58722,289.99689 937.35217,290.96448 938.62707,291.95783 940.41187,292.89777 942.70282,293.72357 945.47662,294.39868 948.68347,294.90607 952.24573,295.24725 956.05914,295.43896 960.00006,295.50031 963.94092,295.43896 "
       fill="#fefefe"
       stroke="none"
       fill-opacity="1"
       id="polygon21"
       style="fill:#c758fc;fill-opacity:1" />
    <polygon
       points="967.75433,306.20795 971.31653,305.66998 974.52338,304.8999 977.29718,303.9162 979.5882,302.76544 981.37299,301.52142 982.64789,300.2818 983.41284,299.15399 983.66779,298.25214 983.41284,297.68567 982.64789,297.51727 981.37299,297.74042 979.5882,298.27423 977.29718,298.97559 974.52338,299.68713 971.31653,300.29217 967.75433,300.72754 963.94092,300.97931 960.00006,301.06091 956.05914,300.97931 952.24573,300.72754 948.68347,300.29217 945.47662,299.68713 942.70282,298.97559 940.41187,298.27423 938.62707,297.7403 937.35217,297.51727 936.58722,297.68567 936.33227,298.25214 936.58722,299.15399 937.35217,300.28174 938.62707,301.52142 940.41187,302.76544 942.70282,303.9162 945.47662,304.8999 948.68347,305.66998 952.24573,306.20795 956.05914,306.51977 960.00006,306.62146 963.94092,306.51977 "
       fill="#fefefe"
       stroke="none"
       fill-opacity="1"
       id="polygon22"
       style="fill:#c758fc;fill-opacity:1" />
    <polygon
       points="967.75433,317.1687 971.31653,316.43396 974.52338,315.40112 977.29718,314.10883 979.5882,312.63306 981.37299,311.08496 982.64789,309.599 983.41284,308.31116 983.66779,307.35352 983.41284,306.84283 982.64789,306.83453 981.37299,307.30395 979.5882,308.14191 977.29718,309.16821 974.52338,310.18842 971.31653,311.05609 967.75433,311.68835 963.94092,312.06018 960.00006,312.18195 956.05914,312.06018 952.24573,311.68835 948.68347,311.05609 945.47662,310.18842 942.70282,309.16821 940.41187,308.14191 938.62707,307.30395 937.35217,306.83453 936.58722,306.84283 936.33227,307.35352 936.58722,308.31116 937.35217,309.599 938.62707,311.08496 940.41187,312.63306 942.70282,314.10883 945.47662,315.40112 948.68347,316.43396 952.24573,317.1687 956.05914,317.60065 960.00006,317.74249 963.94092,317.60065 "
       fill="#fefefe"
       stroke="none"
       fill-opacity="1"
       id="polygon23"
       style="fill:#c758fc;fill-opacity:1" />
    <polygon
       points="967.75433,328.12939 971.31653,327.19794 974.52338,325.9024 977.29718,324.30151 979.5882,322.50073 981.37299,320.64856 982.64789,318.91626 983.41284,317.46832 983.66779,316.45483 983.41284,315.99988 982.64789,316.15192 981.37299,316.86755 979.5882,318.00946 977.29718,319.3609 974.52338,320.68964 971.31653,321.82007 967.75433,322.64905 963.94092,323.14105 960.00006,323.30304 956.05914,323.14105 952.24573,322.64905 948.68347,321.82007 945.47662,320.68964 942.70282,319.3609 940.41187,318.00946 938.62707,316.86755 937.35217,316.15186 936.58722,315.99988 936.33227,316.45483 936.58722,317.46832 937.35217,318.91626 938.62707,320.64856 940.41187,322.50073 942.70282,324.30151 945.47662,325.9024 948.68347,327.19794 952.24573,328.12939 956.05914,328.6814 960.00006,328.86359 963.94092,328.6814 "
       fill="#fefefe"
       stroke="none"
       fill-opacity="1"
       id="polygon24"
       style="fill:#c758fc;fill-opacity:1" />
  </g>
  <g
     id="Fills.001"
     inkscape:label="clci-ovr"
     style="display:inline;fill:url(#linearGradient45);stroke:#ef0707;stroke-linecap:round;stroke-linejoin:round;stroke-dasharray:6, 6;stroke-dashoffset:0;stroke-opacity:1;paint-order:normal">
    <polygon
       points="989.88043,174.57489 986.89294,169.15198 984.99139,163.3407 984.21686,157.41571 984.60504,151.64887 986.18665,146.30981 988.98816,141.66547 992.82031,137.77624 998.32574,135.46698 1004.7629,134.09058 1012.2249,133.76587 1020.5908,134.40576 1029.7373,135.92218 1039.5376,138.22498 1049.8613,141.22223 1060.5769,144.82098 1071.5353,148.93713 1082.5175,153.51892 1093.297,158.52814 1103.658,163.93262 1113.3934,169.70453 1122.2992,175.81757 1130.1691,182.24475 1137.0316,188.9118 1142.0183,195.93506 1145.9478,203.22186 1148.7467,210.87244 1150.5801,218.94202 1151.6117,227.48547 1152.0284,236.54627 1152.0498,246.15228 1151.8477,256.3493 1151.5728,267.17224 1151.3119,278.60492 1151.1405,290.6261 1151.1439,303.2276 1151.4203,316.41644 1152.0603,330.20264 1153.0115,344.52643 1154.2802,359.36432 1155.8052,374.66077 1157.2023,390.18835 1158.0243,405.66986 1157.8447,420.82111 1156.2522,435.35217 1152.8464,448.96954 1147.2318,461.37781 1139.4934,472.58838 1127.9847,481.41327 1114.7092,488.61615 1099.9369,493.76184 1084.4235,496.72003 1068.9436,497.35382 1054.3048,495.51477 1041.3506,491.04144 1030.3508,484.26971 1023.7613,473.59729 1019.5292,460.83014 1017.7204,445.86005 1017.7438,429.10577 1018.9939,410.99072 1020.9759,391.89947 1023.5353,372.32196 1026.8489,352.86859 1030.4103,333.71558 1033.8419,314.97925 1036.8226,296.77844 1039.0608,279.26373 1040.3076,262.6394 1040.3669,247.17725 1039.1332,233.23956 1036.6274,221.29462 1032.8856,211.67712 1028.1433,204.1568 1022.6703,198.33038 1016.7299,193.76947 1010.593,190.03381 1004.5433,186.67896 998.87884,183.25952 993.74304,179.4892 "
       fill="#5CD9FE"
       stroke="none"
       fill-opacity="1"
       id="R-click"
       style="display:none;fill:url(#linearGradient45);fill-opacity:0.823283;stroke:#ef0707;stroke-linecap:round;stroke-linejoin:round;stroke-dasharray:6, 6;stroke-dashoffset:0;stroke-opacity:1;paint-order:normal"
       inkscape:path-effect="#path-effect38"
       d="m 1010.593,190.03381 -6.0497,-3.35485 -5.66446,-3.41944 -5.1358,-3.77032 -3.86261,-4.91431 -2.98749,-5.42291 -1.90155,-5.81128 -0.77453,-5.92499 0.38818,-5.76684 1.58161,-5.33906 2.80151,-4.64434 3.83215,-3.88923 5.50543,-2.30926 6.43716,-1.3764 7.462,-0.32471 8.3659,0.63989 9.1465,1.51642 9.8003,2.3028 10.3237,2.99725 10.7156,3.59875 10.9584,4.11615 10.9822,4.58179 10.7795,5.00922 10.361,5.40448 9.7354,5.77191 8.9058,6.11304 7.8699,6.42718 6.8625,6.66705 4.9867,7.02326 3.9295,7.2868 2.7989,7.65058 1.8334,8.06958 1.0316,8.54345 0.4167,9.0608 0.021,9.60601 -0.2021,10.19702 -0.2749,10.82294 -0.2609,11.43268 -0.1714,12.02118 0,12.6015 0.2764,13.18884 0.64,13.7862 0.9512,14.32379 1.2687,14.83789 1.525,15.29645 1.3971,15.52758 0.822,15.48151 -0.1796,15.15125 -1.5925,14.53106 -3.4058,13.61737 -5.6146,12.40827 -7.7384,11.21057 -11.5087,8.82489 -13.2755,7.20288 -14.7723,5.14569 -15.5134,2.95819 -15.4799,0.63379 -14.6388,-1.83905 -12.9542,-4.47333 -10.9998,-6.77173 -6.5895,-10.67242 -4.2321,-12.76715 -1.8088,-14.97009 0.023,-16.75428 1.2501,-18.11505 1.982,-19.09125 2.5594,-19.57751 3.3136,-19.45337 3.5614,-19.15301 3.4316,-18.73633 2.9807,-18.20081 2.2382,-17.51471 1.2468,-16.62433 0.059,-15.46215 -1.2337,-13.93769 -2.5058,-11.94494 -3.7418,-9.6175 -4.7423,-7.52032 -5.473,-5.82642 -5.9404,-4.56091 z" />
    <polygon
       points="887.06091,252.73853 886.9798,245.5611 887.18695,238.38446 887.73602,231.33411 888.6806,224.53564 890.0744,218.11499 891.97101,212.19751 894.42407,206.90894 897.48724,202.375 901.17645,198.66412 905.35687,195.61597 909.8559,193.01276 914.50085,190.63721 919.1192,188.27161 923.53839,185.69836 927.58575,182.69989 931.20831,179.20215 933.90167,174.63214 935.9859,169.57758 937.32983,164.12726 937.92157,158.51331 937.74963,152.96832 936.80206,147.7243 935.06738,143.01386 932.66882,138.90271 929.20007,136.06891 925.10785,133.98004 920.30896,132.71539 914.85553,132.18829 908.79944,132.31177 902.19281,132.99921 895.08752,134.16351 887.53565,135.71814 879.61652,137.58746 871.51813,139.74164 863.45587,142.16229 855.6452,144.83093 848.30145,147.729 841.63995,150.83813 835.87616,154.13983 831.00409,157.5896 827.84082,161.25562 825.62628,165.08508 824.42328,169.13776 824.07361,173.44745 824.4187,178.04779 825.30017,182.97266 826.55988,188.2558 828.03912,193.93109 829.59412,200.00873 831.13959,206.40527 832.60431,213.01379 833.91742,219.72711 835.008,226.43848 835.80518,233.04095 836.23785,239.42743 836.23523,245.49109 835.74445,251.1554 834.78565,256.46668 833.3971,261.50177 831.61694,266.33746 829.48358,271.0506 827.03516,275.71796 824.30994,280.41669 821.34625,285.22314 818.19916,290.2226 814.99152,295.53223 811.8631,301.27753 808.95337,307.58374 806.40204,314.57654 804.349,322.3811 802.93372,331.12305 802.2959,340.92755 802.55347,351.84778 803.73621,363.64777 805.85217,376.01849 808.90979,388.65173 812.91693,401.23871 817.88159,413.47082 823.81201,425.03973 830.55261,435.85004 838.54858,444.98529 847.04858,452.93835 855.90185,459.38043 864.79431,464.19659 873.41162,467.27142 881.43945,468.48987 888.56372,467.73676 894.72528,465.26385 898.92755,459.92731 902.0404,453.07495 903.99591,444.65869 904.98138,434.99786 905.18433,424.41125 904.79205,413.21826 903.99207,401.73785 902.97168,390.28894 901.88806,379.13904 900.77637,368.34729 899.64166,357.92139 898.48889,347.86871 897.32312,338.19702 896.14911,328.9137 894.97192,320.02618 893.79657,311.54224 892.63196,303.45673 891.5025,295.71539 890.43677,288.25092 889.46332,280.9964 888.61047,273.88489 887.9068,266.84949 887.38074,259.82294 "
       fill="#FEFEFE"
       stroke="none"
       fill-opacity="1"
       id="L-click"
       style="display:none;fill:url(#linearGradient45);fill-opacity:0.823283;stroke:#ef0707;stroke-linecap:round;stroke-linejoin:round;stroke-dasharray:6, 6;stroke-dashoffset:0;stroke-opacity:1;paint-order:normal" />
    <polygon
       points="799.39728,167.79175 792.21979,173.42059 785.67371,179.61291 779.71551,186.30603 774.84442,193.89978 770.74493,202.20581 767.64417,211.49793 765.63391,221.93872 764.80652,233.69067 765.25452,246.9154 767.07105,261.77399 770.09302,278.09827 775.112,296.95471 779.60559,312.1579 781.89081,314.80536 785.32837,314.1618 788.64728,311.84351 795.9317,306.72314 808.41345,292.7265 817.86377,275.99353 823.63879,257.66443 825.34491,238.98859 822.86578,221.23846 814.98999,191.95825 808.22107,166.79303 806.39795,164.57269 803.56201,165.03192 "
       fill="#FEFEFE"
       stroke="none"
       fill-opacity="1"
       id="L-T-click"
       style="display:none;fill:#d84073;fill-opacity:0.906879;stroke:#ff0c0c;stroke-width:2;stroke-linecap:round;stroke-linejoin:round;stroke-dasharray:12, 6;stroke-dashoffset:0;stroke-opacity:1;paint-order:normal"
       transform="translate(-0.6659199,0.8495316)" />
    <polygon
       points="750.32056,435.39465 752.64441,441.16205 754.86615,446.93133 756.97668,452.70288 758.96674,458.47693 760.82959,464.2453 762.56781,469.96551 764.18597,475.58637 765.68921,481.05682 767.12268,486.27051 768.69397,490.90155 770.65106,494.56854 773.20532,496.96246 776.63409,497.63507 780.66949,497.16528 785.10999,495.99298 789.71704,494.63007 794.24225,493.44196 798.39703,492.20783 801.88336,490.56055 804.45514,488.1806 805.75458,484.65826 806.13428,480.27429 805.83447,475.21924 805.14801,469.73132 804.32007,464.01758 803.40356,458.16028 802.40381,452.21051 801.32574,446.21924 800.17462,440.22949 798.95465,434.25238 797.66992,428.29083 796.32471,422.34772 794.87238,416.48865 793.06384,411.02881 790.59906,406.34656 787.23071,402.7558 782.60889,400.72949 777.12707,399.97156 771.07654,400.34454 764.80078,401.64746 758.67071,403.70923 753.16681,406.48047 748.79633,409.94165 745.97748,414.04639 745.30841,418.83295 746.13794,424.08118 747.99554,429.65594 "
       fill="#FEFEFE"
       stroke="none"
       fill-opacity="1"
       id="F-btn"
       style="display:none;fill:#d84073;fill-opacity:0.906879;stroke:#ff0c0c;stroke-width:2;stroke-linecap:round;stroke-linejoin:round;stroke-dasharray:12, 6;stroke-dashoffset:0;stroke-opacity:1;paint-order:normal"
       transform="translate(-0.6659199,0.8495316)" />
    <polygon
       points="771.81769,564.07812 771.37286,569.88922 770.80988,575.68457 770.17779,581.40179 769.82135,586.72626 770.15949,591.27991 771.54712,594.74853 774.46143,596.6654 778.46454,597.35333 783.2406,596.98328 788.40991,595.78931 793.60315,593.96191 798.492,591.51575 802.75818,588.42163 806.13629,584.67993 808.25391,580.20557 809.4679,575.21936 810.02826,569.85669 810.23773,564.28272 810.34808,558.63525 810.40857,552.94403 810.41773,547.21191 810.37427,541.44177 810.27692,535.64301 810.12683,529.85205 809.92529,524.11212 809.67364,518.46637 809.33258,513.0202 808.6994,508.12787 807.5307,504.20612 805.62592,501.59644 802.69458,500.7832 799.02655,501.16913 794.82178,502.29974 790.32306,503.64569 785.78742,504.82867 781.52814,506.07611 777.87268,507.76697 775.09589,510.2298 773.56995,513.88513 772.90167,518.41858 772.79504,523.60742 772.90155,529.17908 772.93475,534.90082 772.85577,540.70044 772.68781,546.54571 772.4541,552.40454 772.1698,558.25018 "
       fill="#FEFEFE"
       stroke="none"
       fill-opacity="1"
       id="B-btn"
       style="display:none;fill:#d84073;fill-opacity:0.906879;stroke:#ff0c0c;stroke-width:2;stroke-linecap:round;stroke-linejoin:round;stroke-dasharray:12, 6;stroke-dashoffset:0;stroke-opacity:1;paint-order:normal"
       transform="translate(-0.6659199,0.8495316)" />
  </g>
</svg>
