<?xml version="1.0" encoding="UTF-8" standalone="no"?>
<!-- Generator: Blender, SVG Export for Grease Pencil - v2.0 -->

<svg
   version="1.0"
   x="0px"
   y="0px"
   width="1920.000000px"
   height="1080.000000px"
   viewBox="0 0 1920.000000 1080.000000"
   id="svg19"
   sodipodi:docname="mouse-3.svg"
   inkscape:version="1.4.2 (ebf0e940d0, 2025-05-08)"
   xmlns:inkscape="http://www.inkscape.org/namespaces/inkscape"
   xmlns:sodipodi="http://sodipodi.sourceforge.net/DTD/sodipodi-0.dtd"
   xmlns:xlink="http://www.w3.org/1999/xlink"
   xmlns="http://www.w3.org/2000/svg"
   xmlns:svg="http://www.w3.org/2000/svg">
  <defs
     id="defs19">
    <linearGradient
       id="linearGradient12"
       inkscape:collect="always">
      <stop
         style="stop-color:#bb6ee3;stop-opacity:1;"
         offset="0"
         id="stop10" />
      <stop
         style="stop-color:#b67cd6;stop-opacity:0.73333335;"
         offset="0.21660951"
         id="stop13" />
      <stop
         style="stop-color:#a970c9;stop-opacity:0.48235294;"
         offset="0.53935856"
         id="stop14" />
      <stop
         style="stop-color:#8f4cba;stop-opacity:0.43619502;"
         offset="0.79198694"
         id="stop16" />
      <stop
         style="stop-color:#6b259f;stop-opacity:0.36828047;"
         offset="1"
         id="stop12" />
    </linearGradient>
    <linearGradient
       id="linearGradient7"
       inkscape:collect="always">
      <stop
         style="stop-color:#ec0000;stop-opacity:0.76483059;"
         offset="0"
         id="stop7" />
      <stop
         style="stop-color:#ff0707;stop-opacity:0.02448435;"
         offset="1"
         id="stop8" />
    </linearGradient>
    <linearGradient
       id="linearGradient3"
       inkscape:collect="always">
      <stop
         style="stop-color:#8e00d3;stop-opacity:1;"
         offset="0"
         id="stop3" />
      <stop
         style="stop-color:#000000;stop-opacity:1;"
         offset="0.5"
         id="stop5" />
      <stop
         style="stop-color:#9100e9;stop-opacity:1;"
         offset="1"
         id="stop4" />
    </linearGradient>
    <linearGradient
       id="linearGradient1"
       inkscape:collect="always">
      <stop
         style="stop-color:#be71e5;stop-opacity:1;"
         offset="0"
         id="stop1" />
      <stop
         style="stop-color:#943ac9;stop-opacity:1;"
         offset="0.46076226"
         id="stop9" />
      <stop
         style="stop-color:#68259b;stop-opacity:1;"
         offset="1"
         id="stop2" />
    </linearGradient>
    <linearGradient
       inkscape:collect="always"
       xlink:href="#linearGradient1"
       id="linearGradient2"
       x1="960.00006"
       y1="334.04529"
       x2="960.00006"
       y2="777.05811"
       gradientUnits="userSpaceOnUse" />
    <linearGradient
       inkscape:collect="always"
       xlink:href="#linearGradient3"
       id="linearGradient4"
       x1="710.21765"
       y1="535.13586"
       x2="1209.7825"
       y2="535.13586"
       gradientUnits="userSpaceOnUse" />
    <linearGradient
       inkscape:collect="always"
       xlink:href="#linearGradient7"
       id="linearGradient8"
       x1="960"
       y1="125.92474"
       x2="960"
       y2="509.30341"
       gradientUnits="userSpaceOnUse" />
    <radialGradient
       inkscape:collect="always"
       xlink:href="#linearGradient12"
       id="radialGradient9"
       cx="960.00006"
       cy="545.9978"
       fx="960.00006"
       fy="545.9978"
       r="221.50642"
       gradientTransform="matrix(1.1700672,-0.02763408,0.04501456,1.9059818,-187.8424,-477.41731)"
       gradientUnits="userSpaceOnUse" />
  </defs>
  <sodipodi:namedview
     id="namedview19"
     pagecolor="#505050"
     bordercolor="#ffffff"
     borderopacity="1"
     inkscape:showpageshadow="0"
     inkscape:pageopacity="0"
     inkscape:pagecheckerboard="1"
     inkscape:deskcolor="#505050"
     inkscape:zoom="0.9025328"
     inkscape:cx="969.49385"
     inkscape:cy="550.11851"
     inkscape:window-width="1920"
     inkscape:window-height="1011"
     inkscape:window-x="0"
     inkscape:window-y="32"
     inkscape:window-maximized="1"
     inkscape:current-layer="svg19" />
  <clipPath
     id="clip-path1">
    <rect
       x="0"
       y="0"
       width="1920"
       height="1080"
       fill="none"
       id="rect1" />
  </clipPath>
  <g
     id="corner"
     style="display:inline;fill:url(#linearGradient4);stroke:#b77fff;stroke-opacity:0.99245471;stroke-width:2;stroke-dasharray:none"
     inkscape:label="cor">
    <polygon
       points="724.66833,815.10559 727.68188,825.19238 730.87164,834.53534 734.21307,843.08008 737.68603,850.81726 741.27484,857.77954 744.96661,864.03137 748.74908,869.64294 752.60986,874.68481 756.53455,879.22253 760.49609,883.29822 764.45117,886.92206 768.33887,890.07019 772.08179,892.68683 775.59021,894.69232 778.77203,896.00269 781.5354,896.53381 783.79443,896.2088 785.49603,894.98718 786.63086,892.87842 787.23651,889.94421 787.39398,886.29602 787.21759,882.08197 786.82715,877.45715 786.34308,872.5769 785.88153,867.58276 785.53821,862.54614 785.38098,857.44336 785.44812,852.15057 785.75049,846.44885 786.27814,840.04901 787.01709,832.64819 787.95361,823.94373 789.07141,813.65234 790.34338,801.59174 791.72687,787.71582 793.16351,772.12293 794.57947,755.04742 795.88959,736.82495 797.0069,717.81043 797.84412,698.35883 798.31952,678.81103 798.38086,659.43457 798.01477,640.39832 797.24957,621.76648 796.15283,603.5044 794.82098,585.50427 793.35651,567.6441 791.86139,549.80188 790.4339,531.86066 789.15131,513.72864 788.06232,495.34857 787.18579,476.69928 786.51233,457.79401 786.01148,438.6712 785.64856,419.37457 785.38928,399.94739 785.20013,380.43823 785.05316,360.92188 784.92804,341.50806 784.81232,322.34393 784.70105,303.612 784.59503,285.52063 784.49585,268.28357 784.40515,252.1142 784.32117,237.21905 784.22382,223.76758 784.06781,211.87891 783.78186,201.62006 783.26996,193.00714 782.41736,186.02008 781.10608,180.6311 779.21802,176.81274 776.64539,174.53302 773.33344,173.73791 769.2995,174.34259 764.6369,176.23102 759.51068,179.25641 754.13934,183.24982 748.75147,188.0379 743.57568,193.44745 738.83069,199.31427 734.68335,205.52203 731.23041,212.01868 728.49481,218.82037 726.42963,226.00775 724.93579,233.70898 723.90442,242.06158 723.22675,251.20294 722.79749,261.26202 722.53046,272.32355 722.36523,284.41278 722.26837,297.49182 722.23212,311.46314 722.26801,326.18524 722.39087,341.50781 722.61585,357.28088 722.95508,373.35864 723.40747,389.61877 723.95306,405.96997 724.55219,422.35443 725.14685,438.74536 725.66522,455.1394 726.0329,471.53748 726.17542,487.94067 726.02307,504.34766 725.53107,520.74469 724.6886,537.1015 723.51965,553.37012 722.08246,569.48596 720.45996,585.37219 718.73987,600.9494 717.00989,616.13843 715.35577,630.86523 713.85248,645.08276 712.5603,658.78076 711.52454,671.98767 710.77582,684.76831 710.33429,697.21497 710.21765,709.42499 710.44391,721.49554 711.02936,733.51727 711.98291,745.54504 713.30286,757.58575 714.97668,769.59558 716.98126,781.48254 719.28613,793.11951 721.85925,804.37195 "
       fill="#95b4fe"
       stroke="none"
       fill-opacity="1"
       id="polygon1"
       style="fill:url(#linearGradient4);stroke:#b77fff;stroke-opacity:0.99245471;stroke-width:2;stroke-dasharray:none" />
    <polygon
       points="1195.3318,815.10559 1192.3181,825.19238 1189.1283,834.53534 1185.787,843.08008 1182.3141,850.81726 1178.7252,857.77954 1175.0333,864.03137 1171.251,869.64294 1167.3901,874.68481 1163.4655,879.22253 1159.504,883.29822 1155.549,886.92206 1151.6613,890.07019 1147.9183,892.68683 1144.4099,894.69232 1141.228,896.00269 1138.4647,896.53381 1136.2057,896.2088 1134.5041,894.98718 1133.3693,892.87842 1132.7635,889.94421 1132.606,886.29602 1132.7826,882.08197 1133.173,877.45715 1133.657,872.5769 1134.1185,867.58276 1134.4618,862.54614 1134.6191,857.44336 1134.552,852.15057 1134.2496,846.44885 1133.7219,840.04901 1132.983,832.64819 1132.0465,823.94373 1130.9287,813.65234 1129.6567,801.59174 1128.2732,787.71582 1126.8365,772.12293 1125.4205,755.04742 1124.1105,736.82495 1122.9932,717.81043 1122.156,698.35883 1121.6805,678.81103 1121.6191,659.43457 1121.9852,640.39832 1122.7505,621.76648 1123.8473,603.5044 1125.1791,585.50427 1126.6437,567.6441 1128.1387,549.80188 1129.5662,531.86066 1130.8488,513.72864 1131.9377,495.34857 1132.8143,476.69928 1133.4877,457.79401 1133.9886,438.6712 1134.3514,419.37457 1134.6107,399.94739 1134.7999,380.43823 1134.9469,360.92188 1135.072,341.50806 1135.1879,322.34393 1135.299,303.612 1135.405,285.52063 1135.5041,268.28357 1135.595,252.1142 1135.679,237.21905 1135.7762,223.76758 1135.9324,211.87891 1136.2183,201.62006 1136.7301,193.00714 1137.5826,186.02008 1138.894,180.6311 1140.782,176.81274 1143.3547,174.53302 1146.6667,173.73791 1150.7004,174.34259 1155.3632,176.23102 1160.4893,179.25641 1165.8607,183.24982 1171.2487,188.0379 1176.4243,193.44745 1181.1694,199.31427 1185.3168,205.52203 1188.7697,212.01868 1191.5051,218.82037 1193.5706,226.00775 1195.0643,233.70898 1196.0957,242.06158 1196.7734,251.20294 1197.2025,261.26202 1197.4695,272.32355 1197.6348,284.41278 1197.7317,297.49182 1197.7681,311.46314 1197.7321,326.18524 1197.6091,341.50781 1197.3843,357.28088 1197.0449,373.35864 1196.5925,389.61877 1196.047,405.96997 1195.448,422.35443 1194.8533,438.74536 1194.3347,455.1394 1193.9672,471.53748 1193.8247,487.94067 1193.9771,504.34766 1194.4689,520.74469 1195.3115,537.1015 1196.4805,553.37012 1197.9177,569.48596 1199.5402,585.37219 1201.2601,600.9494 1202.9901,616.13843 1204.6443,630.86523 1206.1476,645.08276 1207.4397,658.78076 1208.4756,671.98767 1209.2242,684.76831 1209.6658,697.21497 1209.7825,709.42499 1209.5562,721.49554 1208.9707,733.51727 1208.0172,745.54504 1206.6973,757.58575 1205.0234,769.59558 1203.0188,781.48254 1200.714,793.11951 1198.1409,804.37195 "
       fill="#95b4fe"
       stroke="none"
       fill-opacity="1"
       id="polygon2"
       style="fill:url(#linearGradient4);stroke:#b77fff;stroke-opacity:0.99245471;stroke-width:2;stroke-dasharray:none" />
  </g>
  <g
     id="holder"
     style="display:inline;fill:#7702c5;fill-opacity:1"
     inkscape:label="hol">
    <polygon
       points="992.18903,340.86401 993.1488,338.68317 993.99756,335.86328 994.74158,332.02307 995.38654,326.70776 996.42749,312.58362 996.95984,296.85382 997.26599,284.01294 997.35596,265.37695 997.1394,249.6806 996.85907,237.01672 996.5036,227.18561 996.0589,219.77203 995.5105,214.31873 994.84381,210.36835 994.04474,207.47736 993.10217,205.27203 992.00885,203.47363 990.76123,201.90338 989.35974,200.47729 987.8078,199.18158 986.10919,198.01587 984.26758,196.9798 982.28729,196.07275 980.17438,195.29272 977.93762,194.63556 975.5885,194.09503 973.14105,193.66315 970.61145,193.33026 968.01617,193.08655 965.37152,192.92206 962.69397,192.82758 960.00006,192.79681 957.30609,192.82758 954.6286,192.92206 951.98389,193.08655 949.38867,193.33026 946.85901,193.66315 944.41168,194.09497 942.06244,194.6355 939.82562,195.29272 937.71277,196.07275 935.73242,196.97974 933.89087,198.01587 932.19232,199.18158 930.64032,200.47729 929.23883,201.90338 927.99127,203.47357 926.89789,205.27203 925.95532,207.47736 925.15631,210.36835 924.48969,214.31873 923.94116,219.77203 923.49658,227.18561 923.14105,237.01672 922.86066,249.6806 922.6441,265.37695 922.73407,284.01294 923.04016,296.85382 923.57263,312.58368 924.61346,326.70776 925.25861,332.02307 926.00244,335.86328 926.85132,338.68317 927.8111,340.86401 928.88721,342.68732 930.08502,344.32935 931.4093,345.86707 932.86456,347.3031 934.45551,348.62646 936.18646,349.82599 938.06146,350.89093 940.08057,351.81464 942.23907,352.59515 944.52716,353.23596 946.92981,353.74542 949.42847,354.13574 952.00415,354.41962 954.63739,354.60992 957.30914,354.71863 960.00006,354.75391 962.69098,354.71863 965.36267,354.60992 967.99591,354.41962 970.57153,354.13574 973.07037,353.74542 975.4729,353.23596 977.76093,352.59515 979.91949,351.81464 981.93872,350.89093 983.81354,349.82599 985.54462,348.62646 987.13556,347.3031 988.59076,345.86707 989.91498,344.32935 991.11285,342.68732 "
       fill="#4f7ef2"
       stroke="none"
       fill-opacity="1"
       id="polygon3"
       style="fill:#7702c5;fill-opacity:1" />
  </g>
  <g
     id="body"
     style="display:inline;fill:url(#linearGradient2);stroke:#b15efc;stroke-opacity:1;stroke-width:2;stroke-dasharray:none">
    <polygon
       points="1002.6517,987.98584 1010.6987,986.2702 1019.3901,984.15265 1028.6613,981.61383 1038.3926,978.64654 1048.4219,975.25232 1058.5797,971.43445 1068.6962,967.19635 1078.6067,962.54315 1088.174,957.49005 1097.2968,952.06586 1105.9125,946.31335 1113.995,940.28906 1121.545,934.05939 1128.5688,927.6925 1135.0725,921.25696 1141.0623,914.81952 1146.5488,908.44092 1151.5464,902.17261 1156.0747,896.05682 1160.1577,890.12689 1163.823,884.40955 1167.0985,878.93036 1170.0125,873.71472 1172.5913,868.78705 1174.8538,864.16638 1176.8073,859.86426 1178.4482,855.88434 1179.7618,852.22315 1180.7257,848.87146 1181.3152,845.81921 1181.5065,843.05627 1181.2766,840.56207 1180.6112,838.263 1179.5068,836.01331 1177.9718,833.591 1176.025,830.70245 1173.6941,827.00037 1171.0078,822.12738 1167.9952,815.72607 1164.6899,807.46143 1161.15,797.11554 1157.4667,784.62799 1153.766,770.10523 1150.2065,753.8114 1146.9722,736.12769 1144.251,717.45752 1142.231,698.20459 1141.0879,678.74939 1140.9324,659.35413 1141.7877,640.12048 1143.5844,620.98108 1146.1649,601.70801 1149.3077,581.95483 1152.7781,561.35236 1156.3413,539.53125 1159.7719,516.15491 1162.8907,491.05701 1165.5814,464.30066 1167.7937,436.19208 1169.5402,407.26691 1170.8802,378.23084 1171.8816,349.82257 1172.6123,322.78058 1173.1342,297.80926 1173.4766,275.43549 1173.6255,255.94611 1173.5198,239.37482 1173.0558,225.51538 1172.0963,213.98401 1170.4987,204.36267 1168.12,196.23358 1164.8252,189.19086 1160.52,182.89416 1155.1652,177.08997 1148.7799,171.61755 1141.4379,166.40356 1133.2544,161.43933 1124.3518,156.72882 1114.853,152.27606 1104.8811,148.08478 1094.5612,144.15961 1084.0208,140.50574 1073.3907,137.12903 1062.804,134.03644 1052.3958,131.23474 1042.3018,128.73132 1032.6575,126.53369 1023.5933,124.64734 1015.2124,123.07166 1007.582,121.79645 1000.7306,120.80194 994.65015,120.05902 989.30573,119.53168 984.65729,119.1828 980.6648,118.9751 977.28711,118.87238 974.48023,118.84424 972.19464,118.86792 970.37573,118.92822 968.96405,119.01837 967.89667,119.13678 967.10974,119.28278 966.53925,119.45612 966.12347,119.65924 965.81012,119.91071 965.55945,120.2503 965.34589,120.74023 965.15649,121.46405 964.98804,122.52136 964.83893,124.01465 964.70776,126.04633 964.59338,128.70984 964.49481,132.05133 964.41284,136.0528 964.34882,140.62891 964.30536,145.63049 964.28552,150.86066 964.29279,156.11414 964.33081,161.18469 964.40271,165.87585 964.51148,170.03674 964.65997,173.57812 964.85004,176.47711 965.08374,178.77234 965.36249,180.54871 965.68756,181.89984 966.06049,182.91925 966.48242,183.69794 966.95374,184.31268 967.47339,184.82135 968.03906,185.2616 968.64734,185.65192 969.29358,185.99677 969.97321,186.29816 970.68152,186.55804 971.41425,186.77808 972.16968,186.96228 972.94904,187.1167 973.75671,187.24939 974.60101,187.37103 975.4917,187.49359 976.43945,187.6297 977.45508,187.79163 978.54797,187.99176 979.72363,188.24054 980.98071,188.54688 982.31189,188.91742 983.70337,189.35681 985.13678,189.86816 986.59302,190.45465 988.05273,191.11908 989.49725,191.8642 990.91028,192.69159 992.27826,193.60144 993.59113,194.5921 994.84192,195.66058 996.02594,196.80286 997.13873,198.0144 998.17639,199.29095 999.13464,200.64313 1000.0101,202.15973 1000.8006,204.03528 1001.5051,206.57556 1002.1237,210.19189 1002.6569,215.3739 1003.1058,222.62622 1003.4713,232.45331 1003.7547,245.31482 1003.9574,261.43555 1004.0819,280.72412 1003.4724,300.94898 1003.0613,317.02496 1002.5956,326.85016 1002.0699,334.10034 1001.4783,339.27985 1000.8148,342.89337 1000.0743,345.43048 999.25256,347.30255 998.34778,348.81531 997.36066,350.16339 996.2934,351.43549 995.15008,352.64221 993.9353,353.77924 992.65338,354.84241 991.30829,355.82745 989.90381,356.73193 988.44171,357.5556 986.92322,358.30017 985.34784,358.96985 983.7146,359.57013 982.02216,360.10675 980.26935,360.58575 978.45514,361.013 976.57989,361.3941 974.64606,361.73468 972.65802,362.03998 970.62201,362.31531 968.54584,362.56561 966.43744,362.79584 964.30493,362.99597 962.15656,363.12885 960.00006,363.17426 957.84357,363.12885 955.69507,362.99597 953.56262,362.79584 951.45435,362.56561 949.37811,362.31531 947.34216,362.03998 945.354,361.73468 943.42011,361.3941 941.54486,361.013 939.73065,360.58575 937.97784,360.10675 936.28552,359.57013 934.65228,358.96985 933.0769,358.30017 931.55835,357.5556 930.09637,356.73193 928.69171,355.82745 927.34668,354.84241 926.06476,353.77924 924.84998,352.64221 923.70673,351.43549 922.63953,350.16339 921.65222,348.81531 920.74756,347.30255 919.92578,345.43048 919.18524,342.89337 918.52179,339.27985 917.93012,334.10034 917.40436,326.85016 916.93872,317.02496 916.52771,300.94898 915.91815,280.72412 916.04266,261.43555 916.24536,245.31482 916.52869,232.45331 916.89429,222.62622 917.34326,215.3739 917.87647,210.19189 918.49487,206.57556 919.19946,204.03528 919.98993,202.15973 920.86536,200.64313 921.82361,199.29095 922.86127,198.0144 923.97424,196.80286 925.15814,195.66058 926.40887,194.5921 927.72186,193.60144 929.08978,192.69159 930.50275,191.8642 931.94727,191.11908 933.4071,190.45465 934.86328,189.86816 936.29669,189.35681 937.68817,188.91742 939.01935,188.54688 940.27649,188.24054 941.45203,187.99176 942.54504,187.79163 943.56061,187.6297 944.50836,187.49359 945.39905,187.37103 946.24329,187.24939 947.05115,187.1167 947.83038,186.96228 948.58575,186.77808 949.31854,186.55804 950.02685,186.29816 950.70642,185.99677 951.35278,185.65192 951.961,185.2616 952.52673,184.82135 953.04633,184.31268 953.5177,183.69794 953.93957,182.91925 954.31244,181.89984 954.63763,180.54871 954.91626,178.77234 955.14996,176.47711 955.34021,173.57812 955.48859,170.03674 955.59735,165.87585 955.66925,161.18469 955.70721,156.11414 955.7146,150.86066 955.69482,145.63049 955.65125,140.62891 955.58722,136.0528 955.50525,132.05133 955.4068,128.70984 955.29224,126.04633 955.16107,124.01465 955.01202,122.52136 954.84351,121.46405 954.65418,120.74023 954.44061,120.2503 954.19,119.91071 953.87653,119.65924 953.46088,119.45612 952.89044,119.28278 952.10346,119.13678 951.03601,119.01837 949.62427,118.92822 947.80542,118.86792 945.51977,118.84424 942.71289,118.87238 939.33539,118.9751 935.34271,119.1828 930.69434,119.53168 925.34992,120.05902 919.26947,120.80194 912.41803,121.79645 904.78766,123.07166 896.40686,124.64734 887.34265,126.53369 877.69824,128.73132 867.60431,131.23474 857.19611,134.03644 846.60931,137.12903 835.97919,140.50574 825.43897,144.15961 815.1189,148.08478 805.14697,152.27606 795.64825,156.72882 786.74573,161.43933 778.56213,166.40356 771.22022,171.61755 764.83484,177.08997 759.48004,182.89416 755.17487,189.19086 751.88007,196.23358 749.5014,204.36267 747.90381,213.98401 746.9444,225.51538 746.48023,239.37482 746.37463,255.94611 746.52344,275.43549 746.86597,297.80926 747.38782,322.78058 748.11853,349.82257 749.11987,378.23084 750.4599,407.26691 752.20642,436.19208 754.4187,464.30066 757.10938,491.05701 760.22809,516.15491 763.65875,539.53125 767.22205,561.35236 770.69232,581.95483 773.83514,601.70801 776.41583,620.98108 778.2124,640.12048 779.06769,659.35413 778.91223,678.74939 777.76917,698.20459 775.74921,717.45752 773.02789,736.12769 769.79352,753.8114 766.23413,770.10523 762.53332,784.62799 758.84998,797.11554 755.31018,807.46143 752.00488,815.72607 748.99225,822.12738 746.30603,827.00037 743.97504,830.70245 742.02832,833.591 740.49316,836.01331 739.38879,838.263 738.72345,840.56207 738.49365,843.05627 738.68494,845.81921 739.27441,848.87146 740.23816,852.22315 741.55188,855.88434 743.19281,859.86426 745.1463,864.16638 747.40875,868.78705 749.98767,873.71472 752.90161,878.93036 756.17706,884.40955 759.84228,890.12689 763.92529,896.05682 768.45361,902.17261 773.45129,908.44092 778.93774,914.81952 784.92767,921.25696 791.43121,927.6925 798.45502,934.05939 806.00513,940.28906 814.08758,946.31335 822.70325,952.06586 831.82599,957.49005 841.39325,962.54315 851.30389,967.19635 861.42047,971.43445 871.57819,975.25232 881.60754,978.64654 891.33881,981.61383 900.61011,984.15265 909.30127,986.2702 917.34839,987.98584 924.74658,989.33154 931.5473,990.35138 937.84332,991.09821 943.73572,991.62659 949.32544,991.99243 954.7132,992.19458 960.00006,992.25915 965.2868,992.19458 970.67474,991.99243 976.2644,991.62659 982.15674,991.09821 988.45276,990.35138 995.25342,989.33154 "
       fill="#abcdfe"
       stroke="none"
       fill-opacity="1"
       id="polygon4"
       style="fill:url(#linearGradient2);stroke:#b15efc;stroke-opacity:1;stroke-width:2;stroke-dasharray:none" />
    <polygon
       points="1068.6962,967.19635 1078.6067,962.54315 1088.174,957.49005 1097.2968,952.06586 1105.9125,946.31335 1113.995,940.28906 1121.545,934.05939 1128.5688,927.6925 1135.0725,921.25696 1141.0623,914.81952 1146.5488,908.44092 1151.5464,902.17261 1156.0747,896.05682 1160.1577,890.12689 1163.823,884.40955 1167.0985,878.93036 1170.0125,873.71472 1172.5913,868.78705 1174.8538,864.16638 1176.8073,859.86426 1178.4482,855.88434 1179.7618,852.22315 1180.7257,848.87146 1181.3152,845.81921 1181.5065,843.05627 1181.2766,840.56207 1180.6112,838.263 1179.5068,836.01331 1177.9718,833.591 1176.025,830.70245 1173.6941,827.00037 1171.0078,822.12738 1167.9952,815.72607 1164.6899,807.46143 1161.15,797.11554 1157.4667,784.62799 1153.766,770.10523 1150.2065,753.8114 1146.9722,736.12769 1144.251,717.45752 1142.231,698.20459 1141.0879,678.74939 1140.9324,659.35413 1141.7877,640.12048 1143.5844,620.98108 1146.1649,601.70801 1149.3077,581.95483 1152.7781,561.35236 1156.3413,539.53125 1159.7719,516.15491 1162.8907,491.05701 1165.5814,464.30066 1167.7937,436.19208 1169.5402,407.26691 1170.8802,378.23084 1171.8816,349.82257 1172.6123,322.78058 1173.1342,297.80926 1173.4766,275.43549 1173.6255,255.94611 1173.5198,239.37482 1173.0558,225.51538 1172.0963,213.98401 1170.4987,204.36267 1168.12,196.23358 1164.8252,189.19086 1160.52,182.89416 1155.1652,177.08997 1148.7799,171.61755 1141.4379,166.40356 1133.2544,161.43933 1124.3518,156.72882 1114.853,152.27606 1104.8811,148.08478 1094.5612,144.15961 1084.0208,140.50574 1073.3907,137.12903 1062.804,134.03644 1052.3958,131.23474 1042.3018,128.73132 1032.6575,126.53369 1023.5933,124.64734 1015.2124,123.07166 1007.582,121.79645 1000.7306,120.80194 994.65015,120.05902 989.30573,119.53168 984.65729,119.1828 980.6648,118.9751 977.28711,118.87238 974.48023,118.84424 972.19464,118.86792 970.37573,118.92822 968.96405,119.01837 967.89667,119.13678 967.10974,119.28278 966.53925,119.45612 966.12347,119.65924 965.81012,119.91071 965.55945,120.2503 965.34589,120.74023 965.15649,121.46405 964.98804,122.52136 964.83893,124.01465 964.70776,126.04633 964.59338,128.70984 964.49481,132.05133 964.41284,136.0528 964.34882,140.62891 964.30536,145.63049 964.28552,150.86066 964.29279,156.11414 964.33081,161.18469 964.40271,165.87585 964.51148,170.03674 964.65997,173.57812 964.85004,176.47711 965.08374,178.77234 965.36249,180.54871 965.68756,181.89984 966.06049,182.91925 966.48242,183.69794 966.95374,184.31268 967.47339,184.82135 968.03906,185.2616 968.64734,185.65192 969.29358,185.99677 969.97321,186.29816 970.68152,186.55804 971.41425,186.77808 972.16968,186.96228 972.94904,187.1167 973.75671,187.24939 974.60101,187.37103 975.4917,187.49359 976.43945,187.6297 977.45508,187.79163 978.54797,187.99176 979.72363,188.24054 980.98071,188.54688 982.31189,188.91742 983.70337,189.35681 985.13678,189.86816 986.59302,190.45465 988.05273,191.11908 989.49725,191.8642 990.91028,192.69159 992.27826,193.60144 993.59113,194.5921 994.84192,195.66058 996.02594,196.80286 997.13873,198.0144 998.17639,199.29095 999.13464,200.64313 1000.0101,202.15973 1000.8006,204.03528 1001.5051,206.57556 1002.1237,210.19189 1002.6569,215.3739 1003.1058,222.62622 1003.4713,232.45331 1003.7547,245.31482 1003.9574,261.43555 1004.0819,280.72412 1003.4724,300.94898 1003.0613,317.02496 1002.5956,326.85016 1002.0699,334.10034 1001.4783,339.27985 1000.8148,342.89337 1000.0743,345.43048 999.25256,347.30255 998.34778,348.81531 997.36066,350.16339 996.2934,351.43549 995.15008,352.64221 993.9353,353.77924 992.65338,354.84241 991.30829,355.82745 989.90381,356.73193 988.44171,357.5556 986.92322,358.30017 985.34784,358.96985 983.7146,359.57013 982.02216,360.10675 980.26935,360.58575 978.45514,361.013 976.57989,361.3941 974.64606,361.73468 972.65802,362.03998 970.62201,362.31531 968.54584,362.56561 966.43744,362.79584 964.30493,362.99597 962.15656,363.12885 960.00006,363.17426 957.84357,363.12885 955.69507,362.99597 953.56262,362.79584 951.45435,362.56561 949.37811,362.31531 947.34216,362.03998 945.354,361.73468 943.42011,361.3941 941.54486,361.013 939.73065,360.58575 937.97784,360.10675 936.28552,359.57013 934.65228,358.96985 933.0769,358.30017 931.55835,357.5556 930.09637,356.73193 928.69171,355.82745 927.34668,354.84241 926.06476,353.77924 924.84998,352.64221 923.70673,351.43549 922.63953,350.16339 921.65222,348.81531 920.74756,347.30255 919.92578,345.43048 919.18524,342.89337 918.52179,339.27985 917.93012,334.10034 917.40436,326.85016 916.93872,317.02496 916.52771,300.94898 915.91815,280.72412 916.04266,261.43555 916.24536,245.31482 916.52869,232.45331 916.89429,222.62622 917.34326,215.3739 917.87647,210.19189 918.49487,206.57556 919.19946,204.03528 919.98993,202.15973 920.86536,200.64313 921.82361,199.29095 922.86127,198.0144 923.97424,196.80286 925.15814,195.66058 926.40887,194.5921 927.72186,193.60144 929.08978,192.69159 930.50275,191.8642 931.94727,191.11908 933.4071,190.45465 934.86328,189.86816 936.29669,189.35681 937.68817,188.91742 939.01935,188.54688 940.27649,188.24054 941.45203,187.99176 942.54504,187.79163 943.56061,187.6297 944.50836,187.49359 945.39905,187.37103 946.24329,187.24939 947.05115,187.1167 947.83038,186.96228 948.58575,186.77808 949.31854,186.55804 950.02685,186.29816 950.70642,185.99677 951.35278,185.65192 951.961,185.2616 952.52673,184.82135 953.04633,184.31268 953.5177,183.69794 953.93957,182.91925 954.31244,181.89984 954.63763,180.54871 954.91626,178.77234 955.14996,176.47711 955.34021,173.57812 955.48859,170.03674 955.59735,165.87585 955.66925,161.18469 955.70721,156.11414 955.7146,150.86066 955.69482,145.63049 955.65125,140.62891 955.58722,136.0528 955.50525,132.05133 955.4068,128.70984 955.29224,126.04633 955.16107,124.01465 955.01202,122.52136 954.84351,121.46405 954.65418,120.74023 954.44061,120.2503 954.19,119.91071 953.87653,119.65924 953.46088,119.45612 952.89044,119.28278 952.10346,119.13678 951.03601,119.01837 949.62427,118.92822 947.80542,118.86792 945.51977,118.84424 942.71289,118.87238 939.33539,118.9751 935.34271,119.1828 930.69434,119.53168 925.34992,120.05902 919.26947,120.80194 912.41803,121.79645 904.78766,123.07166 896.40686,124.64734 887.34265,126.53369 877.69824,128.73132 867.60431,131.23474 857.19611,134.03644 846.60931,137.12903 835.97919,140.50574 825.43897,144.15961 815.1189,148.08478 805.14697,152.27606 795.64825,156.72882 786.74573,161.43933 778.56213,166.40356 771.22022,171.61755 764.83484,177.08997 759.48004,182.89416 755.17487,189.19086 751.88007,196.23358 749.5014,204.36267 747.90381,213.98401 746.9444,225.51538 746.48023,239.37482 746.37463,255.94611 746.52344,275.43549 746.86597,297.80926 747.38782,322.78058 748.11853,349.82257 749.11987,378.23084 750.4599,407.26691 752.20642,436.19208 754.4187,464.30066 757.10938,491.05701 760.22809,516.15491 763.65875,539.53125 767.22205,561.35236 770.69232,581.95483 773.83514,601.70801 776.41583,620.98108 778.2124,640.12048 779.06769,659.35413 778.91223,678.74939 777.76917,698.20459 775.74921,717.45752 773.02789,736.12769 769.79352,753.8114 766.23413,770.10523 762.53332,784.62799 758.84998,797.11554 755.31018,807.46143 752.00488,815.72607 748.99225,822.12738 746.30603,827.00037 743.97504,830.70245 742.02832,833.591 740.49316,836.01331 739.38879,838.263 738.72345,840.56207 738.49365,843.05627 738.68494,845.81921 739.27441,848.87146 740.23816,852.22315 741.55188,855.88434 743.19281,859.86426 745.1463,864.16638 747.40875,868.78705 749.98767,873.71472 752.90161,878.93036 756.17706,884.40955 759.84228,890.12689 763.92529,896.05682 768.45361,902.17261 773.45129,908.44092 778.93774,914.81952 784.92767,921.25696 791.43121,927.6925 798.45502,934.05939 806.00513,940.28906 814.08758,946.31335 822.70325,952.06586 831.82599,957.49005 841.39325,962.54315 851.30389,967.19635 861.42047,971.43445 871.57819,975.25232 881.60754,978.64654 891.33881,981.61383 900.61011,984.15265 909.30127,986.2702 917.34839,987.98584 924.74658,989.33154 931.5473,990.35138 937.84332,991.09821 943.73572,991.62659 949.32544,991.99243 954.7132,992.19458 960.00006,992.25915 965.2868,992.19458 970.67474,991.99243 976.2644,991.62659 982.15674,991.09821 988.45276,990.35138 995.25342,989.33154 1002.6517,987.98584 1010.6987,986.2702 1019.3901,984.15265 1028.6613,981.61383 1038.3926,978.64654 1048.4219,975.25232 1058.5797,971.43445 "
       fill="#abcdfe"
       stroke="none"
       fill-opacity="1"
       id="polygon4-2"
       style="display:inline;fill:url(#radialGradient9);stroke:none;stroke-width:1;stroke-dasharray:none;stroke-opacity:1"
       transform="translate(-0.49047,0.91176081)" />
  </g>
  <g
     id="encoder"
     style="display:inline;fill:#4e0187;fill-opacity:1"
     inkscape:label="enc">
    <polygon
       points="976.76941,226.10919 975.62799,225.60785 974.34576,225.12592 972.91821,224.66577 971.34992,224.23334 969.65454,223.83722 967.85205,223.48883 965.96387,223.19989 964.0116,222.98212 962.01648,222.8465 960.00006,222.80041 957.98352,222.8465 955.98846,222.98218 954.03613,223.19989 952.14807,223.48883 950.34552,223.83722 948.65015,224.23322 947.08185,224.66577 945.65424,225.12592 944.37207,225.60791 943.23065,226.10919 942.21631,226.63049 941.30902,227.1748 940.4873,227.74561 939.72992,228.34656 939.01617,228.98254 938.33063,229.66724 937.66431,230.42572 937.01532,231.29498 936.38806,232.32367 935.7923,233.56891 935.2384,235.08911 934.73688,236.9433 934.29749,239.18622 933.92688,241.85431 933.62744,244.95844 933.39691,248.48261 933.22846,252.38556 933.11243,256.60712 933.03821,261.08362 932.99542,265.75128 932.97418,270.54639 932.9679,275.40564 932.97418,280.26605 932.99542,285.065 933.03821,289.74011 933.11243,294.22961 933.22846,298.47168 933.39691,302.40418 933.62744,305.96893 933.92688,309.12567 934.29749,311.85907 934.73688,314.17932 935.2384,316.12164 935.7923,317.7395 936.38806,319.08942 937.01532,320.22852 937.66431,321.21185 938.33063,322.08563 939.01617,322.88446 939.72992,323.63031 940.4873,324.33319 941.30902,324.99445 942.21631,325.61359 943.23065,326.19019 944.37207,326.72394 945.65424,327.21362 947.08185,327.65759 948.65015,328.05334 950.34552,328.39795 952.14807,328.68756 954.03613,328.91852 955.98846,329.08722 957.98352,329.18994 960.00006,329.22449 962.01648,329.18994 964.0116,329.08722 965.96387,328.91852 967.85205,328.68756 969.65454,328.39795 971.34992,328.05334 972.91821,327.65759 974.34576,327.21362 975.62799,326.72394 976.76941,326.19019 977.78369,325.61359 978.69098,324.99445 979.5127,324.33319 980.2702,323.63031 980.98389,322.88446 981.66943,322.08563 982.33569,321.21185 982.9848,320.22852 983.61194,319.08942 984.2077,317.7395 984.7616,316.12164 985.26318,314.17932 985.70264,311.85901 986.07312,309.12567 986.37262,305.96893 986.60321,302.40418 986.77154,298.47168 986.8877,294.22967 986.96185,289.74011 987.00464,285.065 987.02594,280.26605 987.03223,275.40564 987.02594,270.54639 987.00464,265.75128 986.96185,261.08362 986.8877,256.60712 986.77154,252.3855 986.60321,248.48261 986.37262,244.95844 986.07312,241.85431 985.70264,239.18622 985.26318,236.9433 984.7616,235.08917 984.2077,233.56891 983.61194,232.32367 982.9848,231.29498 982.33569,230.42572 981.66943,229.66724 980.98389,228.98254 980.2702,228.34656 979.5127,227.74567 978.69098,227.17474 977.78369,226.63049 "
       fill="#88c5fe"
       stroke="none"
       fill-opacity="1"
       id="polygon5"
       style="display:inline;fill:#4e0187;fill-opacity:1" />
    <polygon
       points="982.64789,232.29645 983.41284,233.58588 983.66779,234.54272 983.41284,235.05432 982.64789,235.06091 981.37299,234.57629 979.5882,233.69202 977.29718,232.56793 974.52338,231.39117 971.31653,230.32227 967.75433,229.48273 963.94092,228.95392 960.00006,228.77387 956.05914,228.95392 952.24573,229.48273 948.68347,230.32227 945.47662,231.39117 942.70282,232.56793 940.41187,233.69202 938.62707,234.57629 937.35217,235.06091 936.58722,235.05432 936.33227,234.54272 936.58722,233.58588 937.35217,232.29645 938.62707,230.79529 940.41187,229.20075 942.70282,227.62738 945.47662,226.17847 948.68347,224.94446 952.24573,224.00238 956.05914,223.41345 960.00006,223.21332 963.94092,223.41345 967.75433,224.00238 971.31653,224.94446 974.52338,226.17847 977.29718,227.62738 979.5882,229.20075 981.37299,230.79529 "
       fill="#3680be"
       stroke="none"
       fill-opacity="1"
       id="polygon6"
       style="display:inline;fill:#c758fc;fill-opacity:1" />
    <polygon
       points="982.64789,244.37811 983.41284,244.21137 983.66779,243.64404 983.41284,242.74304 982.64789,241.61371 981.37299,240.35877 979.5882,239.06836 977.29718,237.81988 974.52338,236.67969 971.31653,235.70837 967.75433,234.96313 963.94092,234.49432 960.00006,234.33435 956.05914,234.49432 952.24573,234.96313 948.68347,235.70837 945.47662,236.67969 942.70282,237.81988 940.41187,239.06836 938.62707,240.35877 937.35217,241.61371 936.58722,242.74304 936.33227,243.64404 936.58722,244.21137 937.35217,244.37811 938.62707,244.13989 940.41187,243.55963 942.70282,242.76056 945.47662,241.89239 948.68347,241.08624 952.24573,240.44354 956.05914,240.03479 960.00006,239.8949 963.94092,240.03479 967.75433,240.44354 971.31653,241.08624 974.52338,241.89239 977.29718,242.76056 979.5882,243.55963 981.37299,244.13989 "
       fill="#3680be"
       stroke="none"
       fill-opacity="1"
       id="polygon7"
       style="display:inline;fill:#c758fc;fill-opacity:1" />
    <polygon
       points="982.64789,253.6955 983.41284,253.36847 983.66779,252.7453 983.41284,251.90015 982.64789,250.93103 981.37299,249.92242 979.5882,248.93604 977.29718,248.01257 974.52338,247.18091 971.31653,246.47235 967.75433,245.92383 963.94092,245.5752 960.00006,245.4555 956.05914,245.5752 952.24573,245.92383 948.68347,246.47235 945.47662,247.18091 942.70282,248.01257 940.41187,248.93604 938.62707,249.92242 937.35217,250.93103 936.58722,251.90015 936.33227,252.7453 936.58722,253.36847 937.35217,253.6955 938.62707,253.70349 940.41187,253.42731 942.70282,252.95312 945.47662,252.39368 948.68347,251.85016 952.24573,251.40418 956.05914,251.1156 960.00006,251.01599 963.94092,251.1156 967.75433,251.4043 971.31653,251.85016 974.52338,252.39368 977.29718,252.95312 979.5882,253.42731 981.37299,253.70349 "
       fill="#3680be"
       stroke="none"
       fill-opacity="1"
       id="polygon8"
       style="display:inline;fill:#c758fc;fill-opacity:1" />
    <polygon
       points="982.64789,263.0127 983.41284,262.52551 983.66779,261.84668 983.41284,261.05719 982.64789,260.24823 981.37299,259.48596 979.5882,258.80365 977.29718,258.2052 974.52338,257.68219 971.31653,257.23627 967.75433,256.88458 963.94092,256.65601 960.00006,256.57654 956.05914,256.65601 952.24573,256.88464 948.68347,257.23627 945.47662,257.68219 942.70282,258.2052 940.41187,258.80365 938.62707,259.48596 937.35217,260.24823 936.58722,261.05719 936.33227,261.84668 936.58722,262.52551 937.35217,263.0127 938.62707,263.26703 940.41187,263.29492 942.70282,263.14569 945.47662,262.89496 948.68347,262.61414 952.24573,262.36499 956.05914,262.19641 960.00006,262.13715 963.94092,262.19641 967.75433,262.36499 971.31653,262.6142 974.52338,262.89496 977.29718,263.14569 979.5882,263.29492 981.37299,263.26703 "
       fill="#3680be"
       stroke="none"
       fill-opacity="1"
       id="polygon9"
       style="display:inline;fill:#c758fc;fill-opacity:1" />
    <polygon
       points="982.64789,272.3299 983.41284,271.68268 983.66779,270.948 983.41284,270.21429 982.64789,269.56549 981.37299,269.04956 979.5882,268.67127 977.29718,268.3977 974.52338,268.18335 971.31653,268.00024 967.75433,267.84528 963.94092,267.73682 960.00006,267.69763 956.05914,267.73688 952.24573,267.84528 948.68347,268.00024 945.47662,268.18335 942.70282,268.3977 940.41187,268.67127 938.62707,269.04956 937.35217,269.56549 936.58722,270.21436 936.33227,270.948 936.58722,271.68268 937.35217,272.3299 938.62707,272.83063 940.41187,273.16248 942.70282,273.33838 945.47662,273.39612 948.68347,273.37811 952.24573,273.32574 956.05914,273.27728 960.00006,273.25818 963.94092,273.27728 967.75433,273.32574 971.31653,273.37811 974.52338,273.39612 977.29718,273.33838 979.5882,273.16248 981.37299,272.83063 "
       fill="#3680be"
       stroke="none"
       fill-opacity="1"
       id="polygon10"
       style="display:inline;fill:#c758fc;fill-opacity:1" />
    <polygon
       points="982.64789,281.64722 983.41284,280.83978 983.66779,280.04932 983.41284,279.37146 982.64789,278.88275 981.37299,278.61316 979.5882,278.53894 977.29718,278.59039 974.52338,278.68463 971.31653,278.76416 967.75433,278.80603 963.94092,278.81769 960.00006,278.81867 956.05914,278.81763 952.24573,278.80609 948.68347,278.76416 945.47662,278.68463 942.70282,278.59039 940.41187,278.53894 938.62707,278.61316 937.35217,278.88275 936.58722,279.37146 936.33227,280.04938 936.58722,280.83978 937.35217,281.64722 938.62707,282.39423 940.41187,283.03015 942.70282,283.53094 945.47662,283.89734 948.68347,284.14203 952.24573,284.28644 956.05914,284.35809 960.00006,284.37927 963.94092,284.35809 967.75433,284.28644 971.31653,284.14203 974.52338,283.89734 977.29718,283.53094 979.5882,283.03015 981.37299,282.39423 "
       fill="#3680be"
       stroke="none"
       fill-opacity="1"
       id="polygon11"
       style="display:inline;fill:#c758fc;fill-opacity:1" />
    <polygon
       points="982.64789,290.96448 983.41284,289.99689 983.66779,289.1507 983.41284,288.52856 982.64789,288.20007 981.37299,288.17682 979.5882,288.40662 977.29718,288.78302 974.52338,289.18585 971.31653,289.52814 967.75433,289.76679 963.94092,289.8985 960.00006,289.93982 956.05914,289.8985 952.24573,289.76679 948.68347,289.5282 945.47662,289.18597 942.70282,288.78302 940.41187,288.40662 938.62707,288.17682 937.35217,288.20007 936.58722,288.52856 936.33227,289.1507 936.58722,289.99689 937.35217,290.96448 938.62707,291.95783 940.41187,292.89777 942.70282,293.72357 945.47662,294.39868 948.68347,294.90607 952.24573,295.24725 956.05914,295.43896 960.00006,295.50031 963.94092,295.43896 967.75433,295.24725 971.31653,294.90607 974.52338,294.39868 977.29718,293.72357 979.5882,292.89777 981.37299,291.95783 "
       fill="#3680be"
       stroke="none"
       fill-opacity="1"
       id="polygon12"
       style="display:inline;fill:#c758fc;fill-opacity:1" />
    <polygon
       points="982.64789,300.2818 983.41284,299.15399 983.66779,298.25214 983.41284,297.68567 982.64789,297.51727 981.37299,297.74042 979.5882,298.27423 977.29718,298.97559 974.52338,299.68713 971.31653,300.29217 967.75433,300.72754 963.94092,300.97931 960.00006,301.06091 956.05914,300.97931 952.24573,300.72754 948.68347,300.29217 945.47662,299.68713 942.70282,298.97559 940.41187,298.27423 938.62707,297.7403 937.35217,297.51727 936.58722,297.68567 936.33227,298.25214 936.58722,299.15399 937.35217,300.28174 938.62707,301.52142 940.41187,302.76544 942.70282,303.9162 945.47662,304.8999 948.68347,305.66998 952.24573,306.20795 956.05914,306.51977 960.00006,306.62146 963.94092,306.51977 967.75433,306.20795 971.31653,305.66998 974.52338,304.8999 977.29718,303.9162 979.5882,302.76544 981.37299,301.52142 "
       fill="#3680be"
       stroke="none"
       fill-opacity="1"
       id="polygon13"
       style="display:inline;fill:#c758fc;fill-opacity:1" />
    <polygon
       points="982.64789,309.599 983.41284,308.31116 983.66779,307.35352 983.41284,306.84283 982.64789,306.83453 981.37299,307.30395 979.5882,308.14191 977.29718,309.16821 974.52338,310.18842 971.31653,311.05609 967.75433,311.68835 963.94092,312.06018 960.00006,312.18195 956.05914,312.06018 952.24573,311.68835 948.68347,311.05609 945.47662,310.18842 942.70282,309.16821 940.41187,308.14191 938.62707,307.30395 937.35217,306.83453 936.58722,306.84283 936.33227,307.35352 936.58722,308.31116 937.35217,309.599 938.62707,311.08496 940.41187,312.63306 942.70282,314.10883 945.47662,315.40112 948.68347,316.43396 952.24573,317.1687 956.05914,317.60065 960.00006,317.74249 963.94092,317.60065 967.75433,317.1687 971.31653,316.43396 974.52338,315.40112 977.29718,314.10883 979.5882,312.63306 981.37299,311.08496 "
       fill="#3680be"
       stroke="none"
       fill-opacity="1"
       id="polygon14"
       style="display:inline;fill:#c758fc;fill-opacity:1" />
    <polygon
       points="982.64789,318.91626 983.41284,317.46832 983.66779,316.45483 983.41284,315.99988 982.64789,316.15192 981.37299,316.86755 979.5882,318.00946 977.29718,319.3609 974.52338,320.68964 971.31653,321.82007 967.75433,322.64905 963.94092,323.14105 960.00006,323.30304 956.05914,323.14105 952.24573,322.64905 948.68347,321.82007 945.47662,320.68964 942.70282,319.3609 940.41187,318.00946 938.62707,316.86755 937.35217,316.15186 936.58722,315.99988 936.33227,316.45483 936.58722,317.46832 937.35217,318.91626 938.62707,320.64856 940.41187,322.50073 942.70282,324.30151 945.47662,325.9024 948.68347,327.19794 952.24573,328.12939 956.05914,328.6814 960.00006,328.86359 963.94092,328.6814 967.75433,328.12939 971.31653,327.19794 974.52338,325.9024 977.29718,324.30151 979.5882,322.50073 981.37299,320.64856 "
       fill="#3680be"
       stroke="none"
       fill-opacity="1"
       id="polygon15"
       style="display:inline;fill:#c758fc;fill-opacity:1" />
  </g>
  <g
     id="Fills"
     style="display:inline;fill:url(#linearGradient8);fill-opacity:1;stroke:#ef0707;stroke-dasharray:6, 6;stroke-dashoffset:0;stroke-opacity:1"
     inkscape:label="clic-ovr">
    <polygon
       points="1148.5586,346.10657 1148.3093,331.53369 1148.3709,317.48224 1148.6711,303.98315 1149.1383,291.0672 1149.7002,278.76514 1150.2847,267.10767 1150.8195,256.12592 1151.2159,245.83521 1151.3169,236.19043 1150.9485,227.13178 1149.9365,218.59882 1148.1075,210.53149 1145.2874,202.86963 1141.3019,195.55304 1136.2294,188.48407 1129.2072,181.73175 1121.1536,175.2066 1112.0465,168.98602 1102.1155,163.10986 1091.5902,157.61786 1080.7006,152.54987 1069.6761,147.94562 1058.7466,143.84497 1048.1216,140.29437 1037.9291,137.36713 1028.2772,135.14355 1019.2738,133.70337 1011.027,133.12683 1003.6446,133.49414 997.23462,134.88507 991.70709,137.18249 987.742,141.00079 984.74438,145.54065 982.88928,150.73383 982.15363,156.31525 982.51471,162.01984 983.94934,167.58209 986.43475,172.73718 989.78052,177.37585 994.41779,180.88208 999.57916,184.0481 1005.119,187.15875 1010.7241,190.65546 1016.0813,194.97931 1020.8773,200.57153 1024.799,207.87341 1027.533,217.32617 1028.849,229.24182 1028.8478,243.41571 1027.713,259.51392 1025.6282,277.20282 1022.7771,296.14807 1019.3431,316.01605 1015.5099,336.47302 1011.4611,357.18475 1007.4225,377.81281 1003.7885,397.99817 1000.9954,417.37738 999.47998,435.58643 999.67865,452.26202 1002.0279,467.04028 1006.9643,479.5575 1014.3477,489.94818 1026.132,496.44177 1039.9587,500.60535 1055.5645,502.10132 1072.1079,501.08997 1088.7488,497.73175 1104.646,492.18701 1118.959,484.61597 1131.3911,475.46338 1139.6864,464.05518 1145.7256,451.49634 1149.429,437.77344 1151.2618,423.15704 1151.6893,407.91779 1151.1766,392.32642 1150.1888,376.65362 1149.1909,361.1701 "
       fill="#b0e5fe"
       stroke="none"
       fill-opacity="1"
       id="R-click"
       style="display:none;fill:url(#linearGradient8);fill-opacity:1;stroke:#ef0707;stroke-dasharray:6, 6;stroke-dashoffset:0;stroke-opacity:1" />
    <polygon
       points="783.77057,188.48407 778.69824,195.55304 774.71283,202.86963 771.89252,210.53149 770.06342,218.59882 769.05157,227.13178 768.68317,236.19043 768.78412,245.83521 769.18054,256.12592 769.71551,267.10767 770.29993,278.76514 770.86176,291.0672 771.32892,303.98315 771.62927,317.48224 771.6908,331.53369 771.44153,346.10657 770.80914,361.1701 769.81122,376.65362 768.82343,392.32642 768.31067,407.91779 768.73828,423.15704 770.57111,437.77344 774.27454,451.49634 780.31354,464.05518 788.60895,475.46338 801.04114,484.61597 815.35406,492.18701 831.25134,497.73175 847.89203,501.08997 864.43567,502.10132 880.04126,500.60535 893.86816,496.44177 905.65228,489.94818 913.03577,479.5575 917.97217,467.04028 920.32153,452.26202 920.52008,435.58643 919.0047,417.37738 916.21167,397.99817 912.57751,377.81281 908.53888,357.18475 904.49011,336.47302 900.65692,316.01605 897.22296,296.14807 894.37176,277.20282 892.28699,259.51392 891.15228,243.41571 891.15112,229.24182 892.4671,217.32617 895.20117,207.87341 899.12274,200.57153 903.91876,194.97931 909.27588,190.65546 914.88104,187.15875 920.4209,184.0481 925.58234,180.88208 930.21954,177.37585 933.56531,172.73718 936.05072,167.58209 937.48541,162.01984 937.8465,156.31525 937.1109,150.73383 935.25562,145.54065 932.25806,141.00079 928.29309,137.18249 922.76544,134.88507 916.35547,133.49414 908.97315,133.12683 900.7262,133.70337 891.72284,135.14355 882.07098,137.36713 871.87848,140.29437 861.25348,143.84497 850.32391,147.94562 839.29956,152.54987 828.40985,157.61786 817.88464,163.10986 807.95367,168.98602 798.84656,175.2066 790.79297,181.73175 "
       fill="#b0e5fe"
       stroke="none"
       fill-opacity="1"
       id="L-click"
       style="display:none;fill:url(#linearGradient8);fill-opacity:1;stroke:#ef0707;stroke-dasharray:6, 6;stroke-dashoffset:0;stroke-opacity:1" />
  </g>
</svg>
