<?xml version="1.0" encoding="UTF-8" standalone="no"?>
<!-- Generator: Blender, SVG Export for Grease Pencil - v2.0 -->

<svg
   version="1.0"
   x="0px"
   y="0px"
   width="1920.000000px"
   height="1080.000000px"
   viewBox="0 0 1920.000000 1080.000000"
   id="svg42"
   sodipodi:docname="mouse-8.svg"
   inkscape:version="1.4.2 (ebf0e940d0, 2025-05-08)"
   xmlns:inkscape="http://www.inkscape.org/namespaces/inkscape"
   xmlns:sodipodi="http://sodipodi.sourceforge.net/DTD/sodipodi-0.dtd"
   xmlns:xlink="http://www.w3.org/1999/xlink"
   xmlns="http://www.w3.org/2000/svg"
   xmlns:svg="http://www.w3.org/2000/svg">
  <defs
     id="defs42">
    <linearGradient
       inkscape:collect="always"
       xlink:href="#linearGradient22"
       id="linearGradient23"
       x1="939.08984"
       y1="340.35941"
       x2="984.18811"
       y2="769.44128"
       gradientUnits="userSpaceOnUse"
       gradientTransform="translate(1.8849577e-5,-8.1787793e-5)" />
    <linearGradient
       id="linearGradient22"
       inkscape:collect="always">
      <stop
         style="stop-color:#be71e5;stop-opacity:1;"
         offset="0"
         id="stop22" />
      <stop
         style="stop-color:#943ac9;stop-opacity:1;"
         offset="0.51535493"
         id="stop24" />
      <stop
         style="stop-color:#68259b;stop-opacity:1;"
         offset="1"
         id="stop23" />
    </linearGradient>
    <linearGradient
       inkscape:collect="always"
       xlink:href="#linearGradient22"
       id="linearGradient1"
       x1="939.08984"
       y1="340.35941"
       x2="984.18811"
       y2="769.44128"
       gradientUnits="userSpaceOnUse" />
    <radialGradient
       inkscape:collect="always"
       xlink:href="#linearGradient12"
       id="radialGradient28"
       cx="961.69855"
       cy="558.849"
       fx="961.69855"
       fy="558.849"
       r="216.22301"
       gradientTransform="matrix(1.1753729,-0.0042286,0.006766,1.8806666,-172.49635,-484.45707)"
       gradientUnits="userSpaceOnUse" />
    <linearGradient
       id="linearGradient12"
       inkscape:collect="always">
      <stop
         style="stop-color:#bb6ee3;stop-opacity:1;"
         offset="0"
         id="stop10" />
      <stop
         style="stop-color:#b67cd6;stop-opacity:0.73333335;"
         offset="0.22635691"
         id="stop13" />
      <stop
         style="stop-color:#a970c9;stop-opacity:0.48235294;"
         offset="0.52921891"
         id="stop14" />
      <stop
         style="stop-color:#8f4cba;stop-opacity:0.43619502;"
         offset="0.74187714"
         id="stop16" />
      <stop
         style="stop-color:#6b259f;stop-opacity:0.36828047;"
         offset="1"
         id="stop12" />
    </linearGradient>
    <linearGradient
       inkscape:collect="always"
       xlink:href="#linearGradient24"
       id="linearGradient26"
       x1="698.33246"
       y1="513.97699"
       x2="1206.8163"
       y2="558.46356"
       gradientUnits="userSpaceOnUse"
       gradientTransform="translate(1.8849577e-5,-8.1787793e-5)" />
    <linearGradient
       id="linearGradient24"
       inkscape:collect="always">
      <stop
         style="stop-color:#9200e9;stop-opacity:1;"
         offset="0"
         id="stop25" />
      <stop
         style="stop-color:#0f0012;stop-opacity:1;"
         offset="0.5"
         id="stop27" />
      <stop
         style="stop-color:#9100e9;stop-opacity:1;"
         offset="1"
         id="stop26" />
    </linearGradient>
    <linearGradient
       inkscape:collect="always"
       xlink:href="#linearGradient24"
       id="linearGradient4"
       x1="698.33246"
       y1="513.97699"
       x2="1206.8163"
       y2="558.46356"
       gradientUnits="userSpaceOnUse" />
    <linearGradient
       inkscape:collect="always"
       xlink:href="#linearGradient24"
       id="linearGradient48"
       gradientUnits="userSpaceOnUse"
       gradientTransform="translate(1.8849577e-5,-8.1787793e-5)"
       x1="698.33246"
       y1="513.97699"
       x2="1206.8163"
       y2="558.46356" />
    <linearGradient
       inkscape:collect="always"
       xlink:href="#linearGradient24"
       id="linearGradient49"
       gradientUnits="userSpaceOnUse"
       gradientTransform="translate(1.8849577e-5,-8.1787793e-5)"
       x1="698.33246"
       y1="513.97699"
       x2="1206.8163"
       y2="558.46356" />
    <linearGradient
       inkscape:collect="always"
       xlink:href="#linearGradient22"
       id="linearGradient50"
       gradientUnits="userSpaceOnUse"
       gradientTransform="translate(1.8849577e-5,-8.1787793e-5)"
       x1="939.08984"
       y1="340.35941"
       x2="984.18811"
       y2="769.44128" />
    <linearGradient
       inkscape:collect="always"
       xlink:href="#linearGradient43-5"
       id="linearGradient45"
       x1="980.16003"
       y1="136.40695"
       x2="980.16003"
       y2="493.13596"
       gradientUnits="userSpaceOnUse"
       gradientTransform="translate(-2.8364543e-5,4.1984176e-4)" />
    <linearGradient
       id="linearGradient43-5"
       inkscape:collect="always">
      <stop
         style="stop-color:#ec0000;stop-opacity:0.7647059;"
         offset="0"
         id="stop44" />
      <stop
         style="stop-color:#ff0707;stop-opacity:0.02352941;"
         offset="1"
         id="stop45" />
    </linearGradient>
    <inkscape:path-effect
       effect="fillet_chamfer"
       id="path-effect38"
       is_visible="true"
       lpeversion="1"
       nodesatellites_param="F,0,0,1,0,0,0,1 @ F,0,0,1,0,0,0,1 @ F,0,0,1,0,0,0,1 @ F,0,0,1,0,0,0,1 @ F,0,0,1,0,0,0,1 @ F,0,0,1,0,0,0,1 @ F,0,0,1,0,0,0,1 @ F,0,0,1,0,0,0,1 @ F,0,0,1,0,0,0,1 @ F,0,0,1,0,0,0,1 @ F,0,0,1,0,0,0,1 @ F,0,0,1,0,0,0,1 @ F,0,0,1,0,0,0,1 @ F,0,0,1,0,0,0,1 @ F,0,0,1,0,0,0,1 @ F,0,0,1,0,0,0,1 @ F,0,0,1,0,0,0,1 @ F,0,0,1,0,0,0,1 @ F,0,0,1,0,0,0,1 @ F,0,0,1,0,0,0,1 @ F,0,0,1,0,0,0,1 @ F,0,0,1,0,0,0,1 @ F,0,0,1,0,0,0,1 @ F,0,0,1,0,0,0,1 @ F,0,0,1,0,0,0,1 @ F,0,0,1,0,0,0,1 @ F,0,0,1,0,0,0,1 @ F,0,0,1,0,0,0,1 @ F,0,0,1,0,0,0,1 @ F,0,0,1,0,0,0,1 @ F,0,0,1,0,0,0,1 @ F,0,0,1,0,0,0,1 @ F,0,0,1,0,0,0,1 @ F,0,0,1,0,0,0,1 @ F,0,0,1,0,0,0,1 @ F,0,0,1,0,0,0,1 @ F,0,0,1,0,0,0,1 @ F,0,0,1,0,0,0,1 @ F,0,0,1,0,0,0,1 @ F,0,0,1,0,0,0,1 @ F,0,0,1,0,0,0,1 @ F,0,0,1,0,0,0,1 @ F,0,0,1,0,0,0,1 @ F,0,0,1,0,0,0,1 @ F,0,0,1,0,0,0,1 @ F,0,0,1,0,0,0,1 @ F,0,0,1,0,0,0,1 @ F,0,0,1,0,0,0,1 @ F,0,0,1,0,0,0,1 @ F,0,0,1,0,0,0,1 @ F,0,0,1,0,0,0,1 @ F,0,0,1,0,0,0,1 @ F,0,0,1,0,0,0,1 @ F,0,0,1,0,0,0,1 @ F,0,0,1,0,0,0,1 @ F,0,0,1,0,0,0,1 @ F,0,0,1,0,0,0,1 @ F,0,0,1,0,0,0,1 @ F,0,0,1,0,0,0,1 @ F,0,0,1,0,0,0,1 @ F,0,0,1,0,0,0,1 @ F,0,0,1,0,0,0,1 @ F,0,0,1,0,0,0,1 @ F,0,0,1,0,0,0,1 @ F,0,0,1,0,0,0,1 @ F,0,0,1,0,0,0,1 @ F,0,0,1,0,0,0,1 @ F,0,0,1,0,0,0,1 @ F,0,0,1,0,0,0,1 @ F,0,0,1,0,0,0,1 @ F,0,0,1,0,0,0,1 @ F,0,0,1,0,0,0,1 @ F,0,0,1,0,0,0,1 @ F,0,0,1,0,0,0,1 @ F,0,0,1,0,0,0,1 @ F,0,0,1,0,0,0,1 @ F,0,0,1,0,0,0,1 @ F,0,0,1,0,0,0,1 @ F,0,0,1,0,0,0,1 @ F,0,0,1,0,0,0,1"
       radius="0"
       unit="px"
       method="auto"
       mode="F"
       chamfer_steps="1"
       flexible="false"
       use_knot_distance="true"
       apply_no_radius="true"
       apply_with_radius="true"
       only_selected="false"
       hide_knots="false" />
    <linearGradient
       inkscape:collect="always"
       xlink:href="#linearGradient43-5"
       id="linearGradient51"
       gradientUnits="userSpaceOnUse"
       gradientTransform="translate(-2.8364543e-5,4.1984176e-4)"
       x1="980.16003"
       y1="136.40695"
       x2="980.16003"
       y2="493.13596" />
    <linearGradient
       inkscape:collect="always"
       xlink:href="#linearGradient43-5"
       id="linearGradient56"
       x1="870.10876"
       y1="232.52625"
       x2="870.10876"
       y2="368.15192"
       gradientUnits="userSpaceOnUse" />
  </defs>
  <sodipodi:namedview
     id="namedview42"
     pagecolor="#505050"
     bordercolor="#ffffff"
     borderopacity="1"
     inkscape:showpageshadow="0"
     inkscape:pageopacity="0"
     inkscape:pagecheckerboard="1"
     inkscape:deskcolor="#505050"
     inkscape:zoom="0.92291667"
     inkscape:cx="893.90519"
     inkscape:cy="549.88713"
     inkscape:window-width="1920"
     inkscape:window-height="1011"
     inkscape:window-x="0"
     inkscape:window-y="32"
     inkscape:window-maximized="1"
     inkscape:current-layer="svg42" />
  <clipPath
     id="clip-path1">
    <rect
       x="0"
       y="0"
       width="1920"
       height="1080"
       fill="none"
       id="rect1" />
  </clipPath>
  <g
     id="corner-r"
     inkscape:label="cor"
     style="fill:url(#linearGradient26);stroke:#b77fff;stroke-opacity:0.992157"
     transform="translate(-1.8849577e-5,8.1787793e-5)">
    <polygon
       points="1201.1969,785.09253 1199.0516,796.31103 1196.6522,807.11249 1194.0189,817.43909 1191.1721,827.23267 1188.1608,836.54358 1184.9204,845 1181.5668,852.92206 1178.1018,860.20801 1174.5565,866.86407 1170.9619,872.89667 1167.3491,878.31226 1163.749,883.11719 1160.1801,887.4173 1156.712,890.91663 1153.3475,893.90344 1150.1394,896.26373 1147.1289,897.9834 1144.3569,899.0481 1141.8645,899.4436 1139.6929,899.15588 1137.8154,898.28912 1136.4581,896.48083 1135.3763,894.1109 1134.5774,891.09204 1134.0011,887.45593 1133.5876,883.23389 1133.2772,878.45752 1133.0098,873.15808 1132.7383,867.44397 1132.3541,861.08453 1131.7848,854.18005 1130.8961,846.49225 1129.5671,837.85944 1127.6766,828.11987 1125.1035,817.11194 1121.7263,804.67395 1117.5986,790.9364 1112.1418,774.9234 1106.0885,757.66315 1099.5399,739.07727 1092.7714,719.37964 1086.0582,698.7843 1079.6763,677.505 1073.9008,655.75586 1068.814,633.75769 1065.2025,611.67786 1062.4246,589.62384 1060.542,567.64935 1059.4241,545.81525 1058.9393,524.18237 1058.9574,502.81158 1059.347,481.76355 1059.959,461.02515 1060.7396,440.8714 1061.6151,421.10059 1062.6069,401.7995 1063.7185,382.98053 1064.953,364.65649 1066.3138,346.83972 1067.8044,329.54297 1069.4054,312.68787 1071.1882,296.57123 1073.0891,280.99127 1075.1361,266.12122 1077.3333,252.04346 1079.6853,238.84027 1082.1973,226.59405 1084.8735,215.38733 1087.6899,205.10187 1090.7406,196.40698 1093.9563,188.70886 1097.386,182.20166 1101.0498,176.87842 1104.9683,172.73254 1109.1614,169.75726 1113.6493,167.94586 1118.3964,167.09998 1123.5728,167.77667 1128.9426,169.33691 1134.4766,171.89771 1140.0886,175.38354 1145.6932,179.71973 1151.205,184.83087 1156.5378,190.64227 1161.6647,196.98688 1166.3385,204.08203 1170.7173,211.6637 1174.739,219.85193 1178.4004,228.67511 1181.6978,238.16132 1184.6278,248.33929 1187.187,259.23694 1189.4349,270.75336 1191.1846,283.28833 1192.6492,296.39844 1193.7954,310.14117 1194.6528,324.44428 1195.2512,339.23615 1195.6202,354.44458 1195.7898,369.99768 1195.8126,385.78992 1195.653,401.85638 1195.434,418.05768 1195.1895,434.39484 1194.9772,450.83539 1194.8547,467.34692 1194.8793,483.89703 1195.1084,500.45331 1195.5464,516.9931 1196.3898,533.45251 1197.4335,549.81867 1198.6643,566.03748 1200.0161,582.06457 1201.4227,597.85553 1202.8182,613.36609 1204.1364,628.552 1205.3456,643.43762 1206.2836,657.7843 1207.0312,671.81494 1207.5376,685.48926 1207.7875,698.83582 1207.7649,711.88318 1207.4543,724.65985 1206.8403,737.19434 1205.9629,749.54602 1204.6448,761.63666 1203.0681,773.51514 "
       fill="#7F9AFE"
       stroke="none"
       fill-opacity="1"
       id="polygon14"
       style="fill:url(#linearGradient48);stroke:#b77fff;stroke-opacity:0.992157" />
    <polygon
       points="700.03412,777.87811 701.43829,790.64069 703.69116,803.1145 706.72443,815.14471 710.46997,826.57642 714.76386,837.40613 719.81421,847.05633 725.20569,855.98401 730.89551,864.07202 736.74487,871.35486 742.61493,877.86682 748.3667,883.64221 753.86133,888.71545 759.04901,893.22638 763.55078,896.88306 767.63117,899.98865 771.22607,902.41455 774.35968,904.13745 777.05682,905.13446 779.34198,905.3822 781.23981,904.85767 782.83124,903.67419 783.97632,901.41284 784.8913,898.52679 785.57178,894.93732 786.06952,890.7019 786.4364,885.87817 786.72424,880.52344 786.98462,874.6955 787.25708,868.51135 787.65143,861.81158 788.28381,854.6427 789.3407,846.77472 790.99652,838.03711 793.42523,828.25952 796.80102,817.27124 801.2981,804.90216 806.84546,791.26862 814.25971,775.40198 822.51721,758.30664 831.48181,739.90137 840.7721,720.39221 850.0069,699.98541 858.80499,678.88678 866.78491,657.30237 873.8291,635.45056 878.85553,613.47626 882.72125,591.50134 885.31921,569.57434 886.80597,547.7561 887.33783,526.10736 887.07111,504.68909 886.16248,483.56201 884.76807,462.78693 883.02576,442.41785 880.9986,422.48169 878.7309,402.99835 876.26715,383.98785 873.65173,365.47021 870.92895,347.46533 868.14331,329.99335 865.33478,312.9787 862.5473,296.73767 859.74524,281.05389 856.89691,266.10284 853.96631,251.96423 850.91724,238.7182 847.71344,226.44446 844.31927,215.22296 840.74219,204.93176 836.82233,196.24194 832.69269,188.55402 828.31879,182.06177 823.70996,176.75708 818.87524,172.63171 813.8241,169.67749 808.56555,167.88611 803.14044,167.05835 797.46521,167.74438 791.65149,169.28699 785.68683,171.77887 779.59009,175.12122 773.38049,179.21527 767.07666,183.96258 760.69769,189.26428 754.26868,194.96222 747.80048,201.17432 741.38238,207.81323 735.08978,215.06769 729.00384,223.06702 723.20612,231.94067 717.77753,241.81769 712.80005,252.82733 708.25232,264.86719 704.52576,278.69623 701.41125,293.42047 699.11169,309.00738 697.72821,325.19263 697.36127,341.71191 698.11182,358.30102 700.08063,374.69568 703.13196,390.75189 707.99731,405.91773 713.6723,420.65717 720.01965,435.02637 726.66547,449.2016 733.23633,463.35919 739.35815,477.67566 744.65741,492.32715 748.76013,507.49017 751.37817,523.27918 752.56457,539.56073 752.45831,556.13971 751.19806,572.82092 748.92267,589.40894 745.77063,605.70862 741.88098,621.52478 737.46899,636.80774 732.453,650.98297 727.25116,664.58044 721.98438,677.6051 716.85016,690.2074 712.04651,702.53821 707.77075,714.74793 704.22058,726.9873 701.4071,739.35181 700.04376,752.10632 699.54651,764.98169 "
       fill="#2AA2FE"
       stroke="none"
       fill-opacity="1"
       id="polygon13"
       style="fill:url(#linearGradient49);stroke:#b77fff;stroke-opacity:0.992157" />
  </g>
  <g
     id="body"
     style="fill:url(#linearGradient23);stroke:#b669fc;stroke-opacity:1"
     transform="translate(-1.8849577e-5,8.1787793e-5)">
    <polygon
       points="820.19427,527.03961 820.5014,549.6311 819.7666,571.75586 818.0708,593.39331 815.495,614.52295 812.23999,635.2157 808.03882,655.16077 803.38806,674.5321 798.31683,693.12195 792.97406,710.81409 787.50836,727.49207 782.06867,743.03973 776.80371,757.34058 771.78375,770.52502 767.36694,781.78381 763.33252,791.97394 759.74817,801.01312 756.60254,809.06549 753.8844,816.29523 751.58282,822.86652 749.68634,828.94354 748.12,834.71808 747.06433,840.24414 746.31915,845.63232 745.93939,850.85547 745.91626,855.91388 746.24164,860.8081 746.90637,865.53839 747.90204,870.10535 749.16766,874.53632 750.85712,878.7594 752.83344,882.90063 755.17438,886.98663 757.90564,891.07092 761.05243,895.2074 764.64056,899.44958 768.69537,903.85101 773.15619,908.42108 778.29993,913.32751 783.85504,918.39484 789.88824,923.60608 796.37921,928.89984 803.30829,934.21478 810.65527,939.48956 818.40045,944.66272 826.52374,949.67285 834.99329,954.46576 843.72968,959.01538 852.64191,963.30292 861.63831,967.30926 870.62787,971.01556 879.51935,974.40295 888.22144,977.45245 896.70477,980.20782 904.71313,982.46924 912.44611,984.44055 919.87598,986.0824 927.03723,987.41742 933.96448,988.46899 940.69196,989.26007 947.25421,989.81372 953.70178,990.18475 960.02637,990.29382 966.33728,990.22577 972.68543,989.93127 979.1377,989.39264 985.76062,988.59241 992.62091,987.51318 999.78558,986.13721 1007.2482,984.5022 1015.2698,982.42743 1023.5751,980.07422 1032.1561,977.38501 1040.9318,974.35797 1049.8207,970.99091 1058.7418,967.28192 1067.6143,963.22888 1076.392,958.8877 1084.8964,954.09051 1093.1909,949.05005 1101.2065,943.75507 1108.9091,938.2525 1116.2645,932.58893 1123.2388,926.81134 1129.798,920.96668 1135.9884,915.09711 1141.5428,909.26013 1146.7106,903.47675 1151.4265,897.78272 1155.7067,892.2096 1159.5666,886.78876 1163.0223,881.55176 1166.0896,876.53003 1168.8436,871.70862 1171.1183,867.24567 1173.0907,862.97022 1174.6967,858.88446 1175.9315,854.94397 1176.7905,851.10461 1177.2689,847.3219 1177.3618,843.55164 1177.1305,839.76215 1176.3794,835.849 1175.3347,831.69519 1173.9666,827.11066 1172.3107,821.91833 1170.4023,815.94092 1168.2776,809.00128 1165.9717,800.92212 1163.5389,791.77527 1160.9702,780.68603 1158.4062,768.47253 1155.9254,755.00623 1153.6237,740.40765 1151.5975,724.79742 1149.9434,708.29608 1148.7573,691.02417 1148.0254,673.19055 1148.1429,654.62378 1148.7183,635.57318 1149.7683,615.90778 1151.2,595.58478 1152.9205,574.56152 1154.8368,552.79529 1156.8561,530.24341 1158.885,506.86304 1160.8411,482.67261 1162.6819,457.93426 1164.3757,432.97119 1165.8907,408.10657 1167.1947,383.6637 1168.256,359.9657 1169.0425,337.33582 1169.5789,315.8114 1169.6591,296.50537 1169.3987,278.54571 1168.6827,262.13556 1167.4524,247.19251 1165.6495,233.63428 1163.2156,221.37817 1160.0914,210.34192 1156.3539,200.26709 1151.5601,191.59637 1146.1531,183.70734 1140.0576,176.67841 1133.3328,170.41235 1126.0378,164.81189 1118.2321,159.77942 1109.9742,155.21777 1101.3239,151.02954 1092.3484,147.13354 1083.1495,143.51373 1073.8372,140.16992 1064.5214,137.10211 1055.312,134.31036 1046.3193,131.79462 1037.6532,129.55481 1029.3324,127.54511 1021.7222,125.8996 1014.5679,124.46252 1007.9608,123.25812 1001.9011,122.26447 996.38934,121.46014 991.42572,120.82349 987.01062,120.33258 983.05273,119.94891 979.8186,119.70599 976.99225,119.55206 974.61542,119.50708 972.63818,119.57471 971.01074,119.75806 969.68329,120.06073 968.60602,120.48566 967.70398,121.01502 967.0083,121.72241 966.42175,122.57617 965.95337,123.6366 965.58704,124.94244 965.30627,126.53265 965.09503,128.4455 964.93726,130.72034 964.81305,133.32257 964.71985,136.48853 964.64581,139.92792 964.59637,143.62109 964.57324,147.47565 964.57837,151.39856 964.61352,155.29742 964.68048,159.07941 964.77515,162.70221 964.91711,165.93903 965.08966,168.9328 965.30005,171.64246 965.54932,174.07672 965.83862,176.24475 966.16901,178.15546 966.54169,179.81775 966.95038,181.2793 967.41809,182.43634 967.92163,183.42651 968.46728,184.23675 969.05371,184.89197 969.67944,185.41748 970.34351,185.83844 971.04462,186.17987 971.77551,186.47192 972.5531,186.72217 973.36249,186.95709 974.21258,187.1806 975.10651,187.40143 976.04749,187.62842 977.03863,187.8703 978.08307,188.13623 979.17407,188.42792 980.34228,188.77423 981.55017,189.15961 982.79767,189.59521 984.07483,190.08563 985.37146,190.63501 986.67767,191.24799 987.98346,191.92877 989.28217,192.66913 990.55383,193.52106 991.80133,194.49738 993.01379,195.67145 994.18408,197.10358 995.30499,198.85461 996.36914,200.9848 997.36938,203.55481 998.29852,206.62518 999.15045,210.27783 999.92401,214.68091 1000.6195,220.02399 1001.2368,226.49664 1001.7761,234.28845 1002.2378,243.58893 1002.6216,254.58783 1002.9407,267.1283 1003.1569,282.33099 1003.3109,298.80811 1003.3926,316.44885 1003.4043,334.79657 1003.3486,353.39423 1003.2283,371.7851 1003.0456,389.51221 1002.8031,406.11865 1002.5027,421.23511 1002.1432,434.84192 1001.7229,447.00665 1001.2397,457.79718 1000.6918,467.28119 1000.0773,475.52643 999.39447,482.60065 998.65338,488.74414 997.81659,493.51544 996.92071,497.54309 995.95508,500.77374 994.92071,503.3266 993.81897,505.32098 992.65082,506.87616 991.4176,508.11139 990.13086,509.15942 988.76025,510.07977 987.33868,510.93634 985.85681,511.71997 984.31574,512.43463 982.7168,513.08466 981.06116,513.67413 979.35022,514.20727 977.59399,514.69635 975.7677,515.12054 973.90301,515.50397 971.99664,515.83765 970.0545,516.12079 968.08173,516.35254 966.08435,516.53204 964.06805,516.65845 962.03943,516.73999 960.00092,516.74872 957.96252,516.7132 955.92999,516.62567 953.90991,516.48755 951.909,516.30023 949.93408,516.06525 947.99188,515.78381 946.08923,515.45746 944.23181,515.08685 942.42242,514.66913 940.66248,514.20105 938.95398,513.67902 937.29834,513.09961 935.69751,512.45935 934.15289,511.75476 932.65656,510.9942 931.23981,510.12903 929.87457,509.14331 928.57263,507.96375 927.33557,506.5293 926.1651,504.77862 925.06293,502.65057 924.03088,500.08392 923.05829,497.11084 922.18304,493.36829 921.36713,488.96851 920.62079,483.62854 919.9422,477.15869 919.32929,469.36939 918.78009,460.07111 918.29291,449.07416 917.86548,436.18909 917.49676,421.33392 917.18781,404.85785 916.94031,387.21783 916.75598,368.87061 916.63666,350.27301 916.58423,331.88202 916.60022,314.15448 916.67456,297.28442 916.84479,282.42981 917.07623,268.82172 917.38232,256.65533 917.76404,245.86291 918.22266,236.37671 918.75971,228.12878 919.37585,221.05176 920.07294,215.0777 920.85083,210.13043 921.70575,206.09937 922.63293,202.86578 923.62762,200.31079 924.68494,198.31525 925.79999,196.76068 926.96808,195.52783 928.17712,194.48389 929.44281,193.57135 930.73279,192.72546 932.04266,191.95666 933.36035,191.26166 934.67432,190.63709 935.97259,190.07935 937.24347,189.58508 938.48352,189.14142 939.65778,188.77246 940.79102,188.44202 941.87598,188.15045 942.91388,187.88922 943.90643,187.64966 944.85498,187.42285 945.76068,187.19995 946.63177,186.97473 947.44928,186.73022 948.23334,186.45862 948.97705,186.14203 949.68012,185.76453 950.34265,185.31036 950.96399,184.76379 951.54419,184.10889 952.08991,183.35327 952.58026,182.40826 953.03619,181.31293 953.45087,180.01001 953.82446,178.4657 954.15729,176.6463 954.44946,174.51764 954.70099,172.04602 954.91913,169.26617 955.08404,165.95996 955.21783,162.4054 955.31616,158.62762 955.38123,154.72046 955.41528,150.77765 955.42078,146.89307 955.3999,143.16022 955.35858,139.61658 955.2865,136.50745 955.18829,133.66705 955.05231,131.13745 954.8706,128.90454 954.63501,126.95386 954.33771,125.27136 953.97064,123.84265 953.5401,122.61597 952.98901,121.6889 952.32098,120.92975 951.47638,120.35651 950.40973,119.94922 949.0755,119.68835 947.42828,119.55402 945.42267,119.52667 943.0882,119.57507 940.15832,119.72034 936.83008,119.94415 933.0044,120.28015 928.65747,120.75067 923.7652,121.37817 918.30359,122.185 912.24853,123.19379 905.68304,124.3855 898.28137,125.90289 890.43567,127.62976 882.12964,129.61157 873.45361,131.85217 864.49835,134.35577 855.35425,137.12628 846.11182,140.16803 836.86157,143.48486 827.69446,147.08838 818.70251,151.01874 809.97852,155.32361 801.61493,160.0509 793.70422,165.24805 786.33911,170.96265 779.61194,177.24249 773.47827,184.02521 768.44183,191.7077 764.18152,200.10431 760.92493,209.48822 758.76202,220.02301 757.78302,231.87231 758.07837,245.19946 759.73804,260.16797 762.59479,276.61316 767.43555,295.60657 773.19983,315.94611 779.78125,337.66565 786.81604,360.47107 793.94043,384.06836 800.79034,408.16333 807.00226,432.46173 812.21234,456.66956 816.1308,480.53833 818.76453,504.00183 "
       fill="#BBC1FE"
       stroke="none"
       fill-opacity="1"
       id="polygon17"
       style="fill:url(#linearGradient50);stroke:#b669fc;stroke-opacity:1" />
    <polygon
       points="776.80371,757.34058 771.78375,770.52502 767.36694,781.78381 763.33252,791.97394 759.74817,801.01312 756.60254,809.06549 753.8844,816.29523 751.58282,822.86652 749.68634,828.94354 748.12,834.71808 747.06433,840.24414 746.31915,845.63232 745.93939,850.85547 745.91626,855.91388 746.24164,860.8081 746.90637,865.53839 747.90204,870.10535 749.16766,874.53632 750.85712,878.7594 752.83344,882.90063 755.17438,886.98663 757.90564,891.07092 761.05243,895.2074 764.64056,899.44958 768.69537,903.85101 773.15619,908.42108 778.29993,913.32751 783.85504,918.39484 789.88824,923.60608 796.37921,928.89984 803.30829,934.21478 810.65527,939.48956 818.40045,944.66272 826.52374,949.67285 834.99329,954.46576 843.72968,959.01538 852.64191,963.30292 861.63831,967.30926 870.62787,971.01556 879.51935,974.40295 888.22144,977.45245 896.70477,980.20782 904.71313,982.46924 912.44611,984.44055 919.87598,986.0824 927.03723,987.41742 933.96448,988.46899 940.69196,989.26007 947.25421,989.81372 953.70178,990.18475 960.02637,990.29382 966.33728,990.22577 972.68543,989.93127 979.1377,989.39264 985.76062,988.59241 992.62091,987.51318 999.78558,986.13721 1007.2482,984.5022 1015.2698,982.42743 1023.5751,980.07422 1032.1561,977.38501 1040.9318,974.35797 1049.8207,970.99091 1058.7418,967.28192 1067.6143,963.22888 1076.392,958.8877 1084.8964,954.09051 1093.1909,949.05005 1101.2065,943.75507 1108.9091,938.2525 1116.2645,932.58893 1123.2388,926.81134 1129.798,920.96668 1135.9884,915.09711 1141.5428,909.26013 1146.7106,903.47675 1151.4265,897.78272 1155.7067,892.2096 1159.5666,886.78876 1163.0223,881.55176 1166.0896,876.53003 1168.8436,871.70862 1171.1183,867.24567 1173.0907,862.97022 1174.6967,858.88446 1175.9315,854.94397 1176.7905,851.10461 1177.2689,847.3219 1177.3618,843.55164 1177.1305,839.76215 1176.3794,835.849 1175.3347,831.69519 1173.9666,827.11066 1172.3107,821.91833 1170.4023,815.94092 1168.2776,809.00128 1165.9717,800.92212 1163.5389,791.77527 1160.9702,780.68603 1158.4062,768.47253 1155.9254,755.00623 1153.6237,740.40765 1151.5975,724.79742 1149.9434,708.29608 1148.7573,691.02417 1148.0254,673.19055 1148.1429,654.62378 1148.7183,635.57318 1149.7683,615.90778 1151.2,595.58478 1152.9205,574.56152 1154.8368,552.79529 1156.8561,530.24341 1158.885,506.86304 1160.8411,482.67261 1162.6819,457.93426 1164.3757,432.97119 1165.8907,408.10657 1167.1947,383.6637 1168.256,359.9657 1169.0425,337.33582 1169.5789,315.8114 1169.6591,296.50537 1169.3987,278.54571 1168.6827,262.13556 1167.4524,247.19251 1165.6495,233.63428 1163.2156,221.37817 1160.0914,210.34192 1156.3539,200.26709 1151.5601,191.59637 1146.1531,183.70734 1140.0576,176.67841 1133.3328,170.41235 1126.0378,164.81189 1118.2321,159.77942 1109.9742,155.21777 1101.3239,151.02954 1092.3484,147.13354 1083.1495,143.51373 1073.8372,140.16992 1064.5214,137.10211 1055.312,134.31036 1046.3193,131.79462 1037.6532,129.55481 1029.3324,127.54511 1021.7222,125.8996 1014.5679,124.46252 1007.9608,123.25812 1001.9011,122.26447 996.38934,121.46014 991.42572,120.82349 987.01062,120.33258 983.05273,119.94891 979.8186,119.70599 976.99225,119.55206 974.61542,119.50708 972.63818,119.57471 971.01074,119.75806 969.68329,120.06073 968.60602,120.48566 967.70398,121.01502 967.0083,121.72241 966.42175,122.57617 965.95337,123.6366 965.58704,124.94244 965.30627,126.53265 965.09503,128.4455 964.93726,130.72034 964.81305,133.32257 964.71985,136.48853 964.64581,139.92792 964.59637,143.62109 964.57324,147.47565 964.57837,151.39856 964.61352,155.29742 964.68048,159.07941 964.77515,162.70221 964.91711,165.93903 965.08966,168.9328 965.30005,171.64246 965.54932,174.07672 965.83862,176.24475 966.16901,178.15546 966.54169,179.81775 966.95038,181.2793 967.41809,182.43634 967.92163,183.42651 968.46728,184.23675 969.05371,184.89197 969.67944,185.41748 970.34351,185.83844 971.04462,186.17987 971.77551,186.47192 972.5531,186.72217 973.36249,186.95709 974.21258,187.1806 975.10651,187.40143 976.04749,187.62842 977.03863,187.8703 978.08307,188.13623 979.17407,188.42792 980.34228,188.77423 981.55017,189.15961 982.79767,189.59521 984.07483,190.08563 985.37146,190.63501 986.67767,191.24799 987.98346,191.92877 989.28217,192.66913 990.55383,193.52106 991.80133,194.49738 993.01379,195.67145 994.18408,197.10358 995.30499,198.85461 996.36914,200.9848 997.36938,203.55481 998.29852,206.62518 999.15045,210.27783 999.92401,214.68091 1000.6195,220.02399 1001.2368,226.49664 1001.7761,234.28845 1002.2378,243.58893 1002.6216,254.58783 1002.9407,267.1283 1003.1569,282.33099 1003.3109,298.80811 1003.3926,316.44885 1003.4043,334.79657 1003.3486,353.39423 1003.2283,371.7851 1003.0456,389.51221 1002.8031,406.11865 1002.5027,421.23511 1002.1432,434.84192 1001.7229,447.00665 1001.2397,457.79718 1000.6918,467.28119 1000.0773,475.52643 999.39447,482.60065 998.65338,488.74414 997.81659,493.51544 996.92071,497.54309 995.95508,500.77374 994.92071,503.3266 993.81897,505.32098 992.65082,506.87616 991.4176,508.11139 990.13086,509.15942 988.76025,510.07977 987.33868,510.93634 985.85681,511.71997 984.31574,512.43463 982.7168,513.08466 981.06116,513.67413 979.35022,514.20727 977.59399,514.69635 975.7677,515.12054 973.90301,515.50397 971.99664,515.83765 970.0545,516.12079 968.08173,516.35254 966.08435,516.53204 964.06805,516.65845 962.03943,516.73999 960.00092,516.74872 957.96252,516.7132 955.92999,516.62567 953.90991,516.48755 951.909,516.30023 949.93408,516.06525 947.99188,515.78381 946.08923,515.45746 944.23181,515.08685 942.42242,514.66913 940.66248,514.20105 938.95398,513.67902 937.29834,513.09961 935.69751,512.45935 934.15289,511.75476 932.65656,510.9942 931.23981,510.12903 929.87457,509.14331 928.57263,507.96375 927.33557,506.5293 926.1651,504.77862 925.06293,502.65057 924.03088,500.08392 923.05829,497.11084 922.18304,493.36829 921.36713,488.96851 920.62079,483.62854 919.9422,477.15869 919.32929,469.36939 918.78009,460.07111 918.29291,449.07416 917.86548,436.18909 917.49676,421.33392 917.18781,404.85785 916.94031,387.21783 916.75598,368.87061 916.63666,350.27301 916.58423,331.88202 916.60022,314.15448 916.67456,297.28442 916.84479,282.42981 917.07623,268.82172 917.38232,256.65533 917.76404,245.86291 918.22266,236.37671 918.75971,228.12878 919.37585,221.05176 920.07294,215.0777 920.85083,210.13043 921.70575,206.09937 922.63293,202.86578 923.62762,200.31079 924.68494,198.31525 925.79999,196.76068 926.96808,195.52783 928.17712,194.48389 929.44281,193.57135 930.73279,192.72546 932.04266,191.95666 933.36035,191.26166 934.67432,190.63709 935.97259,190.07935 937.24347,189.58508 938.48352,189.14142 939.65778,188.77246 940.79102,188.44202 941.87598,188.15045 942.91388,187.88922 943.90643,187.64966 944.85498,187.42285 945.76068,187.19995 946.63177,186.97473 947.44928,186.73022 948.23334,186.45862 948.97705,186.14203 949.68012,185.76453 950.34265,185.31036 950.96399,184.76379 951.54419,184.10889 952.08991,183.35327 952.58026,182.40826 953.03619,181.31293 953.45087,180.01001 953.82446,178.4657 954.15729,176.6463 954.44946,174.51764 954.70099,172.04602 954.91913,169.26617 955.08404,165.95996 955.21783,162.4054 955.31616,158.62762 955.38123,154.72046 955.41528,150.77765 955.42078,146.89307 955.3999,143.16022 955.35858,139.61658 955.2865,136.50745 955.18829,133.66705 955.05231,131.13745 954.8706,128.90454 954.63501,126.95386 954.33771,125.27136 953.97064,123.84265 953.5401,122.61597 952.98901,121.6889 952.32098,120.92975 951.47638,120.35651 950.40973,119.94922 949.0755,119.68835 947.42828,119.55402 945.42267,119.52667 943.0882,119.57507 940.15832,119.72034 936.83008,119.94415 933.0044,120.28015 928.65747,120.75067 923.7652,121.37817 918.30359,122.185 912.24853,123.19379 905.68304,124.3855 898.28137,125.90289 890.43567,127.62976 882.12964,129.61157 873.45361,131.85217 864.49835,134.35577 855.35425,137.12628 846.11182,140.16803 836.86157,143.48486 827.69446,147.08838 818.70251,151.01874 809.97852,155.32361 801.61493,160.0509 793.70422,165.24805 786.33911,170.96265 779.61194,177.24249 773.47827,184.02521 768.44183,191.7077 764.18152,200.10431 760.92493,209.48822 758.76202,220.02301 757.78302,231.87231 758.07837,245.19946 759.73804,260.16797 762.59479,276.61316 767.43555,295.60657 773.19983,315.94611 779.78125,337.66565 786.81604,360.47107 793.94043,384.06836 800.79034,408.16333 807.00226,432.46173 812.21234,456.66956 816.1308,480.53833 818.76453,504.00183 820.19427,527.03961 820.5014,549.6311 819.7666,571.75586 818.0708,593.39331 815.495,614.52295 812.23999,635.2157 808.03882,655.16077 803.38806,674.5321 798.31683,693.12195 792.97406,710.81409 787.50836,727.49207 782.06867,743.03973 "
       fill="#BBC1FE"
       stroke="none"
       fill-opacity="1"
       id="polygon19"
       style="display:inline;fill:url(#radialGradient28);stroke:none;stroke-opacity:1" />
  </g>
  <g
     id="bridge"
     inkscape:label="hol"
     style="fill:#7702c5;fill-opacity:1"
     transform="translate(-1.8849577e-5,8.1787793e-5)">
    <polygon
       points="979.91949,508.81043 981.93854,507.88684 983.81354,506.82184 985.54462,505.62237 987.13556,504.29895 988.59076,502.86285 989.91498,501.3252 991.11285,499.68311 992.18903,497.8598 993.1488,495.67908 993.99756,492.85913 994.74139,489.01892 995.38654,483.70355 995.93909,476.44379 996.40509,466.77057 996.79083,454.2569 997.10175,438.69348 997.34302,420.16595 997.51837,399.07074 997.63141,376.09924 997.68506,352.16071 997.68201,328.20624 997.62512,305.18701 997.51648,284.01294 997.35596,265.37695 997.13934,249.6806 996.85907,237.01672 996.5036,227.18561 996.0589,219.77203 995.5105,214.31873 994.84381,210.36835 994.04474,207.47736 993.10217,205.27203 992.00885,203.47363 990.76123,201.90338 989.35974,200.47729 987.8078,199.18158 986.10919,198.01587 984.26758,196.9798 982.28729,196.07275 980.17438,195.29272 977.93762,194.63556 975.5885,194.09503 973.14105,193.66315 970.61145,193.33026 968.01617,193.08655 965.37152,192.92206 962.69397,192.82758 960.00006,192.79681 957.30609,192.82758 954.6286,192.92206 951.98389,193.08655 949.38867,193.33026 946.85901,193.66315 944.41168,194.09497 942.06244,194.6355 939.82562,195.29272 937.71271,196.07275 935.73248,196.97974 933.89087,198.01587 932.19232,199.18158 930.64032,200.47729 929.23883,201.90338 927.99133,203.47357 926.89789,205.27203 925.95538,207.47736 925.15631,210.36835 924.48962,214.31873 923.94116,219.77203 923.49658,227.18561 923.14105,237.01672 922.86066,249.6806 922.6441,265.37695 922.48358,284.01294 922.375,305.18701 922.31799,328.20624 922.315,352.16071 922.36859,376.09924 922.48163,399.07074 922.65704,420.16595 922.89825,438.69348 923.20923,454.2569 923.59497,466.77069 924.0611,476.44379 924.61352,483.70355 925.25861,489.01892 926.0025,492.85913 926.85132,495.67908 927.8111,497.8598 928.88727,499.68311 930.08502,501.3252 931.4093,502.86285 932.86456,504.29895 934.45538,505.62237 936.18646,506.82184 938.06146,507.88684 940.08057,508.81043 942.23907,509.591 944.5271,510.23181 946.92981,510.74127 949.42847,511.13159 952.00415,511.41541 954.63739,511.60571 957.30914,511.71442 960.00006,511.74982 962.69098,511.71442 965.36267,511.60571 967.99591,511.41541 970.57153,511.13159 973.07037,510.74127 975.4729,510.23181 977.76093,509.591 "
       fill="#C2B1FE"
       stroke="none"
       fill-opacity="1"
       id="polygon18"
       style="fill:#7702c5;fill-opacity:1" />
  </g>
  <g
     id="while"
     inkscape:label="enc"
     style="fill:#4e0187;fill-opacity:1"
     transform="translate(-1.8849577e-5,8.1787793e-5)">
    <polygon
       points="974.34576,225.12592 972.91821,224.66577 971.34992,224.23334 969.65454,223.83722 967.85205,223.48883 965.96387,223.19989 964.0116,222.98212 962.01648,222.8465 960.00006,222.80041 957.98352,222.8465 955.98846,222.98218 954.03613,223.19989 952.14801,223.48883 950.34552,223.83722 948.65015,224.23322 947.08185,224.66577 945.65424,225.12592 944.37201,225.60791 943.23065,226.10919 942.21631,226.63049 941.30902,227.1748 940.48743,227.74561 939.72992,228.34656 939.01624,228.98254 938.33063,229.66724 937.66431,230.42572 937.01532,231.29498 936.38806,232.32367 935.79236,233.56891 935.2384,235.08911 934.73688,236.9433 934.29749,239.18622 933.92688,241.85431 933.62744,244.95844 933.39691,248.48261 933.22846,252.38556 933.11243,256.60712 933.03821,261.08362 932.99542,265.75128 932.97418,270.54639 932.9679,275.40564 932.97418,280.26605 932.99542,285.065 933.03821,289.74011 933.11243,294.22961 933.22846,298.47168 933.39691,302.40418 933.62744,305.96893 933.92688,309.12567 934.29749,311.85907 934.73688,314.17932 935.2384,316.12164 935.79236,317.7395 936.38806,319.08942 937.01532,320.22852 937.66431,321.21185 938.33063,322.08563 939.01624,322.88446 939.72992,323.63031 940.48743,324.33319 941.30902,324.99445 942.21631,325.61359 943.23065,326.19019 944.37201,326.72394 945.65424,327.21362 947.08185,327.65759 948.65015,328.05334 950.34552,328.39795 952.14801,328.68756 954.03613,328.91852 955.98846,329.08722 957.98358,329.18994 960.00006,329.22449 962.01654,329.18994 964.0116,329.08722 965.96387,328.91852 967.85205,328.68756 969.65454,328.39795 971.34992,328.05334 972.91821,327.65759 974.34576,327.21362 975.62799,326.72394 976.76941,326.19019 977.78369,325.61359 978.6911,324.99445 979.5127,324.33319 980.2702,323.63031 980.98389,322.88446 981.66943,322.08563 982.33569,321.21185 982.9848,320.22852 983.61194,319.08942 984.2077,317.7395 984.76172,316.12164 985.26318,314.17932 985.70264,311.85901 986.07312,309.12567 986.37262,305.96893 986.60321,302.40418 986.77154,298.47168 986.8877,294.22967 986.96185,289.74011 987.00464,285.065 987.02594,280.26605 987.03223,275.40564 987.02594,270.54639 987.00464,265.75128 986.96185,261.08362 986.8877,256.60712 986.77154,252.3855 986.60321,248.48261 986.37262,244.95844 986.07312,241.85431 985.70264,239.18622 985.26318,236.9433 984.76172,235.08917 984.2077,233.56891 983.61194,232.32367 982.9848,231.29498 982.33569,230.42572 981.66943,229.66724 980.98389,228.98254 980.2702,228.34656 979.5127,227.74567 978.6911,227.17474 977.78369,226.63049 976.76941,226.10919 975.62799,225.60785 "
       fill="#94C0FE"
       stroke="none"
       fill-opacity="1"
       id="polygon12"
       style="fill:#4e0187;fill-opacity:1" />
    <polygon
       points="937.35217,232.29645 936.58722,233.58588 936.33227,234.54272 936.58722,235.05432 937.35217,235.06091 938.62707,234.57629 940.41187,233.69202 942.70288,232.56793 945.47668,231.39117 948.68347,230.32227 952.24567,229.48273 956.05914,228.95392 960.00006,228.77387 963.94092,228.95392 967.75433,229.48273 971.31653,230.32227 974.52338,231.39117 977.29718,232.56793 979.5882,233.69202 981.37299,234.57629 982.64789,235.06091 983.41284,235.05432 983.66779,234.54272 983.41284,233.58588 982.64789,232.29645 981.37299,230.79529 979.5882,229.20075 977.29718,227.62738 974.52338,226.17847 971.31653,224.94446 967.75433,224.00238 963.94092,223.41345 960.00006,223.21332 956.05914,223.41345 952.24567,224.00238 948.68347,224.94446 945.47668,226.17847 942.70288,227.62738 940.41187,229.20075 938.62707,230.79529 "
       fill="#94C0FE"
       stroke="none"
       fill-opacity="1"
       id="polygon2"
       style="fill:#c758fc;fill-opacity:1" />
    <polygon
       points="982.64789,244.37811 983.41284,244.21137 983.66779,243.64404 983.41284,242.74304 982.64789,241.61371 981.37299,240.35877 979.5882,239.06836 977.29718,237.81988 974.52338,236.67969 971.31653,235.70837 967.75433,234.96313 963.94092,234.49432 960.00006,234.33435 956.05914,234.49432 952.24567,234.96313 948.68347,235.70837 945.47668,236.67969 942.70288,237.81988 940.41187,239.06836 938.62707,240.35877 937.35217,241.61371 936.58722,242.74304 936.33227,243.64404 936.58722,244.21137 937.35217,244.37811 938.62707,244.13989 940.41187,243.55963 942.70288,242.76056 945.47668,241.89239 948.68347,241.08624 952.24567,240.44354 956.05914,240.03479 960.00006,239.8949 963.94092,240.03479 967.75433,240.44354 971.31653,241.08624 974.52338,241.89239 977.29718,242.76056 979.5882,243.55963 981.37299,244.13989 "
       fill="#94C0FE"
       stroke="none"
       fill-opacity="1"
       id="polygon3"
       style="fill:#c758fc;fill-opacity:1" />
    <polygon
       points="982.64789,253.6955 983.41284,253.36847 983.66779,252.7453 983.41284,251.90015 982.64789,250.93103 981.37299,249.92242 979.5882,248.93604 977.29718,248.01257 974.52338,247.18091 971.31653,246.47235 967.75433,245.92383 963.94092,245.5752 960.00006,245.4555 956.05914,245.5752 952.24567,245.92383 948.68347,246.47235 945.47668,247.18091 942.70288,248.01257 940.41187,248.93604 938.62707,249.92242 937.35217,250.93103 936.58722,251.90015 936.33227,252.7453 936.58722,253.36847 937.35217,253.6955 938.62707,253.70349 940.41187,253.42731 942.70288,252.95312 945.47668,252.39368 948.68347,251.85016 952.24567,251.40418 956.05914,251.1156 960.00006,251.01599 963.94092,251.1156 967.75433,251.4043 971.31653,251.85016 974.52338,252.39368 977.29718,252.95312 979.5882,253.42731 981.37299,253.70349 "
       fill="#94C0FE"
       stroke="none"
       fill-opacity="1"
       id="polygon4"
       style="fill:#c758fc;fill-opacity:1" />
    <polygon
       points="982.64789,263.0127 983.41284,262.52551 983.66779,261.84668 983.41284,261.05719 982.64789,260.24823 981.37299,259.48596 979.5882,258.80365 977.29718,258.2052 974.52338,257.68219 971.31653,257.23627 967.75433,256.88458 963.94092,256.65601 960.00006,256.57654 956.05914,256.65601 952.24567,256.88464 948.68347,257.23627 945.47668,257.68219 942.70288,258.2052 940.41187,258.80365 938.62707,259.48596 937.35217,260.24823 936.58722,261.05719 936.33227,261.84668 936.58722,262.52551 937.35217,263.0127 938.62707,263.26703 940.41187,263.29492 942.70288,263.14569 945.47668,262.89496 948.68347,262.61414 952.24567,262.36499 956.05914,262.19641 960.00006,262.13715 963.94092,262.19641 967.75433,262.36499 971.31653,262.6142 974.52338,262.89496 977.29718,263.14569 979.5882,263.29492 981.37299,263.26703 "
       fill="#94C0FE"
       stroke="none"
       fill-opacity="1"
       id="polygon5"
       style="fill:#c758fc;fill-opacity:1" />
    <polygon
       points="982.64789,272.3299 983.41284,271.68268 983.66779,270.948 983.41284,270.21429 982.64789,269.56549 981.37299,269.04956 979.5882,268.67127 977.29718,268.3977 974.52338,268.18335 971.31653,268.00024 967.75433,267.84528 963.94092,267.73682 960.00006,267.69763 956.05914,267.73688 952.24567,267.84528 948.68347,268.00024 945.47668,268.18335 942.70288,268.3977 940.41187,268.67127 938.62707,269.04956 937.35217,269.56549 936.58722,270.21436 936.33227,270.948 936.58722,271.68268 937.35217,272.3299 938.62707,272.83063 940.41187,273.16248 942.70288,273.33838 945.47668,273.39612 948.68347,273.37811 952.24567,273.32574 956.05914,273.27728 960.00006,273.25818 963.94092,273.27728 967.75433,273.32574 971.31653,273.37811 974.52338,273.39612 977.29718,273.33838 979.5882,273.16248 981.37299,272.83063 "
       fill="#94C0FE"
       stroke="none"
       fill-opacity="1"
       id="polygon6"
       style="fill:#c758fc;fill-opacity:1" />
    <polygon
       points="982.64789,281.64722 983.41284,280.83978 983.66779,280.04932 983.41284,279.37146 982.64789,278.88275 981.37299,278.61316 979.5882,278.53894 977.29718,278.59039 974.52338,278.68463 971.31653,278.76416 967.75433,278.80603 963.94092,278.81769 960.00006,278.81867 956.05914,278.81763 952.24567,278.80609 948.68347,278.76416 945.47668,278.68463 942.70288,278.59039 940.41187,278.53894 938.62707,278.61316 937.35217,278.88275 936.58722,279.37146 936.33227,280.04938 936.58722,280.83978 937.35217,281.64722 938.62707,282.39423 940.41187,283.03015 942.70288,283.53094 945.47668,283.89734 948.68347,284.14203 952.24567,284.28644 956.05914,284.35809 960.00006,284.37927 963.94092,284.35809 967.75433,284.28644 971.31653,284.14203 974.52338,283.89734 977.29718,283.53094 979.5882,283.03015 981.37299,282.39423 "
       fill="#94C0FE"
       stroke="none"
       fill-opacity="1"
       id="polygon7"
       style="fill:#c758fc;fill-opacity:1" />
    <polygon
       points="982.64789,290.96448 983.41284,289.99689 983.66779,289.1507 983.41284,288.52856 982.64789,288.20007 981.37299,288.17682 979.5882,288.40662 977.29718,288.78302 974.52338,289.18585 971.31653,289.52814 967.75433,289.76679 963.94092,289.8985 960.00006,289.93982 956.05914,289.8985 952.24567,289.76679 948.68347,289.5282 945.47668,289.18597 942.70288,288.78302 940.41187,288.40662 938.62707,288.17682 937.35217,288.20007 936.58722,288.52856 936.33227,289.1507 936.58722,289.99689 937.35217,290.96448 938.62707,291.95783 940.41187,292.89777 942.70288,293.72357 945.47668,294.39868 948.68347,294.90607 952.24567,295.24725 956.05914,295.43896 960.00006,295.50031 963.94092,295.43896 967.75433,295.24725 971.31653,294.90607 974.52338,294.39868 977.29718,293.72357 979.5882,292.89777 981.37299,291.95783 "
       fill="#94C0FE"
       stroke="none"
       fill-opacity="1"
       id="polygon8"
       style="fill:#c758fc;fill-opacity:1" />
    <polygon
       points="982.64789,300.2818 983.41284,299.15399 983.66779,298.25214 983.41284,297.68567 982.64789,297.51727 981.37299,297.74042 979.5882,298.27423 977.29718,298.97559 974.52338,299.68713 971.31653,300.29217 967.75433,300.72754 963.94092,300.97931 960.00006,301.06091 956.05914,300.97931 952.24567,300.72754 948.68347,300.29217 945.47668,299.68713 942.70288,298.97559 940.41187,298.27423 938.62707,297.7403 937.35217,297.51727 936.58722,297.68567 936.33227,298.25214 936.58722,299.15399 937.35217,300.28174 938.62707,301.52142 940.41187,302.76544 942.70288,303.9162 945.47668,304.8999 948.68347,305.66998 952.24567,306.20795 956.05914,306.51977 958.0296,306.57056 960.00006,306.62146 963.94092,306.51977 967.75433,306.20795 971.31653,305.66998 974.52338,304.8999 977.29718,303.9162 979.5882,302.76544 981.37299,301.52142 "
       fill="#94C0FE"
       stroke="none"
       fill-opacity="1"
       id="polygon9"
       style="fill:#c758fc;fill-opacity:1" />
    <polygon
       points="982.64789,309.599 983.41284,308.31116 983.66779,307.35352 983.41284,306.84283 982.64789,306.83453 981.37299,307.30395 979.5882,308.14191 977.29718,309.16821 974.52338,310.18842 971.31653,311.05609 967.75433,311.68835 963.94092,312.06018 960.00006,312.18195 956.05914,312.06018 952.24567,311.68835 948.68347,311.05609 945.47668,310.18842 942.70288,309.16821 940.41187,308.14191 938.62707,307.30395 937.35217,306.83453 936.58722,306.84283 936.33227,307.35352 936.58722,308.31116 937.35217,309.599 938.62707,311.08496 940.41187,312.63306 942.70288,314.10883 945.47668,315.40112 948.68347,316.43396 952.24567,317.1687 956.05914,317.60065 958.0296,317.67157 960.00006,317.74249 963.94092,317.60065 967.75433,317.1687 971.31653,316.43396 974.52338,315.40112 977.29718,314.10883 979.5882,312.63306 981.37299,311.08496 "
       fill="#94C0FE"
       stroke="none"
       fill-opacity="1"
       id="polygon10"
       style="fill:#c758fc;fill-opacity:1" />
    <polygon
       points="982.64789,318.91626 983.41284,317.46832 983.66779,316.45483 983.41284,315.99988 982.64789,316.15192 981.37299,316.86755 979.5882,318.00946 977.29718,319.3609 974.52338,320.68964 971.31653,321.82007 967.75433,322.64905 963.94092,323.14105 960.00006,323.30304 956.05914,323.14105 952.24567,322.64905 948.68347,321.82007 945.47668,320.68964 942.70288,319.3609 940.41187,318.00946 938.62707,316.86755 937.35217,316.15186 936.58722,315.99988 936.33227,316.45483 936.58722,317.46832 937.35217,318.91626 938.62707,320.64856 940.41187,322.50073 942.70288,324.30151 945.47668,325.9024 948.68347,327.19794 952.24567,328.12939 956.05914,328.6814 960.00006,328.86359 963.94092,328.6814 967.75433,328.12939 971.31653,327.19794 974.52338,325.9024 977.29718,324.30151 979.5882,322.50073 981.37299,320.64856 "
       fill="#94C0FE"
       stroke="none"
       fill-opacity="1"
       id="polygon11"
       style="fill:#c758fc;fill-opacity:1" />
  </g>
  <g
     id="Fills.009-6"
     style="fill:#6336d5;fill-opacity:1;stroke:#d7a0ff;stroke-width:3;stroke-dasharray:none;stroke-opacity:1"
     inkscape:label="btns"
     transform="translate(6.8364543e-5,-4.9684176e-4)">
    <polygon
       points="780.66949,497.16528 785.10999,495.99298 789.71704,494.63007 794.24225,493.44196 798.39703,492.20783 801.88336,490.56055 804.45514,488.1806 805.75458,484.65826 806.13428,480.27429 805.83447,475.21924 805.14801,469.73132 804.32007,464.01758 803.40356,458.16028 802.40381,452.21051 801.32574,446.21924 800.17462,440.22949 798.95465,434.25238 797.66992,428.29083 796.32471,422.34772 794.87238,416.48865 793.06384,411.02881 790.59906,406.34656 787.23071,402.7558 782.60889,400.72949 777.12707,399.97156 771.07654,400.34454 764.80078,401.64746 758.67071,403.70923 753.16681,406.48047 748.79633,409.94165 745.97748,414.04639 745.30841,418.83295 746.13794,424.08118 747.99554,429.65594 750.32056,435.39465 752.64441,441.16205 754.86615,446.93133 756.97668,452.70288 758.96674,458.47693 760.82959,464.2453 762.56781,469.96551 764.18597,475.58637 765.68921,481.05682 767.12268,486.27051 768.69397,490.90155 770.65106,494.56854 773.20532,496.96246 776.63409,497.63507 "
       fill="#FEFEFE"
       stroke="none"
       fill-opacity="1"
       id="polygon33"
       style="fill:#6336d5;fill-opacity:1;stroke:#d7a0ff;stroke-width:3;stroke-dasharray:none;stroke-opacity:1" />
    <polygon
       points="809.4679,575.21936 810.02826,569.85669 810.23773,564.28272 810.34808,558.63525 810.40857,552.94403 810.41773,547.21191 810.37427,541.44177 810.27692,535.64301 810.12683,529.85205 809.92529,524.11212 809.67364,518.46637 809.33258,513.0202 808.6994,508.12787 807.5307,504.20612 805.62592,501.59644 802.69458,500.7832 799.02655,501.16913 794.82178,502.29974 790.32306,503.64569 785.78742,504.82867 781.52814,506.07611 777.87268,507.76697 775.09589,510.2298 773.56995,513.88513 772.90167,518.41858 772.79504,523.60742 772.90155,529.17908 772.93475,534.90082 772.85577,540.70044 772.68781,546.54571 772.4541,552.40454 772.1698,558.25018 771.81769,564.07812 771.37286,569.88922 770.80988,575.68457 770.17779,581.40179 769.82135,586.72626 770.15949,591.27991 771.54712,594.74853 774.46143,596.6654 778.46454,597.35333 783.2406,596.98328 788.40991,595.78931 793.60315,593.96191 798.492,591.51575 802.75818,588.42163 806.13629,584.67993 808.25391,580.20557 "
       fill="#FEFEFE"
       stroke="none"
       fill-opacity="1"
       id="polygon34"
       style="fill:#6336d5;fill-opacity:1;stroke:#d7a0ff;stroke-width:3;stroke-dasharray:none;stroke-opacity:1" />
    <polygon
       points="938.3421,381.83978 938.3421,384.04657 938.3421,386.25232 938.3421,388.4494 938.3421,390.63031 938.3421,392.7868 938.3421,394.91071 938.3421,396.99402 938.34265,399.02887 938.34711,401.00824 938.36261,402.92664 938.40057,404.77985 938.47595,406.56537 938.60651,408.28137 938.81079,409.92633 939.10736,411.49884 939.51343,412.99719 940.04187,414.41882 940.69879,415.76007 941.48352,417.01587 942.38873,418.18005 943.40247,419.24567 944.5116,420.2052 945.70331,421.05182 946.96472,421.77869 948.28424,422.38318 949.65185,422.86743 951.05926,423.23883 952.49951,423.50977 953.96692,423.69666 955.45612,423.81604 956.96173,423.88495 958.47815,423.91907 960.00006,423.9292 961.52191,423.91907 963.03833,423.88495 964.54395,423.81604 966.03314,423.69666 967.50061,423.50977 968.94086,423.23883 970.34815,422.86743 971.71582,422.38318 973.03528,421.77869 974.29681,421.05176 975.48846,420.2052 976.59766,419.24567 977.61133,418.18005 978.51654,417.01587 979.30121,415.76007 979.95819,414.41882 980.48657,412.99719 980.8927,411.49884 981.18927,409.92633 981.39349,408.28137 981.52423,406.56537 981.59949,404.77985 981.63739,402.92664 981.65295,401.00824 981.65753,399.02887 981.65796,396.99402 981.65796,394.91071 981.65796,392.7868 981.65796,390.63031 981.65796,388.4494 981.65796,386.25232 981.65796,384.04657 981.65796,381.83978 981.65796,379.63861 981.65796,377.44995 981.65796,375.27972 981.65796,373.13422 981.65796,371.01965 981.65735,368.94226 981.65295,366.9079 981.63739,364.92255 981.59949,362.99188 981.52423,361.12146 981.39349,359.31665 981.18927,357.58283 980.8927,355.92535 980.48657,354.34961 979.95819,352.8609 979.30121,351.46478 978.51654,350.16638 977.61133,348.97095 976.59766,347.88397 975.48846,346.91058 974.29681,346.05609 973.03528,345.3252 971.71582,344.71906 970.34815,344.23438 968.94086,343.86291 967.50061,343.59186 966.03314,343.40509 964.54395,343.28571 963.03833,343.21686 961.52191,343.18256 960.00006,343.17242 958.47815,343.18256 956.96173,343.21686 955.45612,343.28571 953.96692,343.40509 952.49951,343.59186 951.05926,343.86291 949.65185,344.23438 948.28424,344.71906 946.96472,345.3252 945.70331,346.05609 944.5116,346.91058 943.40247,347.88397 942.38873,348.97095 941.48352,350.16638 940.69879,351.46478 940.04187,352.8609 939.51343,354.34961 939.14062,355.61664 938.72595,357.51251 938.42499,361.06104 938.38043,363.31317 938.36261,364.92255 938.34711,366.9079 938.34265,368.94226 938.3421,371.01965 938.3421,373.13422 938.3421,375.27972 938.3421,377.44995 938.3421,379.63861 "
       fill="#FEFEFE"
       stroke="none"
       fill-opacity="1"
       id="polygon49"
       style="display:inline;fill:#6336d5;fill-opacity:1;stroke:#d7a0ff;stroke-width:3;stroke-linecap:round;stroke-linejoin:round;stroke-dasharray:none;stroke-dashoffset:0;stroke-opacity:1;paint-order:normal"
       transform="translate(-4.1150423e-5,7.6838429e-5)" />
    <polygon
       points="938.3421,463.1759 938.3421,464.98151 938.3421,466.78015 938.3421,468.56543 938.3421,470.33075 938.3421,472.06946 938.3421,473.77496 938.34265,475.44067 938.34711,477.06104 938.36261,478.63141 938.40057,480.14856 938.47595,481.61017 938.60651,483.01489 938.81079,484.36151 939.10736,485.64887 939.51343,486.87537 940.04187,488.03918 940.69879,489.13715 941.48352,490.1651 942.38873,491.11816 943.40247,491.99042 944.5116,492.77606 945.70331,493.46899 946.96472,494.06409 948.28424,494.5589 949.65185,494.95532 951.05926,495.25934 952.49951,495.4812 953.96692,495.63409 955.45612,495.73181 956.96173,495.78821 958.47815,495.81622 960.00006,495.82452 961.52191,495.81622 963.03833,495.78821 964.54395,495.73181 966.03314,495.63409 967.50061,495.4812 968.94086,495.25934 970.34815,494.95532 971.71582,494.5589 973.03528,494.06409 974.29681,493.46899 975.48846,492.77606 976.59766,491.99042 977.61133,491.11816 978.51654,490.1651 979.30121,489.13715 979.95819,488.03918 980.48657,486.87537 980.8927,485.64887 981.18927,484.36151 981.39349,483.01489 981.52423,481.61017 981.59949,480.14856 981.63739,478.63141 981.65295,477.06104 981.65753,475.44067 981.65796,473.77496 981.65796,472.06946 981.65796,470.33075 981.65796,468.56543 981.65796,466.78015 981.65796,464.98151 981.65796,463.1759 981.65796,461.36932 981.65796,459.56744 981.65796,457.77576 981.65796,455.99915 981.65796,454.24286 981.65796,452.51184 981.65735,450.81116 981.65295,449.14581 981.63739,447.52063 981.59949,445.94013 981.52423,444.40894 981.39349,442.93152 981.18927,441.51221 980.8927,440.15533 980.48657,438.86542 979.95819,437.64673 979.30121,436.50385 978.51654,435.44092 977.61133,434.4624 976.59766,433.57251 975.48846,432.77564 974.29681,432.07617 973.03528,431.47791 971.71582,430.98169 970.34815,430.58496 968.94086,430.28088 967.50061,430.05896 966.03314,429.90601 964.54395,429.80829 963.03833,429.75195 961.52191,429.72394 960.00006,429.71564 958.47815,429.72394 956.96173,429.75195 955.45612,429.80829 953.96692,429.90601 952.49951,430.05896 951.05926,430.28088 949.65185,430.58496 948.28424,430.98169 946.96472,431.47791 945.70331,432.07617 944.5116,432.77564 943.40247,433.57251 942.38873,434.4624 941.48352,435.44092 940.69879,436.50385 940.04187,437.64673 939.51343,438.86542 939.14062,439.90265 938.72595,441.45453 938.42499,444.3595 938.38043,446.20319 938.36261,447.52063 938.34711,449.14581 938.34265,450.81116 938.3421,452.51184 938.3421,454.24286 938.3421,455.99915 938.3421,457.77576 938.3421,459.56744 938.3421,461.36932 "
       fill="#FEFEFE"
       stroke="none"
       fill-opacity="1"
       id="polygon50"
       style="display:inline;fill:#6336d5;fill-opacity:1;stroke:#d7a0ff;stroke-width:3;stroke-linecap:round;stroke-linejoin:round;stroke-dasharray:none;stroke-dashoffset:0;stroke-opacity:1;paint-order:normal"
       transform="translate(-4.1150423e-5,7.6838429e-5)" />
    <polygon
       points="765.25452,246.9154 767.07105,261.77399 770.09302,278.09827 775.112,296.95471 779.60559,312.1579 781.89081,314.80536 785.32837,314.1618 788.64728,311.84351 795.9317,306.72314 808.41345,292.7265 817.86377,275.99353 823.63879,257.66443 825.34491,238.98859 822.86578,221.23846 814.98999,191.95825 808.22107,166.79303 806.39795,164.57269 803.56201,165.03192 799.39728,167.79175 792.21979,173.42059 785.67371,179.61291 779.71551,186.30603 774.84442,193.89978 770.74493,202.20581 767.64417,211.49793 765.63391,221.93872 764.80652,233.69067 "
       fill="#FEFEFE"
       stroke="none"
       fill-opacity="1"
       id="polygon38"
       style="display:inline;fill:#6336d5;stroke:#d7a0ff;stroke-linecap:round;stroke-linejoin:round;stroke-dasharray:none;stroke-dashoffset:0;stroke-opacity:1;paint-order:normal;fill-opacity:1;stroke-width:3"
       transform="translate(-0.16558854,-0.11820502)" />
  </g>
  <g
     id="Fills.001"
     inkscape:label="clci-ovr"
     style="display:inline;fill:url(#linearGradient45);stroke:#ef0707;stroke-linecap:round;stroke-linejoin:round;stroke-dasharray:6, 6;stroke-dashoffset:0;stroke-opacity:1;paint-order:normal"
     transform="translate(2.8364543e-5,-4.1984176e-4)">
    <polygon
       points="1151.1405,290.6261 1151.1439,303.2276 1151.4203,316.41644 1152.0603,330.20264 1153.0115,344.52643 1154.2802,359.36432 1155.8052,374.66077 1157.2023,390.18835 1158.0243,405.66986 1157.8447,420.82111 1156.2522,435.35217 1152.8464,448.96954 1147.2318,461.37781 1139.4934,472.58838 1127.9847,481.41327 1114.7092,488.61615 1099.9369,493.76184 1084.4235,496.72003 1068.9436,497.35382 1054.3048,495.51477 1041.3506,491.04144 1030.3508,484.26971 1023.7613,473.59729 1019.5292,460.83014 1017.7204,445.86005 1017.7438,429.10577 1018.9939,410.99072 1020.9759,391.89947 1023.5353,372.32196 1026.8489,352.86859 1030.4103,333.71558 1033.8419,314.97925 1036.8226,296.77844 1039.0608,279.26373 1040.3076,262.6394 1040.3669,247.17725 1039.1332,233.23956 1036.6274,221.29462 1032.8856,211.67712 1028.1433,204.1568 1022.6703,198.33038 1016.7299,193.76947 1010.593,190.03381 1004.5433,186.67896 998.87884,183.25952 993.74304,179.4892 989.88043,174.57489 986.89294,169.15198 984.99139,163.3407 984.21686,157.41571 984.60504,151.64887 986.18665,146.30981 988.98816,141.66547 992.82031,137.77624 998.32574,135.46698 1004.7629,134.09058 1012.2249,133.76587 1020.5908,134.40576 1029.7373,135.92218 1039.5376,138.22498 1049.8613,141.22223 1060.5769,144.82098 1071.5353,148.93713 1082.5175,153.51892 1093.297,158.52814 1103.658,163.93262 1113.3934,169.70453 1122.2992,175.81757 1130.1691,182.24475 1137.0316,188.9118 1142.0183,195.93506 1145.9478,203.22186 1148.7467,210.87244 1150.5801,218.94202 1151.6117,227.48547 1152.0284,236.54627 1152.0498,246.15228 1151.8477,256.3493 1151.5728,267.17224 1151.3119,278.60492 "
       fill="#5CD9FE"
       stroke="none"
       fill-opacity="1"
       id="R-click"
       style="display:none;fill:url(#linearGradient51);fill-opacity:0.823283;stroke:#ef0707;stroke-linecap:round;stroke-linejoin:round;stroke-dasharray:6, 6;stroke-dashoffset:0;stroke-opacity:1;paint-order:normal"
       inkscape:path-effect="#path-effect38"
       d="m 1103.658,163.93262 9.7354,5.77191 8.9058,6.11304 7.8699,6.42718 6.8625,6.66705 4.9867,7.02326 3.9295,7.2868 2.7989,7.65058 1.8334,8.06958 1.0316,8.54345 0.4167,9.0608 0.021,9.60601 -0.2021,10.19702 -0.2749,10.82294 -0.2609,11.43268 -0.1714,12.02118 0,12.6015 0.2764,13.18884 0.64,13.7862 0.9512,14.32379 1.2687,14.83789 1.525,15.29645 1.3971,15.52758 0.822,15.48151 -0.1796,15.15125 -1.5925,14.53106 -3.4058,13.61737 -5.6146,12.40827 -7.7384,11.21057 -11.5087,8.82489 -13.2755,7.20288 -14.7723,5.14569 -15.5134,2.95819 -15.4799,0.63379 -14.6388,-1.83905 -12.9542,-4.47333 -10.9998,-6.77173 -6.5895,-10.67242 -4.2321,-12.76715 -1.8088,-14.97009 0.023,-16.75428 1.2501,-18.11505 1.982,-19.09125 2.5594,-19.57751 3.3136,-19.45337 3.5614,-19.15301 3.4316,-18.73633 2.9807,-18.20081 2.2382,-17.51471 1.2468,-16.62433 0.059,-15.46215 -1.2337,-13.93769 -2.5058,-11.94494 -3.7418,-9.6175 -4.7423,-7.52032 -5.473,-5.82642 -5.9404,-4.56091 -6.1369,-3.73566 -6.0497,-3.35485 -5.66446,-3.41944 -5.1358,-3.77032 -3.86261,-4.91431 -2.98749,-5.42291 -1.90155,-5.81128 -0.77453,-5.92499 0.38818,-5.76684 1.58161,-5.33906 2.80151,-4.64434 3.83215,-3.88923 5.50543,-2.30926 6.43716,-1.3764 7.462,-0.32471 8.3659,0.63989 9.1465,1.51642 9.8003,2.3028 10.3237,2.99725 10.7156,3.59875 10.9584,4.11615 10.9822,4.58179 10.7795,5.00922 z" />
    <polygon
       points="760.82959,464.2453 762.56781,469.96551 764.18597,475.58637 765.68921,481.05682 767.12268,486.27051 768.69397,490.90155 770.65106,494.56854 773.20532,496.96246 776.63409,497.63507 780.66949,497.16528 785.10999,495.99298 789.71704,494.63007 794.24225,493.44196 798.39703,492.20783 801.88336,490.56055 804.45514,488.1806 805.75458,484.65826 806.13428,480.27429 805.83447,475.21924 805.14801,469.73132 804.32007,464.01758 803.40356,458.16028 802.40381,452.21051 801.32574,446.21924 800.17462,440.22949 798.95465,434.25238 797.66992,428.29083 796.32471,422.34772 794.87238,416.48865 793.06384,411.02881 790.59906,406.34656 787.23071,402.7558 782.60889,400.72949 777.12707,399.97156 771.07654,400.34454 764.80078,401.64746 758.67071,403.70923 753.16681,406.48047 748.79633,409.94165 745.97748,414.04639 745.30841,418.83295 746.13794,424.08118 747.99554,429.65594 750.32056,435.39465 752.64441,441.16205 754.86615,446.93133 756.97668,452.70288 758.96674,458.47693 "
       fill="#FEFEFE"
       stroke="none"
       fill-opacity="1"
       id="F-btn"
       style="display:none;fill:#d84073;fill-opacity:0.906879;stroke:#ff0c0c;stroke-width:2;stroke-linecap:round;stroke-linejoin:round;stroke-dasharray:12, 6;stroke-dashoffset:0;stroke-opacity:1;paint-order:normal"
       transform="translate(-0.6659199,0.8495316)" />
    <polygon
       points="773.56995,513.88513 772.90167,518.41858 772.79504,523.60742 772.90155,529.17908 772.93475,534.90082 772.85577,540.70044 772.68781,546.54571 772.4541,552.40454 772.1698,558.25018 771.81769,564.07812 771.37286,569.88922 770.80988,575.68457 770.17779,581.40179 769.82135,586.72626 770.15949,591.27991 771.54712,594.74853 774.46143,596.6654 778.46454,597.35333 783.2406,596.98328 788.40991,595.78931 793.60315,593.96191 798.492,591.51575 802.75818,588.42163 806.13629,584.67993 808.25391,580.20557 809.4679,575.21936 810.02826,569.85669 810.23773,564.28272 810.34808,558.63525 810.40857,552.94403 810.41773,547.21191 810.37427,541.44177 810.27692,535.64301 810.12683,529.85205 809.92529,524.11212 809.67364,518.46637 809.33258,513.0202 808.6994,508.12787 807.5307,504.20612 805.62592,501.59644 802.69458,500.7832 799.02655,501.16913 794.82178,502.29974 790.32306,503.64569 785.78742,504.82867 781.52814,506.07611 777.87268,507.76697 775.09589,510.2298 "
       fill="#FEFEFE"
       stroke="none"
       fill-opacity="1"
       id="B-btn"
       style="display:none;fill:#d84073;fill-opacity:0.906879;stroke:#ff0c0c;stroke-width:2;stroke-linecap:round;stroke-linejoin:round;stroke-dasharray:12, 6;stroke-dashoffset:0;stroke-opacity:1;paint-order:normal"
       transform="translate(-0.6659199,0.8495316)" />
    <polygon
       points="955.45612,423.81604 956.96173,423.88495 958.47815,423.91907 960.00006,423.9292 961.52191,423.91907 963.03833,423.88495 964.54395,423.81604 966.03314,423.69666 967.50061,423.50977 968.94086,423.23883 970.34815,422.86743 971.71582,422.38318 973.03528,421.77869 974.29681,421.05176 975.48846,420.2052 976.59766,419.24567 977.61133,418.18005 978.51654,417.01587 979.30121,415.76007 979.95819,414.41882 980.48657,412.99719 980.8927,411.49884 981.18927,409.92633 981.39349,408.28137 981.52423,406.56537 981.59949,404.77985 981.63739,402.92664 981.65295,401.00824 981.65753,399.02887 981.65796,396.99402 981.65796,394.91071 981.65796,392.7868 981.65796,390.63031 981.65796,388.4494 981.65796,386.25232 981.65796,384.04657 981.65796,381.83978 981.65796,379.63861 981.65796,377.44995 981.65796,375.27972 981.65796,373.13422 981.65796,371.01965 981.65735,368.94226 981.65295,366.9079 981.63739,364.92255 981.59949,362.99188 981.52423,361.12146 981.39349,359.31665 981.18927,357.58283 980.8927,355.92535 980.48657,354.34961 979.95819,352.8609 979.30121,351.46478 978.51654,350.16638 977.61133,348.97095 976.59766,347.88397 975.48846,346.91058 974.29681,346.05609 973.03528,345.3252 971.71582,344.71906 970.34815,344.23438 968.94086,343.86291 967.50061,343.59186 966.03314,343.40509 964.54395,343.28571 963.03833,343.21686 961.52191,343.18256 960.00006,343.17242 958.47815,343.18256 956.96173,343.21686 955.45612,343.28571 953.96692,343.40509 952.49951,343.59186 951.05926,343.86291 949.65185,344.23438 948.28424,344.71906 946.96472,345.3252 945.70331,346.05609 944.5116,346.91058 943.40247,347.88397 942.38873,348.97095 941.48352,350.16638 940.69879,351.46478 940.04187,352.8609 939.51343,354.34961 939.14062,355.61664 938.72595,357.51251 938.42499,361.06104 938.38043,363.31317 938.36261,364.92255 938.34711,366.9079 938.34265,368.94226 938.3421,371.01965 938.3421,373.13422 938.3421,375.27972 938.3421,377.44995 938.3421,379.63861 938.3421,381.83978 938.3421,384.04657 938.3421,386.25232 938.3421,388.4494 938.3421,390.63031 938.3421,392.7868 938.3421,394.91071 938.3421,396.99402 938.34265,399.02887 938.34711,401.00824 938.36261,402.92664 938.40057,404.77985 938.47595,406.56537 938.60651,408.28137 938.81079,409.92633 939.10736,411.49884 939.51343,412.99719 940.04187,414.41882 940.69879,415.76007 941.48352,417.01587 942.38873,418.18005 943.40247,419.24567 944.5116,420.2052 945.70331,421.05182 946.96472,421.77869 948.28424,422.38318 949.65185,422.86743 951.05926,423.23883 952.49951,423.50977 953.96692,423.69666 "
       fill="#FEFEFE"
       stroke="none"
       fill-opacity="1"
       id="T-btn"
       style="display:none;fill:#d84073;fill-opacity:0.905882;stroke:#ff0c0c;stroke-width:2;stroke-linecap:round;stroke-linejoin:round;stroke-dasharray:12, 6;stroke-dashoffset:0;stroke-opacity:1;paint-order:normal" />
    <polygon
       points="945.70331,493.46899 946.96472,494.06409 948.28424,494.5589 949.65185,494.95532 951.05926,495.25934 952.49951,495.4812 953.96692,495.63409 955.45612,495.73181 956.96173,495.78821 958.47815,495.81622 960.00006,495.82452 961.52191,495.81622 963.03833,495.78821 964.54395,495.73181 966.03314,495.63409 967.50061,495.4812 968.94086,495.25934 970.34815,494.95532 971.71582,494.5589 973.03528,494.06409 974.29681,493.46899 975.48846,492.77606 976.59766,491.99042 977.61133,491.11816 978.51654,490.1651 979.30121,489.13715 979.95819,488.03918 980.48657,486.87537 980.8927,485.64887 981.18927,484.36151 981.39349,483.01489 981.52423,481.61017 981.59949,480.14856 981.63739,478.63141 981.65295,477.06104 981.65753,475.44067 981.65796,473.77496 981.65796,472.06946 981.65796,470.33075 981.65796,468.56543 981.65796,466.78015 981.65796,464.98151 981.65796,463.1759 981.65796,461.36932 981.65796,459.56744 981.65796,457.77576 981.65796,455.99915 981.65796,454.24286 981.65796,452.51184 981.65735,450.81116 981.65295,449.14581 981.63739,447.52063 981.59949,445.94013 981.52423,444.40894 981.39349,442.93152 981.18927,441.51221 980.8927,440.15533 980.48657,438.86542 979.95819,437.64673 979.30121,436.50385 978.51654,435.44092 977.61133,434.4624 976.59766,433.57251 975.48846,432.77564 974.29681,432.07617 973.03528,431.47791 971.71582,430.98169 970.34815,430.58496 968.94086,430.28088 967.50061,430.05896 966.03314,429.90601 964.54395,429.80829 963.03833,429.75195 961.52191,429.72394 960.00006,429.71564 958.47815,429.72394 956.96173,429.75195 955.45612,429.80829 953.96692,429.90601 952.49951,430.05896 951.05926,430.28088 949.65185,430.58496 948.28424,430.98169 946.96472,431.47791 945.70331,432.07617 944.5116,432.77564 943.40247,433.57251 942.38873,434.4624 941.48352,435.44092 940.69879,436.50385 940.04187,437.64673 939.51343,438.86542 939.14062,439.90265 938.72595,441.45453 938.42499,444.3595 938.38043,446.20319 938.36261,447.52063 938.34711,449.14581 938.34265,450.81116 938.3421,452.51184 938.3421,454.24286 938.3421,455.99915 938.3421,457.77576 938.3421,459.56744 938.3421,461.36932 938.3421,463.1759 938.3421,464.98151 938.3421,466.78015 938.3421,468.56543 938.3421,470.33075 938.3421,472.06946 938.3421,473.77496 938.34265,475.44067 938.34711,477.06104 938.36261,478.63141 938.40057,480.14856 938.47595,481.61017 938.60651,483.01489 938.81079,484.36151 939.10736,485.64887 939.51343,486.87537 940.04187,488.03918 940.69879,489.13715 941.48352,490.1651 942.38873,491.11816 943.40247,491.99042 944.5116,492.77606 "
       fill="#FEFEFE"
       stroke="none"
       fill-opacity="1"
       id="T-B-btn"
       style="display:none;fill:#d84073;fill-opacity:0.905882;stroke:#ff0c0c;stroke-width:2;stroke-linecap:round;stroke-linejoin:round;stroke-dasharray:12, 6;stroke-dashoffset:0;stroke-opacity:1;paint-order:normal" />
    <polygon
       points="799.39728,167.79175 792.21979,173.42059 785.67371,179.61291 779.71551,186.30603 774.84442,193.89978 770.74493,202.20581 767.64417,211.49793 765.63391,221.93872 764.80652,233.69067 765.25452,246.9154 767.07105,261.77399 770.09302,278.09827 775.112,296.95471 779.60559,312.1579 781.89081,314.80536 785.32837,314.1618 788.64728,311.84351 795.9317,306.72314 808.41345,292.7265 817.86377,275.99353 823.63879,257.66443 825.34491,238.98859 822.86578,221.23846 814.98999,191.95825 808.22107,166.79303 806.39795,164.57269 803.56201,165.03192 "
       fill="#FEFEFE"
       stroke="none"
       fill-opacity="1"
       id="L-T-click"
       style="display:none;fill:#d84073;fill-opacity:0.906879;stroke:#ff0c0c;stroke-width:2;stroke-linecap:round;stroke-linejoin:round;stroke-dasharray:12, 6;stroke-dashoffset:0;stroke-opacity:1;paint-order:normal"
       transform="translate(-0.66554848,-0.61827806)" />
    <polygon
       points="897.32312,338.19702 896.14911,328.9137 894.97192,320.02618 893.79657,311.54224 892.63196,303.45673 891.5025,295.71539 890.43677,288.25092 889.46332,280.9964 888.61047,273.88489 887.9068,266.84949 887.38074,259.82294 887.06091,252.73853 886.9798,245.5611 887.18695,238.38446 887.73602,231.33411 888.6806,224.53564 890.0744,218.11499 891.97101,212.19751 894.42407,206.90894 897.48724,202.375 901.17645,198.66412 905.35687,195.61597 909.8559,193.01276 914.50085,190.63721 919.1192,188.27161 923.53839,185.69836 927.58575,182.69989 931.20831,179.20215 933.90167,174.63214 935.9859,169.57758 937.32983,164.12726 937.92157,158.51331 937.74963,152.96832 936.80206,147.7243 935.06738,143.01386 932.66882,138.90271 929.20007,136.06891 925.10785,133.98004 920.30896,132.71539 914.85553,132.18829 908.79944,132.31177 902.19281,132.99921 895.08752,134.16351 887.53565,135.71814 879.61652,137.58746 871.51813,139.74164 863.45587,142.16229 855.6452,144.83093 848.30145,147.729 841.63995,150.83813 835.87616,154.13983 831.00409,157.5896 827.84082,161.25562 825.62628,165.08508 824.42328,169.13776 824.07361,173.44745 824.4187,178.04779 825.30017,182.97266 826.55988,188.2558 828.03912,193.93109 829.59412,200.00873 831.13959,206.40527 832.60431,213.01379 833.91742,219.72711 835.008,226.43848 835.80518,233.04095 836.23785,239.42743 836.23523,245.49109 835.74445,251.1554 834.78565,256.46668 833.3971,261.50177 831.61694,266.33746 829.48358,271.0506 827.03516,275.71796 824.30994,280.41669 821.34625,285.22314 818.19916,290.2226 814.99152,295.53223 811.8631,301.27753 808.95337,307.58374 806.40204,314.57654 804.349,322.3811 802.93372,331.12305 802.2959,340.92755 802.55347,351.84778 803.73621,363.64777 805.85217,376.01849 808.90979,388.65173 812.91693,401.23871 817.88159,413.47082 823.81201,425.03973 830.55261,435.85004 838.54858,444.98529 847.04858,452.93835 855.90185,459.38043 864.79431,464.19659 873.41162,467.27142 881.43945,468.48987 888.56372,467.73676 894.72528,465.26385 898.92755,459.92731 902.0404,453.07495 903.99591,444.65869 904.98138,434.99786 905.18433,424.41125 904.79205,413.21826 904.39203,407.47809 903.99207,401.73785 902.97168,390.28894 901.88806,379.13904 900.77637,368.34729 899.64166,357.92139 898.48889,347.86871 "
       fill="#FEFEFE"
       stroke="none"
       fill-opacity="1"
       id="L-clcik"
       style="display:none;fill:url(#linearGradient56);stroke:#ef0707;stroke-opacity:1"
       transform="translate(-2.8364543e-5,4.1984176e-4)" />
  </g>
</svg>
