<?xml version="1.0" encoding="UTF-8" standalone="no"?>
<!-- Generator: Blender, SVG Export for Grease Pencil - v2.0 -->

<svg
   version="1.0"
   x="0px"
   y="0px"
   width="1920.000000px"
   height="1080.000000px"
   viewBox="0 0 1920.000000 1080.000000"
   id="svg20"
   sodipodi:docname="mouse-6.svg"
   inkscape:version="1.4.2 (ebf0e940d0, 2025-05-08)"
   xmlns:inkscape="http://www.inkscape.org/namespaces/inkscape"
   xmlns:sodipodi="http://sodipodi.sourceforge.net/DTD/sodipodi-0.dtd"
   xmlns:xlink="http://www.w3.org/1999/xlink"
   xmlns="http://www.w3.org/2000/svg"
   xmlns:svg="http://www.w3.org/2000/svg">
  <defs
     id="defs20">
    <linearGradient
       id="linearGradient24"
       inkscape:collect="always">
      <stop
         style="stop-color:#9200e9;stop-opacity:1;"
         offset="0"
         id="stop25" />
      <stop
         style="stop-color:#0f0012;stop-opacity:1;"
         offset="0.5"
         id="stop27" />
      <stop
         style="stop-color:#9100e9;stop-opacity:1;"
         offset="1"
         id="stop26" />
    </linearGradient>
    <linearGradient
       id="linearGradient22"
       inkscape:collect="always">
      <stop
         style="stop-color:#be71e5;stop-opacity:1;"
         offset="0"
         id="stop22" />
      <stop
         style="stop-color:#943ac9;stop-opacity:1;"
         offset="0.51535493"
         id="stop24" />
      <stop
         style="stop-color:#68259b;stop-opacity:1;"
         offset="1"
         id="stop23" />
    </linearGradient>
    <linearGradient
       id="linearGradient20"
       inkscape:collect="always">
      <stop
         style="stop-color:#ec0000;stop-opacity:0.7647059;"
         offset="0"
         id="stop20" />
      <stop
         style="stop-color:#ff0707;stop-opacity:0.02352941;"
         offset="1"
         id="stop21" />
    </linearGradient>
    <linearGradient
       inkscape:collect="always"
       xlink:href="#linearGradient20"
       id="linearGradient21"
       x1="963.81042"
       y1="121.34586"
       x2="963.81042"
       y2="509.77383"
       gradientUnits="userSpaceOnUse" />
    <linearGradient
       inkscape:collect="always"
       xlink:href="#linearGradient22"
       id="linearGradient23"
       x1="939.08984"
       y1="340.35941"
       x2="984.18811"
       y2="769.44128"
       gradientUnits="userSpaceOnUse" />
    <linearGradient
       inkscape:collect="always"
       xlink:href="#linearGradient24"
       id="linearGradient26"
       x1="698.33246"
       y1="513.97699"
       x2="1206.8163"
       y2="558.46356"
       gradientUnits="userSpaceOnUse" />
    <linearGradient
       id="linearGradient12"
       inkscape:collect="always">
      <stop
         style="stop-color:#bb6ee3;stop-opacity:1;"
         offset="0"
         id="stop10" />
      <stop
         style="stop-color:#b67cd6;stop-opacity:0.73333335;"
         offset="0.22635691"
         id="stop13" />
      <stop
         style="stop-color:#a970c9;stop-opacity:0.48235294;"
         offset="0.52921891"
         id="stop14" />
      <stop
         style="stop-color:#8f4cba;stop-opacity:0.43619502;"
         offset="0.74187714"
         id="stop16" />
      <stop
         style="stop-color:#6b259f;stop-opacity:0.36828047;"
         offset="1"
         id="stop12" />
    </linearGradient>
    <radialGradient
       inkscape:collect="always"
       xlink:href="#linearGradient12"
       id="radialGradient28"
       cx="961.69855"
       cy="558.849"
       fx="961.69855"
       fy="558.849"
       r="216.22301"
       gradientTransform="matrix(1.1753729,-0.0042286,0.006766,1.8806666,-172.49637,-484.45699)"
       gradientUnits="userSpaceOnUse" />
  </defs>
  <sodipodi:namedview
     id="namedview20"
     pagecolor="#505050"
     bordercolor="#ffffff"
     borderopacity="1"
     inkscape:showpageshadow="0"
     inkscape:pageopacity="0"
     inkscape:pagecheckerboard="1"
     inkscape:deskcolor="#505050"
     inkscape:zoom="0.92291667"
     inkscape:cx="914.4921"
     inkscape:cy="556.38826"
     inkscape:window-width="1920"
     inkscape:window-height="1011"
     inkscape:window-x="0"
     inkscape:window-y="32"
     inkscape:window-maximized="1"
     inkscape:current-layer="svg20" />
  <clipPath
     id="clip-path1">
    <rect
       x="0"
       y="0"
       width="1920"
       height="1080"
       fill="none"
       id="rect1" />
  </clipPath>
  <g
     id="corner-r"
     inkscape:label="cor"
     style="fill:url(#linearGradient26);stroke:#b77fff;stroke-opacity:0.99215686">
    <polygon
       points="1207.537598,685.489258 1207.787476,698.835815 1207.764893,711.883179 1207.454346,724.659851 1206.840332,737.194336 1205.962891,749.546021 1204.644775,761.636658 1203.068115,773.515137 1201.196899,785.092529 1199.051636,796.311035 1196.652222,807.112488 1194.018921,817.439087 1191.172119,827.232666 1188.160767,836.543579 1184.920410,845.000000 1181.566772,852.922058 1178.101807,860.208008 1174.556519,866.864075 1170.961914,872.896667 1167.349121,878.312256 1163.749023,883.117188 1160.180054,887.417297 1156.712036,890.916626 1153.347534,893.903442 1150.139404,896.263733 1147.128906,897.983398 1144.356934,899.048096 1141.864502,899.443604 1139.692871,899.155884 1137.815430,898.289124 1136.458130,896.480835 1135.376343,894.110901 1134.577393,891.092041 1134.001099,887.455933 1133.587646,883.233887 1133.277222,878.457520 1133.009766,873.158081 1132.738281,867.443970 1132.354126,861.084534 1131.784790,854.180054 1130.896118,846.492249 1129.567139,837.859436 1127.676636,828.119873 1125.103516,817.111938 1121.726318,804.673950 1117.598633,790.936401 1112.141846,774.923401 1106.088501,757.663147 1099.539917,739.077271 1092.771362,719.379639 1086.058228,698.784302 1079.676270,677.505005 1073.900757,655.755859 1068.813965,633.757690 1065.202515,611.677856 1062.424561,589.623840 1060.541992,567.649353 1059.424072,545.815247 1058.939331,524.182373 1058.957397,502.811584 1059.347046,481.763550 1059.958984,461.025146 1060.739624,440.871399 1061.615112,421.100586 1062.606934,401.799500 1063.718506,382.980530 1064.953003,364.656494 1066.313843,346.839722 1067.804443,329.542969 1069.405396,312.687866 1071.188232,296.571228 1073.089111,280.991272 1075.136108,266.121216 1077.333252,252.043457 1079.685303,238.840271 1082.197266,226.594055 1084.873535,215.387329 1087.689941,205.101868 1090.740601,196.406982 1093.956299,188.708862 1097.385986,182.201660 1101.049805,176.878418 1104.968262,172.732544 1109.161377,169.757263 1113.649292,167.945862 1118.396362,167.099976 1123.572754,167.776672 1128.942627,169.336914 1134.476562,171.897705 1140.088623,175.383545 1145.693237,179.719727 1151.204956,184.830872 1156.537842,190.642273 1161.664673,196.986877 1166.338501,204.082031 1170.717285,211.663696 1174.739014,219.851929 1178.400391,228.675110 1181.697754,238.161316 1184.627808,248.339294 1187.187012,259.236938 1189.434937,270.753357 1191.184570,283.288330 1192.649170,296.398438 1193.795410,310.141174 1194.652832,324.444275 1195.251221,339.236145 1195.620239,354.444580 1195.789795,369.997681 1195.812622,385.789917 1195.652954,401.856384 1195.433960,418.057678 1195.189453,434.394836 1194.977173,450.835388 1194.854736,467.346924 1194.879272,483.897034 1195.108398,500.453308 1195.546387,516.993103 1196.389771,533.452515 1197.433472,549.818665 1198.664307,566.037476 1200.016113,582.064575 1201.422729,597.855530 1202.818237,613.366089 1204.136353,628.552002 1205.345581,643.437622 1206.283569,657.784302 1207.031250,671.814941"
       fill="#7F9AFE"
       stroke="none"
       fill-opacity="1"
       id="polygon14"
       style="fill:url(#linearGradient26);stroke:#b77fff;stroke-opacity:0.99215686" />
    <polygon
       points="721.984375,677.605103 716.850159,690.207397 712.046509,702.538208 707.770752,714.747925 704.220581,726.987305 701.407104,739.351807 700.043762,752.106323 699.546509,764.981689 700.034119,777.878113 701.438293,790.640686 703.691162,803.114502 706.724426,815.144714 710.469971,826.576416 714.763855,837.406128 719.814209,847.056335 725.205688,855.984009 730.895508,864.072021 736.744873,871.354858 742.614929,877.866821 748.366699,883.642212 753.861328,888.715454 759.049011,893.226379 763.550781,896.883057 767.631165,899.988647 771.226074,902.414551 774.359680,904.137451 777.056824,905.134460 779.341980,905.382202 781.239807,904.857666 782.831238,903.674194 783.976318,901.412842 784.891296,898.526794 785.571777,894.937317 786.069519,890.701904 786.436401,885.878174 786.724243,880.523438 786.984619,874.695496 787.257080,868.511353 787.651428,861.811584 788.283813,854.642700 789.340698,846.774719 790.996521,838.037109 793.425232,828.259521 796.801025,817.271240 801.298096,804.902161 806.845459,791.268616 814.259705,775.401978 822.517212,758.306641 831.481812,739.901367 840.772095,720.392212 850.006897,699.985413 858.804993,678.886780 866.784912,657.302368 873.829102,635.450562 878.855530,613.476257 882.721252,591.501343 885.319214,569.574341 886.805969,547.756104 887.337830,526.107361 887.071106,504.689087 886.162476,483.562012 884.768066,462.786926 883.025757,442.417847 880.998596,422.481689 878.730896,402.998352 876.267151,383.987854 873.651733,365.470215 870.928955,347.465332 868.143311,329.993347 865.334778,312.978699 862.547302,296.737671 859.745239,281.053894 856.896912,266.102844 853.966309,251.964233 850.917236,238.718201 847.713440,226.444458 844.319275,215.222961 840.742188,204.931763 836.822327,196.241943 832.692688,188.554016 828.318787,182.061768 823.709961,176.757080 818.875244,172.631714 813.824097,169.677490 808.565552,167.886108 803.140442,167.058350 797.465210,167.744385 791.651489,169.286987 785.686829,171.778870 779.590088,175.121216 773.380493,179.215271 767.076660,183.962585 760.697693,189.264282 754.268677,194.962219 747.800476,201.174316 741.382385,207.813232 735.089783,215.067688 729.003845,223.067017 723.206116,231.940674 717.777527,241.817688 712.800049,252.827332 708.252319,264.867188 704.525757,278.696228 701.411255,293.420471 699.111694,309.007385 697.728210,325.192627 697.361267,341.711914 698.111816,358.301025 700.080627,374.695679 703.131958,390.751892 707.997314,405.917725 713.672302,420.657166 720.019653,435.026367 726.665466,449.201599 733.236328,463.359192 739.358154,477.675659 744.657410,492.327148 748.760132,507.490173 751.378174,523.279175 752.564575,539.560730 752.458313,556.139709 751.198059,572.820923 748.922668,589.408936 745.770630,605.708618 741.880981,621.524780 737.468994,636.807739 732.453003,650.982971 727.251160,664.580444"
       fill="#2AA2FE"
       stroke="none"
       fill-opacity="1"
       id="polygon13"
       style="fill:url(#linearGradient26);stroke:#b77fff;stroke-opacity:0.99215686" />
  </g>
  <g
     id="body"
     style="fill:url(#linearGradient23);stroke:#b669fc;stroke-opacity:1">
    <polygon
       points="779.781250,337.665649 786.816040,360.471069 793.940430,384.068359 800.790344,408.163330 807.002258,432.461731 812.212341,456.669556 816.130798,480.538330 818.764526,504.001831 820.194275,527.039612 820.501404,549.631104 819.766602,571.755859 818.070801,593.393311 815.494995,614.522949 812.239990,635.215698 808.038818,655.160767 803.388062,674.532104 798.316833,693.121948 792.974060,710.814087 787.508362,727.492065 782.068665,743.039734 776.803711,757.340576 771.783752,770.525024 767.366943,781.783813 763.332520,791.973938 759.748169,801.013123 756.602539,809.065491 753.884399,816.295227 751.582825,822.866516 749.686340,828.943542 748.119995,834.718079 747.064331,840.244141 746.319153,845.632324 745.939392,850.855469 745.916260,855.913879 746.241638,860.808105 746.906372,865.538391 747.902039,870.105347 749.167664,874.536316 750.857117,878.759399 752.833435,882.900635 755.174377,886.986633 757.905640,891.070923 761.052429,895.207397 764.640564,899.449585 768.695374,903.851013 773.156189,908.421082 778.299927,913.327515 783.855042,918.394836 789.888245,923.606079 796.379211,928.899841 803.308289,934.214783 810.655273,939.489563 818.400452,944.662720 826.523743,949.672852 834.993286,954.465759 843.729675,959.015381 852.641907,963.302917 861.638306,967.309265 870.627869,971.015564 879.519348,974.402954 888.221436,977.452454 896.704773,980.207825 904.713135,982.469238 912.446106,984.440552 919.875977,986.082397 927.037231,987.417419 933.964478,988.468994 940.691956,989.260071 947.254211,989.813721 953.701782,990.184753 960.026367,990.293823 966.337280,990.225769 972.685425,989.931274 979.137695,989.392639 985.760620,988.592407 992.620911,987.513184 999.785583,986.137207 1007.248230,984.502197 1015.269836,982.427429 1023.575134,980.074219 1032.156128,977.385010 1040.931763,974.357971 1049.820679,970.990906 1058.741821,967.281921 1067.614258,963.228882 1076.391968,958.887695 1084.896362,954.090515 1093.190918,949.050049 1101.206543,943.755066 1108.909058,938.252502 1116.264526,932.588928 1123.238770,926.811340 1129.797974,920.966675 1135.988403,915.097107 1141.542847,909.260132 1146.710571,903.476746 1151.426514,897.782715 1155.706665,892.209595 1159.566650,886.788757 1163.022339,881.551758 1166.089600,876.530029 1168.843628,871.708618 1171.118286,867.245667 1173.090698,862.970215 1174.696655,858.884460 1175.931519,854.943970 1176.790527,851.104614 1177.268921,847.321899 1177.361816,843.551636 1177.130493,839.762146 1176.379395,835.848999 1175.334717,831.695190 1173.966553,827.110657 1172.310669,821.918335 1170.402344,815.940918 1168.277588,809.001282 1165.971680,800.922119 1163.538940,791.775269 1160.970215,780.686035 1158.406250,768.472534 1155.925415,755.006226 1153.623657,740.407654 1151.597534,724.797424 1149.943359,708.296082 1148.757324,691.024170 1148.025391,673.190552 1148.142944,654.623779 1148.718262,635.573181 1149.768311,615.907776 1151.199951,595.584778 1152.920532,574.561523 1154.836792,552.795288 1156.856079,530.243408 1158.885010,506.863037 1160.841064,482.672607 1162.681885,457.934265 1164.375732,432.971191 1165.890747,408.106567 1167.194702,383.663696 1168.255981,359.965698 1169.042480,337.335815 1169.578857,315.811401 1169.659058,296.505371 1169.398682,278.545715 1168.682739,262.135559 1167.452393,247.192505 1165.649536,233.634277 1163.215576,221.378174 1160.091431,210.341919 1156.353882,200.267090 1151.560059,191.596375 1146.153076,183.707336 1140.057617,176.678406 1133.332764,170.412354 1126.037842,164.811890 1118.232056,159.779419 1109.974243,155.217773 1101.323853,151.029541 1092.348389,147.133545 1083.149536,143.513733 1073.837158,140.169922 1064.521362,137.102112 1055.312012,134.310364 1046.319336,131.794617 1037.653198,129.554810 1029.332397,127.545105 1021.722229,125.899597 1014.567871,124.462524 1007.960754,123.258118 1001.901123,122.264465 996.389343,121.460144 991.425720,120.823486 987.010620,120.332581 983.052734,119.948914 979.818604,119.705994 976.992249,119.552063 974.615417,119.507080 972.638184,119.574707 971.010742,119.758057 969.683289,120.060730 968.606018,120.485657 967.703979,121.015015 967.008301,121.722412 966.421753,122.576172 965.953369,123.636597 965.587036,124.942444 965.306274,126.532654 965.095032,128.445496 964.937256,130.720337 964.813049,133.322571 964.719849,136.488525 964.645813,139.927917 964.596375,143.621094 964.573242,147.475647 964.578369,151.398560 964.613525,155.297424 964.680481,159.079407 964.775146,162.702209 964.917114,165.939026 965.089661,168.932800 965.300049,171.642456 965.549316,174.076721 965.838623,176.244751 966.169006,178.155457 966.541687,179.817749 966.950378,181.279297 967.418091,182.436340 967.921631,183.426514 968.467285,184.236755 969.053711,184.891968 969.679443,185.417480 970.343506,185.838440 971.044617,186.179871 971.775513,186.471924 972.553101,186.722168 973.362488,186.957092 974.212585,187.180603 975.106506,187.401428 976.047485,187.628418 977.038635,187.870300 978.083069,188.136230 979.174072,188.427917 980.342285,188.774231 981.550171,189.159607 982.797668,189.595215 984.074829,190.085632 985.371460,190.635010 986.677673,191.247986 987.983459,191.928772 989.282166,192.669128 990.553833,193.521057 991.801331,194.497375 993.013794,195.671448 994.184082,197.103577 995.304993,198.854614 996.369141,200.984802 997.369385,203.554810 998.298523,206.625183 999.150452,210.277832 999.924011,214.680908 1000.619507,220.023987 1001.236755,226.496643 1001.776123,234.288452 1002.237793,243.588928 1002.621643,254.587830 1002.940674,267.128296 1003.156860,282.330994 1003.310913,298.808105 1003.392639,316.448853 1003.404297,334.796570 1003.348633,353.394226 1003.228271,371.785095 1003.045593,389.512207 1002.803101,406.118652 1002.502686,421.235107 1002.143250,434.841919 1001.722900,447.006653 1001.239746,457.797180 1000.691833,467.281189 1000.077332,475.526428 999.394470,482.600647 998.653381,488.744141 997.816589,493.515442 996.920715,497.543091 995.955078,500.773743 994.920715,503.326599 993.818970,505.320984 992.650818,506.876160 991.417603,508.111389 990.130859,509.159424 988.760254,510.079773 987.338684,510.936340 985.856812,511.719971 984.315735,512.434631 982.716797,513.084656 981.061157,513.674133 979.350220,514.207275 977.593994,514.696350 975.767700,515.120544 973.903015,515.503967 971.996643,515.837646 970.054504,516.120789 968.081726,516.352539 966.084351,516.532043 964.068054,516.658447 962.039429,516.739990 960.000916,516.748718 957.962524,516.713196 955.929993,516.625671 953.909912,516.487549 951.908997,516.300232 949.934082,516.065247 947.991882,515.783813 946.089233,515.457458 944.231812,515.086853 942.422424,514.669128 940.662476,514.201050 938.953979,513.679016 937.298340,513.099609 935.697510,512.459351 934.152893,511.754761 932.656555,510.994202 931.239807,510.129028 929.874573,509.143311 928.572632,507.963745 927.335571,506.529297 926.165100,504.778625 925.062927,502.650574 924.030884,500.083923 923.058289,497.110840 922.183044,493.368286 921.367126,488.968506 920.620789,483.628540 919.942200,477.158691 919.329285,469.369385 918.780090,460.071106 918.292908,449.074158 917.865479,436.189087 917.496765,421.333923 917.187805,404.857849 916.940308,387.217834 916.755981,368.870605 916.636658,350.273010 916.584229,331.882019 916.600220,314.154480 916.674561,297.284424 916.844788,282.429810 917.076233,268.821716 917.382324,256.655334 917.764038,245.862915 918.222656,236.376709 918.759705,228.128784 919.375854,221.051758 920.072937,215.077698 920.850830,210.130432 921.705750,206.099365 922.632935,202.865784 923.627625,200.310791 924.684937,198.315247 925.799988,196.760681 926.968079,195.527832 928.177124,194.483887 929.442810,193.571350 930.732788,192.725464 932.042664,191.956665 933.360352,191.261658 934.674316,190.637085 935.972595,190.079346 937.243469,189.585083 938.483521,189.141418 939.657776,188.772461 940.791016,188.442017 941.875977,188.150452 942.913879,187.889221 943.906433,187.649658 944.854980,187.422852 945.760681,187.199951 946.631775,186.974731 947.449280,186.730225 948.233337,186.458618 948.977051,186.142029 949.680115,185.764526 950.342651,185.310364 950.963989,184.763794 951.544189,184.108887 952.089905,183.353271 952.580261,182.408264 953.036194,181.312927 953.450867,180.010010 953.824463,178.465698 954.157288,176.646301 954.449463,174.517639 954.700989,172.046021 954.919128,169.266174 955.084045,165.959961 955.217834,162.405396 955.316162,158.627625 955.381226,154.720459 955.415283,150.777649 955.420776,146.893066 955.399902,143.160217 955.358582,139.616577 955.286499,136.507446 955.188293,133.667053 955.052307,131.137451 954.870605,128.904541 954.635010,126.953857 954.337708,125.271362 953.970642,123.842651 953.540100,122.615967 952.989014,121.688904 952.320984,120.929749 951.476379,120.356506 950.409729,119.949219 949.075500,119.688354 947.428284,119.554016 945.422668,119.526672 943.088196,119.575073 940.158325,119.720337 936.830078,119.944153 933.004395,120.280151 928.657471,120.750671 923.765198,121.378174 918.303589,122.184998 912.248535,123.193787 905.683044,124.385498 898.281372,125.902893 890.435669,127.629761 882.129639,129.611572 873.453613,131.852173 864.498352,134.355774 855.354248,137.126282 846.111816,140.168030 836.861572,143.484863 827.694458,147.088379 818.702515,151.018738 809.978516,155.323608 801.614929,160.050903 793.704224,165.248047 786.339111,170.962646 779.611938,177.242493 773.478271,184.025208 768.441833,191.707703 764.181519,200.104309 760.924927,209.488220 758.762024,220.023010 757.783020,231.872314 758.078369,245.199463 759.738037,260.167969 762.594788,276.613159 767.435547,295.606567 773.199829,315.946106"
       fill="#BBC1FE"
       stroke="none"
       fill-opacity="1"
       id="polygon17"
       style="fill:url(#linearGradient23);stroke:#b669fc;stroke-opacity:1" />
    <polygon
       points="815.495,614.52295 812.23999,635.2157 808.03882,655.16077 803.38806,674.5321 798.31683,693.12195 792.97406,710.81409 787.50836,727.49207 782.06867,743.03973 776.80371,757.34058 771.78375,770.52502 767.36694,781.78381 763.33252,791.97394 759.74817,801.01312 756.60254,809.06549 753.8844,816.29523 751.58282,822.86652 749.68634,828.94354 748.12,834.71808 747.06433,840.24414 746.31915,845.63232 745.93939,850.85547 745.91626,855.91388 746.24164,860.8081 746.90637,865.53839 747.90204,870.10535 749.16766,874.53632 750.85712,878.7594 752.83344,882.90063 755.17438,886.98663 757.90564,891.07092 761.05243,895.2074 764.64056,899.44958 768.69537,903.85101 773.15619,908.42108 778.29993,913.32751 783.85504,918.39484 789.88824,923.60608 796.37921,928.89984 803.30829,934.21478 810.65527,939.48956 818.40045,944.66272 826.52374,949.67285 834.99329,954.46576 843.72968,959.01538 852.64191,963.30292 861.63831,967.30926 870.62787,971.01556 879.51935,974.40295 888.22144,977.45245 896.70477,980.20782 904.71313,982.46924 912.44611,984.44055 919.87598,986.0824 927.03723,987.41742 933.96448,988.46899 940.69196,989.26007 947.25421,989.81372 953.70178,990.18475 960.02637,990.29382 966.33728,990.22577 972.68543,989.93127 979.1377,989.39264 985.76062,988.59241 992.62091,987.51318 999.78558,986.13721 1007.2482,984.5022 1015.2698,982.42743 1023.5751,980.07422 1032.1561,977.38501 1040.9318,974.35797 1049.8207,970.99091 1058.7418,967.28192 1067.6143,963.22888 1076.392,958.8877 1084.8964,954.09051 1093.1909,949.05005 1101.2065,943.75507 1108.9091,938.2525 1116.2645,932.58893 1123.2388,926.81134 1129.798,920.96668 1135.9884,915.09711 1141.5428,909.26013 1146.7106,903.47675 1151.4265,897.78272 1155.7067,892.2096 1159.5666,886.78876 1163.0223,881.55176 1166.0896,876.53003 1168.8436,871.70862 1171.1183,867.24567 1173.0907,862.97022 1174.6967,858.88446 1175.9315,854.94397 1176.7905,851.10461 1177.2689,847.3219 1177.3618,843.55164 1177.1305,839.76215 1176.3794,835.849 1175.3347,831.69519 1173.9666,827.11066 1172.3107,821.91833 1170.4023,815.94092 1168.2776,809.00128 1165.9717,800.92212 1163.5389,791.77527 1160.9702,780.68603 1158.4062,768.47253 1155.9254,755.00623 1153.6237,740.40765 1151.5975,724.79742 1149.9434,708.29608 1148.7573,691.02417 1148.0254,673.19055 1148.1429,654.62378 1148.7183,635.57318 1149.7683,615.90778 1151.2,595.58478 1152.9205,574.56152 1154.8368,552.79529 1156.8561,530.24341 1158.885,506.86304 1160.8411,482.67261 1162.6819,457.93426 1164.3757,432.97119 1165.8907,408.10657 1167.1947,383.6637 1168.256,359.9657 1169.0425,337.33582 1169.5789,315.8114 1169.6591,296.50537 1169.3987,278.54571 1168.6827,262.13556 1167.4524,247.19251 1165.6495,233.63428 1163.2156,221.37817 1160.0914,210.34192 1156.3539,200.26709 1151.5601,191.59637 1146.1531,183.70734 1140.0576,176.67841 1133.3328,170.41235 1126.0378,164.81189 1118.2321,159.77942 1109.9742,155.21777 1101.3239,151.02954 1092.3484,147.13354 1083.1495,143.51373 1073.8372,140.16992 1064.5214,137.10211 1055.312,134.31036 1046.3193,131.79462 1037.6532,129.55481 1029.3324,127.54511 1021.7222,125.8996 1014.5679,124.46252 1007.9608,123.25812 1001.9011,122.26447 996.38934,121.46014 991.42572,120.82349 987.01062,120.33258 983.05273,119.94891 979.8186,119.70599 976.99225,119.55206 974.61542,119.50708 972.63818,119.57471 971.01074,119.75806 969.68329,120.06073 968.60602,120.48566 967.70398,121.01502 967.0083,121.72241 966.42175,122.57617 965.95337,123.6366 965.58704,124.94244 965.30627,126.53265 965.09503,128.4455 964.93726,130.72034 964.81305,133.32257 964.71985,136.48853 964.64581,139.92792 964.59637,143.62109 964.57324,147.47565 964.57837,151.39856 964.61352,155.29742 964.68048,159.07941 964.77515,162.70221 964.91711,165.93903 965.08966,168.9328 965.30005,171.64246 965.54932,174.07672 965.83862,176.24475 966.16901,178.15546 966.54169,179.81775 966.95038,181.2793 967.41809,182.43634 967.92163,183.42651 968.46728,184.23675 969.05371,184.89197 969.67944,185.41748 970.34351,185.83844 971.04462,186.17987 971.77551,186.47192 972.5531,186.72217 973.36249,186.95709 974.21258,187.1806 975.10651,187.40143 976.04749,187.62842 977.03863,187.8703 978.08307,188.13623 979.17407,188.42792 980.34228,188.77423 981.55017,189.15961 982.79767,189.59521 984.07483,190.08563 985.37146,190.63501 986.67767,191.24799 987.98346,191.92877 989.28217,192.66913 990.55383,193.52106 991.80133,194.49738 993.01379,195.67145 994.18408,197.10358 995.30499,198.85461 996.36914,200.9848 997.36938,203.55481 998.29852,206.62518 999.15045,210.27783 999.92401,214.68091 1000.6195,220.02399 1001.2368,226.49664 1001.7761,234.28845 1002.2378,243.58893 1002.6216,254.58783 1002.9407,267.1283 1003.1569,282.33099 1003.3109,298.80811 1003.3926,316.44885 1003.4043,334.79657 1003.3486,353.39423 1003.2283,371.7851 1003.0456,389.51221 1002.8031,406.11865 1002.5027,421.23511 1002.1432,434.84192 1001.7229,447.00665 1001.2397,457.79718 1000.6918,467.28119 1000.0773,475.52643 999.39447,482.60065 998.65338,488.74414 997.81659,493.51544 996.92071,497.54309 995.95508,500.77374 994.92071,503.3266 993.81897,505.32098 992.65082,506.87616 991.4176,508.11139 990.13086,509.15942 988.76025,510.07977 987.33868,510.93634 985.85681,511.71997 984.31574,512.43463 982.7168,513.08466 981.06116,513.67413 979.35022,514.20727 977.59399,514.69635 975.7677,515.12054 973.90301,515.50397 971.99664,515.83765 970.0545,516.12079 968.08173,516.35254 966.08435,516.53204 964.06805,516.65845 962.03943,516.73999 960.00092,516.74872 957.96252,516.7132 955.92999,516.62567 953.90991,516.48755 951.909,516.30023 949.93408,516.06525 947.99188,515.78381 946.08923,515.45746 944.23181,515.08685 942.42242,514.66913 940.66248,514.20105 938.95398,513.67902 937.29834,513.09961 935.69751,512.45935 934.15289,511.75476 932.65656,510.9942 931.23981,510.12903 929.87457,509.14331 928.57263,507.96375 927.33557,506.5293 926.1651,504.77862 925.06293,502.65057 924.03088,500.08392 923.05829,497.11084 922.18304,493.36829 921.36713,488.96851 920.62079,483.62854 919.9422,477.15869 919.32929,469.36939 918.78009,460.07111 918.29291,449.07416 917.86548,436.18909 917.49676,421.33392 917.18781,404.85785 916.94031,387.21783 916.75598,368.87061 916.63666,350.27301 916.58423,331.88202 916.60022,314.15448 916.67456,297.28442 916.84479,282.42981 917.07623,268.82172 917.38232,256.65533 917.76404,245.86291 918.22266,236.37671 918.75971,228.12878 919.37585,221.05176 920.07294,215.0777 920.85083,210.13043 921.70575,206.09937 922.63293,202.86578 923.62762,200.31079 924.68494,198.31525 925.79999,196.76068 926.96808,195.52783 928.17712,194.48389 929.44281,193.57135 930.73279,192.72546 932.04266,191.95666 933.36035,191.26166 934.67432,190.63709 935.97259,190.07935 937.24347,189.58508 938.48352,189.14142 939.65778,188.77246 940.79102,188.44202 941.87598,188.15045 942.91388,187.88922 943.90643,187.64966 944.85498,187.42285 945.76068,187.19995 946.63177,186.97473 947.44928,186.73022 948.23334,186.45862 948.97705,186.14203 949.68012,185.76453 950.34265,185.31036 950.96399,184.76379 951.54419,184.10889 952.08991,183.35327 952.58026,182.40826 953.03619,181.31293 953.45087,180.01001 953.82446,178.4657 954.15729,176.6463 954.44946,174.51764 954.70099,172.04602 954.91913,169.26617 955.08404,165.95996 955.21783,162.4054 955.31616,158.62762 955.38123,154.72046 955.41528,150.77765 955.42078,146.89307 955.3999,143.16022 955.35858,139.61658 955.2865,136.50745 955.18829,133.66705 955.05231,131.13745 954.8706,128.90454 954.63501,126.95386 954.33771,125.27136 953.97064,123.84265 953.5401,122.61597 952.98901,121.6889 952.32098,120.92975 951.47638,120.35651 950.40973,119.94922 949.0755,119.68835 947.42828,119.55402 945.42267,119.52667 943.0882,119.57507 940.15832,119.72034 936.83008,119.94415 933.0044,120.28015 928.65747,120.75067 923.7652,121.37817 918.30359,122.185 912.24853,123.19379 905.68304,124.3855 898.28137,125.90289 890.43567,127.62976 882.12964,129.61157 873.45361,131.85217 864.49835,134.35577 855.35425,137.12628 846.11182,140.16803 836.86157,143.48486 827.69446,147.08838 818.70251,151.01874 809.97852,155.32361 801.61493,160.0509 793.70422,165.24805 786.33911,170.96265 779.61194,177.24249 773.47827,184.02521 768.44183,191.7077 764.18152,200.10431 760.92493,209.48822 758.76202,220.02301 757.78302,231.87231 758.07837,245.19946 759.73804,260.16797 762.59479,276.61316 767.43555,295.60657 773.19983,315.94611 779.78125,337.66565 786.81604,360.47107 793.94043,384.06836 800.79034,408.16333 807.00226,432.46173 812.21234,456.66956 816.1308,480.53833 818.76453,504.00183 820.19427,527.03961 820.5014,549.6311 819.7666,571.75586 818.0708,593.39331 "
       fill="#BBC1FE"
       stroke="none"
       fill-opacity="1"
       id="polygon19"
       style="display:inline;fill:url(#radialGradient28);stroke:none;stroke-opacity:1" />
  </g>
  <g
     id="bridge"
     inkscape:label="hol"
     style="fill:#7702c5;fill-opacity:1">
    <polygon
       points="960.000061,511.749817 962.690979,511.714417 965.362671,511.605713 967.995911,511.415405 970.571533,511.131592 973.070374,510.741272 975.472900,510.231812 977.760925,509.591003 979.919495,508.810425 981.938538,507.886841 983.813538,506.821838 985.544617,505.622375 987.135559,504.298950 988.590759,502.862854 989.914978,501.325195 991.112854,499.683105 992.189026,497.859802 993.148804,495.679077 993.997559,492.859131 994.741394,489.018921 995.386536,483.703552 995.939087,476.443787 996.405090,466.770569 996.790833,454.256897 997.101746,438.693481 997.343018,420.165955 997.518372,399.070740 997.631409,376.099243 997.685059,352.160706 997.682007,328.206238 997.625122,305.187012 997.516479,284.012939 997.355957,265.376953 997.139343,249.680603 996.859070,237.016724 996.503601,227.185608 996.058899,219.772034 995.510498,214.318726 994.843811,210.368347 994.044739,207.477356 993.102173,205.272034 992.008850,203.473633 990.761230,201.903381 989.359741,200.477295 987.807800,199.181580 986.109192,198.015869 984.267578,196.979797 982.287292,196.072754 980.174377,195.292725 977.937622,194.635559 975.588501,194.095032 973.141052,193.663147 970.611450,193.330261 968.016174,193.086548 965.371521,192.922058 962.693970,192.827576 960.000061,192.796814 957.306091,192.827576 954.628601,192.922058 951.983887,193.086548 949.388672,193.330261 946.859009,193.663147 944.411682,194.094971 942.062439,194.635498 939.825623,195.292725 937.712708,196.072754 935.732483,196.979736 933.890869,198.015869 932.192322,199.181580 930.640320,200.477295 929.238831,201.903381 927.991333,203.473572 926.897888,205.272034 925.955383,207.477356 925.156311,210.368347 924.489624,214.318726 923.941162,219.772034 923.496582,227.185608 923.141052,237.016724 922.860657,249.680603 922.644104,265.376953 922.483582,284.012939 922.375000,305.187012 922.317993,328.206238 922.315002,352.160706 922.368591,376.099243 922.481628,399.070740 922.657043,420.165955 922.898254,438.693481 923.209229,454.256897 923.594971,466.770691 924.061096,476.443787 924.613525,483.703552 925.258606,489.018921 926.002502,492.859131 926.851318,495.679077 927.811096,497.859802 928.887268,499.683105 930.085022,501.325195 931.409302,502.862854 932.864563,504.298950 934.455383,505.622375 936.186462,506.821838 938.061462,507.886841 940.080566,508.810425 942.239075,509.591003 944.527100,510.231812 946.929810,510.741272 949.428467,511.131592 952.004150,511.415405 954.637390,511.605713 957.309143,511.714417"
       fill="#C2B1FE"
       stroke="none"
       fill-opacity="1"
       id="polygon18"
       style="fill:#7702c5;fill-opacity:1" />
  </g>
  <g
     id="while"
     inkscape:label="enc"
     style="fill:#4e0187;fill-opacity:1">
    <polygon
       points="981.669434,229.667236 980.983887,228.982544 980.270203,228.346558 979.512695,227.745667 978.691101,227.174744 977.783691,226.630493 976.769409,226.109192 975.627991,225.607849 974.345764,225.125916 972.918213,224.665771 971.349915,224.233337 969.654541,223.837219 967.852051,223.488831 965.963867,223.199890 964.011597,222.982117 962.016479,222.846497 960.000061,222.800415 957.983521,222.846497 955.988464,222.982178 954.036133,223.199890 952.148010,223.488831 950.345520,223.837219 948.650146,224.233215 947.081848,224.665771 945.654236,225.125916 944.372009,225.607910 943.230652,226.109192 942.216309,226.630493 941.309021,227.174805 940.487427,227.745605 939.729919,228.346558 939.016235,228.982544 938.330627,229.667236 937.664307,230.425720 937.015320,231.294983 936.388062,232.323669 935.792358,233.568909 935.238403,235.089111 934.736877,236.943298 934.297485,239.186218 933.926880,241.854309 933.627441,244.958435 933.396912,248.482605 933.228455,252.385559 933.112427,256.607117 933.038208,261.083618 932.995422,265.751282 932.974182,270.546387 932.967896,275.405640 932.974182,280.266052 932.995422,285.065002 933.038208,289.740112 933.112427,294.229614 933.228455,298.471680 933.396912,302.404175 933.627441,305.968933 933.926880,309.125671 934.297485,311.859070 934.736877,314.179321 935.238403,316.121643 935.792358,317.739502 936.388062,319.089417 937.015320,320.228516 937.664307,321.211853 938.330627,322.085632 939.016235,322.884460 939.729919,323.630310 940.487427,324.333191 941.309021,324.994446 942.216309,325.613586 943.230652,326.190186 944.372009,326.723938 945.654236,327.213623 947.081848,327.657593 948.650146,328.053345 950.345520,328.397949 952.148010,328.687561 954.036133,328.918518 955.988464,329.087219 957.983582,329.189941 960.000061,329.224487 962.016541,329.189941 964.011597,329.087219 965.963867,328.918518 967.852051,328.687561 969.654541,328.397949 971.349915,328.053345 972.918213,327.657593 974.345764,327.213623 975.627991,326.723938 976.769409,326.190186 977.783691,325.613586 978.691101,324.994446 979.512695,324.333191 980.270203,323.630310 980.983887,322.884460 981.669434,322.085632 982.335693,321.211853 982.984802,320.228516 983.611938,319.089417 984.207703,317.739502 984.761719,316.121643 985.263184,314.179321 985.702637,311.859009 986.073120,309.125671 986.372620,305.968933 986.603210,302.404175 986.771545,298.471680 986.887695,294.229675 986.961853,289.740112 987.004639,285.065002 987.025940,280.266052 987.032227,275.405640 987.025940,270.546387 987.004639,265.751282 986.961853,261.083618 986.887695,256.607117 986.771545,252.385498 986.603210,248.482605 986.372620,244.958435 986.073120,241.854309 985.702637,239.186218 985.263184,236.943298 984.761719,235.089172 984.207703,233.568909 983.611938,232.323669 982.984802,231.294983 982.335693,230.425720"
       fill="#94C0FE"
       stroke="none"
       fill-opacity="1"
       id="polygon12"
       style="fill:#4e0187;fill-opacity:1" />
    <polygon
       points="960.000061,223.213318 956.059143,223.413452 952.245667,224.002380 948.683472,224.944458 945.476685,226.178467 942.702881,227.627380 940.411865,229.200745 938.627075,230.795288 937.352173,232.296448 936.587219,233.585876 936.332275,234.542725 936.587219,235.054321 937.352173,235.060913 938.627075,234.576294 940.411865,233.692017 942.702881,232.567932 945.476685,231.391174 948.683472,230.322266 952.245667,229.482727 956.059143,228.953918 960.000061,228.773865 963.940918,228.953918 967.754333,229.482727 971.316528,230.322266 974.523376,231.391174 977.297180,232.567932 979.588196,233.692017 981.372986,234.576294 982.647888,235.060913 983.412842,235.054321 983.667786,234.542725 983.412842,233.585876 982.647888,232.296448 981.372986,230.795288 979.588196,229.200745 977.297180,227.627380 974.523376,226.178467 971.316528,224.944458 967.754333,224.002380 963.940918,223.413452"
       fill="#94C0FE"
       stroke="none"
       fill-opacity="1"
       id="polygon2"
       style="fill:#c758fc;fill-opacity:1" />
    <polygon
       points="960.000061,239.894897 963.940918,240.034790 967.754333,240.443542 971.316528,241.086243 974.523376,241.892395 977.297180,242.760559 979.588196,243.559631 981.372986,244.139893 982.647888,244.378113 983.412842,244.211365 983.667786,243.644043 983.412842,242.743042 982.647888,241.613708 981.372986,240.358765 979.588196,239.068359 977.297180,237.819885 974.523376,236.679688 971.316528,235.708374 967.754333,234.963135 963.940918,234.494324 960.000061,234.334351 956.059143,234.494324 952.245667,234.963135 948.683472,235.708374 945.476685,236.679688 942.702881,237.819885 940.411865,239.068359 938.627075,240.358765 937.352173,241.613708 936.587219,242.743042 936.332275,243.644043 936.587219,244.211365 937.352173,244.378113 938.627075,244.139893 940.411865,243.559631 942.702881,242.760559 945.476685,241.892395 948.683472,241.086243 952.245667,240.443542 956.059143,240.034790"
       fill="#94C0FE"
       stroke="none"
       fill-opacity="1"
       id="polygon3"
       style="fill:#c758fc;fill-opacity:1" />
    <polygon
       points="960.000061,251.015991 963.940918,251.115601 967.754333,251.404297 971.316528,251.850159 974.523376,252.393677 977.297180,252.953125 979.588196,253.427307 981.372986,253.703491 982.647888,253.695496 983.412842,253.368469 983.667786,252.745300 983.412842,251.900146 982.647888,250.931030 981.372986,249.922424 979.588196,248.936035 977.297180,248.012573 974.523376,247.180908 971.316528,246.472351 967.754333,245.923828 963.940918,245.575195 960.000061,245.455505 956.059143,245.575195 952.245667,245.923828 948.683472,246.472351 945.476685,247.180908 942.702881,248.012573 940.411865,248.936035 938.627075,249.922424 937.352173,250.931030 936.587219,251.900146 936.332275,252.745300 936.587219,253.368469 937.352173,253.695496 938.627075,253.703491 940.411865,253.427307 942.702881,252.953125 945.476685,252.393677 948.683472,251.850159 952.245667,251.404175 956.059143,251.115601"
       fill="#94C0FE"
       stroke="none"
       fill-opacity="1"
       id="polygon4"
       style="fill:#c758fc;fill-opacity:1" />
    <polygon
       points="960.000061,262.137146 963.940918,262.196411 967.754333,262.364990 971.316528,262.614197 974.523376,262.894958 977.297180,263.145691 979.588196,263.294922 981.372986,263.267029 982.647888,263.012695 983.412842,262.525513 983.667786,261.846680 983.412842,261.057190 982.647888,260.248230 981.372986,259.485962 979.588196,258.803650 977.297180,258.205200 974.523376,257.682190 971.316528,257.236267 967.754333,256.884583 963.940918,256.656006 960.000061,256.576538 956.059143,256.656006 952.245667,256.884644 948.683472,257.236267 945.476685,257.682190 942.702881,258.205200 940.411865,258.803650 938.627075,259.485962 937.352173,260.248230 936.587219,261.057190 936.332275,261.846680 936.587219,262.525513 937.352173,263.012695 938.627075,263.267029 940.411865,263.294922 942.702881,263.145691 945.476685,262.894958 948.683472,262.614136 952.245667,262.364990 956.059143,262.196411"
       fill="#94C0FE"
       stroke="none"
       fill-opacity="1"
       id="polygon5"
       style="fill:#c758fc;fill-opacity:1" />
    <polygon
       points="960.000061,273.258179 963.940918,273.277283 967.754333,273.325745 971.316528,273.378113 974.523376,273.396118 977.297180,273.338379 979.588196,273.162476 981.372986,272.830627 982.647888,272.329895 983.412842,271.682678 983.667786,270.947998 983.412842,270.214294 982.647888,269.565491 981.372986,269.049561 979.588196,268.671265 977.297180,268.397705 974.523376,268.183350 971.316528,268.000244 967.754333,267.845276 963.940918,267.736816 960.000061,267.697632 956.059143,267.736877 952.245667,267.845276 948.683472,268.000244 945.476685,268.183350 942.702881,268.397705 940.411865,268.671265 938.627075,269.049561 937.352173,269.565491 936.587219,270.214355 936.332275,270.947998 936.587219,271.682678 937.352173,272.329895 938.627075,272.830627 940.411865,273.162476 942.702881,273.338379 945.476685,273.396118 948.683472,273.378113 952.245667,273.325745 956.059143,273.277283"
       fill="#94C0FE"
       stroke="none"
       fill-opacity="1"
       id="polygon6"
       style="fill:#c758fc;fill-opacity:1" />
    <polygon
       points="960.000061,284.379272 963.940918,284.358093 967.754333,284.286438 971.316528,284.142029 974.523376,283.897339 977.297180,283.530945 979.588196,283.030151 981.372986,282.394226 982.647888,281.647217 983.412842,280.839783 983.667786,280.049316 983.412842,279.371460 982.647888,278.882751 981.372986,278.613159 979.588196,278.538940 977.297180,278.590393 974.523376,278.684631 971.316528,278.764160 967.754333,278.806030 963.940918,278.817688 960.000061,278.818665 956.059143,278.817627 952.245667,278.806091 948.683472,278.764160 945.476685,278.684631 942.702881,278.590393 940.411865,278.538940 938.627075,278.613159 937.352173,278.882751 936.587219,279.371460 936.332275,280.049377 936.587219,280.839783 937.352173,281.647217 938.627075,282.394226 940.411865,283.030151 942.702881,283.530945 945.476685,283.897339 948.683472,284.142029 952.245667,284.286438 956.059143,284.358093"
       fill="#94C0FE"
       stroke="none"
       fill-opacity="1"
       id="polygon7"
       style="fill:#c758fc;fill-opacity:1" />
    <polygon
       points="960.000061,295.500305 963.940918,295.438965 967.754333,295.247253 971.316528,294.906067 974.523376,294.398682 977.297180,293.723572 979.588196,292.897766 981.372986,291.957825 982.647888,290.964478 983.412842,289.996887 983.667786,289.150696 983.412842,288.528564 982.647888,288.200073 981.372986,288.176819 979.588196,288.406616 977.297180,288.783020 974.523376,289.185852 971.316528,289.528137 967.754333,289.766785 963.940918,289.898499 960.000061,289.939819 956.059143,289.898499 952.245667,289.766785 948.683472,289.528198 945.476685,289.185974 942.702881,288.783020 940.411865,288.406616 938.627075,288.176819 937.352173,288.200073 936.587219,288.528564 936.332275,289.150696 936.587219,289.996887 937.352173,290.964478 938.627075,291.957825 940.411865,292.897766 942.702881,293.723572 945.476685,294.398682 948.683472,294.906067 952.245667,295.247253 956.059143,295.438965"
       fill="#94C0FE"
       stroke="none"
       fill-opacity="1"
       id="polygon8"
       style="fill:#c758fc;fill-opacity:1" />
    <polygon
       points="960.000061,306.621460 963.940918,306.519775 967.754333,306.207947 971.316528,305.669983 974.523376,304.899902 977.297180,303.916199 979.588196,302.765442 981.372986,301.521423 982.647888,300.281799 983.412842,299.153992 983.667786,298.252136 983.412842,297.685669 982.647888,297.517273 981.372986,297.740417 979.588196,298.274231 977.297180,298.975586 974.523376,299.687134 971.316528,300.292175 967.754333,300.727539 963.940918,300.979309 960.000061,301.060913 956.059143,300.979309 952.245667,300.727539 948.683472,300.292175 945.476685,299.687134 942.702881,298.975586 940.411865,298.274231 938.627075,297.740295 937.352173,297.517273 936.587219,297.685669 936.332275,298.252136 936.587219,299.153992 937.352173,300.281738 938.627075,301.521423 940.411865,302.765442 942.702881,303.916199 945.476685,304.899902 948.683472,305.669983 952.245667,306.207947 956.059143,306.519775 958.029602,306.570557"
       fill="#94C0FE"
       stroke="none"
       fill-opacity="1"
       id="polygon9"
       style="fill:#c758fc;fill-opacity:1" />
    <polygon
       points="960.000061,317.742493 963.940918,317.600647 967.754333,317.168701 971.316528,316.433960 974.523376,315.401123 977.297180,314.108826 979.588196,312.633057 981.372986,311.084961 982.647888,309.598999 983.412842,308.311157 983.667786,307.353516 983.412842,306.842834 982.647888,306.834534 981.372986,307.303955 979.588196,308.141907 977.297180,309.168213 974.523376,310.188416 971.316528,311.056091 967.754333,311.688354 963.940918,312.060181 960.000061,312.181946 956.059143,312.060181 952.245667,311.688354 948.683472,311.056091 945.476685,310.188416 942.702881,309.168213 940.411865,308.141907 938.627075,307.303955 937.352173,306.834534 936.587219,306.842834 936.332275,307.353516 936.587219,308.311157 937.352173,309.598999 938.627075,311.084961 940.411865,312.633057 942.702881,314.108826 945.476685,315.401123 948.683472,316.433960 952.245667,317.168701 956.059143,317.600647 958.029602,317.671570"
       fill="#94C0FE"
       stroke="none"
       fill-opacity="1"
       id="polygon10"
       style="fill:#c758fc;fill-opacity:1" />
    <polygon
       points="960.000061,328.863586 963.940918,328.681396 967.754333,328.129395 971.316528,327.197937 974.523376,325.902405 977.297180,324.301514 979.588196,322.500732 981.372986,320.648560 982.647888,318.916260 983.412842,317.468323 983.667786,316.454834 983.412842,315.999878 982.647888,316.151917 981.372986,316.867554 979.588196,318.009460 977.297180,319.360901 974.523376,320.689636 971.316528,321.820068 967.754333,322.649048 963.940918,323.141052 960.000061,323.303040 956.059143,323.141052 952.245667,322.649048 948.683472,321.820068 945.476685,320.689636 942.702881,319.360901 940.411865,318.009460 938.627075,316.867554 937.352173,316.151855 936.587219,315.999878 936.332275,316.454834 936.587219,317.468323 937.352173,318.916260 938.627075,320.648560 940.411865,322.500732 942.702881,324.301514 945.476685,325.902405 948.683472,327.197937 952.245667,328.129395 956.059143,328.681396"
       fill="#94C0FE"
       stroke="none"
       fill-opacity="1"
       id="polygon11"
       style="fill:#c758fc;fill-opacity:1" />
  </g>
  <g
     id="side-btn"
     inkscape:label="btns"
     style="fill:#6336d5;fill-opacity:1;stroke:#d7a0ff;stroke-opacity:1;stroke-width:3;stroke-dasharray:none">
    <polygon
       points="806.134277,480.274292 805.834473,475.219238 805.148010,469.731323 804.320068,464.017578 803.403564,458.160278 802.403809,452.210510 801.325745,446.219238 800.174622,440.229492 798.954651,434.252380 797.669922,428.290833 796.324707,422.347717 794.872437,416.488647 793.063843,411.028809 790.599060,406.346558 787.230713,402.755798 782.608887,400.729492 777.127075,399.971558 771.076538,400.344543 764.800720,401.647461 758.670715,403.709229 753.166809,406.480469 748.796326,409.941650 745.977478,414.046387 745.308350,418.832947 746.137939,424.081177 747.995544,429.655945 750.320557,435.394653 752.644348,441.162048 754.866150,446.931335 756.976685,452.702881 758.966858,458.476929 760.829712,464.245300 762.567810,469.965515 764.185974,475.586365 765.689148,481.056824 767.122681,486.270569 768.693970,490.901550 770.651062,494.568542 773.205322,496.962463 776.634094,497.635071 780.669556,497.165283 785.109924,495.992981 789.716980,494.630066 794.242249,493.441956 798.397034,492.207825 801.883362,490.560547 804.455139,488.180603 805.754578,484.658264"
       fill="#94C0FE"
       stroke="none"
       fill-opacity="1"
       id="polygon15"
       style="fill:#6336d5;fill-opacity:1;stroke:#d7a0ff;stroke-opacity:1;stroke-width:3;stroke-dasharray:none" />
    <polygon
       points="810.126831,529.852051 809.925293,524.112122 809.673645,518.466370 809.332581,513.020142 808.699402,508.127869 807.530701,504.206116 805.625916,501.596436 802.694580,500.783203 799.026550,501.169128 794.821777,502.299744 790.323059,503.645691 785.787476,504.828674 781.528137,506.076111 777.872681,507.766968 775.095886,510.229797 773.569946,513.885132 772.901672,518.418579 772.795044,523.607422 772.901550,529.179077 772.934753,534.900818 772.855774,540.700439 772.687866,546.545715 772.454041,552.404541 772.169800,558.250183 771.817749,564.078064 771.372864,569.889221 770.809875,575.684570 770.177795,581.401794 769.821350,586.726257 770.159485,591.279907 771.547058,594.748535 774.461426,596.665405 778.464539,597.353394 783.240662,596.983276 788.409851,595.789307 793.603210,593.961914 798.492004,591.515747 802.758179,588.421631 806.136292,584.679932 808.253906,580.205566 809.467834,575.219299 810.028259,569.856689 810.237732,564.282715 810.348083,558.635254 810.408569,552.944031 810.417725,547.211914 810.374268,541.441772 810.276917,535.643005"
       fill="#94C0FE"
       stroke="none"
       fill-opacity="1"
       id="polygon16"
       style="fill:#6336d5;fill-opacity:1;stroke:#d7a0ff;stroke-opacity:1;stroke-width:3;stroke-dasharray:none" />
    <polygon
       points="939.140625,406.587708 938.725952,408.749329 938.424988,412.795410 938.380432,415.363342 938.362610,417.198303 938.347107,419.461975 938.342651,421.781494 938.342102,424.150269 938.342102,426.561279 938.342102,429.007507 938.342102,431.482056 938.342102,433.977661 938.342102,436.487244 938.342102,439.003601 938.342102,441.518494 938.342102,444.023621 938.342102,446.510254 938.342102,448.969116 938.342102,451.390808 938.342102,453.766235 938.342651,456.086365 938.347107,458.343201 938.362610,460.530518 938.400574,462.643555 938.475952,464.679382 938.606506,466.635986 938.810913,468.511597 939.107361,470.304626 939.513489,472.013000 940.041870,473.633972 940.698792,475.163208 941.483521,476.595093 942.388794,477.922485 943.402344,479.137390 944.511597,480.231567 945.703369,481.196777 946.964783,482.025635 948.284241,482.714844 949.651917,483.266968 951.059204,483.690491 952.499512,483.999451 953.966919,484.212463 955.456116,484.348633 956.961731,484.427185 958.478149,484.466125 960.000061,484.477661 961.521912,484.466125 963.038330,484.427185 964.543945,484.348633 966.033142,484.212463 967.500610,483.999451 968.940857,483.690491 970.348145,483.266968 971.715820,482.714844 973.035278,482.025635 974.296814,481.196777 975.488464,480.231567 976.597656,479.137390 977.611328,477.922485 978.516541,476.595093 979.301270,475.163208 979.958191,473.633972 980.486572,472.013000 980.892700,470.304626 981.189270,468.511597 981.393494,466.635986 981.524231,464.679382 981.599487,462.643555 981.637390,460.530518 981.652954,458.343201 981.657349,456.086365 981.657959,453.766235 981.657959,451.390808 981.657959,448.969116 981.657959,446.510254 981.657959,444.023621 981.657959,441.518494 981.657959,439.003601 981.657959,436.487244 981.657959,433.977661 981.657959,431.482056 981.657959,429.007507 981.657959,426.561279 981.657959,424.150269 981.657349,421.781494 981.652954,419.461975 981.637390,417.198303 981.599487,414.997009 981.524231,412.864319 981.393494,410.806458 981.189270,408.829529 980.892700,406.939697 980.486572,405.143066 979.958191,403.445740 979.301270,401.853760 978.516541,400.373230 977.611328,399.010315 976.597656,397.770935 975.488464,396.661011 974.296814,395.686829 973.035278,394.853516 971.715820,394.162354 970.348145,393.609680 968.940857,393.186157 967.500610,392.877136 966.033142,392.664124 964.543945,392.527954 963.038330,392.449463 961.521912,392.410461 960.000061,392.398926 958.478149,392.410461 956.961731,392.449463 955.456116,392.527954 953.966919,392.664124 952.499512,392.877136 951.059204,393.186157 949.651917,393.609680 948.284241,394.162292 946.964783,394.853394 945.703369,395.686768 944.511597,396.661011 943.402344,397.770935 942.388794,399.010315 941.483521,400.373291 940.698792,401.853760 940.041870,403.445740 939.513489,405.143066"
       fill="#5CBEAC"
       stroke="none"
       fill-opacity="1"
       id="polygon1"
       style="fill:#6336d5;fill-opacity:1;stroke:#d7a0ff;stroke-opacity:1;stroke-width:3;stroke-dasharray:none" />
  </g>
  <g
     id="clicks"
     inkscape:label="clic-ovr"
     style="display:inline;fill:url(#linearGradient21);stroke:#ef0707;stroke-dasharray:6, 6;stroke-dashoffset:0;stroke-opacity:1">
    <polygon
       points="1040.3076,262.6394 1040.3669,247.17725 1039.1331,233.23956 1036.6274,221.29462 1032.8856,211.67712 1028.1433,204.1568 1022.6703,198.33038 1016.7299,193.76947 1010.593,190.03381 1004.5433,186.67896 998.87884,183.25952 993.74304,179.4892 989.88043,174.57489 986.89294,169.15198 984.99139,163.3407 984.21686,157.41571 984.60504,151.64887 986.18665,146.30981 988.98816,141.66547 992.82031,137.77624 998.32574,135.46698 1004.7629,134.09058 1012.2249,133.76587 1020.5908,134.40576 1029.7373,135.92218 1039.5376,138.22498 1049.8612,141.22223 1060.5769,144.82098 1071.5353,148.93713 1082.5175,153.51892 1093.297,158.52814 1103.658,163.93262 1113.3934,169.70453 1122.2992,175.81757 1130.1691,182.24475 1137.0316,188.9118 1142.0183,195.93506 1145.9479,203.22186 1148.7467,210.87244 1150.5801,218.94202 1151.6117,227.48547 1152.0283,236.54627 1152.0498,246.15228 1151.8477,256.3493 1151.5728,267.17224 1151.3118,278.60492 1151.1405,290.6261 1151.1439,303.2276 1151.4203,316.41644 1152.0603,330.20264 1153.0115,344.52643 1154.2802,359.36432 1155.8052,374.66077 1157.2023,390.18835 1158.0244,405.66986 1157.8447,420.82111 1156.2522,435.35217 1152.8464,448.96954 1147.2318,461.37781 1139.4934,472.58838 1127.9849,481.41327 1114.7091,488.61615 1099.9369,493.76184 1084.4235,496.72003 1068.9436,497.35382 1054.3048,495.51477 1041.3506,491.04144 1030.3508,484.26971 1023.7613,473.59729 1019.5292,460.83014 1017.7205,445.86005 1017.7438,429.10577 1018.9939,410.99072 1020.9758,391.89947 1023.5353,372.32196 1026.8489,352.86859 1030.4103,333.71558 1033.8419,314.97925 1036.8226,296.77844 1039.0608,279.26373 "
       fill="#5CD9FE"
       stroke="none"
       fill-opacity="1"
       id="R-click"
       style="display:none;fill:url(#linearGradient21);stroke:#ef0707;stroke-dasharray:6, 6;stroke-dashoffset:0;stroke-opacity:1" />
    <polygon
       points="907.57196,457.23138 904.81189,469.72772 899.77631,479.97095 891.27234,485.79236 881.58002,489.08484 871.13879,489.51538 860.57703,487.37726 850.26672,482.97723 840.41437,476.61505 831.24145,468.54205 824.92572,459.19812 819.16144,447.32263 815.35095,435.40741 812.23352,422.55457 808.98303,409.21295 805.57825,395.70734 802.48358,381.95288 799.60968,367.94415 796.3905,354.03027 792.77344,340.34174 788.95789,326.94379 785.26068,313.85339 781.56317,301.24487 778.26654,289.10706 775.79871,277.39429 774.08875,266.18347 772.71069,255.60913 771.27441,245.64807 770.14526,236.24304 769.59644,227.33252 769.84497,218.90344 771.28882,210.87323 774.05225,203.22186 777.98181,195.93506 782.96851,188.9118 789.83099,182.24475 797.70093,175.81757 806.60663,169.70453 816.3421,163.93262 826.70319,158.52814 837.48261,153.51892 848.46478,148.93713 859.42322,144.82098 870.13879,141.22223 880.46258,138.22498 890.26282,135.92218 899.40936,134.40576 907.77515,133.76587 915.23718,134.09058 921.67432,135.46698 927.17993,137.77624 931.01196,141.66547 933.81348,146.30981 935.39496,151.64887 935.7832,157.41571 935.00867,163.3407 933.10712,169.15198 930.11969,174.57489 926.25708,179.4892 921.12122,183.25952 915.45673,186.67896 909.40717,190.03381 903.27032,193.76947 897.32977,198.33038 891.85687,204.1568 887.11444,211.67712 883.3725,221.29462 880.86694,233.23956 879.63306,247.17719 879.4682,262.6391 880.15332,279.30328 881.7561,296.88818 884.13141,314.9353 887.36908,333.18896 891.29114,351.66327 895.29834,370.37152 899.0401,389.27399 902.73187,407.92059 905.9718,425.79022 907.81439,442.40308 "
       fill="#5CD9FE"
       stroke="none"
       fill-opacity="1"
       id="L-click"
       style="display:none;fill:url(#linearGradient21);stroke:#ef0707;stroke-dasharray:6, 6;stroke-dashoffset:0;stroke-opacity:1"
       inkscape:label="L-click" />
    <polygon
       points="776.63409,497.63507 780.66956,497.16528 785.10992,495.99298 789.71698,494.63007 794.24225,493.44196 798.39703,492.20783 801.88336,490.56055 804.45514,488.1806 805.75458,484.65826 806.13428,480.27429 805.83447,475.21924 805.14801,469.73132 804.32007,464.01758 803.40356,458.16028 802.40381,452.21051 801.32574,446.21924 800.17462,440.22949 798.95465,434.25238 797.66992,428.29083 796.32471,422.34772 794.87244,416.48865 793.06384,411.02881 790.59906,406.34656 787.23071,402.7558 782.60889,400.72949 777.12707,399.97156 771.07654,400.34454 764.80072,401.64746 758.67071,403.70923 753.16681,406.48047 748.79633,409.94165 745.97748,414.04639 745.30835,418.83295 746.13794,424.08118 747.99554,429.65594 750.32056,435.39465 752.64435,441.16205 754.86615,446.93133 756.97668,452.70288 758.96686,458.47693 760.82971,464.2453 762.56781,469.96551 764.18597,475.58637 765.68915,481.05682 767.12268,486.27057 768.69397,490.90155 770.65106,494.56854 773.20532,496.96246 "
       fill="#94C0FE"
       stroke="none"
       fill-opacity="1"
       id="F-btn"
       style="display:none;fill:#ec0000;fill-opacity:0.717929;stroke:#ef0707;stroke-width:1;stroke-dasharray:6, 2;stroke-dashoffset:0;stroke-opacity:1"
       transform="translate(-0.08291337,0.01870727)"
       inkscape:label="F-btn" />
    <polygon
       points="810.41773,547.21191 810.37427,541.44177 810.27692,535.64301 810.12683,529.85205 809.92529,524.11212 809.67364,518.46637 809.33258,513.02014 808.6994,508.12787 807.5307,504.20612 805.62592,501.59644 802.69458,500.7832 799.02655,501.16913 794.82178,502.29974 790.32306,503.64569 785.78748,504.82867 781.52814,506.07611 777.87268,507.76697 775.09589,510.2298 773.56995,513.88513 772.90167,518.41858 772.79504,523.60742 772.90155,529.17908 772.93475,534.90082 772.85577,540.70044 772.68787,546.54571 772.45404,552.40454 772.1698,558.25018 771.81775,564.07806 771.37286,569.88922 770.80988,575.68457 770.17779,581.40179 769.82135,586.72626 770.15949,591.27991 771.54706,594.74853 774.46143,596.6654 778.46454,597.35339 783.24066,596.98328 788.40985,595.78931 793.60321,593.96191 798.492,591.51575 802.75818,588.42163 806.13629,584.67993 808.25391,580.20557 809.46783,575.2193 810.02826,569.85669 810.23773,564.28272 810.34808,558.63525 810.40857,552.94403 "
       fill="#94C0FE"
       stroke="none"
       fill-opacity="1"
       id="B-btn"
       style="display:none;fill:#ec0000;fill-opacity:0.717929;stroke:#ef0707;stroke-width:1;stroke-dasharray:6, 2;stroke-dashoffset:0;stroke-opacity:1"
       transform="translate(-0.08291337,0.01870727)"
       inkscape:label="B-btn" />
    <polygon
       points="961.52191,484.46612 963.03833,484.42719 964.54395,484.34863 966.03314,484.21246 967.50061,483.99945 968.94086,483.69049 970.34815,483.26697 971.71582,482.71484 973.03528,482.02564 974.29681,481.19678 975.48846,480.23157 976.59766,479.13739 977.61133,477.92248 978.51654,476.59509 979.30127,475.16321 979.95819,473.63397 980.48657,472.013 980.8927,470.30463 981.18927,468.5116 981.39349,466.63599 981.52423,464.67938 981.59949,462.64355 981.63739,460.53052 981.65295,458.3432 981.65735,456.08637 981.65796,453.76623 981.65796,451.39081 981.65796,448.96912 981.65796,446.51025 981.65796,444.02362 981.65796,441.51849 981.65796,439.0036 981.65796,436.48724 981.65796,433.97766 981.65796,431.48206 981.65796,429.00751 981.65796,426.56128 981.65796,424.15027 981.65735,421.78149 981.65295,419.46197 981.63739,417.1983 981.59949,414.99701 981.52423,412.86432 981.39349,410.80646 981.18927,408.82953 980.8927,406.9397 980.48657,405.14307 979.95819,403.44574 979.30127,401.85376 978.51654,400.37323 977.61133,399.01031 976.59766,397.77094 975.48846,396.66101 974.29681,395.68683 973.03528,394.85352 971.71582,394.16235 970.34815,393.60968 968.94086,393.18616 967.50061,392.87714 966.03314,392.66412 964.54395,392.52795 963.03833,392.44946 961.52191,392.41046 960.00006,392.39893 958.47815,392.41046 956.96173,392.44946 955.45612,392.52795 953.96692,392.66412 952.49951,392.87714 951.0592,393.18616 949.65192,393.60968 948.28424,394.16229 946.96478,394.85339 945.70337,395.68677 944.5116,396.66101 943.40234,397.77094 942.38879,399.01031 941.48352,400.37329 940.69879,401.85376 940.04187,403.44574 939.51349,405.14307 939.14062,406.58771 938.72595,408.74933 938.42499,412.79541 938.38043,415.36334 938.36261,417.1983 938.34711,419.46197 938.34265,421.78149 938.3421,424.15027 938.3421,426.56128 938.3421,429.00751 938.3421,431.48206 938.3421,433.97766 938.3421,436.48724 938.3421,439.0036 938.3421,441.51849 938.3421,444.02362 938.3421,446.51025 938.3421,448.96912 938.3421,451.39081 938.3421,453.76623 938.34265,456.08637 938.34711,458.3432 938.36261,460.53052 938.40057,462.64355 938.47595,464.67938 938.60651,466.63599 938.81091,468.5116 939.10736,470.30463 939.51349,472.013 940.04187,473.63397 940.69879,475.16321 941.48352,476.59509 942.38879,477.92248 943.40234,479.13739 944.5116,480.23157 945.70337,481.19678 946.96478,482.02564 948.28424,482.71484 949.65192,483.26697 951.0592,483.69049 952.49951,483.99945 953.96692,484.21246 955.45612,484.34863 956.96173,484.42719 958.47815,484.46612 960.00006,484.47766 "
       fill="#5CBEAC"
       stroke="none"
       fill-opacity="1"
       id="T-btn"
       style="display:none;fill:#ec0000;fill-opacity:0.717929;stroke:#ef0707;stroke-width:1;stroke-dasharray:6, 2;stroke-dashoffset:0;stroke-opacity:1"
       transform="translate(0.1202469,-0.15059295)"
       inkscape:label="T-btn" />
  </g>
</svg>
