<?xml version="1.0" encoding="UTF-8" standalone="no"?>
<!-- Generator: Blender, SVG Export for Grease Pencil - v2.0 -->

<svg
   version="1.0"
   x="0px"
   y="0px"
   width="1920.000000px"
   height="1080.000000px"
   viewBox="0 0 1920.000000 1080.000000"
   id="svg19"
   sodipodi:docname="mouse-4.svg"
   inkscape:version="1.4.2 (ebf0e940d0, 2025-05-08)"
   xmlns:inkscape="http://www.inkscape.org/namespaces/inkscape"
   xmlns:sodipodi="http://sodipodi.sourceforge.net/DTD/sodipodi-0.dtd"
   xmlns:xlink="http://www.w3.org/1999/xlink"
   xmlns="http://www.w3.org/2000/svg"
   xmlns:svg="http://www.w3.org/2000/svg">
  <defs
     id="defs19">
    <linearGradient
       id="linearGradient31"
       inkscape:collect="always">
      <stop
         style="stop-color:#ec0000;stop-opacity:0.7647059;"
         offset="0"
         id="stop30" />
      <stop
         style="stop-color:#ef0707;stop-opacity:0.26578951;"
         offset="1"
         id="stop31" />
    </linearGradient>
    <linearGradient
       id="linearGradient28"
       inkscape:collect="always">
      <stop
         style="stop-color:#ec0000;stop-opacity:0.7647059;"
         offset="0"
         id="stop28" />
      <stop
         style="stop-color:#ef0707;stop-opacity:0.17663978;"
         offset="1"
         id="stop29" />
    </linearGradient>
    <linearGradient
       id="linearGradient26"
       inkscape:collect="always">
      <stop
         style="stop-color:#be71e5;stop-opacity:1;"
         offset="0"
         id="stop24" />
      <stop
         style="stop-color:#943ac9;stop-opacity:1;"
         offset="0.4588632"
         id="stop25" />
      <stop
         style="stop-color:#68259b;stop-opacity:1;"
         offset="1"
         id="stop26" />
    </linearGradient>
    <linearGradient
       inkscape:collect="always"
       xlink:href="#linearGradient3"
       id="linearGradient4"
       x1="710.21765"
       y1="535.13586"
       x2="1209.7825"
       y2="535.13586"
       gradientUnits="userSpaceOnUse"
       gradientTransform="translate(-4.3952684e-4,1.095e-4)" />
    <linearGradient
       id="linearGradient3"
       inkscape:collect="always">
      <stop
         style="stop-color:#8e00d3;stop-opacity:1;"
         offset="0"
         id="stop3" />
      <stop
         style="stop-color:#000000;stop-opacity:1;"
         offset="0.5"
         id="stop5" />
      <stop
         style="stop-color:#9100e9;stop-opacity:1;"
         offset="1"
         id="stop4" />
    </linearGradient>
    <linearGradient
       inkscape:collect="always"
       xlink:href="#linearGradient3"
       id="linearGradient1"
       x1="710.21765"
       y1="535.13586"
       x2="1209.7825"
       y2="535.13586"
       gradientUnits="userSpaceOnUse" />
    <linearGradient
       inkscape:collect="always"
       xlink:href="#linearGradient3"
       id="linearGradient8"
       x1="960"
       y1="125.92474"
       x2="960"
       y2="509.30341"
       gradientUnits="userSpaceOnUse"
       gradientTransform="translate(22.21756,8.72011)" />
    <linearGradient
       inkscape:collect="always"
       xlink:href="#linearGradient1"
       id="linearGradient12"
       x1="960"
       y1="125.92474"
       x2="960"
       y2="509.30341"
       gradientUnits="userSpaceOnUse" />
    <linearGradient
       inkscape:collect="always"
       xlink:href="#linearGradient3"
       id="linearGradient19"
       gradientUnits="userSpaceOnUse"
       gradientTransform="translate(-4.3952684e-4,1.095e-4)"
       x1="710.21765"
       y1="535.13586"
       x2="1209.7825"
       y2="535.13586" />
    <linearGradient
       inkscape:collect="always"
       xlink:href="#linearGradient3"
       id="linearGradient20"
       gradientUnits="userSpaceOnUse"
       gradientTransform="translate(-4.3952684e-4,1.095e-4)"
       x1="710.21765"
       y1="535.13586"
       x2="1209.7825"
       y2="535.13586" />
    <linearGradient
       id="linearGradient12-7"
       inkscape:collect="always">
      <stop
         style="stop-color:#bb6ee3;stop-opacity:1;"
         offset="0"
         id="stop10" />
      <stop
         style="stop-color:#b67cd6;stop-opacity:0.73333335;"
         offset="0.24419828"
         id="stop13" />
      <stop
         style="stop-color:#a970c9;stop-opacity:0.48235294;"
         offset="0.48393971"
         id="stop14" />
      <stop
         style="stop-color:#8f4cba;stop-opacity:0.43619502;"
         offset="0.76431757"
         id="stop16" />
      <stop
         style="stop-color:#6b259f;stop-opacity:0.36828047;"
         offset="1"
         id="stop12" />
    </linearGradient>
    <linearGradient
       inkscape:collect="always"
       xlink:href="#linearGradient26"
       id="linearGradient24"
       x1="960.00006"
       y1="334.04529"
       x2="960.00006"
       y2="777.05811"
       gradientUnits="userSpaceOnUse" />
    <radialGradient
       inkscape:collect="always"
       xlink:href="#linearGradient12-7"
       id="radialGradient28"
       cx="959.77399"
       cy="529.29596"
       fx="959.77399"
       fy="529.29596"
       r="221.50642"
       gradientTransform="matrix(1.1313708,-0.00191183,0.00348373,2.0615818,-127.70414,-584.36719)"
       gradientUnits="userSpaceOnUse" />
    <linearGradient
       inkscape:collect="always"
       xlink:href="#linearGradient31"
       id="linearGradient29"
       x1="848.87946"
       y1="228.65616"
       x2="848.87946"
       y2="402.46353"
       gradientUnits="userSpaceOnUse"
       gradientTransform="translate(-34.178945,43.671426)" />
    <linearGradient
       inkscape:collect="always"
       xlink:href="#linearGradient28"
       id="linearGradient30"
       x1="1071.1206"
       y1="228.65607"
       x2="1071.1206"
       y2="402.46362"
       gradientUnits="userSpaceOnUse"
       gradientTransform="translate(-34.178945,43.671426)" />
  </defs>
  <sodipodi:namedview
     id="namedview19"
     pagecolor="#505050"
     bordercolor="#ffffff"
     borderopacity="1"
     inkscape:showpageshadow="0"
     inkscape:pageopacity="0"
     inkscape:pagecheckerboard="1"
     inkscape:deskcolor="#505050"
     inkscape:zoom="0.92291667"
     inkscape:cx="965.4176"
     inkscape:cy="540.13544"
     inkscape:window-width="1920"
     inkscape:window-height="1011"
     inkscape:window-x="0"
     inkscape:window-y="32"
     inkscape:window-maximized="1"
     inkscape:current-layer="Fills" />
  <clipPath
     id="clip-path1">
    <rect
       x="0"
       y="0"
       width="1920"
       height="1080"
       fill="none"
       id="rect1" />
  </clipPath>
  <g
     id="corner"
     style="display:inline;fill:url(#linearGradient4);stroke:#b77fff;stroke-width:2;stroke-dasharray:none;stroke-opacity:0.992455"
     inkscape:label="cor"
     transform="translate(4.3952684e-4,-1.095e-4)">
    <polygon
       points="782.41736,186.02008 781.10608,180.6311 779.21802,176.81274 776.64539,174.53302 773.33344,173.73791 769.2995,174.34259 764.6369,176.23102 759.51068,179.25641 754.13934,183.24982 748.75147,188.0379 743.57568,193.44745 738.83069,199.31427 734.68335,205.52203 731.23041,212.01868 728.49481,218.82037 726.42963,226.00775 724.93579,233.70898 723.90442,242.06158 723.22675,251.20294 722.79749,261.26202 722.53046,272.32355 722.36523,284.41278 722.26837,297.49182 722.23212,311.46314 722.26801,326.18524 722.39087,341.50781 722.61585,357.28088 722.95508,373.35864 723.40747,389.61877 723.95306,405.96997 724.55219,422.35443 725.14685,438.74536 725.66522,455.1394 726.0329,471.53748 726.17542,487.94067 726.02307,504.34766 725.53107,520.74469 724.6886,537.1015 723.51965,553.37012 722.08246,569.48596 720.45996,585.37219 718.73987,600.9494 717.00989,616.13843 715.35577,630.86523 713.85248,645.08276 712.5603,658.78076 711.52454,671.98767 710.77582,684.76831 710.33429,697.21497 710.21765,709.42499 710.44391,721.49554 711.02936,733.51727 711.98291,745.54504 713.30286,757.58575 714.97668,769.59558 716.98126,781.48254 719.28613,793.11951 721.85925,804.37195 724.66833,815.10559 727.68188,825.19238 730.87164,834.53534 734.21307,843.08008 737.68603,850.81726 741.27484,857.77954 744.96661,864.03137 748.74908,869.64294 752.60986,874.68481 756.53455,879.22253 760.49609,883.29822 764.45117,886.92206 768.33887,890.07019 772.08179,892.68683 775.59021,894.69232 778.77203,896.00269 781.5354,896.53381 783.79443,896.2088 785.49603,894.98718 786.63086,892.87842 787.23651,889.94421 787.39398,886.29602 787.21759,882.08197 786.82715,877.45715 786.34308,872.5769 785.88153,867.58276 785.53821,862.54614 785.38098,857.44336 785.44812,852.15057 785.75049,846.44885 786.27814,840.04901 787.01709,832.64819 787.95361,823.94373 789.07141,813.65234 790.34338,801.59174 791.72687,787.71582 793.16351,772.12293 794.57947,755.04742 795.88959,736.82495 797.0069,717.81043 797.84412,698.35883 798.31952,678.81103 798.38086,659.43457 798.01477,640.39832 797.24957,621.76648 796.15283,603.5044 794.82098,585.50427 793.35651,567.6441 791.86139,549.80188 790.4339,531.86066 789.15131,513.72864 788.06232,495.34857 787.18579,476.69928 786.51233,457.79401 786.01148,438.6712 785.64856,419.37457 785.38928,399.94739 785.20013,380.43823 785.05316,360.92188 784.92804,341.50806 784.81232,322.34393 784.70105,303.612 784.59503,285.52063 784.49585,268.28357 784.40515,252.1142 784.32117,237.21905 784.22382,223.76758 784.06781,211.87891 783.78186,201.62006 783.26996,193.00714 "
       fill="#95b4fe"
       stroke="none"
       fill-opacity="1"
       id="polygon1"
       style="fill:url(#linearGradient19);stroke:#b77fff;stroke-width:2;stroke-dasharray:none;stroke-opacity:0.992455" />
    <polygon
       points="1137.5826,186.02008 1138.894,180.6311 1140.782,176.81274 1143.3547,174.53302 1146.6667,173.73791 1150.7004,174.34259 1155.3632,176.23102 1160.4893,179.25641 1165.8607,183.24982 1171.2487,188.0379 1176.4243,193.44745 1181.1694,199.31427 1185.3168,205.52203 1188.7697,212.01868 1191.5051,218.82037 1193.5706,226.00775 1195.0643,233.70898 1196.0957,242.06158 1196.7734,251.20294 1197.2025,261.26202 1197.4695,272.32355 1197.6348,284.41278 1197.7317,297.49182 1197.7681,311.46314 1197.7321,326.18524 1197.6091,341.50781 1197.3843,357.28088 1197.0449,373.35864 1196.5925,389.61877 1196.047,405.96997 1195.448,422.35443 1194.8533,438.74536 1194.3347,455.1394 1193.9672,471.53748 1193.8247,487.94067 1193.9771,504.34766 1194.4689,520.74469 1195.3115,537.1015 1196.4805,553.37012 1197.9177,569.48596 1199.5402,585.37219 1201.2601,600.9494 1202.9901,616.13843 1204.6443,630.86523 1206.1476,645.08276 1207.4397,658.78076 1208.4756,671.98767 1209.2242,684.76831 1209.6658,697.21497 1209.7825,709.42499 1209.5562,721.49554 1208.9707,733.51727 1208.0172,745.54504 1206.6973,757.58575 1205.0234,769.59558 1203.0188,781.48254 1200.714,793.11951 1198.1409,804.37195 1195.3318,815.10559 1192.3181,825.19238 1189.1283,834.53534 1185.787,843.08008 1182.3141,850.81726 1178.7252,857.77954 1175.0333,864.03137 1171.251,869.64294 1167.3901,874.68481 1163.4655,879.22253 1159.504,883.29822 1155.549,886.92206 1151.6613,890.07019 1147.9183,892.68683 1144.4099,894.69232 1141.228,896.00269 1138.4647,896.53381 1136.2057,896.2088 1134.5041,894.98718 1133.3693,892.87842 1132.7635,889.94421 1132.606,886.29602 1132.7826,882.08197 1133.173,877.45715 1133.657,872.5769 1134.1185,867.58276 1134.4618,862.54614 1134.6191,857.44336 1134.552,852.15057 1134.2496,846.44885 1133.7219,840.04901 1132.983,832.64819 1132.0465,823.94373 1130.9287,813.65234 1129.6567,801.59174 1128.2732,787.71582 1126.8365,772.12293 1125.4205,755.04742 1124.1105,736.82495 1122.9932,717.81043 1122.156,698.35883 1121.6805,678.81103 1121.6191,659.43457 1121.9852,640.39832 1122.7505,621.76648 1123.8473,603.5044 1125.1791,585.50427 1126.6437,567.6441 1128.1387,549.80188 1129.5662,531.86066 1130.8488,513.72864 1131.9377,495.34857 1132.8143,476.69928 1133.4877,457.79401 1133.9886,438.6712 1134.3514,419.37457 1134.6107,399.94739 1134.7999,380.43823 1134.9469,360.92188 1135.072,341.50806 1135.1879,322.34393 1135.299,303.612 1135.405,285.52063 1135.5041,268.28357 1135.595,252.1142 1135.679,237.21905 1135.7762,223.76758 1135.9324,211.87891 1136.2183,201.62006 1136.7301,193.00714 "
       fill="#95b4fe"
       stroke="none"
       fill-opacity="1"
       id="polygon2"
       style="fill:url(#linearGradient20);stroke:#b77fff;stroke-width:2;stroke-dasharray:none;stroke-opacity:0.992455" />
  </g>
  <g
     id="holder"
     inkscape:label="hol">
    <polygon
       points="960.000061,511.749817 962.690979,511.714417 965.362671,511.605713 967.995911,511.415405 970.571533,511.131592 973.070374,510.741272 975.472900,510.231812 977.760925,509.591003 979.919495,508.810486 981.938721,507.886841 983.813538,506.821838 985.544617,505.622375 987.135559,504.298950 988.590759,502.862854 989.914978,501.325195 991.112854,499.683105 992.189026,497.859802 993.148804,495.679077 993.997559,492.859131 994.741577,489.018921 995.386536,483.703552 995.939087,476.443787 996.405090,466.770569 996.790833,454.256897 997.101746,438.693481 997.343018,420.165955 997.518372,399.070740 997.631409,376.099243 997.685059,352.160706 997.682007,328.206238 997.625122,305.187012 997.516479,284.012939 997.355957,265.376953 997.139404,249.680603 996.859070,237.016724 996.503601,227.185608 996.058899,219.772034 995.510498,214.318726 994.843811,210.368347 994.044739,207.477356 993.102173,205.272034 992.008850,203.473633 990.761230,201.903381 989.359741,200.477295 987.807800,199.181580 986.109192,198.015869 984.267578,196.979797 982.287292,196.072754 980.174377,195.292725 977.937622,194.635559 975.588501,194.095032 973.141052,193.663147 970.611450,193.330261 968.016174,193.086548 965.371521,192.922058 962.693970,192.827576 960.000061,192.796814 957.306091,192.827576 954.628601,192.922058 951.983887,193.086548 949.388672,193.330261 946.859009,193.663147 944.411682,194.094971 942.062439,194.635498 939.825623,195.292725 937.712769,196.072754 935.732422,196.979736 933.890869,198.015869 932.192322,199.181580 930.640320,200.477295 929.238831,201.903381 927.991272,203.473572 926.897888,205.272034 925.955322,207.477356 925.156311,210.368347 924.489685,214.318726 923.941162,219.772034 923.496582,227.185608 923.141052,237.016724 922.860657,249.680603 922.644104,265.376953 922.483582,284.012939 922.374939,305.187012 922.317993,328.206238 922.315002,352.160706 922.368591,376.099243 922.481628,399.070740 922.657104,420.165955 922.898254,438.693481 923.209229,454.256897 923.594971,466.770691 924.061035,476.443787 924.613464,483.703552 925.258606,489.018921 926.002441,492.859131 926.851318,495.679077 927.811096,497.859802 928.887207,499.683105 930.085022,501.325195 931.409302,502.862854 932.864563,504.298950 934.455505,505.622375 936.186462,506.821838 938.061462,507.886841 940.080566,508.810486 942.239075,509.591003 944.527161,510.231812 946.929810,510.741272 949.428467,511.131592 952.004150,511.415405 954.637390,511.605713 957.309143,511.714417"
       fill="#4F7EF2"
       stroke="none"
       fill-opacity="1"
       id="polygon3"
       style="fill:#7702c5;fill-opacity:1" />
  </g>
  <g
     id="body">
    <polygon
       points="954.713196,992.194580 960.000061,992.259155 965.286804,992.194580 970.674744,991.992432 976.264404,991.626587 982.156738,991.098206 988.452759,990.351379 995.253418,989.331543 1002.651672,987.985840 1010.698730,986.270203 1019.390076,984.152649 1028.661255,981.613831 1038.392578,978.646545 1048.421875,975.252319 1058.579712,971.434448 1068.696167,967.196350 1078.606689,962.543152 1088.173950,957.490051 1097.296753,952.065857 1105.912476,946.313354 1113.994995,940.289062 1121.545044,934.059387 1128.568848,927.692505 1135.072510,921.256958 1141.062256,914.819519 1146.548828,908.440918 1151.546387,902.172607 1156.074707,896.056824 1160.157715,890.126892 1163.822998,884.409546 1167.098511,878.930359 1170.012451,873.714722 1172.591309,868.787048 1174.853760,864.166382 1176.807251,859.864258 1178.448242,855.884338 1179.761841,852.223145 1180.725708,848.871460 1181.315186,845.819214 1181.506470,843.056274 1181.276611,840.562073 1180.611206,838.263000 1179.506836,836.013306 1177.971802,833.591003 1176.025024,830.702454 1173.694092,827.000366 1171.007812,822.127380 1167.995239,815.726074 1164.689941,807.461426 1161.150024,797.115540 1157.466675,784.627991 1153.765991,770.105225 1150.206543,753.811401 1146.972168,736.127686 1144.250977,717.457520 1142.230957,698.204590 1141.087891,678.749390 1140.932373,659.354126 1141.787720,640.120483 1143.584351,620.981079 1146.164917,601.708008 1149.307739,581.954834 1152.778076,561.352356 1156.341309,539.531250 1159.771851,516.154907 1162.890747,491.057007 1165.581421,464.300659 1167.793701,436.192078 1169.540161,407.266907 1170.880249,378.230835 1171.881592,349.822571 1172.612305,322.780579 1173.134155,297.809265 1173.476562,275.435486 1173.625488,255.946106 1173.519775,239.374817 1173.055786,225.515381 1172.096313,213.984009 1170.498657,204.362671 1168.119995,196.233582 1164.825195,189.190857 1160.520020,182.894165 1155.165161,177.089966 1148.779907,171.617554 1141.437866,166.403564 1133.254395,161.439331 1124.351807,156.728821 1114.853027,152.276062 1104.881104,148.084778 1094.561157,144.159607 1084.020752,140.505737 1073.390747,137.129028 1062.803955,134.036438 1052.395752,131.234741 1042.301758,128.731323 1032.657471,126.533691 1023.593262,124.647339 1015.212402,123.071655 1007.582031,121.796448 1000.730591,120.801941 994.650146,120.059021 989.305725,119.531677 984.657288,119.182800 980.664795,118.975098 977.287109,118.872375 974.480225,118.844238 972.194641,118.867920 970.375732,118.928223 968.964050,119.018372 967.896667,119.136780 967.109741,119.282776 966.539246,119.456116 966.123474,119.659241 965.810120,119.910706 965.559448,120.250305 965.345886,120.740234 965.156494,121.464050 964.988037,122.521362 964.838928,124.014648 964.707764,126.046326 964.593384,128.709839 964.494812,132.051331 964.412842,136.052795 964.348816,140.628906 964.305359,145.630493 964.285522,150.860657 964.292786,156.114136 964.330811,161.184692 964.402710,165.875854 964.511475,170.036743 964.659973,173.578125 964.850037,176.477112 965.083740,178.772339 965.362488,180.548706 965.687561,181.899841 966.060486,182.919250 966.482422,183.697937 966.953735,184.312683 967.473389,184.821350 968.039062,185.261597 968.647339,185.651917 969.293579,185.996765 969.973206,186.298157 970.681519,186.558044 971.414246,186.778076 972.169678,186.962280 972.949036,187.116699 973.756714,187.249390 974.601013,187.371033 975.491699,187.493591 976.439453,187.629700 977.455078,187.791626 978.547974,187.991760 979.723633,188.240540 980.980713,188.546875 982.311890,188.917419 983.703369,189.356812 985.136780,189.868164 986.593018,190.454651 988.052734,191.119080 989.497253,191.864197 990.910278,192.691589 992.278259,193.601440 993.591125,194.592102 994.841919,195.660583 996.025940,196.802856 997.138733,198.014404 998.176392,199.290955 999.134644,200.643127 1000.010071,202.159729 1000.800598,204.035278 1001.505127,206.575562 1002.123718,210.191895 1002.656860,215.373901 1003.105774,222.626221 1003.471313,232.453308 1003.754700,245.314819 1003.957397,261.435547 1004.081909,280.724121 1004.131592,302.754456 1004.110474,326.783752 1004.023315,351.835144 1003.874817,376.886414 1003.670044,400.915405 1003.413208,422.944946 1003.107300,442.232544 1002.752991,458.352051 1002.348816,471.211914 1001.890930,481.037231 1001.373840,488.287292 1000.791992,493.466797 1000.139526,497.080383 999.411194,499.617493 998.603027,501.489502 997.713318,503.002319 996.742432,504.350342 995.692749,505.622375 994.568481,506.829163 993.373718,507.966248 992.113098,509.029358 990.790344,510.014404 989.408997,510.918884 987.971130,511.742554 986.477661,512.487244 984.928406,513.156799 983.322205,513.757019 981.657776,514.293701 979.934021,514.772705 978.149780,515.199890 976.305542,515.581055 974.403687,515.921570 972.448486,516.226990 970.446167,516.502258 968.404358,516.752625 966.330872,516.982849 964.233765,517.182861 962.120911,517.315857 960.000061,517.361328 957.879211,517.315857 955.766296,517.182861 953.669189,516.982849 951.595703,516.752625 949.553955,516.502258 947.551514,516.226990 945.596375,515.921570 943.694519,515.581055 941.850281,515.199890 940.066101,514.772705 938.342224,514.293701 936.677917,513.757019 935.071716,513.156799 933.522400,512.487244 932.028931,511.742554 930.591064,510.918884 929.209778,510.014404 927.887085,509.029358 926.626282,507.966248 925.431580,506.829163 924.307312,505.622375 923.257629,504.350342 922.286743,503.002319 921.397034,501.489502 920.588928,499.617493 919.860535,497.080383 919.208130,493.466797 918.626282,488.287292 918.109253,481.037231 917.651245,471.211914 917.247070,458.352051 916.892822,442.232544 916.586914,422.944946 916.330078,400.915405 916.125244,376.886414 915.976746,351.835144 915.889587,326.783752 915.868530,302.754456 915.918152,280.724121 916.042664,261.435547 916.245361,245.314819 916.528687,232.453308 916.894287,222.626221 917.343262,215.373901 917.876465,210.191895 918.494873,206.575562 919.199463,204.035278 919.989929,202.159729 920.865356,200.643127 921.823608,199.290955 922.861267,198.014404 923.974243,196.802856 925.158142,195.660583 926.408875,194.592102 927.721863,193.601440 929.089783,192.691589 930.502747,191.864197 931.947266,191.119080 933.407104,190.454651 934.863281,189.868164 936.296692,189.356812 937.688171,188.917419 939.019348,188.546875 940.276489,188.240540 941.452026,187.991760 942.545044,187.791626 943.560608,187.629700 944.508362,187.493591 945.399048,187.371033 946.243286,187.249390 947.051147,187.116699 947.830383,186.962280 948.585754,186.778076 949.318542,186.558044 950.026855,186.298157 950.706421,185.996765 951.352783,185.651917 951.960999,185.261597 952.526733,184.821350 953.046326,184.312683 953.517700,183.697937 953.939575,182.919250 954.312439,181.899841 954.637634,180.548706 954.916260,178.772339 955.149963,176.477112 955.340210,173.578125 955.488586,170.036743 955.597351,165.875854 955.669250,161.184692 955.707214,156.114136 955.714600,150.860657 955.694824,145.630493 955.651245,140.628906 955.587219,136.052795 955.505249,132.051331 955.406799,128.709839 955.292236,126.046326 955.161072,124.014648 955.012024,122.521362 954.843506,121.464050 954.654175,120.740234 954.440613,120.250305 954.190002,119.910706 953.876526,119.659241 953.460876,119.456116 952.890442,119.282776 952.103455,119.136780 951.036011,119.018372 949.624268,118.928223 947.805420,118.867920 945.519775,118.844238 942.712891,118.872375 939.335388,118.975098 935.342712,119.182800 930.694336,119.531677 925.349915,120.059021 919.269470,120.801941 912.418030,121.796448 904.787659,123.071655 896.406860,124.647339 887.342651,126.533691 877.698242,128.731323 867.604309,131.234741 857.196106,134.036438 846.609314,137.129028 835.979187,140.505737 825.438965,144.159607 815.118896,148.084778 805.146973,152.276062 795.648254,156.728821 786.745728,161.439331 778.562134,166.403564 771.220215,171.617554 764.834839,177.089966 759.480042,182.894165 755.174866,189.190857 751.880066,196.233582 749.501404,204.362671 747.903809,213.984009 746.944397,225.515381 746.480225,239.374817 746.374634,255.946106 746.523438,275.435486 746.865967,297.809265 747.387817,322.780579 748.118530,349.822571 749.119873,378.230835 750.459900,407.266907 752.206421,436.192078 754.418701,464.300659 757.109375,491.057007 760.228088,516.154907 763.658752,539.531250 767.222046,561.352356 770.692322,581.954834 773.835144,601.708008 776.415833,620.981079 778.212402,640.120483 779.067688,659.354126 778.912231,678.749390 777.769165,698.204590 775.749207,717.457520 773.027893,736.127686 769.793518,753.811401 766.234131,770.105225 762.533325,784.627991 758.849976,797.115540 755.310181,807.461426 752.004883,815.726074 748.992249,822.127380 746.306030,827.000366 743.975037,830.702454 742.028320,833.591003 740.493164,836.013306 739.388794,838.263000 738.723450,840.562073 738.493652,843.056274 738.684937,845.819214 739.274414,848.871460 740.238159,852.223145 741.551880,855.884338 743.192810,859.864258 745.146301,864.166382 747.408752,868.787048 749.987671,873.714722 752.901611,878.930359 756.177063,884.409546 759.842285,890.126892 763.925293,896.056824 768.453613,902.172607 773.451294,908.440918 778.937744,914.819519 784.927673,921.256958 791.431213,927.692505 798.455017,934.059387 806.005127,940.289062 814.087585,946.313354 822.703247,952.065857 831.825989,957.490051 841.393250,962.543152 851.303894,967.196350 861.420471,971.434448 871.578186,975.252319 881.607544,978.646545 891.338806,981.613831 900.610107,984.152649 909.301270,986.270203 917.348389,987.985840 924.746582,989.331543 931.547302,990.351379 937.843323,991.098206 943.735718,991.626587 949.325439,991.992432"
       fill="#ABCDFE"
       stroke="none"
       fill-opacity="1"
       id="polygon4"
       style="fill:url(#linearGradient24);stroke:#b669fc;stroke-opacity:1" />
    <polygon
       points="965.2868,992.19458 970.67474,991.99243 976.2644,991.62659 982.15674,991.09821 988.45276,990.35138 995.25342,989.33154 1002.6517,987.98584 1010.6987,986.2702 1019.3901,984.15265 1028.6613,981.61383 1038.3926,978.64654 1048.4219,975.25232 1058.5797,971.43445 1068.6962,967.19635 1078.6067,962.54315 1088.174,957.49005 1097.2968,952.06586 1105.9125,946.31335 1113.995,940.28906 1121.545,934.05939 1128.5688,927.6925 1135.0725,921.25696 1141.0623,914.81952 1146.5488,908.44092 1151.5464,902.17261 1156.0747,896.05682 1160.1577,890.12689 1163.823,884.40955 1167.0985,878.93036 1170.0125,873.71472 1172.5913,868.78705 1174.8538,864.16638 1176.8073,859.86426 1178.4482,855.88434 1179.7618,852.22315 1180.7257,848.87146 1181.3152,845.81921 1181.5065,843.05627 1181.2766,840.56207 1180.6112,838.263 1179.5068,836.01331 1177.9718,833.591 1176.025,830.70245 1173.6941,827.00037 1171.0078,822.12738 1167.9952,815.72607 1164.6899,807.46143 1161.15,797.11554 1157.4667,784.62799 1153.766,770.10523 1150.2065,753.8114 1146.9722,736.12769 1144.251,717.45752 1142.231,698.20459 1141.0879,678.74939 1140.9324,659.35413 1141.7877,640.12048 1143.5844,620.98108 1146.1649,601.70801 1149.3077,581.95483 1152.7781,561.35236 1156.3413,539.53125 1159.7719,516.15491 1162.8907,491.05701 1165.5814,464.30066 1167.7937,436.19208 1169.5402,407.26691 1170.8802,378.23084 1171.8816,349.82257 1172.6123,322.78058 1173.1342,297.80926 1173.4766,275.43549 1173.6255,255.94611 1173.5198,239.37482 1173.0558,225.51538 1172.0963,213.98401 1170.4987,204.36267 1168.12,196.23358 1164.8252,189.19086 1160.52,182.89416 1155.1652,177.08997 1148.7799,171.61755 1141.4379,166.40356 1133.2544,161.43933 1124.3518,156.72882 1114.853,152.27606 1104.8811,148.08478 1094.5612,144.15961 1084.0208,140.50574 1073.3907,137.12903 1062.804,134.03644 1052.3958,131.23474 1042.3018,128.73132 1032.6575,126.53369 1023.5933,124.64734 1015.2124,123.07166 1007.582,121.79645 1000.7306,120.80194 994.65015,120.05902 989.30573,119.53168 984.65729,119.1828 980.6648,118.9751 977.28711,118.87238 974.48023,118.84424 972.19464,118.86792 970.37573,118.92822 968.96405,119.01837 967.89667,119.13678 967.10974,119.28278 966.53925,119.45612 966.12347,119.65924 965.81012,119.91071 965.55945,120.2503 965.34589,120.74023 965.15649,121.46405 964.98804,122.52136 964.83893,124.01465 964.70776,126.04633 964.59338,128.70984 964.49481,132.05133 964.41284,136.0528 964.34882,140.62891 964.30536,145.63049 964.28552,150.86066 964.29279,156.11414 964.33081,161.18469 964.40271,165.87585 964.51148,170.03674 964.65997,173.57812 964.85004,176.47711 965.08374,178.77234 965.36249,180.54871 965.68756,181.89984 966.06049,182.91925 966.48242,183.69794 966.95374,184.31268 967.47339,184.82135 968.03906,185.2616 968.64734,185.65192 969.29358,185.99677 969.97321,186.29816 970.68152,186.55804 971.41425,186.77808 972.16968,186.96228 972.94904,187.1167 973.75671,187.24939 974.60101,187.37103 975.4917,187.49359 976.43945,187.6297 977.45508,187.79163 978.54797,187.99176 979.72363,188.24054 980.98071,188.54688 982.31189,188.91742 983.70337,189.35681 985.13678,189.86816 986.59302,190.45465 988.05273,191.11908 989.49725,191.8642 990.91028,192.69159 992.27826,193.60144 993.59113,194.5921 994.84192,195.66058 996.02594,196.80286 997.13873,198.0144 998.17639,199.29095 999.13464,200.64313 1000.0101,202.15973 1000.8006,204.03528 1001.5051,206.57556 1002.1237,210.19189 1002.6569,215.3739 1003.1058,222.62622 1003.4713,232.45331 1003.7547,245.31482 1003.9574,261.43555 1004.0819,280.72412 1004.1316,302.75446 1004.1105,326.78375 1004.0233,351.83514 1003.8748,376.88641 1003.67,400.91541 1003.4132,422.94495 1003.1073,442.23254 1002.753,458.35205 1002.3488,471.21191 1001.8909,481.03723 1001.3738,488.28729 1000.792,493.4668 1000.1395,497.08038 999.41119,499.61749 998.60303,501.4895 997.71332,503.00232 996.74243,504.35034 995.69275,505.62237 994.56848,506.82916 993.37372,507.96625 992.1131,509.02936 990.79034,510.0144 989.409,510.91888 987.97113,511.74255 986.47766,512.48724 984.92841,513.1568 983.32221,513.75702 981.65778,514.2937 979.93402,514.7727 978.14978,515.19989 976.30554,515.58105 974.40369,515.92157 972.44849,516.22699 970.44617,516.50226 968.40436,516.75262 966.33087,516.98285 964.23376,517.18286 962.12091,517.31586 960.00006,517.36133 957.87921,517.31586 955.7663,517.18286 953.66919,516.98285 951.5957,516.75262 949.55395,516.50226 947.55151,516.22699 945.59637,515.92157 943.69452,515.58105 941.85028,515.19989 940.0661,514.7727 938.34222,514.2937 936.67792,513.75702 935.07172,513.1568 933.5224,512.48724 932.02893,511.74255 930.59106,510.91888 929.20978,510.0144 927.88708,509.02936 926.62628,507.96625 925.43158,506.82916 924.30731,505.62237 923.25763,504.35034 922.28674,503.00232 921.39703,501.4895 920.58893,499.61749 919.86054,497.08038 919.20813,493.4668 918.62628,488.28729 918.10925,481.03723 917.65125,471.21191 917.24707,458.35205 916.89282,442.23254 916.58691,422.94495 916.33008,400.91541 916.12524,376.88641 915.97675,351.83514 915.88959,326.78375 915.86853,302.75446 915.91815,280.72412 916.04266,261.43555 916.24536,245.31482 916.52869,232.45331 916.89429,222.62622 917.34326,215.3739 917.87647,210.19189 918.49487,206.57556 919.19946,204.03528 919.98993,202.15973 920.86536,200.64313 921.82361,199.29095 922.86127,198.0144 923.97424,196.80286 925.15814,195.66058 926.40887,194.5921 927.72186,193.60144 929.08978,192.69159 930.50275,191.8642 931.94727,191.11908 933.4071,190.45465 934.86328,189.86816 936.29669,189.35681 937.68817,188.91742 939.01935,188.54688 940.27649,188.24054 941.45203,187.99176 942.54504,187.79163 943.56061,187.6297 944.50836,187.49359 945.39905,187.37103 946.24329,187.24939 947.05115,187.1167 947.83038,186.96228 948.58575,186.77808 949.31854,186.55804 950.02685,186.29816 950.70642,185.99677 951.35278,185.65192 951.961,185.2616 952.52673,184.82135 953.04633,184.31268 953.5177,183.69794 953.93957,182.91925 954.31244,181.89984 954.63763,180.54871 954.91626,178.77234 955.14996,176.47711 955.34021,173.57812 955.48859,170.03674 955.59735,165.87585 955.66925,161.18469 955.70721,156.11414 955.7146,150.86066 955.69482,145.63049 955.65125,140.62891 955.58722,136.0528 955.50525,132.05133 955.4068,128.70984 955.29224,126.04633 955.16107,124.01465 955.01202,122.52136 954.84351,121.46405 954.65418,120.74023 954.44061,120.2503 954.19,119.91071 953.87653,119.65924 953.46088,119.45612 952.89044,119.28278 952.10346,119.13678 951.03601,119.01837 949.62427,118.92822 947.80542,118.86792 945.51977,118.84424 942.71289,118.87238 939.33539,118.9751 935.34271,119.1828 930.69434,119.53168 925.34992,120.05902 919.26947,120.80194 912.41803,121.79645 904.78766,123.07166 896.40686,124.64734 887.34265,126.53369 877.69824,128.73132 867.60431,131.23474 857.19611,134.03644 846.60931,137.12903 835.97919,140.50574 825.43897,144.15961 815.1189,148.08478 805.14697,152.27606 795.64825,156.72882 786.74573,161.43933 778.56213,166.40356 771.22022,171.61755 764.83484,177.08997 759.48004,182.89416 755.17487,189.19086 751.88007,196.23358 749.5014,204.36267 747.90381,213.98401 746.9444,225.51538 746.48023,239.37482 746.37463,255.94611 746.52344,275.43549 746.86597,297.80926 747.38782,322.78058 748.11853,349.82257 749.11987,378.23084 750.4599,407.26691 752.20642,436.19208 754.4187,464.30066 757.10938,491.05701 760.22809,516.15491 763.65875,539.53125 767.22205,561.35236 770.69232,581.95483 773.83514,601.70801 776.41583,620.98108 778.2124,640.12048 779.06769,659.35413 778.91223,678.74939 777.76917,698.20459 775.74921,717.45752 773.02789,736.12769 769.79352,753.8114 766.23413,770.10523 762.53332,784.62799 758.84998,797.11554 755.31018,807.46143 752.00488,815.72607 748.99225,822.12738 746.30603,827.00037 743.97504,830.70245 742.02832,833.591 740.49316,836.01331 739.38879,838.263 738.72345,840.56207 738.49365,843.05627 738.68494,845.81921 739.27441,848.87146 740.23816,852.22315 741.55188,855.88434 743.19281,859.86426 745.1463,864.16638 747.40875,868.78705 749.98767,873.71472 752.90161,878.93036 756.17706,884.40955 759.84228,890.12689 763.92529,896.05682 768.45361,902.17261 773.45129,908.44092 778.93774,914.81952 784.92767,921.25696 791.43121,927.6925 798.45502,934.05939 806.00513,940.28906 814.08758,946.31335 822.70325,952.06586 831.82599,957.49005 841.39325,962.54315 851.30389,967.19635 861.42047,971.43445 871.57819,975.25232 881.60754,978.64654 891.33881,981.61383 900.61011,984.15265 909.30127,986.2702 917.34839,987.98584 924.74658,989.33154 931.5473,990.35138 937.84332,991.09821 943.73572,991.62659 949.32544,991.99243 954.7132,992.19458 960.00006,992.25915 "
       fill="#abcdfe"
       stroke="none"
       fill-opacity="1"
       id="polygon22"
       style="display:inline;fill:url(#radialGradient28)" />
  </g>
  <g
     id="button"
     inkscape:label="btns">
    <polygon
       points="938.3421,448.96912 938.3421,451.39081 938.3421,453.76623 938.34265,456.08637 938.34711,458.3432 938.36261,460.53052 938.40057,462.64355 938.47595,464.67938 938.60651,466.63599 938.81091,468.5116 939.10736,470.30463 939.51349,472.013 940.04187,473.63397 940.69879,475.16321 941.48352,476.59509 942.38879,477.92248 943.40234,479.13739 944.5116,480.23157 945.70337,481.19678 946.96478,482.02564 948.28424,482.71484 949.65192,483.26697 951.0592,483.69049 952.49951,483.99945 953.96692,484.21246 955.45612,484.34863 956.96173,484.42719 958.47815,484.46612 960.00006,484.47766 961.52191,484.46612 963.03833,484.42719 964.54395,484.34863 966.03314,484.21246 967.50061,483.99945 968.94086,483.69049 970.34815,483.26697 971.71582,482.71484 973.03528,482.02564 974.29681,481.19678 975.48846,480.23157 976.59766,479.13739 977.61133,477.92248 978.51654,476.59509 979.30127,475.16321 979.95819,473.63397 980.48657,472.013 980.8927,470.30463 981.18927,468.5116 981.39349,466.63599 981.52423,464.67938 981.59949,462.64355 981.63739,460.53052 981.65295,458.3432 981.65735,456.08637 981.65796,453.76623 981.65796,451.39081 981.65796,448.96912 981.65796,446.51025 981.65796,444.02362 981.65796,441.51849 981.65796,439.0036 981.65796,436.48724 981.65796,433.97766 981.65796,431.48206 981.65796,429.00751 981.65796,426.56128 981.65796,424.15027 981.65735,421.78149 981.65295,419.46197 981.63739,417.1983 981.59949,414.99701 981.52423,412.86432 981.39349,410.80646 981.18927,408.82953 980.8927,406.9397 980.48657,405.14307 979.95819,403.44574 979.30127,401.85376 978.51654,400.37323 977.61133,399.01031 976.59766,397.77094 975.48846,396.66101 974.29681,395.68683 973.03528,394.85352 971.71582,394.16235 970.34815,393.60968 968.94086,393.18616 967.50061,392.87714 966.03314,392.66412 964.54395,392.52795 963.03833,392.44946 961.52191,392.41046 960.00006,392.39893 958.47815,392.41046 956.96173,392.44946 955.45612,392.52795 953.96692,392.66412 952.49951,392.87714 951.0592,393.18616 949.65192,393.60968 948.28424,394.16229 946.96478,394.85339 945.70337,395.68677 944.5116,396.66101 943.40234,397.77094 942.38879,399.01031 941.48352,400.37329 940.69879,401.85376 940.04187,403.44574 939.51349,405.14307 939.14062,406.58771 938.72595,408.74933 938.42499,412.79541 938.38043,415.36334 938.36261,417.1983 938.34711,419.46197 938.34265,421.78149 938.3421,424.15027 938.3421,426.56128 938.3421,429.00751 938.3421,431.48206 938.3421,433.97766 938.3421,436.48724 938.3421,439.0036 938.3421,441.51849 938.3421,444.02362 938.3421,446.51025 "
       fill="#5CBEAC"
       stroke="none"
       fill-opacity="1"
       id="polygon1-6"
       style="fill:#6336d5;fill-opacity:1;stroke:#d7a0ff;stroke-width:2;stroke-dasharray:none;stroke-opacity:1"
       transform="translate(-1e-4,9.8698657e-5)" />
  </g>
  <g
     id="encoder"
     style="display:inline;fill:#4e0187;fill-opacity:1"
     inkscape:label="enc"
     transform="translate(4.3952684e-4,-1.0954283e-4)">
    <polygon
       points="935.7923,317.7395 936.38806,319.08942 937.01532,320.22852 937.66431,321.21185 938.33063,322.08563 939.01617,322.88446 939.72992,323.63031 940.4873,324.33319 941.30902,324.99445 942.21631,325.61359 943.23065,326.19019 944.37207,326.72394 945.65424,327.21362 947.08185,327.65759 948.65015,328.05334 950.34552,328.39795 952.14807,328.68756 954.03613,328.91852 955.98846,329.08722 957.98352,329.18994 960.00006,329.22449 962.01648,329.18994 964.0116,329.08722 965.96387,328.91852 967.85205,328.68756 969.65454,328.39795 971.34992,328.05334 972.91821,327.65759 974.34576,327.21362 975.62799,326.72394 976.76941,326.19019 977.78369,325.61359 978.69098,324.99445 979.5127,324.33319 980.2702,323.63031 980.98389,322.88446 981.66943,322.08563 982.33569,321.21185 982.9848,320.22852 983.61194,319.08942 984.2077,317.7395 984.7616,316.12164 985.26318,314.17932 985.70264,311.85901 986.07312,309.12567 986.37262,305.96893 986.60321,302.40418 986.77154,298.47168 986.8877,294.22967 986.96185,289.74011 987.00464,285.065 987.02594,280.26605 987.03223,275.40564 987.02594,270.54639 987.00464,265.75128 986.96185,261.08362 986.8877,256.60712 986.77154,252.3855 986.60321,248.48261 986.37262,244.95844 986.07312,241.85431 985.70264,239.18622 985.26318,236.9433 984.7616,235.08917 984.2077,233.56891 983.61194,232.32367 982.9848,231.29498 982.33569,230.42572 981.66943,229.66724 980.98389,228.98254 980.2702,228.34656 979.5127,227.74567 978.69098,227.17474 977.78369,226.63049 976.76941,226.10919 975.62799,225.60785 974.34576,225.12592 972.91821,224.66577 971.34992,224.23334 969.65454,223.83722 967.85205,223.48883 965.96387,223.19989 964.0116,222.98212 962.01648,222.8465 960.00006,222.80041 957.98352,222.8465 955.98846,222.98218 954.03613,223.19989 952.14807,223.48883 950.34552,223.83722 948.65015,224.23322 947.08185,224.66577 945.65424,225.12592 944.37207,225.60791 943.23065,226.10919 942.21631,226.63049 941.30902,227.1748 940.4873,227.74561 939.72992,228.34656 939.01617,228.98254 938.33063,229.66724 937.66431,230.42572 937.01532,231.29498 936.38806,232.32367 935.7923,233.56891 935.2384,235.08911 934.73688,236.9433 934.29749,239.18622 933.92688,241.85431 933.62744,244.95844 933.39691,248.48261 933.22846,252.38556 933.11243,256.60712 933.03821,261.08362 932.99542,265.75128 932.97418,270.54639 932.9679,275.40564 932.97418,280.26605 932.99542,285.065 933.03821,289.74011 933.11243,294.22961 933.22846,298.47168 933.39691,302.40418 933.62744,305.96893 933.92688,309.12567 934.29749,311.85907 934.73688,314.17932 935.2384,316.12164 "
       fill="#88c5fe"
       stroke="none"
       fill-opacity="1"
       id="polygon5"
       style="display:inline;fill:#4e0187;fill-opacity:1" />
    <polygon
       points="952.24573,229.48273 948.68347,230.32227 945.47662,231.39117 942.70282,232.56793 940.41187,233.69202 938.62707,234.57629 937.35217,235.06091 936.58722,235.05432 936.33227,234.54272 936.58722,233.58588 937.35217,232.29645 938.62707,230.79529 940.41187,229.20075 942.70282,227.62738 945.47662,226.17847 948.68347,224.94446 952.24573,224.00238 956.05914,223.41345 960.00006,223.21332 963.94092,223.41345 967.75433,224.00238 971.31653,224.94446 974.52338,226.17847 977.29718,227.62738 979.5882,229.20075 981.37299,230.79529 982.64789,232.29645 983.41284,233.58588 983.66779,234.54272 983.41284,235.05432 982.64789,235.06091 981.37299,234.57629 979.5882,233.69202 977.29718,232.56793 974.52338,231.39117 971.31653,230.32227 967.75433,229.48273 963.94092,228.95392 960.00006,228.77387 956.05914,228.95392 "
       fill="#3680be"
       stroke="none"
       fill-opacity="1"
       id="polygon6"
       style="display:inline;fill:#c758fc;fill-opacity:1" />
    <polygon
       points="952.24573,234.96313 948.68347,235.70837 945.47662,236.67969 942.70282,237.81988 940.41187,239.06836 938.62707,240.35877 937.35217,241.61371 936.58722,242.74304 936.33227,243.64404 936.58722,244.21137 937.35217,244.37811 938.62707,244.13989 940.41187,243.55963 942.70282,242.76056 945.47662,241.89239 948.68347,241.08624 952.24573,240.44354 956.05914,240.03479 960.00006,239.8949 963.94092,240.03479 967.75433,240.44354 971.31653,241.08624 974.52338,241.89239 977.29718,242.76056 979.5882,243.55963 981.37299,244.13989 982.64789,244.37811 983.41284,244.21137 983.66779,243.64404 983.41284,242.74304 982.64789,241.61371 981.37299,240.35877 979.5882,239.06836 977.29718,237.81988 974.52338,236.67969 971.31653,235.70837 967.75433,234.96313 963.94092,234.49432 960.00006,234.33435 956.05914,234.49432 "
       fill="#3680be"
       stroke="none"
       fill-opacity="1"
       id="polygon7"
       style="display:inline;fill:#c758fc;fill-opacity:1" />
    <polygon
       points="952.24573,245.92383 948.68347,246.47235 945.47662,247.18091 942.70282,248.01257 940.41187,248.93604 938.62707,249.92242 937.35217,250.93103 936.58722,251.90015 936.33227,252.7453 936.58722,253.36847 937.35217,253.6955 938.62707,253.70349 940.41187,253.42731 942.70282,252.95312 945.47662,252.39368 948.68347,251.85016 952.24573,251.40418 956.05914,251.1156 960.00006,251.01599 963.94092,251.1156 967.75433,251.4043 971.31653,251.85016 974.52338,252.39368 977.29718,252.95312 979.5882,253.42731 981.37299,253.70349 982.64789,253.6955 983.41284,253.36847 983.66779,252.7453 983.41284,251.90015 982.64789,250.93103 981.37299,249.92242 979.5882,248.93604 977.29718,248.01257 974.52338,247.18091 971.31653,246.47235 967.75433,245.92383 963.94092,245.5752 960.00006,245.4555 956.05914,245.5752 "
       fill="#3680be"
       stroke="none"
       fill-opacity="1"
       id="polygon8"
       style="display:inline;fill:#c758fc;fill-opacity:1" />
    <polygon
       points="952.24573,256.88464 948.68347,257.23627 945.47662,257.68219 942.70282,258.2052 940.41187,258.80365 938.62707,259.48596 937.35217,260.24823 936.58722,261.05719 936.33227,261.84668 936.58722,262.52551 937.35217,263.0127 938.62707,263.26703 940.41187,263.29492 942.70282,263.14569 945.47662,262.89496 948.68347,262.61414 952.24573,262.36499 956.05914,262.19641 960.00006,262.13715 963.94092,262.19641 967.75433,262.36499 971.31653,262.6142 974.52338,262.89496 977.29718,263.14569 979.5882,263.29492 981.37299,263.26703 982.64789,263.0127 983.41284,262.52551 983.66779,261.84668 983.41284,261.05719 982.64789,260.24823 981.37299,259.48596 979.5882,258.80365 977.29718,258.2052 974.52338,257.68219 971.31653,257.23627 967.75433,256.88458 963.94092,256.65601 960.00006,256.57654 956.05914,256.65601 "
       fill="#3680be"
       stroke="none"
       fill-opacity="1"
       id="polygon9"
       style="display:inline;fill:#c758fc;fill-opacity:1" />
    <polygon
       points="952.24573,267.84528 948.68347,268.00024 945.47662,268.18335 942.70282,268.3977 940.41187,268.67127 938.62707,269.04956 937.35217,269.56549 936.58722,270.21436 936.33227,270.948 936.58722,271.68268 937.35217,272.3299 938.62707,272.83063 940.41187,273.16248 942.70282,273.33838 945.47662,273.39612 948.68347,273.37811 952.24573,273.32574 956.05914,273.27728 960.00006,273.25818 963.94092,273.27728 967.75433,273.32574 971.31653,273.37811 974.52338,273.39612 977.29718,273.33838 979.5882,273.16248 981.37299,272.83063 982.64789,272.3299 983.41284,271.68268 983.66779,270.948 983.41284,270.21429 982.64789,269.56549 981.37299,269.04956 979.5882,268.67127 977.29718,268.3977 974.52338,268.18335 971.31653,268.00024 967.75433,267.84528 963.94092,267.73682 960.00006,267.69763 956.05914,267.73688 "
       fill="#3680be"
       stroke="none"
       fill-opacity="1"
       id="polygon10"
       style="display:inline;fill:#c758fc;fill-opacity:1" />
    <polygon
       points="952.24573,278.80609 948.68347,278.76416 945.47662,278.68463 942.70282,278.59039 940.41187,278.53894 938.62707,278.61316 937.35217,278.88275 936.58722,279.37146 936.33227,280.04938 936.58722,280.83978 937.35217,281.64722 938.62707,282.39423 940.41187,283.03015 942.70282,283.53094 945.47662,283.89734 948.68347,284.14203 952.24573,284.28644 956.05914,284.35809 960.00006,284.37927 963.94092,284.35809 967.75433,284.28644 971.31653,284.14203 974.52338,283.89734 977.29718,283.53094 979.5882,283.03015 981.37299,282.39423 982.64789,281.64722 983.41284,280.83978 983.66779,280.04932 983.41284,279.37146 982.64789,278.88275 981.37299,278.61316 979.5882,278.53894 977.29718,278.59039 974.52338,278.68463 971.31653,278.76416 967.75433,278.80603 963.94092,278.81769 960.00006,278.81867 956.05914,278.81763 "
       fill="#3680be"
       stroke="none"
       fill-opacity="1"
       id="polygon11"
       style="display:inline;fill:#c758fc;fill-opacity:1" />
    <polygon
       points="952.24573,289.76679 948.68347,289.5282 945.47662,289.18597 942.70282,288.78302 940.41187,288.40662 938.62707,288.17682 937.35217,288.20007 936.58722,288.52856 936.33227,289.1507 936.58722,289.99689 937.35217,290.96448 938.62707,291.95783 940.41187,292.89777 942.70282,293.72357 945.47662,294.39868 948.68347,294.90607 952.24573,295.24725 956.05914,295.43896 960.00006,295.50031 963.94092,295.43896 967.75433,295.24725 971.31653,294.90607 974.52338,294.39868 977.29718,293.72357 979.5882,292.89777 981.37299,291.95783 982.64789,290.96448 983.41284,289.99689 983.66779,289.1507 983.41284,288.52856 982.64789,288.20007 981.37299,288.17682 979.5882,288.40662 977.29718,288.78302 974.52338,289.18585 971.31653,289.52814 967.75433,289.76679 963.94092,289.8985 960.00006,289.93982 956.05914,289.8985 "
       fill="#3680be"
       stroke="none"
       fill-opacity="1"
       id="polygon12"
       style="display:inline;fill:#c758fc;fill-opacity:1" />
    <polygon
       points="952.24573,300.72754 948.68347,300.29217 945.47662,299.68713 942.70282,298.97559 940.41187,298.27423 938.62707,297.7403 937.35217,297.51727 936.58722,297.68567 936.33227,298.25214 936.58722,299.15399 937.35217,300.28174 938.62707,301.52142 940.41187,302.76544 942.70282,303.9162 945.47662,304.8999 948.68347,305.66998 952.24573,306.20795 956.05914,306.51977 960.00006,306.62146 963.94092,306.51977 967.75433,306.20795 971.31653,305.66998 974.52338,304.8999 977.29718,303.9162 979.5882,302.76544 981.37299,301.52142 982.64789,300.2818 983.41284,299.15399 983.66779,298.25214 983.41284,297.68567 982.64789,297.51727 981.37299,297.74042 979.5882,298.27423 977.29718,298.97559 974.52338,299.68713 971.31653,300.29217 967.75433,300.72754 963.94092,300.97931 960.00006,301.06091 956.05914,300.97931 "
       fill="#3680be"
       stroke="none"
       fill-opacity="1"
       id="polygon13"
       style="display:inline;fill:#c758fc;fill-opacity:1" />
    <polygon
       points="952.24573,311.68835 948.68347,311.05609 945.47662,310.18842 942.70282,309.16821 940.41187,308.14191 938.62707,307.30395 937.35217,306.83453 936.58722,306.84283 936.33227,307.35352 936.58722,308.31116 937.35217,309.599 938.62707,311.08496 940.41187,312.63306 942.70282,314.10883 945.47662,315.40112 948.68347,316.43396 952.24573,317.1687 956.05914,317.60065 960.00006,317.74249 963.94092,317.60065 967.75433,317.1687 971.31653,316.43396 974.52338,315.40112 977.29718,314.10883 979.5882,312.63306 981.37299,311.08496 982.64789,309.599 983.41284,308.31116 983.66779,307.35352 983.41284,306.84283 982.64789,306.83453 981.37299,307.30395 979.5882,308.14191 977.29718,309.16821 974.52338,310.18842 971.31653,311.05609 967.75433,311.68835 963.94092,312.06018 960.00006,312.18195 956.05914,312.06018 "
       fill="#3680be"
       stroke="none"
       fill-opacity="1"
       id="polygon14"
       style="display:inline;fill:#c758fc;fill-opacity:1" />
    <polygon
       points="952.24573,322.64905 948.68347,321.82007 945.47662,320.68964 942.70282,319.3609 940.41187,318.00946 938.62707,316.86755 937.35217,316.15186 936.58722,315.99988 936.33227,316.45483 936.58722,317.46832 937.35217,318.91626 938.62707,320.64856 940.41187,322.50073 942.70282,324.30151 945.47662,325.9024 948.68347,327.19794 952.24573,328.12939 956.05914,328.6814 960.00006,328.86359 963.94092,328.6814 967.75433,328.12939 971.31653,327.19794 974.52338,325.9024 977.29718,324.30151 979.5882,322.50073 981.37299,320.64856 982.64789,318.91626 983.41284,317.46832 983.66779,316.45483 983.41284,315.99988 982.64789,316.15192 981.37299,316.86755 979.5882,318.00946 977.29718,319.3609 974.52338,320.68964 971.31653,321.82007 967.75433,322.64905 963.94092,323.14105 960.00006,323.30304 956.05914,323.14105 "
       fill="#3680be"
       stroke="none"
       fill-opacity="1"
       id="polygon15"
       style="display:inline;fill:#c758fc;fill-opacity:1" />
  </g>
  <g
     id="Fills"
     style="display:inline;fill:url(#linearGradient8);fill-opacity:1;stroke:#ef0707;stroke-dasharray:6, 6;stroke-dashoffset:0;stroke-opacity:1"
     inkscape:label="clic-ovr"
     transform="translate(-22.21756,-8.72011)">
    <polygon
       points="981.65796,439.0036 981.65796,436.48724 981.65796,433.97766 981.65796,431.48206 981.65796,429.00751 981.65796,426.56128 981.65796,424.15027 981.65735,421.78149 981.65295,419.46197 981.63739,417.1983 981.59949,414.99701 981.52423,412.86432 981.39349,410.80646 981.18927,408.82953 980.8927,406.9397 980.48657,405.14307 979.95819,403.44574 979.30127,401.85376 978.51654,400.37323 977.61133,399.01031 976.59766,397.77094 975.48846,396.66101 974.29681,395.68683 973.03528,394.85352 971.71582,394.16235 970.34815,393.60968 968.94086,393.18616 967.50061,392.87714 966.03314,392.66412 964.54395,392.52795 963.03833,392.44946 961.52191,392.41046 960.00006,392.39893 958.47815,392.41046 956.96173,392.44946 955.45612,392.52795 953.96692,392.66412 952.49951,392.87714 951.0592,393.18616 949.65192,393.60968 948.28424,394.16229 946.96478,394.85339 945.70337,395.68677 944.5116,396.66101 943.40234,397.77094 942.38879,399.01031 941.48352,400.37329 940.69879,401.85376 940.04187,403.44574 939.51349,405.14307 939.14062,406.58771 938.72595,408.74933 938.42499,412.79541 938.38043,415.36334 938.36261,417.1983 938.34711,419.46197 938.34265,421.78149 938.3421,424.15027 938.3421,426.56128 938.3421,429.00751 938.3421,431.48206 938.3421,433.97766 938.3421,436.48724 938.3421,439.0036 938.3421,441.51849 938.3421,444.02362 938.3421,446.51025 938.3421,448.96912 938.3421,451.39081 938.3421,453.76623 938.34265,456.08637 938.34711,458.3432 938.36261,460.53052 938.40057,462.64355 938.47595,464.67938 938.60651,466.63599 938.81091,468.5116 939.10736,470.30463 939.51349,472.013 940.04187,473.63397 940.69879,475.16321 941.48352,476.59509 942.38879,477.92248 943.40234,479.13739 944.5116,480.23157 945.70337,481.19678 946.96478,482.02564 948.28424,482.71484 949.65192,483.26697 951.0592,483.69049 952.49951,483.99945 953.96692,484.21246 955.45612,484.34863 956.96173,484.42719 958.47815,484.46612 960.00006,484.47766 961.52191,484.46612 963.03833,484.42719 964.54395,484.34863 966.03314,484.21246 967.50061,483.99945 968.94086,483.69049 970.34815,483.26697 971.71582,482.71484 973.03528,482.02564 974.29681,481.19678 975.48846,480.23157 976.59766,479.13739 977.61133,477.92248 978.51654,476.59509 979.30127,475.16321 979.95819,473.63397 980.48657,472.013 980.8927,470.30463 981.18927,468.5116 981.39349,466.63599 981.52423,464.67938 981.59949,462.64355 981.63739,460.53052 981.65295,458.3432 981.65735,456.08637 981.65796,453.76623 981.65796,451.39081 981.65796,448.96912 981.65796,446.51025 981.65796,444.02362 981.65796,441.51849 "
       fill="#5CBEAC"
       stroke="none"
       fill-opacity="1"
       id="T-btn"
       style="display:none;fill:#ec0000;fill-opacity:0.717929;stroke:#ef0707;stroke-width:1;stroke-dasharray:6, 2;stroke-dashoffset:0;stroke-opacity:1"
       transform="translate(22.037566,8.5695171)"
       inkscape:label="T-btn" />
    <polygon
       points="984.60504,151.64887 986.18665,146.30981 988.98816,141.66547 992.82031,137.77624 998.32574,135.46698 1004.7629,134.09058 1012.2249,133.76587 1020.5908,134.40576 1029.7373,135.92218 1039.5376,138.22498 1049.8613,141.22223 1060.5769,144.82098 1071.5353,148.93713 1082.5175,153.51892 1093.297,158.52814 1103.658,163.93262 1113.3934,169.70453 1122.2992,175.81757 1130.1691,182.24475 1137.0316,188.9118 1142.0183,195.93506 1145.9479,203.22186 1148.7467,210.87244 1150.5801,218.94202 1151.6117,227.48547 1152.0283,236.54627 1152.0498,246.15228 1151.8477,256.3493 1151.5728,267.17224 1151.3119,278.60492 1151.1405,290.6261 1151.1439,303.2276 1151.4203,316.41644 1152.0603,330.20264 1153.0115,344.52643 1154.2802,359.36432 1155.8052,374.66077 1157.2023,390.18835 1158.0244,405.66986 1157.8447,420.82111 1156.2522,435.35217 1152.8464,448.96954 1147.2318,461.37781 1139.4934,472.58838 1127.9847,481.41327 1114.7091,488.61615 1099.9369,493.76184 1084.4235,496.72003 1068.9436,497.35382 1054.3048,495.51477 1041.3506,491.04144 1030.3508,484.26971 1023.7613,473.59729 1019.5292,460.83014 1017.7205,445.86005 1017.7438,429.10577 1018.9939,410.99072 1020.9759,391.89947 1023.5353,372.32196 1026.8489,352.86859 1030.4103,333.71558 1033.8419,314.97925 1036.8226,296.77844 1039.0608,279.26373 1040.3076,262.6394 1040.3671,247.17725 1039.1332,233.23956 1036.6274,221.29462 1032.8856,211.67712 1028.1433,204.1568 1022.6703,198.33038 1016.7299,193.76947 1010.593,190.03381 1004.5433,186.67896 998.87884,183.25952 993.74304,179.4892 989.88043,174.57489 986.89294,169.15198 984.99139,163.3407 984.21686,157.41571 "
       fill="#5cd9fe"
       stroke="none"
       fill-opacity="1"
       id="R-click"
       transform="translate(22.420735,7.2828144)"
       style="display:none;fill:url(#linearGradient30);stroke:#ff5050;stroke-width:1;stroke-dasharray:6, 6;stroke-dashoffset:0;stroke-opacity:1" />
    <polygon
       points="762.1554,420.82111 761.97577,405.66986 762.79785,390.18835 764.19495,374.66077 765.71997,359.36432 766.98859,344.52643 767.93982,330.20264 768.57977,316.41644 768.8562,303.2276 768.85956,290.6261 768.68829,278.60492 768.42737,267.17224 768.15247,256.3493 767.95032,246.15228 767.97168,236.54627 768.38837,227.48547 769.41998,218.94202 771.2533,210.87244 774.05219,203.22186 777.98175,195.93506 782.96851,188.9118 789.83093,182.24475 797.70093,175.81757 806.60657,169.70453 816.34204,163.93262 826.70319,158.52814 837.48261,153.51892 848.46484,148.93713 859.42322,144.82098 870.13879,141.22223 880.46252,138.22498 890.26282,135.92218 899.4093,134.40576 907.77515,133.76587 915.23718,134.09058 921.67432,135.46698 927.17981,137.77624 931.01196,141.66547 933.81342,146.30981 935.39496,151.64887 935.78314,157.41571 935.00867,163.3407 933.10712,169.15198 930.11969,174.57489 926.25702,179.4892 921.12122,183.25952 915.45673,186.67896 909.4071,190.03381 903.27026,193.76947 897.32983,198.33038 891.85675,204.1568 887.11444,211.67712 883.37256,221.29462 880.86694,233.23956 879.63306,247.17725 879.69257,262.6394 880.93933,279.26373 883.17749,296.77844 886.15814,314.97925 889.58978,333.71558 893.15125,352.86859 896.46491,372.32196 899.02423,391.89947 901.00617,410.99072 902.25641,429.10577 902.27966,445.86005 900.47089,460.83014 896.23871,473.59729 889.64929,484.26971 878.64941,491.04144 865.69519,495.51477 851.0564,497.35382 835.57672,496.72003 820.06317,493.76184 805.29096,488.61615 792.0152,481.41327 780.50665,472.58838 772.76825,461.37781 767.15363,448.96954 763.74786,435.35217 "
       fill="#5cd9fe"
       stroke="none"
       fill-opacity="1"
       id="L-click"
       transform="translate(22.420735,7.2828144)"
       style="display:none;fill:url(#linearGradient29);stroke:#ff5050;stroke-width:1;stroke-dasharray:6, 6;stroke-dashoffset:0;stroke-opacity:1" />
  </g>
</svg>
